G04 #@! TF.GenerationSoftware,KiCad,Pcbnew,5.1.7-a382d34a8~88~ubuntu18.04.1*
G04 #@! TF.CreationDate,2021-05-20T00:29:44+02:00*
G04 #@! TF.ProjectId,Emersense_V1,456d6572-7365-46e7-9365-5f56312e6b69,rev?*
G04 #@! TF.SameCoordinates,Original*
G04 #@! TF.FileFunction,Copper,L3,Inr*
G04 #@! TF.FilePolarity,Positive*
%FSLAX46Y46*%
G04 Gerber Fmt 4.6, Leading zero omitted, Abs format (unit mm)*
G04 Created by KiCad (PCBNEW 5.1.7-a382d34a8~88~ubuntu18.04.1) date 2021-05-20 00:29:44*
%MOMM*%
%LPD*%
G01*
G04 APERTURE LIST*
G04 #@! TA.AperFunction,ComponentPad*
%ADD10C,0.100000*%
G04 #@! TD*
G04 #@! TA.AperFunction,ViaPad*
%ADD11C,0.450000*%
G04 #@! TD*
G04 #@! TA.AperFunction,ViaPad*
%ADD12C,0.800000*%
G04 #@! TD*
G04 #@! TA.AperFunction,Conductor*
%ADD13C,0.278000*%
G04 #@! TD*
G04 #@! TA.AperFunction,Conductor*
%ADD14C,0.100000*%
G04 #@! TD*
G04 APERTURE END LIST*
G04 #@! TA.AperFunction,ComponentPad*
D10*
G36*
X143126864Y-75886712D02*
G01*
X142553288Y-76705864D01*
X141734136Y-76132288D01*
X142307712Y-75313136D01*
X143126864Y-75886712D01*
G37*
G04 #@! TD.AperFunction*
G04 #@! TA.AperFunction,ComponentPad*
G36*
G01*
X121162158Y-113896670D02*
X120773930Y-115345558D01*
G75*
G02*
X119855372Y-115875888I-724444J194114D01*
G01*
X119855372Y-115875888D01*
G75*
G02*
X119325042Y-114957330I194114J724444D01*
G01*
X119713270Y-113508442D01*
G75*
G02*
X120631828Y-112978112I724444J-194114D01*
G01*
X120631828Y-112978112D01*
G75*
G02*
X121162158Y-113896670I-194114J-724444D01*
G01*
G37*
G04 #@! TD.AperFunction*
G04 #@! TA.AperFunction,ComponentPad*
G36*
G01*
X128255920Y-115784289D02*
X127867692Y-117233177D01*
G75*
G02*
X126949134Y-117763507I-724444J194114D01*
G01*
X126949134Y-117763507D01*
G75*
G02*
X126418804Y-116844949I194114J724444D01*
G01*
X126807032Y-115396061D01*
G75*
G02*
X127725590Y-114865731I724444J-194114D01*
G01*
X127725590Y-114865731D01*
G75*
G02*
X128255920Y-115784289I-194114J-724444D01*
G01*
G37*
G04 #@! TD.AperFunction*
D11*
X115531900Y-85051900D03*
X112903000Y-99568000D03*
X113538000Y-99695000D03*
X113347500Y-100330000D03*
X112712500Y-103124000D03*
X134239000Y-87312500D03*
X135191500Y-86931500D03*
X120015000Y-94805500D03*
X120904000Y-94869000D03*
X122110500Y-95059500D03*
X123253500Y-95377000D03*
X123571000Y-94170500D03*
X122555000Y-94043500D03*
X121412000Y-93726000D03*
X120142000Y-93853000D03*
X120332500Y-92710000D03*
X121285000Y-92837000D03*
X122428000Y-93154500D03*
X123571000Y-93345000D03*
X123888500Y-92202000D03*
X122872500Y-92011500D03*
X121475500Y-91821000D03*
X120396000Y-91694000D03*
X116014500Y-112268000D03*
X113792000Y-112014000D03*
X113347500Y-111696500D03*
X113792000Y-111315500D03*
X114236500Y-110871000D03*
X114490500Y-110172500D03*
X115760500Y-110236000D03*
X115633500Y-111125000D03*
X116141500Y-111569500D03*
X116713000Y-111569500D03*
X151739600Y-91363800D03*
X150850600Y-92659200D03*
X152844500Y-93980000D03*
X152717500Y-96075500D03*
X152590500Y-97282000D03*
X151612600Y-92913200D03*
X115570000Y-84137500D03*
X116332000Y-83058000D03*
X115570000Y-82359500D03*
X115189000Y-82804000D03*
X112712500Y-100203000D03*
X116141500Y-82296000D03*
X115824000Y-81724500D03*
X138430000Y-103441500D03*
X137223500Y-103124000D03*
X137795000Y-103124000D03*
X142748000Y-111823500D03*
X142113000Y-110744000D03*
X142176500Y-112712500D03*
X142240000Y-115633500D03*
X142875000Y-115316000D03*
X143510000Y-114998500D03*
X142240000Y-114173000D03*
X140779500Y-114236500D03*
X143192500Y-112839500D03*
X142938500Y-113792000D03*
X141605000Y-114490500D03*
X140843000Y-113474500D03*
X141224000Y-110363000D03*
X141478000Y-113093500D03*
X141541500Y-111633000D03*
X142240000Y-111379000D03*
X141414500Y-115443000D03*
X139509500Y-116522500D03*
X139065000Y-115951000D03*
X141033500Y-114808000D03*
X128714500Y-116420900D03*
X130733800Y-115455700D03*
X129908300Y-114173000D03*
X129438400Y-113779300D03*
X129133600Y-118491000D03*
X127927100Y-113982500D03*
X128295400Y-117208300D03*
X129349500Y-117297200D03*
X129578100Y-116687600D03*
X127508000Y-118541800D03*
X130289300Y-114693700D03*
X127508000Y-114490500D03*
X138747500Y-109118400D03*
X138023600Y-109029500D03*
X139166600Y-112306100D03*
X138544300Y-112433100D03*
X137083800Y-110248700D03*
X139077700Y-109766100D03*
X139382500Y-110401100D03*
X139674600Y-112077500D03*
X137731500Y-111518700D03*
X137452100Y-110896400D03*
X137998200Y-112026700D03*
X139712700Y-110972600D03*
X137363200Y-109359700D03*
X115570000Y-83616800D03*
X115138200Y-86258400D03*
X115646200Y-86918800D03*
X115671600Y-86385400D03*
X115087400Y-86741000D03*
X115722400Y-83083400D03*
X116230400Y-83616800D03*
X132918200Y-78638400D03*
X132715000Y-77470000D03*
X132207000Y-77139800D03*
X132359400Y-78206600D03*
X134010400Y-75666600D03*
X133400800Y-75971400D03*
X111950500Y-102997000D03*
X118186200Y-101142800D03*
X119964200Y-101244400D03*
X126174500Y-81407000D03*
X126174500Y-82105500D03*
X129946400Y-85852000D03*
X123393200Y-87884000D03*
X131114800Y-86055200D03*
X129006600Y-101803200D03*
X134112000Y-88341200D03*
X130149600Y-90119200D03*
X133248400Y-88036400D03*
X120599200Y-108254800D03*
X121666000Y-108407200D03*
X122072400Y-109778800D03*
X120294400Y-110693200D03*
X120142000Y-109220000D03*
X121564400Y-110947200D03*
X122224800Y-109169200D03*
X120853200Y-110947200D03*
X121970800Y-110439200D03*
X129235200Y-89712800D03*
X127863600Y-88696800D03*
X139141200Y-84328000D03*
X126593600Y-88493600D03*
X135229600Y-88544400D03*
X131064000Y-90932000D03*
X131216400Y-90170000D03*
X149809200Y-103174800D03*
X148742400Y-104241600D03*
X149860000Y-91033600D03*
X148742400Y-90068400D03*
X148691600Y-91897200D03*
X137261600Y-85598000D03*
X137477500Y-86296500D03*
X138366500Y-86360000D03*
X137312400Y-84886800D03*
X142595600Y-85191600D03*
X143002000Y-84277200D03*
X141579600Y-85242400D03*
X140462000Y-80111600D03*
X141046200Y-80518000D03*
X143052800Y-83718400D03*
X139700000Y-80060800D03*
X130403600Y-77571600D03*
X131013200Y-78435200D03*
X126746000Y-79959200D03*
X126644400Y-78943200D03*
X136271000Y-79451200D03*
X136169400Y-80492600D03*
X132029200Y-79756000D03*
X130505200Y-84328000D03*
X131114800Y-82397600D03*
X131368800Y-81330800D03*
X136144000Y-79933800D03*
X132334000Y-79146400D03*
X129336800Y-76962000D03*
X126847600Y-78079600D03*
X131368800Y-84378800D03*
X129133600Y-81381600D03*
X140262352Y-73965155D03*
X137061467Y-75265077D03*
X136174589Y-75036705D03*
X137317357Y-74401288D03*
X136402961Y-74149826D03*
X134734202Y-74601788D03*
X134820871Y-74135259D03*
X138951315Y-74717281D03*
X139074999Y-73508100D03*
X139635148Y-73790555D03*
X139185377Y-74186863D03*
X131168311Y-76392590D03*
X130340100Y-74879200D03*
X129781300Y-74764900D03*
X129616200Y-74256900D03*
X122911027Y-75334660D03*
X116789200Y-80467200D03*
X116535200Y-79959200D03*
X118957970Y-79403074D03*
X118927930Y-78768276D03*
X119660775Y-78984628D03*
X123959556Y-73330649D03*
X124492188Y-73590014D03*
X124336250Y-74139095D03*
X124901779Y-74191605D03*
X117526484Y-74989842D03*
X117061217Y-75209027D03*
X116865122Y-74716242D03*
X117328176Y-74471754D03*
X117792181Y-73946716D03*
X127685800Y-72072500D03*
X127355600Y-71208900D03*
X126923800Y-71831200D03*
X140157200Y-91287600D03*
X140157200Y-91948000D03*
X140258800Y-88493600D03*
X140157200Y-96215200D03*
X140157200Y-93370400D03*
X123126500Y-111569500D03*
X134937500Y-97409000D03*
X133985000Y-96329500D03*
X135636000Y-97218500D03*
X135636000Y-96647000D03*
X150164800Y-92862400D03*
X144843500Y-101917500D03*
X145415000Y-102108000D03*
X145415000Y-102679500D03*
X145288000Y-103251000D03*
X144589500Y-103378000D03*
X144843500Y-102679500D03*
X118872000Y-113347500D03*
X118364000Y-113347500D03*
X117792500Y-113347500D03*
X117284500Y-114109500D03*
X117284500Y-114681000D03*
X117856000Y-115125500D03*
X118618000Y-115125500D03*
X118554500Y-115887500D03*
X117221000Y-115697000D03*
X117157500Y-81216500D03*
X117348000Y-81788000D03*
X119253000Y-80391000D03*
X118681500Y-80581500D03*
X120523000Y-81470500D03*
X120904000Y-80962500D03*
X139446000Y-80581500D03*
X142303500Y-83248500D03*
X128168400Y-110083600D03*
X128016000Y-110591600D03*
X128778000Y-110185200D03*
X130619500Y-110617000D03*
X131381500Y-110807500D03*
X130937000Y-111125000D03*
X131572000Y-111379000D03*
X131013200Y-81762600D03*
X137566400Y-83058000D03*
X137236200Y-83794600D03*
X136956800Y-83134200D03*
X126466600Y-115150900D03*
X126034800Y-116052600D03*
X124688600Y-116547900D03*
X119735600Y-116789200D03*
X123710700Y-118414800D03*
X125539500Y-118618000D03*
X115824000Y-75399900D03*
X113284000Y-77635100D03*
X113665000Y-78486000D03*
X115697000Y-80264000D03*
X113398300Y-96672400D03*
X113868200Y-94272100D03*
X114350800Y-91782900D03*
X114693700Y-89839800D03*
X114808000Y-88595200D03*
X111099600Y-103720900D03*
X110820200Y-105295700D03*
X131482235Y-116926570D03*
X132150247Y-116941101D03*
X132710897Y-116918530D03*
X133281493Y-116971505D03*
X133974689Y-116982720D03*
X134674513Y-117044302D03*
X134359694Y-116598985D03*
X130924300Y-117919500D03*
X131343400Y-118300500D03*
X130947227Y-118700681D03*
X131080476Y-119323618D03*
X131961553Y-119399766D03*
X131497296Y-118986931D03*
X132346559Y-119016028D03*
X132824396Y-119337408D03*
X133427440Y-119053062D03*
X134070269Y-119070910D03*
X136017000Y-117284500D03*
X136359900Y-117856000D03*
X136410700Y-118376700D03*
X134670800Y-119037100D03*
X131368800Y-117614700D03*
X131076700Y-117195600D03*
X149453600Y-96977200D03*
X110591600Y-108686600D03*
X114681000Y-108077000D03*
X111709200Y-112115600D03*
X117233700Y-107784900D03*
X111201200Y-107467400D03*
X112318800Y-105359200D03*
X117957600Y-86969600D03*
X124282200Y-113665000D03*
X135945199Y-76534599D03*
X136296391Y-72348861D03*
X133321948Y-74825748D03*
X121686373Y-72994089D03*
X126020483Y-75904020D03*
X125596015Y-76298115D03*
X125057051Y-76549244D03*
X139379921Y-81915130D03*
D12*
X134556500Y-99936300D03*
X134213600Y-100812600D03*
X134023100Y-101714300D03*
X135229600Y-100723700D03*
X134975600Y-101561900D03*
X134785100Y-102438200D03*
X135686800Y-102158800D03*
X135953500Y-101320600D03*
X136131300Y-100266500D03*
X135407400Y-99796600D03*
D11*
X140017500Y-112903000D03*
X119380000Y-83820000D03*
X119951500Y-83883500D03*
X120523000Y-84010500D03*
X121031000Y-84074000D03*
X121602500Y-84137500D03*
X122174000Y-84201000D03*
X122745500Y-84264500D03*
X123126500Y-84645500D03*
X118808500Y-83820000D03*
D12*
X132588000Y-108394500D03*
X133540500Y-108458000D03*
X134493000Y-108521500D03*
X135382000Y-108585000D03*
X136271000Y-108775500D03*
X135636000Y-109410500D03*
X134810500Y-109347000D03*
X133921500Y-109283500D03*
X133032500Y-109220000D03*
X132207000Y-109156500D03*
X132588000Y-109982000D03*
X133477000Y-110045500D03*
X134366000Y-110109000D03*
X135191500Y-110172500D03*
X133921500Y-110807500D03*
X132969000Y-110744000D03*
D11*
X119380000Y-106108500D03*
X118935500Y-106362500D03*
X118554500Y-106680000D03*
X119062500Y-106997500D03*
X119507000Y-106616500D03*
X119824500Y-106997500D03*
X120332500Y-106934000D03*
X120015000Y-106426000D03*
X119888000Y-105981500D03*
X120459500Y-106108500D03*
X120650000Y-106553000D03*
X120967500Y-106934000D03*
X118237000Y-111252000D03*
X118059200Y-109880400D03*
X152079000Y-94954400D03*
X139191871Y-83117194D03*
X122885200Y-77050900D03*
X116636800Y-76606400D03*
X124486234Y-83389034D03*
X137287000Y-77597000D03*
X117297200Y-76809600D03*
X125313831Y-82794231D03*
X136880600Y-77012800D03*
X121305244Y-100131956D03*
X122357715Y-100908285D03*
X110744000Y-111099600D03*
X123221618Y-75970410D03*
X148793200Y-93370400D03*
X131572000Y-103073200D03*
X148793200Y-94437200D03*
X131368800Y-103784400D03*
X149961600Y-95554800D03*
X130422705Y-103853231D03*
X134645400Y-84099400D03*
X134721600Y-82753200D03*
X130251200Y-79248000D03*
X128117600Y-89509600D03*
X139242800Y-83718400D03*
X137588702Y-107115863D03*
X123596400Y-102298500D03*
X128066800Y-101727000D03*
X132734270Y-101098130D03*
D12*
X125933200Y-113334800D03*
D11*
X115942767Y-107878267D03*
X116916200Y-100850700D03*
X143738600Y-110832900D03*
X121627900Y-101879400D03*
X124434600Y-102412800D03*
X144272000Y-78917800D03*
X114935000Y-78320900D03*
X118770400Y-104444800D03*
X149047200Y-86360000D03*
X130276600Y-91516200D03*
X145516600Y-81661000D03*
X148386800Y-98653600D03*
X129743200Y-92202000D03*
X145846800Y-82410300D03*
X116840000Y-98450400D03*
X121920000Y-115836700D03*
D13*
X131135783Y-71101794D02*
X133084604Y-71338424D01*
X135008065Y-71731102D01*
X135946527Y-72002931D01*
X135914229Y-72035229D01*
X135860386Y-72115811D01*
X135823298Y-72205350D01*
X135804391Y-72300403D01*
X135804391Y-72397319D01*
X135823298Y-72492372D01*
X135860386Y-72581911D01*
X135914229Y-72662493D01*
X135982759Y-72731023D01*
X136063341Y-72784866D01*
X136152880Y-72821954D01*
X136247933Y-72840861D01*
X136344849Y-72840861D01*
X136439902Y-72821954D01*
X136529441Y-72784866D01*
X136610023Y-72731023D01*
X136678553Y-72662493D01*
X136732396Y-72581911D01*
X136769484Y-72492372D01*
X136788391Y-72397319D01*
X136788391Y-72300403D01*
X136777073Y-72243501D01*
X136893691Y-72277280D01*
X138729254Y-72973417D01*
X140039204Y-73594996D01*
X140179938Y-73667969D01*
X142302877Y-74865524D01*
X143818602Y-75911753D01*
X145169780Y-77014956D01*
X146050968Y-77896144D01*
X147318748Y-79290702D01*
X147320825Y-79292936D01*
X148362689Y-80389634D01*
X148644368Y-80764482D01*
X149461408Y-82126215D01*
X149464261Y-82130768D01*
X150538108Y-83773122D01*
X151610130Y-86106346D01*
X152177769Y-87809263D01*
X152936302Y-90716975D01*
X153188347Y-92733337D01*
X153251657Y-94949170D01*
X153251664Y-94949410D01*
X153314658Y-97028203D01*
X152873625Y-99107357D01*
X152872216Y-99115064D01*
X152367708Y-102394363D01*
X150790819Y-105421991D01*
X150787894Y-105427951D01*
X149271529Y-108713409D01*
X146179307Y-112436697D01*
X144029396Y-114270444D01*
X144017742Y-114281617D01*
X143204401Y-115157523D01*
X141828520Y-116033083D01*
X139552784Y-117170951D01*
X137019489Y-118247602D01*
X136895880Y-118293955D01*
X136883793Y-118233189D01*
X136846705Y-118143650D01*
X136801384Y-118075822D01*
X136832993Y-117999511D01*
X136851900Y-117904458D01*
X136851900Y-117807542D01*
X136832993Y-117712489D01*
X136795905Y-117622950D01*
X136742062Y-117542368D01*
X136673532Y-117473838D01*
X136592950Y-117419995D01*
X136503411Y-117382907D01*
X136499230Y-117382075D01*
X136509000Y-117332958D01*
X136509000Y-117236042D01*
X136490093Y-117140989D01*
X136453005Y-117051450D01*
X136399162Y-116970868D01*
X136330632Y-116902338D01*
X136250050Y-116848495D01*
X136160511Y-116811407D01*
X136065458Y-116792500D01*
X135968542Y-116792500D01*
X135873489Y-116811407D01*
X135783950Y-116848495D01*
X135703368Y-116902338D01*
X135634838Y-116970868D01*
X135580995Y-117051450D01*
X135543907Y-117140989D01*
X135525000Y-117236042D01*
X135525000Y-117332958D01*
X135543907Y-117428011D01*
X135580995Y-117517550D01*
X135634838Y-117598132D01*
X135703368Y-117666662D01*
X135783950Y-117720505D01*
X135873489Y-117757593D01*
X135877670Y-117758425D01*
X135867900Y-117807542D01*
X135867900Y-117904458D01*
X135886807Y-117999511D01*
X135923895Y-118089050D01*
X135969216Y-118156878D01*
X135937607Y-118233189D01*
X135918700Y-118328242D01*
X135918700Y-118425158D01*
X135937607Y-118520211D01*
X135974695Y-118609750D01*
X135990537Y-118633459D01*
X135154511Y-118946969D01*
X135143893Y-118893589D01*
X135106805Y-118804050D01*
X135052962Y-118723468D01*
X134984432Y-118654938D01*
X134903850Y-118601095D01*
X134814311Y-118564007D01*
X134719258Y-118545100D01*
X134622342Y-118545100D01*
X134527289Y-118564007D01*
X134437750Y-118601095D01*
X134357168Y-118654938D01*
X134347608Y-118664498D01*
X134303319Y-118634905D01*
X134213780Y-118597817D01*
X134118727Y-118578910D01*
X134021811Y-118578910D01*
X133926758Y-118597817D01*
X133837219Y-118634905D01*
X133758006Y-118687834D01*
X133741072Y-118670900D01*
X133660490Y-118617057D01*
X133570951Y-118579969D01*
X133475898Y-118561062D01*
X133378982Y-118561062D01*
X133283929Y-118579969D01*
X133194390Y-118617057D01*
X133113808Y-118670900D01*
X133045278Y-118739430D01*
X132991435Y-118820012D01*
X132972326Y-118866145D01*
X132967907Y-118864315D01*
X132872854Y-118845408D01*
X132808423Y-118845408D01*
X132782564Y-118782978D01*
X132728721Y-118702396D01*
X132660191Y-118633866D01*
X132579609Y-118580023D01*
X132490070Y-118542935D01*
X132395017Y-118524028D01*
X132298101Y-118524028D01*
X132203048Y-118542935D01*
X132113509Y-118580023D01*
X132032927Y-118633866D01*
X131964397Y-118702396D01*
X131931648Y-118751408D01*
X131879458Y-118673299D01*
X131810928Y-118604769D01*
X131756236Y-118568225D01*
X131779405Y-118533550D01*
X131816493Y-118444011D01*
X131835400Y-118348958D01*
X131835400Y-118252042D01*
X131816493Y-118156989D01*
X131779405Y-118067450D01*
X131725562Y-117986868D01*
X131708994Y-117970300D01*
X131750962Y-117928332D01*
X131804805Y-117847750D01*
X131841893Y-117758211D01*
X131860800Y-117663158D01*
X131860800Y-117566242D01*
X131841893Y-117471189D01*
X131804805Y-117381650D01*
X131768363Y-117327110D01*
X131795867Y-117308732D01*
X131808976Y-117295624D01*
X131836615Y-117323263D01*
X131917197Y-117377106D01*
X132006736Y-117414194D01*
X132101789Y-117433101D01*
X132198705Y-117433101D01*
X132293758Y-117414194D01*
X132383297Y-117377106D01*
X132447462Y-117334232D01*
X132477847Y-117354535D01*
X132567386Y-117391623D01*
X132662439Y-117410530D01*
X132759355Y-117410530D01*
X132854408Y-117391623D01*
X132943947Y-117354535D01*
X132958803Y-117344609D01*
X132967861Y-117353667D01*
X133048443Y-117407510D01*
X133137982Y-117444598D01*
X133233035Y-117463505D01*
X133329951Y-117463505D01*
X133425004Y-117444598D01*
X133514543Y-117407510D01*
X133595125Y-117353667D01*
X133622484Y-117326309D01*
X133661057Y-117364882D01*
X133741639Y-117418725D01*
X133831178Y-117455813D01*
X133926231Y-117474720D01*
X134023147Y-117474720D01*
X134118200Y-117455813D01*
X134207739Y-117418725D01*
X134288321Y-117364882D01*
X134293810Y-117359393D01*
X134360881Y-117426464D01*
X134441463Y-117480307D01*
X134531002Y-117517395D01*
X134626055Y-117536302D01*
X134722971Y-117536302D01*
X134818024Y-117517395D01*
X134907563Y-117480307D01*
X134988145Y-117426464D01*
X135056675Y-117357934D01*
X135110518Y-117277352D01*
X135147606Y-117187813D01*
X135166513Y-117092760D01*
X135166513Y-116995844D01*
X135147606Y-116900791D01*
X135110518Y-116811252D01*
X135056675Y-116730670D01*
X134988145Y-116662140D01*
X134907563Y-116608297D01*
X134851694Y-116585155D01*
X134851694Y-116550527D01*
X134832787Y-116455474D01*
X134795699Y-116365935D01*
X134741856Y-116285353D01*
X134673326Y-116216823D01*
X134592744Y-116162980D01*
X134503205Y-116125892D01*
X134408152Y-116106985D01*
X134311236Y-116106985D01*
X134216183Y-116125892D01*
X134126644Y-116162980D01*
X134046062Y-116216823D01*
X133977532Y-116285353D01*
X133923689Y-116365935D01*
X133886601Y-116455474D01*
X133877669Y-116500380D01*
X133831178Y-116509627D01*
X133741639Y-116546715D01*
X133661057Y-116600558D01*
X133633699Y-116627917D01*
X133595125Y-116589343D01*
X133514543Y-116535500D01*
X133425004Y-116498412D01*
X133329951Y-116479505D01*
X133233035Y-116479505D01*
X133137982Y-116498412D01*
X133048443Y-116535500D01*
X133033587Y-116545426D01*
X133024529Y-116536368D01*
X132943947Y-116482525D01*
X132854408Y-116445437D01*
X132759355Y-116426530D01*
X132662439Y-116426530D01*
X132567386Y-116445437D01*
X132477847Y-116482525D01*
X132413682Y-116525399D01*
X132383297Y-116505096D01*
X132293758Y-116468008D01*
X132198705Y-116449101D01*
X132101789Y-116449101D01*
X132006736Y-116468008D01*
X131917197Y-116505096D01*
X131836615Y-116558939D01*
X131823507Y-116572048D01*
X131795867Y-116544408D01*
X131715285Y-116490565D01*
X131625746Y-116453477D01*
X131530693Y-116434570D01*
X131433777Y-116434570D01*
X131338724Y-116453477D01*
X131249185Y-116490565D01*
X131168603Y-116544408D01*
X131100073Y-116612938D01*
X131046230Y-116693520D01*
X131042055Y-116703600D01*
X131028242Y-116703600D01*
X130933189Y-116722507D01*
X130843650Y-116759595D01*
X130763068Y-116813438D01*
X130694538Y-116881968D01*
X130640695Y-116962550D01*
X130603607Y-117052089D01*
X130584700Y-117147142D01*
X130584700Y-117244058D01*
X130603607Y-117339111D01*
X130640695Y-117428650D01*
X130681634Y-117489920D01*
X130610668Y-117537338D01*
X130542138Y-117605868D01*
X130488295Y-117686450D01*
X130451207Y-117775989D01*
X130432300Y-117871042D01*
X130432300Y-117967958D01*
X130451207Y-118063011D01*
X130488295Y-118152550D01*
X130542138Y-118233132D01*
X130610668Y-118301662D01*
X130634746Y-118317750D01*
X130633595Y-118318519D01*
X130565065Y-118387049D01*
X130511222Y-118467631D01*
X130474134Y-118557170D01*
X130455227Y-118652223D01*
X130455227Y-118749139D01*
X130474134Y-118844192D01*
X130511222Y-118933731D01*
X130565065Y-119014313D01*
X130633595Y-119082843D01*
X130644683Y-119090251D01*
X130644471Y-119090568D01*
X130607383Y-119180107D01*
X130588476Y-119275160D01*
X130588476Y-119372076D01*
X130607383Y-119467129D01*
X130644471Y-119556668D01*
X130698314Y-119637250D01*
X130743771Y-119682707D01*
X130648893Y-119697832D01*
X126865771Y-119571728D01*
X121683688Y-118371002D01*
X116756201Y-116286296D01*
X116065718Y-115788242D01*
X121428000Y-115788242D01*
X121428000Y-115885158D01*
X121446907Y-115980211D01*
X121483995Y-116069750D01*
X121537838Y-116150332D01*
X121606368Y-116218862D01*
X121686950Y-116272705D01*
X121776489Y-116309793D01*
X121871542Y-116328700D01*
X121968458Y-116328700D01*
X122063511Y-116309793D01*
X122153050Y-116272705D01*
X122233632Y-116218862D01*
X122302162Y-116150332D01*
X122356005Y-116069750D01*
X122393093Y-115980211D01*
X122412000Y-115885158D01*
X122412000Y-115788242D01*
X122393093Y-115693189D01*
X122356005Y-115603650D01*
X122302162Y-115523068D01*
X122233632Y-115454538D01*
X122153050Y-115400695D01*
X122063511Y-115363607D01*
X121968458Y-115344700D01*
X121871542Y-115344700D01*
X121776489Y-115363607D01*
X121686950Y-115400695D01*
X121606368Y-115454538D01*
X121537838Y-115523068D01*
X121483995Y-115603650D01*
X121446907Y-115693189D01*
X121428000Y-115788242D01*
X116065718Y-115788242D01*
X113054952Y-113616542D01*
X123790200Y-113616542D01*
X123790200Y-113713458D01*
X123809107Y-113808511D01*
X123846195Y-113898050D01*
X123900038Y-113978632D01*
X123968568Y-114047162D01*
X124049150Y-114101005D01*
X124138689Y-114138093D01*
X124233742Y-114157000D01*
X124330658Y-114157000D01*
X124425711Y-114138093D01*
X124515250Y-114101005D01*
X124595832Y-114047162D01*
X124664362Y-113978632D01*
X124718205Y-113898050D01*
X124755293Y-113808511D01*
X124774200Y-113713458D01*
X124774200Y-113616542D01*
X124755293Y-113521489D01*
X124718205Y-113431950D01*
X124664362Y-113351368D01*
X124595832Y-113282838D01*
X124575281Y-113269106D01*
X125266200Y-113269106D01*
X125266200Y-113400494D01*
X125291833Y-113529357D01*
X125342113Y-113650743D01*
X125415108Y-113759988D01*
X125508012Y-113852892D01*
X125617257Y-113925887D01*
X125738643Y-113976167D01*
X125867506Y-114001800D01*
X125998894Y-114001800D01*
X126127757Y-113976167D01*
X126249143Y-113925887D01*
X126358388Y-113852892D01*
X126451292Y-113759988D01*
X126524287Y-113650743D01*
X126574567Y-113529357D01*
X126600200Y-113400494D01*
X126600200Y-113269106D01*
X126574567Y-113140243D01*
X126524287Y-113018857D01*
X126451292Y-112909612D01*
X126396222Y-112854542D01*
X139525500Y-112854542D01*
X139525500Y-112951458D01*
X139544407Y-113046511D01*
X139581495Y-113136050D01*
X139635338Y-113216632D01*
X139703868Y-113285162D01*
X139784450Y-113339005D01*
X139873989Y-113376093D01*
X139969042Y-113395000D01*
X140065958Y-113395000D01*
X140161011Y-113376093D01*
X140250550Y-113339005D01*
X140331132Y-113285162D01*
X140399662Y-113216632D01*
X140453505Y-113136050D01*
X140490593Y-113046511D01*
X140509500Y-112951458D01*
X140509500Y-112854542D01*
X140490593Y-112759489D01*
X140453505Y-112669950D01*
X140399662Y-112589368D01*
X140331132Y-112520838D01*
X140250550Y-112466995D01*
X140161011Y-112429907D01*
X140065958Y-112411000D01*
X139969042Y-112411000D01*
X139873989Y-112429907D01*
X139784450Y-112466995D01*
X139703868Y-112520838D01*
X139635338Y-112589368D01*
X139581495Y-112669950D01*
X139544407Y-112759489D01*
X139525500Y-112854542D01*
X126396222Y-112854542D01*
X126358388Y-112816708D01*
X126249143Y-112743713D01*
X126127757Y-112693433D01*
X125998894Y-112667800D01*
X125867506Y-112667800D01*
X125738643Y-112693433D01*
X125617257Y-112743713D01*
X125508012Y-112816708D01*
X125415108Y-112909612D01*
X125342113Y-113018857D01*
X125291833Y-113140243D01*
X125266200Y-113269106D01*
X124575281Y-113269106D01*
X124515250Y-113228995D01*
X124425711Y-113191907D01*
X124330658Y-113173000D01*
X124233742Y-113173000D01*
X124138689Y-113191907D01*
X124049150Y-113228995D01*
X123968568Y-113282838D01*
X123900038Y-113351368D01*
X123846195Y-113431950D01*
X123809107Y-113521489D01*
X123790200Y-113616542D01*
X113054952Y-113616542D01*
X112904483Y-113508007D01*
X111945745Y-112549269D01*
X112022832Y-112497762D01*
X112091362Y-112429232D01*
X112145205Y-112348650D01*
X112182293Y-112259111D01*
X112201200Y-112164058D01*
X112201200Y-112067142D01*
X112182293Y-111972089D01*
X112145205Y-111882550D01*
X112091362Y-111801968D01*
X112022832Y-111733438D01*
X111942250Y-111679595D01*
X111852711Y-111642507D01*
X111757658Y-111623600D01*
X111660742Y-111623600D01*
X111565689Y-111642507D01*
X111476150Y-111679595D01*
X111395568Y-111733438D01*
X111327038Y-111801968D01*
X111275531Y-111879055D01*
X110945252Y-111548776D01*
X110977050Y-111535605D01*
X111057632Y-111481762D01*
X111126162Y-111413232D01*
X111180005Y-111332650D01*
X111217093Y-111243111D01*
X111224963Y-111203542D01*
X117745000Y-111203542D01*
X117745000Y-111300458D01*
X117763907Y-111395511D01*
X117800995Y-111485050D01*
X117854838Y-111565632D01*
X117923368Y-111634162D01*
X118003950Y-111688005D01*
X118093489Y-111725093D01*
X118188542Y-111744000D01*
X118285458Y-111744000D01*
X118380511Y-111725093D01*
X118470050Y-111688005D01*
X118550632Y-111634162D01*
X118619162Y-111565632D01*
X118673005Y-111485050D01*
X118710093Y-111395511D01*
X118729000Y-111300458D01*
X118729000Y-111203542D01*
X118710093Y-111108489D01*
X118673005Y-111018950D01*
X118619162Y-110938368D01*
X118550632Y-110869838D01*
X118470050Y-110815995D01*
X118380511Y-110778907D01*
X118285458Y-110760000D01*
X118188542Y-110760000D01*
X118093489Y-110778907D01*
X118003950Y-110815995D01*
X117923368Y-110869838D01*
X117854838Y-110938368D01*
X117800995Y-111018950D01*
X117763907Y-111108489D01*
X117745000Y-111203542D01*
X111224963Y-111203542D01*
X111236000Y-111148058D01*
X111236000Y-111051142D01*
X111217093Y-110956089D01*
X111180005Y-110866550D01*
X111126162Y-110785968D01*
X111057632Y-110717438D01*
X110977050Y-110663595D01*
X110887511Y-110626507D01*
X110792458Y-110607600D01*
X110695542Y-110607600D01*
X110600489Y-110626507D01*
X110510950Y-110663595D01*
X110430368Y-110717438D01*
X110361838Y-110785968D01*
X110319943Y-110848668D01*
X110121877Y-110591183D01*
X109551345Y-109831942D01*
X117567200Y-109831942D01*
X117567200Y-109928858D01*
X117586107Y-110023911D01*
X117623195Y-110113450D01*
X117677038Y-110194032D01*
X117745568Y-110262562D01*
X117826150Y-110316405D01*
X117915689Y-110353493D01*
X118010742Y-110372400D01*
X118107658Y-110372400D01*
X118202711Y-110353493D01*
X118292250Y-110316405D01*
X118372832Y-110262562D01*
X118441362Y-110194032D01*
X118495205Y-110113450D01*
X118532293Y-110023911D01*
X118551200Y-109928858D01*
X118551200Y-109831942D01*
X118532293Y-109736889D01*
X118495205Y-109647350D01*
X118441362Y-109566768D01*
X118372832Y-109498238D01*
X118292250Y-109444395D01*
X118202711Y-109407307D01*
X118107658Y-109388400D01*
X118010742Y-109388400D01*
X117915689Y-109407307D01*
X117826150Y-109444395D01*
X117745568Y-109498238D01*
X117677038Y-109566768D01*
X117623195Y-109647350D01*
X117586107Y-109736889D01*
X117567200Y-109831942D01*
X109551345Y-109831942D01*
X109112269Y-109247639D01*
X108726847Y-108638142D01*
X110099600Y-108638142D01*
X110099600Y-108735058D01*
X110118507Y-108830111D01*
X110155595Y-108919650D01*
X110209438Y-109000232D01*
X110277968Y-109068762D01*
X110358550Y-109122605D01*
X110448089Y-109159693D01*
X110543142Y-109178600D01*
X110640058Y-109178600D01*
X110735111Y-109159693D01*
X110824650Y-109122605D01*
X110872240Y-109090806D01*
X131540000Y-109090806D01*
X131540000Y-109222194D01*
X131565633Y-109351057D01*
X131615913Y-109472443D01*
X131688908Y-109581688D01*
X131781812Y-109674592D01*
X131891057Y-109747587D01*
X131952585Y-109773073D01*
X131946633Y-109787443D01*
X131921000Y-109916306D01*
X131921000Y-110047694D01*
X131946633Y-110176557D01*
X131996913Y-110297943D01*
X132069908Y-110407188D01*
X132162812Y-110500092D01*
X132272057Y-110573087D01*
X132319057Y-110592555D01*
X132302000Y-110678306D01*
X132302000Y-110809694D01*
X132327633Y-110938557D01*
X132377913Y-111059943D01*
X132450908Y-111169188D01*
X132543812Y-111262092D01*
X132653057Y-111335087D01*
X132774443Y-111385367D01*
X132903306Y-111411000D01*
X133034694Y-111411000D01*
X133163557Y-111385367D01*
X133284943Y-111335087D01*
X133394188Y-111262092D01*
X133413500Y-111242780D01*
X133496312Y-111325592D01*
X133605557Y-111398587D01*
X133726943Y-111448867D01*
X133855806Y-111474500D01*
X133987194Y-111474500D01*
X134116057Y-111448867D01*
X134237443Y-111398587D01*
X134346688Y-111325592D01*
X134439592Y-111232688D01*
X134512587Y-111123443D01*
X134562867Y-111002057D01*
X134588500Y-110873194D01*
X134588500Y-110741806D01*
X134587946Y-110739022D01*
X134681943Y-110700087D01*
X134738210Y-110662490D01*
X134766312Y-110690592D01*
X134875557Y-110763587D01*
X134996943Y-110813867D01*
X135125806Y-110839500D01*
X135257194Y-110839500D01*
X135386057Y-110813867D01*
X135457094Y-110784442D01*
X143246600Y-110784442D01*
X143246600Y-110881358D01*
X143265507Y-110976411D01*
X143302595Y-111065950D01*
X143356438Y-111146532D01*
X143424968Y-111215062D01*
X143505550Y-111268905D01*
X143595089Y-111305993D01*
X143690142Y-111324900D01*
X143787058Y-111324900D01*
X143882111Y-111305993D01*
X143971650Y-111268905D01*
X144052232Y-111215062D01*
X144120762Y-111146532D01*
X144174605Y-111065950D01*
X144211693Y-110976411D01*
X144230600Y-110881358D01*
X144230600Y-110784442D01*
X144211693Y-110689389D01*
X144174605Y-110599850D01*
X144120762Y-110519268D01*
X144052232Y-110450738D01*
X143971650Y-110396895D01*
X143882111Y-110359807D01*
X143787058Y-110340900D01*
X143690142Y-110340900D01*
X143595089Y-110359807D01*
X143505550Y-110396895D01*
X143424968Y-110450738D01*
X143356438Y-110519268D01*
X143302595Y-110599850D01*
X143265507Y-110689389D01*
X143246600Y-110784442D01*
X135457094Y-110784442D01*
X135507443Y-110763587D01*
X135616688Y-110690592D01*
X135709592Y-110597688D01*
X135782587Y-110488443D01*
X135832867Y-110367057D01*
X135858500Y-110238194D01*
X135858500Y-110106806D01*
X135846277Y-110045356D01*
X135951943Y-110001587D01*
X136061188Y-109928592D01*
X136154092Y-109835688D01*
X136227087Y-109726443D01*
X136277367Y-109605057D01*
X136303000Y-109476194D01*
X136303000Y-109442500D01*
X136336694Y-109442500D01*
X136465557Y-109416867D01*
X136586943Y-109366587D01*
X136696188Y-109293592D01*
X136789092Y-109200688D01*
X136862087Y-109091443D01*
X136912367Y-108970057D01*
X136938000Y-108841194D01*
X136938000Y-108709806D01*
X136912367Y-108580943D01*
X136862087Y-108459557D01*
X136789092Y-108350312D01*
X136696188Y-108257408D01*
X136586943Y-108184413D01*
X136465557Y-108134133D01*
X136336694Y-108108500D01*
X136205306Y-108108500D01*
X136076443Y-108134133D01*
X135955057Y-108184413D01*
X135928422Y-108202210D01*
X135900092Y-108159812D01*
X135817937Y-108077657D01*
X147061000Y-108077657D01*
X147061000Y-108228743D01*
X147090476Y-108376926D01*
X147148294Y-108516511D01*
X147232232Y-108642134D01*
X147339066Y-108748968D01*
X147464689Y-108832906D01*
X147604274Y-108890724D01*
X147752457Y-108920200D01*
X147903543Y-108920200D01*
X148051726Y-108890724D01*
X148191311Y-108832906D01*
X148316934Y-108748968D01*
X148423768Y-108642134D01*
X148507706Y-108516511D01*
X148565524Y-108376926D01*
X148595000Y-108228743D01*
X148595000Y-108077657D01*
X148565524Y-107929474D01*
X148507706Y-107789889D01*
X148423768Y-107664266D01*
X148316934Y-107557432D01*
X148191311Y-107473494D01*
X148051726Y-107415676D01*
X147903543Y-107386200D01*
X147752457Y-107386200D01*
X147604274Y-107415676D01*
X147464689Y-107473494D01*
X147339066Y-107557432D01*
X147232232Y-107664266D01*
X147148294Y-107789889D01*
X147090476Y-107929474D01*
X147061000Y-108077657D01*
X135817937Y-108077657D01*
X135807188Y-108066908D01*
X135697943Y-107993913D01*
X135576557Y-107943633D01*
X135447694Y-107918000D01*
X135316306Y-107918000D01*
X135187443Y-107943633D01*
X135066057Y-107993913D01*
X134971724Y-108056944D01*
X134918188Y-108003408D01*
X134808943Y-107930413D01*
X134687557Y-107880133D01*
X134558694Y-107854500D01*
X134427306Y-107854500D01*
X134298443Y-107880133D01*
X134177057Y-107930413D01*
X134067812Y-108003408D01*
X134048500Y-108022720D01*
X133965688Y-107939908D01*
X133856443Y-107866913D01*
X133735057Y-107816633D01*
X133606194Y-107791000D01*
X133474806Y-107791000D01*
X133345943Y-107816633D01*
X133224557Y-107866913D01*
X133115312Y-107939908D01*
X133096000Y-107959220D01*
X133013188Y-107876408D01*
X132903943Y-107803413D01*
X132782557Y-107753133D01*
X132653694Y-107727500D01*
X132522306Y-107727500D01*
X132393443Y-107753133D01*
X132272057Y-107803413D01*
X132162812Y-107876408D01*
X132069908Y-107969312D01*
X131996913Y-108078557D01*
X131946633Y-108199943D01*
X131921000Y-108328806D01*
X131921000Y-108460194D01*
X131938057Y-108545945D01*
X131891057Y-108565413D01*
X131781812Y-108638408D01*
X131688908Y-108731312D01*
X131615913Y-108840557D01*
X131565633Y-108961943D01*
X131540000Y-109090806D01*
X110872240Y-109090806D01*
X110905232Y-109068762D01*
X110973762Y-109000232D01*
X111027605Y-108919650D01*
X111064693Y-108830111D01*
X111083600Y-108735058D01*
X111083600Y-108638142D01*
X111064693Y-108543089D01*
X111027605Y-108453550D01*
X110973762Y-108372968D01*
X110905232Y-108304438D01*
X110824650Y-108250595D01*
X110735111Y-108213507D01*
X110640058Y-108194600D01*
X110543142Y-108194600D01*
X110448089Y-108213507D01*
X110358550Y-108250595D01*
X110277968Y-108304438D01*
X110209438Y-108372968D01*
X110155595Y-108453550D01*
X110118507Y-108543089D01*
X110099600Y-108638142D01*
X108726847Y-108638142D01*
X108341360Y-108028542D01*
X114189000Y-108028542D01*
X114189000Y-108125458D01*
X114207907Y-108220511D01*
X114244995Y-108310050D01*
X114298838Y-108390632D01*
X114367368Y-108459162D01*
X114447950Y-108513005D01*
X114537489Y-108550093D01*
X114632542Y-108569000D01*
X114729458Y-108569000D01*
X114824511Y-108550093D01*
X114914050Y-108513005D01*
X114994632Y-108459162D01*
X115063162Y-108390632D01*
X115117005Y-108310050D01*
X115154093Y-108220511D01*
X115173000Y-108125458D01*
X115173000Y-108028542D01*
X115154093Y-107933489D01*
X115117005Y-107843950D01*
X115107557Y-107829809D01*
X115450767Y-107829809D01*
X115450767Y-107926725D01*
X115469674Y-108021778D01*
X115506762Y-108111317D01*
X115560605Y-108191899D01*
X115629135Y-108260429D01*
X115709717Y-108314272D01*
X115799256Y-108351360D01*
X115894309Y-108370267D01*
X115991225Y-108370267D01*
X116086278Y-108351360D01*
X116175817Y-108314272D01*
X116256399Y-108260429D01*
X116324929Y-108191899D01*
X116378772Y-108111317D01*
X116415860Y-108021778D01*
X116434767Y-107926725D01*
X116434767Y-107829809D01*
X116416196Y-107736442D01*
X116741700Y-107736442D01*
X116741700Y-107833358D01*
X116760607Y-107928411D01*
X116797695Y-108017950D01*
X116851538Y-108098532D01*
X116920068Y-108167062D01*
X117000650Y-108220905D01*
X117090189Y-108257993D01*
X117185242Y-108276900D01*
X117282158Y-108276900D01*
X117377211Y-108257993D01*
X117466750Y-108220905D01*
X117547332Y-108167062D01*
X117615862Y-108098532D01*
X117669705Y-108017950D01*
X117706793Y-107928411D01*
X117725700Y-107833358D01*
X117725700Y-107736442D01*
X117706793Y-107641389D01*
X117669705Y-107551850D01*
X117615862Y-107471268D01*
X117547332Y-107402738D01*
X117466750Y-107348895D01*
X117377211Y-107311807D01*
X117282158Y-107292900D01*
X117185242Y-107292900D01*
X117090189Y-107311807D01*
X117000650Y-107348895D01*
X116920068Y-107402738D01*
X116851538Y-107471268D01*
X116797695Y-107551850D01*
X116760607Y-107641389D01*
X116741700Y-107736442D01*
X116416196Y-107736442D01*
X116415860Y-107734756D01*
X116378772Y-107645217D01*
X116324929Y-107564635D01*
X116256399Y-107496105D01*
X116175817Y-107442262D01*
X116086278Y-107405174D01*
X115991225Y-107386267D01*
X115894309Y-107386267D01*
X115799256Y-107405174D01*
X115709717Y-107442262D01*
X115629135Y-107496105D01*
X115560605Y-107564635D01*
X115506762Y-107645217D01*
X115469674Y-107734756D01*
X115450767Y-107829809D01*
X115107557Y-107829809D01*
X115063162Y-107763368D01*
X114994632Y-107694838D01*
X114914050Y-107640995D01*
X114824511Y-107603907D01*
X114729458Y-107585000D01*
X114632542Y-107585000D01*
X114537489Y-107603907D01*
X114447950Y-107640995D01*
X114367368Y-107694838D01*
X114298838Y-107763368D01*
X114244995Y-107843950D01*
X114207907Y-107933489D01*
X114189000Y-108028542D01*
X108341360Y-108028542D01*
X108063041Y-107588416D01*
X107974095Y-107418942D01*
X110709200Y-107418942D01*
X110709200Y-107515858D01*
X110728107Y-107610911D01*
X110765195Y-107700450D01*
X110819038Y-107781032D01*
X110887568Y-107849562D01*
X110968150Y-107903405D01*
X111057689Y-107940493D01*
X111152742Y-107959400D01*
X111249658Y-107959400D01*
X111344711Y-107940493D01*
X111434250Y-107903405D01*
X111514832Y-107849562D01*
X111583362Y-107781032D01*
X111637205Y-107700450D01*
X111674293Y-107610911D01*
X111693200Y-107515858D01*
X111693200Y-107418942D01*
X111674293Y-107323889D01*
X111637205Y-107234350D01*
X111583362Y-107153768D01*
X111514832Y-107085238D01*
X111434250Y-107031395D01*
X111344711Y-106994307D01*
X111249658Y-106975400D01*
X111152742Y-106975400D01*
X111057689Y-106994307D01*
X110968150Y-107031395D01*
X110887568Y-107085238D01*
X110819038Y-107153768D01*
X110765195Y-107234350D01*
X110728107Y-107323889D01*
X110709200Y-107418942D01*
X107974095Y-107418942D01*
X107632449Y-106767992D01*
X110213149Y-107198109D01*
X110239693Y-107199951D01*
X110266730Y-107196561D01*
X110292586Y-107187961D01*
X110316268Y-107174482D01*
X110336864Y-107156642D01*
X110353585Y-107135126D01*
X110365787Y-107110762D01*
X110373001Y-107084486D01*
X110450648Y-106631542D01*
X118062500Y-106631542D01*
X118062500Y-106728458D01*
X118081407Y-106823511D01*
X118118495Y-106913050D01*
X118172338Y-106993632D01*
X118240868Y-107062162D01*
X118321450Y-107116005D01*
X118410989Y-107153093D01*
X118506042Y-107172000D01*
X118602243Y-107172000D01*
X118626495Y-107230550D01*
X118680338Y-107311132D01*
X118748868Y-107379662D01*
X118829450Y-107433505D01*
X118918989Y-107470593D01*
X119014042Y-107489500D01*
X119110958Y-107489500D01*
X119206011Y-107470593D01*
X119295550Y-107433505D01*
X119376132Y-107379662D01*
X119443500Y-107312294D01*
X119510868Y-107379662D01*
X119591450Y-107433505D01*
X119680989Y-107470593D01*
X119776042Y-107489500D01*
X119872958Y-107489500D01*
X119968011Y-107470593D01*
X120057550Y-107433505D01*
X120132251Y-107383592D01*
X120188989Y-107407093D01*
X120284042Y-107426000D01*
X120380958Y-107426000D01*
X120476011Y-107407093D01*
X120565550Y-107370005D01*
X120646132Y-107316162D01*
X120650000Y-107312294D01*
X120653868Y-107316162D01*
X120734450Y-107370005D01*
X120823989Y-107407093D01*
X120919042Y-107426000D01*
X121015958Y-107426000D01*
X121111011Y-107407093D01*
X121200550Y-107370005D01*
X121281132Y-107316162D01*
X121349662Y-107247632D01*
X121403505Y-107167050D01*
X121440593Y-107077511D01*
X121442603Y-107067405D01*
X137096702Y-107067405D01*
X137096702Y-107164321D01*
X137115609Y-107259374D01*
X137152697Y-107348913D01*
X137206540Y-107429495D01*
X137275070Y-107498025D01*
X137355652Y-107551868D01*
X137445191Y-107588956D01*
X137540244Y-107607863D01*
X137637160Y-107607863D01*
X137732213Y-107588956D01*
X137821752Y-107551868D01*
X137902334Y-107498025D01*
X137970864Y-107429495D01*
X138024707Y-107348913D01*
X138061795Y-107259374D01*
X138080702Y-107164321D01*
X138080702Y-107067405D01*
X138061795Y-106972352D01*
X138024707Y-106882813D01*
X137970864Y-106802231D01*
X137902334Y-106733701D01*
X137821752Y-106679858D01*
X137732213Y-106642770D01*
X137637160Y-106623863D01*
X137540244Y-106623863D01*
X137445191Y-106642770D01*
X137355652Y-106679858D01*
X137275070Y-106733701D01*
X137206540Y-106802231D01*
X137152697Y-106882813D01*
X137115609Y-106972352D01*
X137096702Y-107067405D01*
X121442603Y-107067405D01*
X121459500Y-106982458D01*
X121459500Y-106885542D01*
X121440593Y-106790489D01*
X121403505Y-106700950D01*
X121349662Y-106620368D01*
X121281132Y-106551838D01*
X121200550Y-106497995D01*
X121135324Y-106470978D01*
X121123093Y-106409489D01*
X121086005Y-106319950D01*
X121032162Y-106239368D01*
X120963632Y-106170838D01*
X120950486Y-106162054D01*
X120951500Y-106156958D01*
X120951500Y-106060042D01*
X120932593Y-105964989D01*
X120895505Y-105875450D01*
X120841662Y-105794868D01*
X120773132Y-105726338D01*
X120692550Y-105672495D01*
X120603011Y-105635407D01*
X120507958Y-105616500D01*
X120411042Y-105616500D01*
X120315989Y-105635407D01*
X120260631Y-105658337D01*
X120201632Y-105599338D01*
X120121050Y-105545495D01*
X120031511Y-105508407D01*
X119936458Y-105489500D01*
X119839542Y-105489500D01*
X119744489Y-105508407D01*
X119654950Y-105545495D01*
X119574368Y-105599338D01*
X119533968Y-105639738D01*
X119523511Y-105635407D01*
X119428458Y-105616500D01*
X119331542Y-105616500D01*
X119236489Y-105635407D01*
X119146950Y-105672495D01*
X119066368Y-105726338D01*
X118997838Y-105794868D01*
X118947302Y-105870500D01*
X118887042Y-105870500D01*
X118791989Y-105889407D01*
X118702450Y-105926495D01*
X118621868Y-105980338D01*
X118553338Y-106048868D01*
X118499495Y-106129450D01*
X118472478Y-106194676D01*
X118410989Y-106206907D01*
X118321450Y-106243995D01*
X118240868Y-106297838D01*
X118172338Y-106366368D01*
X118118495Y-106446950D01*
X118081407Y-106536489D01*
X118062500Y-106631542D01*
X110450648Y-106631542D01*
X110677071Y-105310742D01*
X111826800Y-105310742D01*
X111826800Y-105407658D01*
X111845707Y-105502711D01*
X111882795Y-105592250D01*
X111936638Y-105672832D01*
X112005168Y-105741362D01*
X112085750Y-105795205D01*
X112175289Y-105832293D01*
X112270342Y-105851200D01*
X112367258Y-105851200D01*
X112462311Y-105832293D01*
X112551850Y-105795205D01*
X112632432Y-105741362D01*
X112700962Y-105672832D01*
X112754805Y-105592250D01*
X112791893Y-105502711D01*
X112810800Y-105407658D01*
X112810800Y-105310742D01*
X112791893Y-105215689D01*
X112754805Y-105126150D01*
X112700962Y-105045568D01*
X112632432Y-104977038D01*
X112551850Y-104923195D01*
X112462311Y-104886107D01*
X112367258Y-104867200D01*
X112270342Y-104867200D01*
X112175289Y-104886107D01*
X112085750Y-104923195D01*
X112005168Y-104977038D01*
X111936638Y-105045568D01*
X111882795Y-105126150D01*
X111845707Y-105215689D01*
X111826800Y-105310742D01*
X110677071Y-105310742D01*
X110833825Y-104396342D01*
X118278400Y-104396342D01*
X118278400Y-104493258D01*
X118297307Y-104588311D01*
X118334395Y-104677850D01*
X118388238Y-104758432D01*
X118456768Y-104826962D01*
X118537350Y-104880805D01*
X118626889Y-104917893D01*
X118721942Y-104936800D01*
X118818858Y-104936800D01*
X118913911Y-104917893D01*
X119003450Y-104880805D01*
X119084032Y-104826962D01*
X119152562Y-104758432D01*
X119206405Y-104677850D01*
X119243493Y-104588311D01*
X119262400Y-104493258D01*
X119262400Y-104396342D01*
X119243493Y-104301289D01*
X119206405Y-104211750D01*
X119152562Y-104131168D01*
X119084032Y-104062638D01*
X119003450Y-104008795D01*
X118913911Y-103971707D01*
X118818858Y-103952800D01*
X118721942Y-103952800D01*
X118626889Y-103971707D01*
X118537350Y-104008795D01*
X118456768Y-104062638D01*
X118388238Y-104131168D01*
X118334395Y-104211750D01*
X118297307Y-104301289D01*
X118278400Y-104396342D01*
X110833825Y-104396342D01*
X110935237Y-103804773D01*
X129930705Y-103804773D01*
X129930705Y-103901689D01*
X129949612Y-103996742D01*
X129986700Y-104086281D01*
X130040543Y-104166863D01*
X130109073Y-104235393D01*
X130189655Y-104289236D01*
X130279194Y-104326324D01*
X130374247Y-104345231D01*
X130471163Y-104345231D01*
X130566216Y-104326324D01*
X130655755Y-104289236D01*
X130736337Y-104235393D01*
X130804867Y-104166863D01*
X130858710Y-104086281D01*
X130895798Y-103996742D01*
X130905018Y-103950390D01*
X130932795Y-104017450D01*
X130986638Y-104098032D01*
X131055168Y-104166562D01*
X131135750Y-104220405D01*
X131225289Y-104257493D01*
X131320342Y-104276400D01*
X131417258Y-104276400D01*
X131512311Y-104257493D01*
X131601850Y-104220405D01*
X131682432Y-104166562D01*
X131750962Y-104098032D01*
X131804805Y-104017450D01*
X131841893Y-103927911D01*
X131860800Y-103832858D01*
X131860800Y-103735942D01*
X131841893Y-103640889D01*
X131804805Y-103551350D01*
X131782802Y-103518420D01*
X131805050Y-103509205D01*
X131885632Y-103455362D01*
X131954162Y-103386832D01*
X132008005Y-103306250D01*
X132045093Y-103216711D01*
X132064000Y-103121658D01*
X132064000Y-103024742D01*
X132045093Y-102929689D01*
X132008005Y-102840150D01*
X131954162Y-102759568D01*
X131885632Y-102691038D01*
X131805050Y-102637195D01*
X131715511Y-102600107D01*
X131620458Y-102581200D01*
X131523542Y-102581200D01*
X131428489Y-102600107D01*
X131338950Y-102637195D01*
X131258368Y-102691038D01*
X131189838Y-102759568D01*
X131135995Y-102840150D01*
X131098907Y-102929689D01*
X131080000Y-103024742D01*
X131080000Y-103121658D01*
X131098907Y-103216711D01*
X131135995Y-103306250D01*
X131157998Y-103339180D01*
X131135750Y-103348395D01*
X131055168Y-103402238D01*
X130986638Y-103470768D01*
X130932795Y-103551350D01*
X130895707Y-103640889D01*
X130886487Y-103687241D01*
X130858710Y-103620181D01*
X130804867Y-103539599D01*
X130736337Y-103471069D01*
X130655755Y-103417226D01*
X130566216Y-103380138D01*
X130471163Y-103361231D01*
X130374247Y-103361231D01*
X130279194Y-103380138D01*
X130189655Y-103417226D01*
X130109073Y-103471069D01*
X130040543Y-103539599D01*
X129986700Y-103620181D01*
X129949612Y-103709720D01*
X129930705Y-103804773D01*
X110935237Y-103804773D01*
X111111624Y-102775855D01*
X111737149Y-102880109D01*
X111762698Y-102881974D01*
X111789759Y-102878777D01*
X111815676Y-102870363D01*
X111839453Y-102857054D01*
X111860177Y-102839362D01*
X111877051Y-102817966D01*
X111889428Y-102793690D01*
X111896830Y-102767466D01*
X112064287Y-101830942D01*
X121135900Y-101830942D01*
X121135900Y-101927858D01*
X121154807Y-102022911D01*
X121191895Y-102112450D01*
X121245738Y-102193032D01*
X121314268Y-102261562D01*
X121394850Y-102315405D01*
X121484389Y-102352493D01*
X121579442Y-102371400D01*
X121676358Y-102371400D01*
X121771411Y-102352493D01*
X121860950Y-102315405D01*
X121941532Y-102261562D01*
X121953052Y-102250042D01*
X123104400Y-102250042D01*
X123104400Y-102346958D01*
X123123307Y-102442011D01*
X123160395Y-102531550D01*
X123214238Y-102612132D01*
X123282768Y-102680662D01*
X123363350Y-102734505D01*
X123452889Y-102771593D01*
X123547942Y-102790500D01*
X123644858Y-102790500D01*
X123739911Y-102771593D01*
X123829450Y-102734505D01*
X123910032Y-102680662D01*
X123978562Y-102612132D01*
X123982307Y-102606527D01*
X123998595Y-102645850D01*
X124052438Y-102726432D01*
X124120968Y-102794962D01*
X124201550Y-102848805D01*
X124291089Y-102885893D01*
X124386142Y-102904800D01*
X124483058Y-102904800D01*
X124578111Y-102885893D01*
X124667650Y-102848805D01*
X124748232Y-102794962D01*
X124816762Y-102726432D01*
X124870605Y-102645850D01*
X124907693Y-102556311D01*
X124926600Y-102461258D01*
X124926600Y-102364342D01*
X124907693Y-102269289D01*
X124870605Y-102179750D01*
X124816762Y-102099168D01*
X124748232Y-102030638D01*
X124667650Y-101976795D01*
X124578111Y-101939707D01*
X124483058Y-101920800D01*
X124386142Y-101920800D01*
X124291089Y-101939707D01*
X124201550Y-101976795D01*
X124120968Y-102030638D01*
X124052438Y-102099168D01*
X124048693Y-102104773D01*
X124032405Y-102065450D01*
X123978562Y-101984868D01*
X123910032Y-101916338D01*
X123829450Y-101862495D01*
X123739911Y-101825407D01*
X123644858Y-101806500D01*
X123547942Y-101806500D01*
X123452889Y-101825407D01*
X123363350Y-101862495D01*
X123282768Y-101916338D01*
X123214238Y-101984868D01*
X123160395Y-102065450D01*
X123123307Y-102154989D01*
X123104400Y-102250042D01*
X121953052Y-102250042D01*
X122010062Y-102193032D01*
X122063905Y-102112450D01*
X122100993Y-102022911D01*
X122119900Y-101927858D01*
X122119900Y-101830942D01*
X122100993Y-101735889D01*
X122077240Y-101678542D01*
X127574800Y-101678542D01*
X127574800Y-101775458D01*
X127593707Y-101870511D01*
X127630795Y-101960050D01*
X127684638Y-102040632D01*
X127753168Y-102109162D01*
X127833750Y-102163005D01*
X127923289Y-102200093D01*
X128018342Y-102219000D01*
X128115258Y-102219000D01*
X128210311Y-102200093D01*
X128299850Y-102163005D01*
X128380432Y-102109162D01*
X128448962Y-102040632D01*
X128502805Y-101960050D01*
X128539893Y-101870511D01*
X128558800Y-101775458D01*
X128558800Y-101678542D01*
X128552846Y-101648606D01*
X133356100Y-101648606D01*
X133356100Y-101779994D01*
X133381733Y-101908857D01*
X133432013Y-102030243D01*
X133505008Y-102139488D01*
X133597912Y-102232392D01*
X133707157Y-102305387D01*
X133828543Y-102355667D01*
X133957406Y-102381300D01*
X134088794Y-102381300D01*
X134118100Y-102375471D01*
X134118100Y-102503894D01*
X134143733Y-102632757D01*
X134194013Y-102754143D01*
X134267008Y-102863388D01*
X134359912Y-102956292D01*
X134469157Y-103029287D01*
X134590543Y-103079567D01*
X134719406Y-103105200D01*
X134850794Y-103105200D01*
X134979657Y-103079567D01*
X135101043Y-103029287D01*
X135210288Y-102956292D01*
X135303192Y-102863388D01*
X135376187Y-102754143D01*
X135376911Y-102752395D01*
X135492243Y-102800167D01*
X135621106Y-102825800D01*
X135752494Y-102825800D01*
X135881357Y-102800167D01*
X136002743Y-102749887D01*
X136111988Y-102676892D01*
X136204892Y-102583988D01*
X136277887Y-102474743D01*
X136328167Y-102353357D01*
X136353800Y-102224494D01*
X136353800Y-102093106D01*
X136328167Y-101964243D01*
X136298387Y-101892347D01*
X136378688Y-101838692D01*
X136471592Y-101745788D01*
X136544587Y-101636543D01*
X136594867Y-101515157D01*
X136620500Y-101386294D01*
X136620500Y-101254906D01*
X136594867Y-101126043D01*
X136544587Y-101004657D01*
X136471592Y-100895412D01*
X136437714Y-100861534D01*
X136447243Y-100857587D01*
X136556488Y-100784592D01*
X136649392Y-100691688D01*
X136722387Y-100582443D01*
X136772667Y-100461057D01*
X136798300Y-100332194D01*
X136798300Y-100200806D01*
X136772667Y-100071943D01*
X136722387Y-99950557D01*
X136649392Y-99841312D01*
X136556488Y-99748408D01*
X136447243Y-99675413D01*
X136325857Y-99625133D01*
X136196994Y-99599500D01*
X136065606Y-99599500D01*
X136048921Y-99602819D01*
X136048767Y-99602043D01*
X135998487Y-99480657D01*
X135925492Y-99371412D01*
X135832588Y-99278508D01*
X135723343Y-99205513D01*
X135601957Y-99155233D01*
X135473094Y-99129600D01*
X135341706Y-99129600D01*
X135212843Y-99155233D01*
X135091457Y-99205513D01*
X134982212Y-99278508D01*
X134898258Y-99362462D01*
X134872443Y-99345213D01*
X134751057Y-99294933D01*
X134622194Y-99269300D01*
X134490806Y-99269300D01*
X134361943Y-99294933D01*
X134240557Y-99345213D01*
X134131312Y-99418208D01*
X134038408Y-99511112D01*
X133965413Y-99620357D01*
X133915133Y-99741743D01*
X133889500Y-99870606D01*
X133889500Y-100001994D01*
X133915133Y-100130857D01*
X133944626Y-100202058D01*
X133897657Y-100221513D01*
X133788412Y-100294508D01*
X133695508Y-100387412D01*
X133622513Y-100496657D01*
X133572233Y-100618043D01*
X133546600Y-100746906D01*
X133546600Y-100878294D01*
X133572233Y-101007157D01*
X133622513Y-101128543D01*
X133646177Y-101163959D01*
X133597912Y-101196208D01*
X133505008Y-101289112D01*
X133432013Y-101398357D01*
X133381733Y-101519743D01*
X133356100Y-101648606D01*
X128552846Y-101648606D01*
X128539893Y-101583489D01*
X128502805Y-101493950D01*
X128448962Y-101413368D01*
X128380432Y-101344838D01*
X128299850Y-101290995D01*
X128210311Y-101253907D01*
X128115258Y-101235000D01*
X128018342Y-101235000D01*
X127923289Y-101253907D01*
X127833750Y-101290995D01*
X127753168Y-101344838D01*
X127684638Y-101413368D01*
X127630795Y-101493950D01*
X127593707Y-101583489D01*
X127574800Y-101678542D01*
X122077240Y-101678542D01*
X122063905Y-101646350D01*
X122010062Y-101565768D01*
X121941532Y-101497238D01*
X121860950Y-101443395D01*
X121771411Y-101406307D01*
X121676358Y-101387400D01*
X121579442Y-101387400D01*
X121484389Y-101406307D01*
X121394850Y-101443395D01*
X121314268Y-101497238D01*
X121245738Y-101565768D01*
X121191895Y-101646350D01*
X121154807Y-101735889D01*
X121135900Y-101830942D01*
X112064287Y-101830942D01*
X112248227Y-100802242D01*
X116424200Y-100802242D01*
X116424200Y-100899158D01*
X116443107Y-100994211D01*
X116480195Y-101083750D01*
X116534038Y-101164332D01*
X116602568Y-101232862D01*
X116683150Y-101286705D01*
X116772689Y-101323793D01*
X116867742Y-101342700D01*
X116964658Y-101342700D01*
X117059711Y-101323793D01*
X117149250Y-101286705D01*
X117229832Y-101232862D01*
X117298362Y-101164332D01*
X117352205Y-101083750D01*
X117389293Y-100994211D01*
X117408200Y-100899158D01*
X117408200Y-100859827D01*
X121865715Y-100859827D01*
X121865715Y-100956743D01*
X121884622Y-101051796D01*
X121921710Y-101141335D01*
X121975553Y-101221917D01*
X122044083Y-101290447D01*
X122124665Y-101344290D01*
X122214204Y-101381378D01*
X122309257Y-101400285D01*
X122406173Y-101400285D01*
X122501226Y-101381378D01*
X122590765Y-101344290D01*
X122671347Y-101290447D01*
X122739877Y-101221917D01*
X122793720Y-101141335D01*
X122830808Y-101051796D01*
X122831230Y-101049672D01*
X132242270Y-101049672D01*
X132242270Y-101146588D01*
X132261177Y-101241641D01*
X132298265Y-101331180D01*
X132352108Y-101411762D01*
X132420638Y-101480292D01*
X132501220Y-101534135D01*
X132590759Y-101571223D01*
X132685812Y-101590130D01*
X132782728Y-101590130D01*
X132877781Y-101571223D01*
X132967320Y-101534135D01*
X133047902Y-101480292D01*
X133116432Y-101411762D01*
X133170275Y-101331180D01*
X133207363Y-101241641D01*
X133226270Y-101146588D01*
X133226270Y-101049672D01*
X133207363Y-100954619D01*
X133170275Y-100865080D01*
X133116432Y-100784498D01*
X133047902Y-100715968D01*
X132967320Y-100662125D01*
X132877781Y-100625037D01*
X132782728Y-100606130D01*
X132685812Y-100606130D01*
X132590759Y-100625037D01*
X132501220Y-100662125D01*
X132420638Y-100715968D01*
X132352108Y-100784498D01*
X132298265Y-100865080D01*
X132261177Y-100954619D01*
X132242270Y-101049672D01*
X122831230Y-101049672D01*
X122849715Y-100956743D01*
X122849715Y-100859827D01*
X122830808Y-100764774D01*
X122793720Y-100675235D01*
X122739877Y-100594653D01*
X122671347Y-100526123D01*
X122590765Y-100472280D01*
X122501226Y-100435192D01*
X122406173Y-100416285D01*
X122309257Y-100416285D01*
X122214204Y-100435192D01*
X122124665Y-100472280D01*
X122044083Y-100526123D01*
X121975553Y-100594653D01*
X121921710Y-100675235D01*
X121884622Y-100764774D01*
X121865715Y-100859827D01*
X117408200Y-100859827D01*
X117408200Y-100802242D01*
X117389293Y-100707189D01*
X117352205Y-100617650D01*
X117298362Y-100537068D01*
X117229832Y-100468538D01*
X117149250Y-100414695D01*
X117059711Y-100377607D01*
X116964658Y-100358700D01*
X116867742Y-100358700D01*
X116772689Y-100377607D01*
X116683150Y-100414695D01*
X116602568Y-100468538D01*
X116534038Y-100537068D01*
X116480195Y-100617650D01*
X116443107Y-100707189D01*
X116424200Y-100802242D01*
X112248227Y-100802242D01*
X112376744Y-100083498D01*
X120813244Y-100083498D01*
X120813244Y-100180414D01*
X120832151Y-100275467D01*
X120869239Y-100365006D01*
X120923082Y-100445588D01*
X120991612Y-100514118D01*
X121072194Y-100567961D01*
X121161733Y-100605049D01*
X121256786Y-100623956D01*
X121353702Y-100623956D01*
X121448755Y-100605049D01*
X121538294Y-100567961D01*
X121618876Y-100514118D01*
X121687406Y-100445588D01*
X121741249Y-100365006D01*
X121778337Y-100275467D01*
X121797244Y-100180414D01*
X121797244Y-100083498D01*
X121778337Y-99988445D01*
X121741249Y-99898906D01*
X121687406Y-99818324D01*
X121618876Y-99749794D01*
X121538294Y-99695951D01*
X121448755Y-99658863D01*
X121353702Y-99639956D01*
X121256786Y-99639956D01*
X121161733Y-99658863D01*
X121072194Y-99695951D01*
X120991612Y-99749794D01*
X120923082Y-99818324D01*
X120869239Y-99898906D01*
X120832151Y-99988445D01*
X120813244Y-100083498D01*
X112376744Y-100083498D01*
X112677420Y-98401942D01*
X116348000Y-98401942D01*
X116348000Y-98498858D01*
X116366907Y-98593911D01*
X116403995Y-98683450D01*
X116457838Y-98764032D01*
X116526368Y-98832562D01*
X116606950Y-98886405D01*
X116696489Y-98923493D01*
X116791542Y-98942400D01*
X116888458Y-98942400D01*
X116983511Y-98923493D01*
X117073050Y-98886405D01*
X117153632Y-98832562D01*
X117222162Y-98764032D01*
X117276005Y-98683450D01*
X117313093Y-98593911D01*
X117332000Y-98498858D01*
X117332000Y-98401942D01*
X117313093Y-98306889D01*
X117276005Y-98217350D01*
X117222162Y-98136768D01*
X117153632Y-98068238D01*
X117073050Y-98014395D01*
X116983511Y-97977307D01*
X116888458Y-97958400D01*
X116791542Y-97958400D01*
X116696489Y-97977307D01*
X116606950Y-98014395D01*
X116526368Y-98068238D01*
X116457838Y-98136768D01*
X116403995Y-98217350D01*
X116366907Y-98306889D01*
X116348000Y-98401942D01*
X112677420Y-98401942D01*
X113794682Y-92153542D01*
X129251200Y-92153542D01*
X129251200Y-92250458D01*
X129270107Y-92345511D01*
X129307195Y-92435050D01*
X129361038Y-92515632D01*
X129429568Y-92584162D01*
X129510150Y-92638005D01*
X129599689Y-92675093D01*
X129694742Y-92694000D01*
X129791658Y-92694000D01*
X129886711Y-92675093D01*
X129976250Y-92638005D01*
X130056832Y-92584162D01*
X130125362Y-92515632D01*
X130179205Y-92435050D01*
X130216293Y-92345511D01*
X130235200Y-92250458D01*
X130235200Y-92153542D01*
X130216293Y-92058489D01*
X130192529Y-92001116D01*
X130228142Y-92008200D01*
X130325058Y-92008200D01*
X130420111Y-91989293D01*
X130509650Y-91952205D01*
X130590232Y-91898362D01*
X130658762Y-91829832D01*
X130712605Y-91749250D01*
X130749693Y-91659711D01*
X130768600Y-91564658D01*
X130768600Y-91467742D01*
X130749693Y-91372689D01*
X130712605Y-91283150D01*
X130658762Y-91202568D01*
X130590232Y-91134038D01*
X130509650Y-91080195D01*
X130420111Y-91043107D01*
X130325058Y-91024200D01*
X130228142Y-91024200D01*
X130133089Y-91043107D01*
X130043550Y-91080195D01*
X129962968Y-91134038D01*
X129894438Y-91202568D01*
X129840595Y-91283150D01*
X129803507Y-91372689D01*
X129784600Y-91467742D01*
X129784600Y-91564658D01*
X129803507Y-91659711D01*
X129827271Y-91717084D01*
X129791658Y-91710000D01*
X129694742Y-91710000D01*
X129599689Y-91728907D01*
X129510150Y-91765995D01*
X129429568Y-91819838D01*
X129361038Y-91888368D01*
X129307195Y-91968950D01*
X129270107Y-92058489D01*
X129251200Y-92153542D01*
X113794682Y-92153542D01*
X114276105Y-89461142D01*
X127625600Y-89461142D01*
X127625600Y-89558058D01*
X127644507Y-89653111D01*
X127681595Y-89742650D01*
X127735438Y-89823232D01*
X127803968Y-89891762D01*
X127884550Y-89945605D01*
X127974089Y-89982693D01*
X128069142Y-90001600D01*
X128166058Y-90001600D01*
X128261111Y-89982693D01*
X128350650Y-89945605D01*
X128431232Y-89891762D01*
X128499762Y-89823232D01*
X128553605Y-89742650D01*
X128590693Y-89653111D01*
X128609600Y-89558058D01*
X128609600Y-89461142D01*
X128590693Y-89366089D01*
X128553605Y-89276550D01*
X128499762Y-89195968D01*
X128431232Y-89127438D01*
X128350650Y-89073595D01*
X128261111Y-89036507D01*
X128166058Y-89017600D01*
X128069142Y-89017600D01*
X127974089Y-89036507D01*
X127884550Y-89073595D01*
X127803968Y-89127438D01*
X127735438Y-89195968D01*
X127681595Y-89276550D01*
X127644507Y-89366089D01*
X127625600Y-89461142D01*
X114276105Y-89461142D01*
X114730278Y-86921142D01*
X117465600Y-86921142D01*
X117465600Y-87018058D01*
X117484507Y-87113111D01*
X117521595Y-87202650D01*
X117575438Y-87283232D01*
X117643968Y-87351762D01*
X117724550Y-87405605D01*
X117814089Y-87442693D01*
X117909142Y-87461600D01*
X118006058Y-87461600D01*
X118101111Y-87442693D01*
X118190650Y-87405605D01*
X118271232Y-87351762D01*
X118339762Y-87283232D01*
X118393605Y-87202650D01*
X118430693Y-87113111D01*
X118449600Y-87018058D01*
X118449600Y-86921142D01*
X118430693Y-86826089D01*
X118393605Y-86736550D01*
X118339762Y-86655968D01*
X118271232Y-86587438D01*
X118190650Y-86533595D01*
X118101111Y-86496507D01*
X118006058Y-86477600D01*
X117909142Y-86477600D01*
X117814089Y-86496507D01*
X117724550Y-86533595D01*
X117643968Y-86587438D01*
X117575438Y-86655968D01*
X117521595Y-86736550D01*
X117484507Y-86826089D01*
X117465600Y-86921142D01*
X114730278Y-86921142D01*
X115293452Y-83771542D01*
X118316500Y-83771542D01*
X118316500Y-83868458D01*
X118335407Y-83963511D01*
X118372495Y-84053050D01*
X118426338Y-84133632D01*
X118494868Y-84202162D01*
X118575450Y-84256005D01*
X118664989Y-84293093D01*
X118760042Y-84312000D01*
X118856958Y-84312000D01*
X118952011Y-84293093D01*
X119041550Y-84256005D01*
X119094250Y-84220792D01*
X119146950Y-84256005D01*
X119236489Y-84293093D01*
X119331542Y-84312000D01*
X119428458Y-84312000D01*
X119523511Y-84293093D01*
X119613050Y-84256005D01*
X119622138Y-84249932D01*
X119637868Y-84265662D01*
X119718450Y-84319505D01*
X119807989Y-84356593D01*
X119903042Y-84375500D01*
X119999958Y-84375500D01*
X120095011Y-84356593D01*
X120150369Y-84333663D01*
X120209368Y-84392662D01*
X120289950Y-84446505D01*
X120379489Y-84483593D01*
X120474542Y-84502500D01*
X120571458Y-84502500D01*
X120666511Y-84483593D01*
X120723249Y-84460092D01*
X120797950Y-84510005D01*
X120887489Y-84547093D01*
X120982542Y-84566000D01*
X121079458Y-84566000D01*
X121174511Y-84547093D01*
X121264050Y-84510005D01*
X121273138Y-84503932D01*
X121288868Y-84519662D01*
X121369450Y-84573505D01*
X121458989Y-84610593D01*
X121554042Y-84629500D01*
X121650958Y-84629500D01*
X121746011Y-84610593D01*
X121835550Y-84573505D01*
X121844638Y-84567432D01*
X121860368Y-84583162D01*
X121940950Y-84637005D01*
X122030489Y-84674093D01*
X122125542Y-84693000D01*
X122222458Y-84693000D01*
X122317511Y-84674093D01*
X122407050Y-84637005D01*
X122416138Y-84630932D01*
X122431868Y-84646662D01*
X122512450Y-84700505D01*
X122601989Y-84737593D01*
X122644876Y-84746124D01*
X122653407Y-84789011D01*
X122690495Y-84878550D01*
X122744338Y-84959132D01*
X122812868Y-85027662D01*
X122893450Y-85081505D01*
X122982989Y-85118593D01*
X123078042Y-85137500D01*
X123174958Y-85137500D01*
X123270011Y-85118593D01*
X123359550Y-85081505D01*
X123440132Y-85027662D01*
X123508662Y-84959132D01*
X123562505Y-84878550D01*
X123599593Y-84789011D01*
X123618500Y-84693958D01*
X123618500Y-84597042D01*
X123599593Y-84501989D01*
X123562505Y-84412450D01*
X123508662Y-84331868D01*
X123440132Y-84263338D01*
X123359550Y-84209495D01*
X123270011Y-84172407D01*
X123227124Y-84163876D01*
X123218593Y-84120989D01*
X123189579Y-84050942D01*
X134153400Y-84050942D01*
X134153400Y-84147858D01*
X134172307Y-84242911D01*
X134209395Y-84332450D01*
X134263238Y-84413032D01*
X134331768Y-84481562D01*
X134412350Y-84535405D01*
X134501889Y-84572493D01*
X134596942Y-84591400D01*
X134693858Y-84591400D01*
X134788911Y-84572493D01*
X134878450Y-84535405D01*
X134959032Y-84481562D01*
X135027562Y-84413032D01*
X135081405Y-84332450D01*
X135118493Y-84242911D01*
X135137400Y-84147858D01*
X135137400Y-84050942D01*
X135118493Y-83955889D01*
X135081405Y-83866350D01*
X135027562Y-83785768D01*
X134959032Y-83717238D01*
X134878450Y-83663395D01*
X134788911Y-83626307D01*
X134693858Y-83607400D01*
X134596942Y-83607400D01*
X134501889Y-83626307D01*
X134412350Y-83663395D01*
X134331768Y-83717238D01*
X134263238Y-83785768D01*
X134209395Y-83866350D01*
X134172307Y-83955889D01*
X134153400Y-84050942D01*
X123189579Y-84050942D01*
X123181505Y-84031450D01*
X123127662Y-83950868D01*
X123059132Y-83882338D01*
X122978550Y-83828495D01*
X122889011Y-83791407D01*
X122793958Y-83772500D01*
X122697042Y-83772500D01*
X122601989Y-83791407D01*
X122512450Y-83828495D01*
X122503362Y-83834568D01*
X122487632Y-83818838D01*
X122407050Y-83764995D01*
X122317511Y-83727907D01*
X122222458Y-83709000D01*
X122125542Y-83709000D01*
X122030489Y-83727907D01*
X121940950Y-83764995D01*
X121931862Y-83771068D01*
X121916132Y-83755338D01*
X121835550Y-83701495D01*
X121746011Y-83664407D01*
X121650958Y-83645500D01*
X121554042Y-83645500D01*
X121458989Y-83664407D01*
X121369450Y-83701495D01*
X121360362Y-83707568D01*
X121344632Y-83691838D01*
X121264050Y-83637995D01*
X121174511Y-83600907D01*
X121079458Y-83582000D01*
X120982542Y-83582000D01*
X120887489Y-83600907D01*
X120830751Y-83624408D01*
X120756050Y-83574495D01*
X120666511Y-83537407D01*
X120571458Y-83518500D01*
X120474542Y-83518500D01*
X120379489Y-83537407D01*
X120324131Y-83560337D01*
X120265132Y-83501338D01*
X120184550Y-83447495D01*
X120095011Y-83410407D01*
X119999958Y-83391500D01*
X119903042Y-83391500D01*
X119807989Y-83410407D01*
X119718450Y-83447495D01*
X119709362Y-83453568D01*
X119693632Y-83437838D01*
X119613050Y-83383995D01*
X119523511Y-83346907D01*
X119491683Y-83340576D01*
X123994234Y-83340576D01*
X123994234Y-83437492D01*
X124013141Y-83532545D01*
X124050229Y-83622084D01*
X124104072Y-83702666D01*
X124172602Y-83771196D01*
X124253184Y-83825039D01*
X124342723Y-83862127D01*
X124437776Y-83881034D01*
X124534692Y-83881034D01*
X124629745Y-83862127D01*
X124719284Y-83825039D01*
X124799866Y-83771196D01*
X124868396Y-83702666D01*
X124922239Y-83622084D01*
X124959327Y-83532545D01*
X124978234Y-83437492D01*
X124978234Y-83340576D01*
X124959327Y-83245523D01*
X124922239Y-83155984D01*
X124868396Y-83075402D01*
X124799866Y-83006872D01*
X124719284Y-82953029D01*
X124629745Y-82915941D01*
X124534692Y-82897034D01*
X124437776Y-82897034D01*
X124342723Y-82915941D01*
X124253184Y-82953029D01*
X124172602Y-83006872D01*
X124104072Y-83075402D01*
X124050229Y-83155984D01*
X124013141Y-83245523D01*
X123994234Y-83340576D01*
X119491683Y-83340576D01*
X119428458Y-83328000D01*
X119331542Y-83328000D01*
X119236489Y-83346907D01*
X119146950Y-83383995D01*
X119094250Y-83419208D01*
X119041550Y-83383995D01*
X118952011Y-83346907D01*
X118856958Y-83328000D01*
X118760042Y-83328000D01*
X118664989Y-83346907D01*
X118575450Y-83383995D01*
X118494868Y-83437838D01*
X118426338Y-83506368D01*
X118372495Y-83586950D01*
X118335407Y-83676489D01*
X118316500Y-83771542D01*
X115293452Y-83771542D01*
X115325830Y-83590466D01*
X115327650Y-83556146D01*
X115323064Y-83529286D01*
X115313325Y-83503837D01*
X115298809Y-83480777D01*
X115280073Y-83460992D01*
X115257837Y-83445242D01*
X115232956Y-83434133D01*
X114965726Y-83345056D01*
X115071481Y-82745773D01*
X124821831Y-82745773D01*
X124821831Y-82842689D01*
X124840738Y-82937742D01*
X124877826Y-83027281D01*
X124931669Y-83107863D01*
X125000199Y-83176393D01*
X125080781Y-83230236D01*
X125170320Y-83267324D01*
X125265373Y-83286231D01*
X125362289Y-83286231D01*
X125457342Y-83267324D01*
X125546881Y-83230236D01*
X125627463Y-83176393D01*
X125695993Y-83107863D01*
X125749836Y-83027281D01*
X125786924Y-82937742D01*
X125805831Y-82842689D01*
X125805831Y-82745773D01*
X125797670Y-82704742D01*
X134229600Y-82704742D01*
X134229600Y-82801658D01*
X134248507Y-82896711D01*
X134285595Y-82986250D01*
X134339438Y-83066832D01*
X134407968Y-83135362D01*
X134488550Y-83189205D01*
X134578089Y-83226293D01*
X134673142Y-83245200D01*
X134770058Y-83245200D01*
X134865111Y-83226293D01*
X134954650Y-83189205D01*
X135035232Y-83135362D01*
X135101858Y-83068736D01*
X138699871Y-83068736D01*
X138699871Y-83165652D01*
X138718778Y-83260705D01*
X138755866Y-83350244D01*
X138809709Y-83430826D01*
X138829801Y-83450918D01*
X138806795Y-83485350D01*
X138769707Y-83574889D01*
X138750800Y-83669942D01*
X138750800Y-83766858D01*
X138769707Y-83861911D01*
X138806795Y-83951450D01*
X138860638Y-84032032D01*
X138929168Y-84100562D01*
X139009750Y-84154405D01*
X139099289Y-84191493D01*
X139194342Y-84210400D01*
X139291258Y-84210400D01*
X139386311Y-84191493D01*
X139475850Y-84154405D01*
X139556432Y-84100562D01*
X139624962Y-84032032D01*
X139678805Y-83951450D01*
X139715893Y-83861911D01*
X139734800Y-83766858D01*
X139734800Y-83669942D01*
X139715893Y-83574889D01*
X139678805Y-83485350D01*
X139624962Y-83404768D01*
X139604870Y-83384676D01*
X139627876Y-83350244D01*
X139664964Y-83260705D01*
X139683871Y-83165652D01*
X139683871Y-83068736D01*
X139664964Y-82973683D01*
X139627876Y-82884144D01*
X139574033Y-82803562D01*
X139505503Y-82735032D01*
X139424921Y-82681189D01*
X139335382Y-82644101D01*
X139240329Y-82625194D01*
X139143413Y-82625194D01*
X139048360Y-82644101D01*
X138958821Y-82681189D01*
X138878239Y-82735032D01*
X138809709Y-82803562D01*
X138755866Y-82884144D01*
X138718778Y-82973683D01*
X138699871Y-83068736D01*
X135101858Y-83068736D01*
X135103762Y-83066832D01*
X135157605Y-82986250D01*
X135194693Y-82896711D01*
X135213600Y-82801658D01*
X135213600Y-82704742D01*
X135194693Y-82609689D01*
X135157605Y-82520150D01*
X135103762Y-82439568D01*
X135035232Y-82371038D01*
X134954650Y-82317195D01*
X134865111Y-82280107D01*
X134770058Y-82261200D01*
X134673142Y-82261200D01*
X134578089Y-82280107D01*
X134488550Y-82317195D01*
X134407968Y-82371038D01*
X134339438Y-82439568D01*
X134285595Y-82520150D01*
X134248507Y-82609689D01*
X134229600Y-82704742D01*
X125797670Y-82704742D01*
X125786924Y-82650720D01*
X125749836Y-82561181D01*
X125695993Y-82480599D01*
X125627463Y-82412069D01*
X125546881Y-82358226D01*
X125457342Y-82321138D01*
X125362289Y-82302231D01*
X125265373Y-82302231D01*
X125170320Y-82321138D01*
X125080781Y-82358226D01*
X125000199Y-82412069D01*
X124931669Y-82480599D01*
X124877826Y-82561181D01*
X124840738Y-82650720D01*
X124821831Y-82745773D01*
X115071481Y-82745773D01*
X115226616Y-81866672D01*
X138887921Y-81866672D01*
X138887921Y-81963588D01*
X138906828Y-82058641D01*
X138943916Y-82148180D01*
X138997759Y-82228762D01*
X139066289Y-82297292D01*
X139146871Y-82351135D01*
X139236410Y-82388223D01*
X139331463Y-82407130D01*
X139428379Y-82407130D01*
X139523432Y-82388223D01*
X139612971Y-82351135D01*
X139693553Y-82297292D01*
X139762083Y-82228762D01*
X139815926Y-82148180D01*
X139853014Y-82058641D01*
X139871921Y-81963588D01*
X139871921Y-81866672D01*
X139853014Y-81771619D01*
X139815926Y-81682080D01*
X139769463Y-81612542D01*
X145024600Y-81612542D01*
X145024600Y-81709458D01*
X145043507Y-81804511D01*
X145080595Y-81894050D01*
X145134438Y-81974632D01*
X145202968Y-82043162D01*
X145283550Y-82097005D01*
X145373089Y-82134093D01*
X145431825Y-82145776D01*
X145410795Y-82177250D01*
X145373707Y-82266789D01*
X145354800Y-82361842D01*
X145354800Y-82458758D01*
X145373707Y-82553811D01*
X145410795Y-82643350D01*
X145464638Y-82723932D01*
X145533168Y-82792462D01*
X145613750Y-82846305D01*
X145703289Y-82883393D01*
X145798342Y-82902300D01*
X145895258Y-82902300D01*
X145990311Y-82883393D01*
X146016607Y-82872501D01*
X146016226Y-82873758D01*
X146010588Y-82931000D01*
X146012000Y-82945336D01*
X146012001Y-103944081D01*
X146011134Y-103967379D01*
X146014282Y-103986990D01*
X146016227Y-104006742D01*
X146018828Y-104015315D01*
X146020249Y-104024171D01*
X146027164Y-104042795D01*
X146032924Y-104061784D01*
X146037148Y-104069686D01*
X146040269Y-104078093D01*
X146050680Y-104095003D01*
X146060038Y-104112511D01*
X146065726Y-104119442D01*
X146070424Y-104127073D01*
X146083925Y-104141618D01*
X146096527Y-104156974D01*
X146103460Y-104162664D01*
X146109555Y-104169230D01*
X146125639Y-104180865D01*
X146140990Y-104193463D01*
X146148895Y-104197688D01*
X146156159Y-104202943D01*
X146174207Y-104211218D01*
X146191717Y-104220577D01*
X146200297Y-104223180D01*
X146208444Y-104226915D01*
X146227753Y-104231509D01*
X146246759Y-104237274D01*
X146255683Y-104238153D01*
X146264401Y-104240227D01*
X146284233Y-104240965D01*
X146304000Y-104242912D01*
X146312926Y-104242033D01*
X146321879Y-104242366D01*
X146341474Y-104239221D01*
X146361242Y-104237274D01*
X146369822Y-104234671D01*
X146378671Y-104233251D01*
X146397281Y-104226342D01*
X146416284Y-104220577D01*
X146424192Y-104216350D01*
X146432593Y-104213231D01*
X146449491Y-104202828D01*
X146467011Y-104193463D01*
X146473946Y-104187771D01*
X146481573Y-104183076D01*
X146496108Y-104169584D01*
X146511474Y-104156974D01*
X146517167Y-104150037D01*
X146523730Y-104143945D01*
X146535357Y-104127872D01*
X146547963Y-104112511D01*
X146558959Y-104091938D01*
X146994160Y-103345881D01*
X146994914Y-103344819D01*
X147001367Y-103333527D01*
X147007946Y-103322248D01*
X147008491Y-103321059D01*
X147608578Y-102270906D01*
X149477480Y-102270906D01*
X149477480Y-102402294D01*
X149503113Y-102531157D01*
X149553393Y-102652543D01*
X149626388Y-102761788D01*
X149719292Y-102854692D01*
X149828537Y-102927687D01*
X149949923Y-102977967D01*
X150078786Y-103003600D01*
X150210174Y-103003600D01*
X150339037Y-102977967D01*
X150460423Y-102927687D01*
X150569668Y-102854692D01*
X150662572Y-102761788D01*
X150735567Y-102652543D01*
X150785847Y-102531157D01*
X150811480Y-102402294D01*
X150811480Y-102270906D01*
X150785847Y-102142043D01*
X150735567Y-102020657D01*
X150662572Y-101911412D01*
X150569668Y-101818508D01*
X150460423Y-101745513D01*
X150339037Y-101695233D01*
X150210174Y-101669600D01*
X150078786Y-101669600D01*
X149949923Y-101695233D01*
X149828537Y-101745513D01*
X149719292Y-101818508D01*
X149626388Y-101911412D01*
X149553393Y-102020657D01*
X149503113Y-102142043D01*
X149477480Y-102270906D01*
X147608578Y-102270906D01*
X148005825Y-101575725D01*
X148008463Y-101572511D01*
X148020061Y-101550812D01*
X148025139Y-101541926D01*
X148026832Y-101538145D01*
X148035577Y-101521784D01*
X148038560Y-101511951D01*
X148042757Y-101502577D01*
X148046887Y-101484502D01*
X148052274Y-101466742D01*
X148053282Y-101456510D01*
X148055568Y-101446503D01*
X148056092Y-101427975D01*
X148056500Y-101423836D01*
X148056500Y-101413567D01*
X148057195Y-101389007D01*
X148056500Y-101384911D01*
X148056500Y-100556406D01*
X149477480Y-100556406D01*
X149477480Y-100687794D01*
X149503113Y-100816657D01*
X149553393Y-100938043D01*
X149626388Y-101047288D01*
X149719292Y-101140192D01*
X149828537Y-101213187D01*
X149949923Y-101263467D01*
X150078786Y-101289100D01*
X150210174Y-101289100D01*
X150339037Y-101263467D01*
X150460423Y-101213187D01*
X150569668Y-101140192D01*
X150662572Y-101047288D01*
X150735567Y-100938043D01*
X150785847Y-100816657D01*
X150811480Y-100687794D01*
X150811480Y-100556406D01*
X150785847Y-100427543D01*
X150735567Y-100306157D01*
X150662572Y-100196912D01*
X150569668Y-100104008D01*
X150460423Y-100031013D01*
X150339037Y-99980733D01*
X150210174Y-99955100D01*
X150078786Y-99955100D01*
X149949923Y-99980733D01*
X149828537Y-100031013D01*
X149719292Y-100104008D01*
X149626388Y-100196912D01*
X149553393Y-100306157D01*
X149503113Y-100427543D01*
X149477480Y-100556406D01*
X148056500Y-100556406D01*
X148056500Y-99019094D01*
X148073168Y-99035762D01*
X148153750Y-99089605D01*
X148243289Y-99126693D01*
X148338342Y-99145600D01*
X148435258Y-99145600D01*
X148530311Y-99126693D01*
X148619850Y-99089605D01*
X148700432Y-99035762D01*
X148768962Y-98967232D01*
X148822805Y-98886650D01*
X148859893Y-98797111D01*
X148878800Y-98702058D01*
X148878800Y-98605142D01*
X148859893Y-98510089D01*
X148822805Y-98420550D01*
X148768962Y-98339968D01*
X148700432Y-98271438D01*
X148619850Y-98217595D01*
X148530311Y-98180507D01*
X148435258Y-98161600D01*
X148338342Y-98161600D01*
X148243289Y-98180507D01*
X148153750Y-98217595D01*
X148073168Y-98271438D01*
X148056500Y-98288106D01*
X148056500Y-96928742D01*
X148961600Y-96928742D01*
X148961600Y-97025658D01*
X148980507Y-97120711D01*
X149017595Y-97210250D01*
X149071438Y-97290832D01*
X149139968Y-97359362D01*
X149220550Y-97413205D01*
X149310089Y-97450293D01*
X149405142Y-97469200D01*
X149502058Y-97469200D01*
X149597111Y-97450293D01*
X149686650Y-97413205D01*
X149767232Y-97359362D01*
X149835762Y-97290832D01*
X149889605Y-97210250D01*
X149926693Y-97120711D01*
X149945600Y-97025658D01*
X149945600Y-96928742D01*
X149926693Y-96833689D01*
X149889605Y-96744150D01*
X149835762Y-96663568D01*
X149767232Y-96595038D01*
X149686650Y-96541195D01*
X149597111Y-96504107D01*
X149502058Y-96485200D01*
X149405142Y-96485200D01*
X149310089Y-96504107D01*
X149220550Y-96541195D01*
X149139968Y-96595038D01*
X149071438Y-96663568D01*
X149017595Y-96744150D01*
X148980507Y-96833689D01*
X148961600Y-96928742D01*
X148056500Y-96928742D01*
X148056500Y-96476769D01*
X150107000Y-96476769D01*
X150107000Y-96603231D01*
X150131672Y-96727264D01*
X150180067Y-96844101D01*
X150250326Y-96949251D01*
X150339749Y-97038674D01*
X150444899Y-97108933D01*
X150561736Y-97157328D01*
X150685769Y-97182000D01*
X150812231Y-97182000D01*
X150936264Y-97157328D01*
X151053101Y-97108933D01*
X151158251Y-97038674D01*
X151247674Y-96949251D01*
X151317933Y-96844101D01*
X151366328Y-96727264D01*
X151391000Y-96603231D01*
X151391000Y-96476769D01*
X151366328Y-96352736D01*
X151317933Y-96235899D01*
X151247674Y-96130749D01*
X151158251Y-96041326D01*
X151053101Y-95971067D01*
X150936264Y-95922672D01*
X150812231Y-95898000D01*
X150685769Y-95898000D01*
X150561736Y-95922672D01*
X150444899Y-95971067D01*
X150339749Y-96041326D01*
X150250326Y-96130749D01*
X150180067Y-96235899D01*
X150131672Y-96352736D01*
X150107000Y-96476769D01*
X148056500Y-96476769D01*
X148056500Y-95506342D01*
X149469600Y-95506342D01*
X149469600Y-95603258D01*
X149488507Y-95698311D01*
X149525595Y-95787850D01*
X149579438Y-95868432D01*
X149647968Y-95936962D01*
X149728550Y-95990805D01*
X149818089Y-96027893D01*
X149913142Y-96046800D01*
X150010058Y-96046800D01*
X150105111Y-96027893D01*
X150194650Y-95990805D01*
X150275232Y-95936962D01*
X150343762Y-95868432D01*
X150397605Y-95787850D01*
X150434693Y-95698311D01*
X150453600Y-95603258D01*
X150453600Y-95506342D01*
X150434693Y-95411289D01*
X150397605Y-95321750D01*
X150343762Y-95241168D01*
X150275232Y-95172638D01*
X150194650Y-95118795D01*
X150105111Y-95081707D01*
X150010058Y-95062800D01*
X149913142Y-95062800D01*
X149818089Y-95081707D01*
X149728550Y-95118795D01*
X149647968Y-95172638D01*
X149579438Y-95241168D01*
X149525595Y-95321750D01*
X149488507Y-95411289D01*
X149469600Y-95506342D01*
X148056500Y-95506342D01*
X148056500Y-94388742D01*
X148301200Y-94388742D01*
X148301200Y-94485658D01*
X148320107Y-94580711D01*
X148357195Y-94670250D01*
X148411038Y-94750832D01*
X148479568Y-94819362D01*
X148560150Y-94873205D01*
X148649689Y-94910293D01*
X148744742Y-94929200D01*
X148841658Y-94929200D01*
X148936711Y-94910293D01*
X148947215Y-94905942D01*
X151587000Y-94905942D01*
X151587000Y-95002858D01*
X151605907Y-95097911D01*
X151642995Y-95187450D01*
X151696838Y-95268032D01*
X151765368Y-95336562D01*
X151845950Y-95390405D01*
X151935489Y-95427493D01*
X152030542Y-95446400D01*
X152127458Y-95446400D01*
X152222511Y-95427493D01*
X152312050Y-95390405D01*
X152392632Y-95336562D01*
X152461162Y-95268032D01*
X152515005Y-95187450D01*
X152552093Y-95097911D01*
X152571000Y-95002858D01*
X152571000Y-94905942D01*
X152552093Y-94810889D01*
X152515005Y-94721350D01*
X152461162Y-94640768D01*
X152392632Y-94572238D01*
X152312050Y-94518395D01*
X152222511Y-94481307D01*
X152127458Y-94462400D01*
X152030542Y-94462400D01*
X151935489Y-94481307D01*
X151845950Y-94518395D01*
X151765368Y-94572238D01*
X151696838Y-94640768D01*
X151642995Y-94721350D01*
X151605907Y-94810889D01*
X151587000Y-94905942D01*
X148947215Y-94905942D01*
X149026250Y-94873205D01*
X149106832Y-94819362D01*
X149175362Y-94750832D01*
X149229205Y-94670250D01*
X149266293Y-94580711D01*
X149285200Y-94485658D01*
X149285200Y-94388742D01*
X149266293Y-94293689D01*
X149229205Y-94204150D01*
X149175362Y-94123568D01*
X149106832Y-94055038D01*
X149026250Y-94001195D01*
X148936711Y-93964107D01*
X148841658Y-93945200D01*
X148744742Y-93945200D01*
X148649689Y-93964107D01*
X148560150Y-94001195D01*
X148479568Y-94055038D01*
X148411038Y-94123568D01*
X148357195Y-94204150D01*
X148320107Y-94293689D01*
X148301200Y-94388742D01*
X148056500Y-94388742D01*
X148056500Y-93321942D01*
X148301200Y-93321942D01*
X148301200Y-93418858D01*
X148320107Y-93513911D01*
X148357195Y-93603450D01*
X148411038Y-93684032D01*
X148479568Y-93752562D01*
X148560150Y-93806405D01*
X148649689Y-93843493D01*
X148744742Y-93862400D01*
X148841658Y-93862400D01*
X148936711Y-93843493D01*
X149026250Y-93806405D01*
X149106832Y-93752562D01*
X149175362Y-93684032D01*
X149229205Y-93603450D01*
X149266293Y-93513911D01*
X149285200Y-93418858D01*
X149285200Y-93321942D01*
X149266293Y-93226889D01*
X149229205Y-93137350D01*
X149175362Y-93056768D01*
X149106832Y-92988238D01*
X149026250Y-92934395D01*
X148936711Y-92897307D01*
X148841658Y-92878400D01*
X148744742Y-92878400D01*
X148649689Y-92897307D01*
X148560150Y-92934395D01*
X148479568Y-92988238D01*
X148411038Y-93056768D01*
X148357195Y-93137350D01*
X148320107Y-93226889D01*
X148301200Y-93321942D01*
X148056500Y-93321942D01*
X148056500Y-89964606D01*
X149452080Y-89964606D01*
X149452080Y-90095994D01*
X149477713Y-90224857D01*
X149527993Y-90346243D01*
X149600988Y-90455488D01*
X149693892Y-90548392D01*
X149803137Y-90621387D01*
X149924523Y-90671667D01*
X150053386Y-90697300D01*
X150184774Y-90697300D01*
X150313637Y-90671667D01*
X150435023Y-90621387D01*
X150544268Y-90548392D01*
X150637172Y-90455488D01*
X150710167Y-90346243D01*
X150760447Y-90224857D01*
X150786080Y-90095994D01*
X150786080Y-89964606D01*
X150760447Y-89835743D01*
X150710167Y-89714357D01*
X150637172Y-89605112D01*
X150544268Y-89512208D01*
X150435023Y-89439213D01*
X150313637Y-89388933D01*
X150184774Y-89363300D01*
X150053386Y-89363300D01*
X149924523Y-89388933D01*
X149803137Y-89439213D01*
X149693892Y-89512208D01*
X149600988Y-89605112D01*
X149527993Y-89714357D01*
X149477713Y-89835743D01*
X149452080Y-89964606D01*
X148056500Y-89964606D01*
X148056500Y-88250106D01*
X149452080Y-88250106D01*
X149452080Y-88381494D01*
X149477713Y-88510357D01*
X149527993Y-88631743D01*
X149600988Y-88740988D01*
X149693892Y-88833892D01*
X149803137Y-88906887D01*
X149924523Y-88957167D01*
X150053386Y-88982800D01*
X150184774Y-88982800D01*
X150313637Y-88957167D01*
X150435023Y-88906887D01*
X150544268Y-88833892D01*
X150637172Y-88740988D01*
X150710167Y-88631743D01*
X150760447Y-88510357D01*
X150786080Y-88381494D01*
X150786080Y-88250106D01*
X150760447Y-88121243D01*
X150710167Y-87999857D01*
X150637172Y-87890612D01*
X150544268Y-87797708D01*
X150435023Y-87724713D01*
X150313637Y-87674433D01*
X150184774Y-87648800D01*
X150053386Y-87648800D01*
X149924523Y-87674433D01*
X149803137Y-87724713D01*
X149693892Y-87797708D01*
X149600988Y-87890612D01*
X149527993Y-87999857D01*
X149477713Y-88121243D01*
X149452080Y-88250106D01*
X148056500Y-88250106D01*
X148056500Y-86311542D01*
X148555200Y-86311542D01*
X148555200Y-86408458D01*
X148574107Y-86503511D01*
X148611195Y-86593050D01*
X148665038Y-86673632D01*
X148733568Y-86742162D01*
X148814150Y-86796005D01*
X148903689Y-86833093D01*
X148998742Y-86852000D01*
X149095658Y-86852000D01*
X149190711Y-86833093D01*
X149280250Y-86796005D01*
X149360832Y-86742162D01*
X149429362Y-86673632D01*
X149483205Y-86593050D01*
X149520293Y-86503511D01*
X149539200Y-86408458D01*
X149539200Y-86311542D01*
X149520293Y-86216489D01*
X149483205Y-86126950D01*
X149429362Y-86046368D01*
X149360832Y-85977838D01*
X149280250Y-85923995D01*
X149190711Y-85886907D01*
X149095658Y-85868000D01*
X148998742Y-85868000D01*
X148903689Y-85886907D01*
X148814150Y-85923995D01*
X148733568Y-85977838D01*
X148665038Y-86046368D01*
X148611195Y-86126950D01*
X148574107Y-86216489D01*
X148555200Y-86311542D01*
X148056500Y-86311542D01*
X148056500Y-82945336D01*
X148057912Y-82931000D01*
X148052274Y-82873758D01*
X148035577Y-82818716D01*
X148008463Y-82767989D01*
X147971974Y-82723526D01*
X147927511Y-82687037D01*
X147876784Y-82659923D01*
X147821742Y-82643226D01*
X147778836Y-82639000D01*
X147764500Y-82637588D01*
X147750164Y-82639000D01*
X146318336Y-82639000D01*
X146304000Y-82637588D01*
X146289664Y-82639000D01*
X146284392Y-82639519D01*
X146319893Y-82553811D01*
X146338800Y-82458758D01*
X146338800Y-82361842D01*
X146319893Y-82266789D01*
X146282805Y-82177250D01*
X146228962Y-82096668D01*
X146160432Y-82028138D01*
X146079850Y-81974295D01*
X145990311Y-81937207D01*
X145931575Y-81925524D01*
X145952605Y-81894050D01*
X145989693Y-81804511D01*
X146008600Y-81709458D01*
X146008600Y-81612542D01*
X145989693Y-81517489D01*
X145952605Y-81427950D01*
X145898762Y-81347368D01*
X145830232Y-81278838D01*
X145749650Y-81224995D01*
X145660111Y-81187907D01*
X145565058Y-81169000D01*
X145468142Y-81169000D01*
X145373089Y-81187907D01*
X145283550Y-81224995D01*
X145202968Y-81278838D01*
X145134438Y-81347368D01*
X145080595Y-81427950D01*
X145043507Y-81517489D01*
X145024600Y-81612542D01*
X139769463Y-81612542D01*
X139762083Y-81601498D01*
X139693553Y-81532968D01*
X139612971Y-81479125D01*
X139523432Y-81442037D01*
X139428379Y-81423130D01*
X139331463Y-81423130D01*
X139236410Y-81442037D01*
X139146871Y-81479125D01*
X139066289Y-81532968D01*
X138997759Y-81601498D01*
X138943916Y-81682080D01*
X138906828Y-81771619D01*
X138887921Y-81866672D01*
X115226616Y-81866672D01*
X115513808Y-80239257D01*
X122423000Y-80239257D01*
X122423000Y-80390343D01*
X122452476Y-80538526D01*
X122510294Y-80678111D01*
X122594232Y-80803734D01*
X122701066Y-80910568D01*
X122826689Y-80994506D01*
X122966274Y-81052324D01*
X123114457Y-81081800D01*
X123265543Y-81081800D01*
X123413726Y-81052324D01*
X123553311Y-80994506D01*
X123678934Y-80910568D01*
X123785768Y-80803734D01*
X123869706Y-80678111D01*
X123927524Y-80538526D01*
X123957000Y-80390343D01*
X123957000Y-80239257D01*
X123927524Y-80091074D01*
X123925778Y-80086857D01*
X142793800Y-80086857D01*
X142793800Y-80237943D01*
X142823276Y-80386126D01*
X142881094Y-80525711D01*
X142965032Y-80651334D01*
X143071866Y-80758168D01*
X143197489Y-80842106D01*
X143337074Y-80899924D01*
X143485257Y-80929400D01*
X143636343Y-80929400D01*
X143784526Y-80899924D01*
X143924111Y-80842106D01*
X144049734Y-80758168D01*
X144156568Y-80651334D01*
X144240506Y-80525711D01*
X144298324Y-80386126D01*
X144327800Y-80237943D01*
X144327800Y-80086857D01*
X144298324Y-79938674D01*
X144240506Y-79799089D01*
X144156568Y-79673466D01*
X144049734Y-79566632D01*
X143924111Y-79482694D01*
X143784526Y-79424876D01*
X143636343Y-79395400D01*
X143485257Y-79395400D01*
X143337074Y-79424876D01*
X143197489Y-79482694D01*
X143071866Y-79566632D01*
X142965032Y-79673466D01*
X142881094Y-79799089D01*
X142823276Y-79938674D01*
X142793800Y-80086857D01*
X123925778Y-80086857D01*
X123869706Y-79951489D01*
X123785768Y-79825866D01*
X123678934Y-79719032D01*
X123553311Y-79635094D01*
X123413726Y-79577276D01*
X123265543Y-79547800D01*
X123114457Y-79547800D01*
X122966274Y-79577276D01*
X122826689Y-79635094D01*
X122701066Y-79719032D01*
X122594232Y-79825866D01*
X122510294Y-79951489D01*
X122452476Y-80091074D01*
X122423000Y-80239257D01*
X115513808Y-80239257D01*
X115697287Y-79199542D01*
X129759200Y-79199542D01*
X129759200Y-79296458D01*
X129778107Y-79391511D01*
X129815195Y-79481050D01*
X129869038Y-79561632D01*
X129937568Y-79630162D01*
X130018150Y-79684005D01*
X130107689Y-79721093D01*
X130202742Y-79740000D01*
X130299658Y-79740000D01*
X130394711Y-79721093D01*
X130484250Y-79684005D01*
X130564832Y-79630162D01*
X130633362Y-79561632D01*
X130687205Y-79481050D01*
X130724293Y-79391511D01*
X130743200Y-79296458D01*
X130743200Y-79199542D01*
X130724293Y-79104489D01*
X130687205Y-79014950D01*
X130633362Y-78934368D01*
X130568336Y-78869342D01*
X143780000Y-78869342D01*
X143780000Y-78966258D01*
X143798907Y-79061311D01*
X143835995Y-79150850D01*
X143889838Y-79231432D01*
X143958368Y-79299962D01*
X144038950Y-79353805D01*
X144128489Y-79390893D01*
X144223542Y-79409800D01*
X144320458Y-79409800D01*
X144415511Y-79390893D01*
X144505050Y-79353805D01*
X144585632Y-79299962D01*
X144654162Y-79231432D01*
X144708005Y-79150850D01*
X144745093Y-79061311D01*
X144764000Y-78966258D01*
X144764000Y-78869342D01*
X144745093Y-78774289D01*
X144708005Y-78684750D01*
X144654162Y-78604168D01*
X144585632Y-78535638D01*
X144505050Y-78481795D01*
X144415511Y-78444707D01*
X144320458Y-78425800D01*
X144223542Y-78425800D01*
X144128489Y-78444707D01*
X144038950Y-78481795D01*
X143958368Y-78535638D01*
X143889838Y-78604168D01*
X143835995Y-78684750D01*
X143798907Y-78774289D01*
X143780000Y-78869342D01*
X130568336Y-78869342D01*
X130564832Y-78865838D01*
X130484250Y-78811995D01*
X130394711Y-78774907D01*
X130299658Y-78756000D01*
X130202742Y-78756000D01*
X130107689Y-78774907D01*
X130018150Y-78811995D01*
X129937568Y-78865838D01*
X129869038Y-78934368D01*
X129815195Y-79014950D01*
X129778107Y-79104489D01*
X129759200Y-79199542D01*
X115697287Y-79199542D01*
X115706885Y-79145156D01*
X115708650Y-79111146D01*
X115704064Y-79084286D01*
X115694325Y-79058837D01*
X115679809Y-79035777D01*
X115661073Y-79015992D01*
X115638837Y-79000242D01*
X115613956Y-78989133D01*
X115232956Y-78862133D01*
X115211851Y-78856891D01*
X114947905Y-78812900D01*
X114983458Y-78812900D01*
X115078511Y-78793993D01*
X115168050Y-78756905D01*
X115248632Y-78703062D01*
X115317162Y-78634532D01*
X115371005Y-78553950D01*
X115408093Y-78464411D01*
X115427000Y-78369358D01*
X115427000Y-78272442D01*
X115408093Y-78177389D01*
X115371005Y-78087850D01*
X115317162Y-78007268D01*
X115248632Y-77938738D01*
X115168050Y-77884895D01*
X115078511Y-77847807D01*
X114983458Y-77828900D01*
X114886542Y-77828900D01*
X114791489Y-77847807D01*
X114701950Y-77884895D01*
X114621368Y-77938738D01*
X114552838Y-78007268D01*
X114498995Y-78087850D01*
X114461907Y-78177389D01*
X114443000Y-78272442D01*
X114443000Y-78369358D01*
X114461907Y-78464411D01*
X114498995Y-78553950D01*
X114552838Y-78634532D01*
X114621368Y-78703062D01*
X114701950Y-78756905D01*
X114762555Y-78782008D01*
X111825876Y-78292562D01*
X113121958Y-77061285D01*
X113738440Y-76557942D01*
X116144800Y-76557942D01*
X116144800Y-76654858D01*
X116163707Y-76749911D01*
X116200795Y-76839450D01*
X116254638Y-76920032D01*
X116323168Y-76988562D01*
X116403750Y-77042405D01*
X116493289Y-77079493D01*
X116588342Y-77098400D01*
X116685258Y-77098400D01*
X116780311Y-77079493D01*
X116862943Y-77045266D01*
X116915038Y-77123232D01*
X116983568Y-77191762D01*
X117064150Y-77245605D01*
X117153689Y-77282693D01*
X117248742Y-77301600D01*
X117345658Y-77301600D01*
X117440711Y-77282693D01*
X117530250Y-77245605D01*
X117610832Y-77191762D01*
X117679362Y-77123232D01*
X117733205Y-77042650D01*
X117770293Y-76953111D01*
X117789200Y-76858058D01*
X117789200Y-76761142D01*
X117770293Y-76666089D01*
X117733205Y-76576550D01*
X117679362Y-76495968D01*
X117610832Y-76427438D01*
X117530250Y-76373595D01*
X117440711Y-76336507D01*
X117345658Y-76317600D01*
X117248742Y-76317600D01*
X117153689Y-76336507D01*
X117071057Y-76370734D01*
X117018962Y-76292768D01*
X116950432Y-76224238D01*
X116869850Y-76170395D01*
X116780311Y-76133307D01*
X116685258Y-76114400D01*
X116588342Y-76114400D01*
X116493289Y-76133307D01*
X116403750Y-76170395D01*
X116323168Y-76224238D01*
X116254638Y-76292768D01*
X116200795Y-76373350D01*
X116163707Y-76462889D01*
X116144800Y-76557942D01*
X113738440Y-76557942D01*
X114529878Y-75911753D01*
X115393388Y-75315715D01*
X118148880Y-75315715D01*
X118152469Y-75342726D01*
X118161259Y-75368519D01*
X119304259Y-77883119D01*
X119319203Y-77908468D01*
X119337514Y-77928647D01*
X119359410Y-77944866D01*
X119384049Y-77956502D01*
X119410485Y-77963107D01*
X119437702Y-77964429D01*
X119464653Y-77960414D01*
X119490304Y-77951220D01*
X121493279Y-77002442D01*
X122393200Y-77002442D01*
X122393200Y-77099358D01*
X122412107Y-77194411D01*
X122449195Y-77283950D01*
X122503038Y-77364532D01*
X122571568Y-77433062D01*
X122652150Y-77486905D01*
X122741689Y-77523993D01*
X122836742Y-77542900D01*
X122933658Y-77542900D01*
X123028711Y-77523993D01*
X123118250Y-77486905D01*
X123198832Y-77433062D01*
X123267362Y-77364532D01*
X123321205Y-77283950D01*
X123358293Y-77194411D01*
X123377200Y-77099358D01*
X123377200Y-77002442D01*
X123358293Y-76907389D01*
X123321205Y-76817850D01*
X123267362Y-76737268D01*
X123198832Y-76668738D01*
X123118250Y-76614895D01*
X123028711Y-76577807D01*
X122933658Y-76558900D01*
X122836742Y-76558900D01*
X122741689Y-76577807D01*
X122652150Y-76614895D01*
X122571568Y-76668738D01*
X122503038Y-76737268D01*
X122449195Y-76817850D01*
X122412107Y-76907389D01*
X122393200Y-77002442D01*
X121493279Y-77002442D01*
X121903304Y-76808220D01*
X121926717Y-76794160D01*
X121946888Y-76775840D01*
X121963098Y-76753937D01*
X121974723Y-76729293D01*
X121981316Y-76702854D01*
X121982625Y-76675636D01*
X121978599Y-76648687D01*
X121969393Y-76623040D01*
X121911418Y-76500786D01*
X124565051Y-76500786D01*
X124565051Y-76597702D01*
X124583958Y-76692755D01*
X124621046Y-76782294D01*
X124674889Y-76862876D01*
X124743419Y-76931406D01*
X124824001Y-76985249D01*
X124913540Y-77022337D01*
X125008593Y-77041244D01*
X125105509Y-77041244D01*
X125200562Y-77022337D01*
X125290101Y-76985249D01*
X125370683Y-76931406D01*
X125439213Y-76862876D01*
X125493056Y-76782294D01*
X125494212Y-76779504D01*
X125547557Y-76790115D01*
X125644473Y-76790115D01*
X125739526Y-76771208D01*
X125829065Y-76734120D01*
X125909647Y-76680277D01*
X125978177Y-76611747D01*
X126032020Y-76531165D01*
X126050669Y-76486141D01*
X135453199Y-76486141D01*
X135453199Y-76583057D01*
X135472106Y-76678110D01*
X135509194Y-76767649D01*
X135563037Y-76848231D01*
X135631567Y-76916761D01*
X135712149Y-76970604D01*
X135801688Y-77007692D01*
X135896741Y-77026599D01*
X135993657Y-77026599D01*
X136088710Y-77007692D01*
X136178249Y-76970604D01*
X136187620Y-76964342D01*
X136388600Y-76964342D01*
X136388600Y-77061258D01*
X136407507Y-77156311D01*
X136444595Y-77245850D01*
X136498438Y-77326432D01*
X136566968Y-77394962D01*
X136647550Y-77448805D01*
X136737089Y-77485893D01*
X136804783Y-77499358D01*
X136795000Y-77548542D01*
X136795000Y-77645458D01*
X136813907Y-77740511D01*
X136850995Y-77830050D01*
X136904838Y-77910632D01*
X136973368Y-77979162D01*
X137053950Y-78033005D01*
X137143489Y-78070093D01*
X137238542Y-78089000D01*
X137335458Y-78089000D01*
X137430511Y-78070093D01*
X137520050Y-78033005D01*
X137600632Y-77979162D01*
X137669162Y-77910632D01*
X137723005Y-77830050D01*
X137760093Y-77740511D01*
X137779000Y-77645458D01*
X137779000Y-77548542D01*
X137760093Y-77453489D01*
X137723005Y-77363950D01*
X137669162Y-77283368D01*
X137600632Y-77214838D01*
X137520050Y-77160995D01*
X137430511Y-77123907D01*
X137362817Y-77110442D01*
X137372600Y-77061258D01*
X137372600Y-76964342D01*
X137353693Y-76869289D01*
X137316605Y-76779750D01*
X137262762Y-76699168D01*
X137194232Y-76630638D01*
X137113650Y-76576795D01*
X137024111Y-76539707D01*
X136929058Y-76520800D01*
X136832142Y-76520800D01*
X136737089Y-76539707D01*
X136647550Y-76576795D01*
X136566968Y-76630638D01*
X136498438Y-76699168D01*
X136444595Y-76779750D01*
X136407507Y-76869289D01*
X136388600Y-76964342D01*
X136187620Y-76964342D01*
X136258831Y-76916761D01*
X136327361Y-76848231D01*
X136381204Y-76767649D01*
X136418292Y-76678110D01*
X136437199Y-76583057D01*
X136437199Y-76486141D01*
X136418292Y-76391088D01*
X136381204Y-76301549D01*
X136327361Y-76220967D01*
X136258831Y-76152437D01*
X136219917Y-76126435D01*
X141465909Y-76126435D01*
X141469921Y-76178876D01*
X141484087Y-76229527D01*
X141507862Y-76276441D01*
X141540332Y-76317815D01*
X141580251Y-76352059D01*
X142399403Y-76925635D01*
X142445235Y-76951434D01*
X142495219Y-76967795D01*
X142547435Y-76974091D01*
X142599876Y-76970079D01*
X142650527Y-76955913D01*
X142697441Y-76932138D01*
X142738815Y-76899668D01*
X142773059Y-76859749D01*
X143346635Y-76040597D01*
X143372434Y-75994765D01*
X143388795Y-75944781D01*
X143395091Y-75892565D01*
X143391079Y-75840124D01*
X143376913Y-75789473D01*
X143353138Y-75742559D01*
X143320668Y-75701185D01*
X143280749Y-75666941D01*
X142461597Y-75093365D01*
X142415765Y-75067566D01*
X142365781Y-75051205D01*
X142313565Y-75044909D01*
X142261124Y-75048921D01*
X142210473Y-75063087D01*
X142163559Y-75086862D01*
X142122185Y-75119332D01*
X142087941Y-75159251D01*
X141514365Y-75978403D01*
X141488566Y-76024235D01*
X141472205Y-76074219D01*
X141465909Y-76126435D01*
X136219917Y-76126435D01*
X136178249Y-76098594D01*
X136088710Y-76061506D01*
X135993657Y-76042599D01*
X135896741Y-76042599D01*
X135801688Y-76061506D01*
X135712149Y-76098594D01*
X135631567Y-76152437D01*
X135563037Y-76220967D01*
X135509194Y-76301549D01*
X135472106Y-76391088D01*
X135453199Y-76486141D01*
X126050669Y-76486141D01*
X126069108Y-76441626D01*
X126078560Y-76394107D01*
X126163994Y-76377113D01*
X126253533Y-76340025D01*
X126334115Y-76286182D01*
X126402645Y-76217652D01*
X126456488Y-76137070D01*
X126493576Y-76047531D01*
X126512483Y-75952478D01*
X126512483Y-75855562D01*
X126493576Y-75760509D01*
X126456488Y-75670970D01*
X126402645Y-75590388D01*
X126334115Y-75521858D01*
X126253533Y-75468015D01*
X126163994Y-75430927D01*
X126068941Y-75412020D01*
X125972025Y-75412020D01*
X125876972Y-75430927D01*
X125787433Y-75468015D01*
X125706851Y-75521858D01*
X125638321Y-75590388D01*
X125584478Y-75670970D01*
X125547390Y-75760509D01*
X125537938Y-75808028D01*
X125452504Y-75825022D01*
X125362965Y-75862110D01*
X125282383Y-75915953D01*
X125213853Y-75984483D01*
X125160010Y-76065065D01*
X125158854Y-76067855D01*
X125105509Y-76057244D01*
X125008593Y-76057244D01*
X124913540Y-76076151D01*
X124824001Y-76113239D01*
X124743419Y-76167082D01*
X124674889Y-76235612D01*
X124621046Y-76316194D01*
X124583958Y-76405733D01*
X124565051Y-76500786D01*
X121911418Y-76500786D01*
X121636919Y-75921952D01*
X122729618Y-75921952D01*
X122729618Y-76018868D01*
X122748525Y-76113921D01*
X122785613Y-76203460D01*
X122839456Y-76284042D01*
X122907986Y-76352572D01*
X122988568Y-76406415D01*
X123078107Y-76443503D01*
X123173160Y-76462410D01*
X123270076Y-76462410D01*
X123365129Y-76443503D01*
X123454668Y-76406415D01*
X123535250Y-76352572D01*
X123603780Y-76284042D01*
X123657623Y-76203460D01*
X123694711Y-76113921D01*
X123713618Y-76018868D01*
X123713618Y-75921952D01*
X123694711Y-75826899D01*
X123657623Y-75737360D01*
X123603780Y-75656778D01*
X123535250Y-75588248D01*
X123454668Y-75534405D01*
X123365129Y-75497317D01*
X123270076Y-75478410D01*
X123173160Y-75478410D01*
X123078107Y-75497317D01*
X122988568Y-75534405D01*
X122907986Y-75588248D01*
X122839456Y-75656778D01*
X122785613Y-75737360D01*
X122748525Y-75826899D01*
X122729618Y-75921952D01*
X121636919Y-75921952D01*
X121094090Y-74777290D01*
X132829948Y-74777290D01*
X132829948Y-74874206D01*
X132848855Y-74969259D01*
X132885943Y-75058798D01*
X132939786Y-75139380D01*
X133008316Y-75207910D01*
X133088898Y-75261753D01*
X133178437Y-75298841D01*
X133273490Y-75317748D01*
X133370406Y-75317748D01*
X133465459Y-75298841D01*
X133554998Y-75261753D01*
X133635580Y-75207910D01*
X133704110Y-75139380D01*
X133757953Y-75058798D01*
X133795041Y-74969259D01*
X133813948Y-74874206D01*
X133813948Y-74777290D01*
X133795041Y-74682237D01*
X133757953Y-74592698D01*
X133704110Y-74512116D01*
X133635580Y-74443586D01*
X133554998Y-74389743D01*
X133465459Y-74352655D01*
X133370406Y-74333748D01*
X133273490Y-74333748D01*
X133178437Y-74352655D01*
X133088898Y-74389743D01*
X133008316Y-74443586D01*
X132939786Y-74512116D01*
X132885943Y-74592698D01*
X132848855Y-74682237D01*
X132829948Y-74777290D01*
X121094090Y-74777290D01*
X120800993Y-74159240D01*
X120788093Y-74137429D01*
X120770053Y-74117007D01*
X120748375Y-74100497D01*
X120723893Y-74088533D01*
X120697548Y-74081576D01*
X120670351Y-74079892D01*
X120643349Y-74083546D01*
X120617578Y-74092398D01*
X118229978Y-75184598D01*
X118206700Y-75198112D01*
X118186235Y-75216103D01*
X118169673Y-75237741D01*
X118157650Y-75262194D01*
X118150629Y-75288523D01*
X118148880Y-75315715D01*
X115393388Y-75315715D01*
X116145506Y-74796566D01*
X117845631Y-73814998D01*
X119619226Y-72973417D01*
X119692491Y-72945631D01*
X121194373Y-72945631D01*
X121194373Y-73042547D01*
X121213280Y-73137600D01*
X121250368Y-73227139D01*
X121304211Y-73307721D01*
X121372741Y-73376251D01*
X121453323Y-73430094D01*
X121542862Y-73467182D01*
X121637915Y-73486089D01*
X121734831Y-73486089D01*
X121829884Y-73467182D01*
X121919423Y-73430094D01*
X122000005Y-73376251D01*
X122068535Y-73307721D01*
X122122378Y-73227139D01*
X122159466Y-73137600D01*
X122178373Y-73042547D01*
X122178373Y-72945631D01*
X122159466Y-72850578D01*
X122122378Y-72761039D01*
X122068535Y-72680457D01*
X122000005Y-72611927D01*
X121919423Y-72558084D01*
X121829884Y-72520996D01*
X121734831Y-72502089D01*
X121637915Y-72502089D01*
X121542862Y-72520996D01*
X121453323Y-72558084D01*
X121372741Y-72611927D01*
X121304211Y-72680457D01*
X121250368Y-72761039D01*
X121213280Y-72850578D01*
X121194373Y-72945631D01*
X119692491Y-72945631D01*
X121098149Y-72412536D01*
X121829690Y-72168689D01*
X123340415Y-71731102D01*
X125263876Y-71338424D01*
X127212697Y-71101794D01*
X129174240Y-71022747D01*
X131135783Y-71101794D01*
G04 #@! TA.AperFunction,Conductor*
D14*
G36*
X131135783Y-71101794D02*
G01*
X133084604Y-71338424D01*
X135008065Y-71731102D01*
X135946527Y-72002931D01*
X135914229Y-72035229D01*
X135860386Y-72115811D01*
X135823298Y-72205350D01*
X135804391Y-72300403D01*
X135804391Y-72397319D01*
X135823298Y-72492372D01*
X135860386Y-72581911D01*
X135914229Y-72662493D01*
X135982759Y-72731023D01*
X136063341Y-72784866D01*
X136152880Y-72821954D01*
X136247933Y-72840861D01*
X136344849Y-72840861D01*
X136439902Y-72821954D01*
X136529441Y-72784866D01*
X136610023Y-72731023D01*
X136678553Y-72662493D01*
X136732396Y-72581911D01*
X136769484Y-72492372D01*
X136788391Y-72397319D01*
X136788391Y-72300403D01*
X136777073Y-72243501D01*
X136893691Y-72277280D01*
X138729254Y-72973417D01*
X140039204Y-73594996D01*
X140179938Y-73667969D01*
X142302877Y-74865524D01*
X143818602Y-75911753D01*
X145169780Y-77014956D01*
X146050968Y-77896144D01*
X147318748Y-79290702D01*
X147320825Y-79292936D01*
X148362689Y-80389634D01*
X148644368Y-80764482D01*
X149461408Y-82126215D01*
X149464261Y-82130768D01*
X150538108Y-83773122D01*
X151610130Y-86106346D01*
X152177769Y-87809263D01*
X152936302Y-90716975D01*
X153188347Y-92733337D01*
X153251657Y-94949170D01*
X153251664Y-94949410D01*
X153314658Y-97028203D01*
X152873625Y-99107357D01*
X152872216Y-99115064D01*
X152367708Y-102394363D01*
X150790819Y-105421991D01*
X150787894Y-105427951D01*
X149271529Y-108713409D01*
X146179307Y-112436697D01*
X144029396Y-114270444D01*
X144017742Y-114281617D01*
X143204401Y-115157523D01*
X141828520Y-116033083D01*
X139552784Y-117170951D01*
X137019489Y-118247602D01*
X136895880Y-118293955D01*
X136883793Y-118233189D01*
X136846705Y-118143650D01*
X136801384Y-118075822D01*
X136832993Y-117999511D01*
X136851900Y-117904458D01*
X136851900Y-117807542D01*
X136832993Y-117712489D01*
X136795905Y-117622950D01*
X136742062Y-117542368D01*
X136673532Y-117473838D01*
X136592950Y-117419995D01*
X136503411Y-117382907D01*
X136499230Y-117382075D01*
X136509000Y-117332958D01*
X136509000Y-117236042D01*
X136490093Y-117140989D01*
X136453005Y-117051450D01*
X136399162Y-116970868D01*
X136330632Y-116902338D01*
X136250050Y-116848495D01*
X136160511Y-116811407D01*
X136065458Y-116792500D01*
X135968542Y-116792500D01*
X135873489Y-116811407D01*
X135783950Y-116848495D01*
X135703368Y-116902338D01*
X135634838Y-116970868D01*
X135580995Y-117051450D01*
X135543907Y-117140989D01*
X135525000Y-117236042D01*
X135525000Y-117332958D01*
X135543907Y-117428011D01*
X135580995Y-117517550D01*
X135634838Y-117598132D01*
X135703368Y-117666662D01*
X135783950Y-117720505D01*
X135873489Y-117757593D01*
X135877670Y-117758425D01*
X135867900Y-117807542D01*
X135867900Y-117904458D01*
X135886807Y-117999511D01*
X135923895Y-118089050D01*
X135969216Y-118156878D01*
X135937607Y-118233189D01*
X135918700Y-118328242D01*
X135918700Y-118425158D01*
X135937607Y-118520211D01*
X135974695Y-118609750D01*
X135990537Y-118633459D01*
X135154511Y-118946969D01*
X135143893Y-118893589D01*
X135106805Y-118804050D01*
X135052962Y-118723468D01*
X134984432Y-118654938D01*
X134903850Y-118601095D01*
X134814311Y-118564007D01*
X134719258Y-118545100D01*
X134622342Y-118545100D01*
X134527289Y-118564007D01*
X134437750Y-118601095D01*
X134357168Y-118654938D01*
X134347608Y-118664498D01*
X134303319Y-118634905D01*
X134213780Y-118597817D01*
X134118727Y-118578910D01*
X134021811Y-118578910D01*
X133926758Y-118597817D01*
X133837219Y-118634905D01*
X133758006Y-118687834D01*
X133741072Y-118670900D01*
X133660490Y-118617057D01*
X133570951Y-118579969D01*
X133475898Y-118561062D01*
X133378982Y-118561062D01*
X133283929Y-118579969D01*
X133194390Y-118617057D01*
X133113808Y-118670900D01*
X133045278Y-118739430D01*
X132991435Y-118820012D01*
X132972326Y-118866145D01*
X132967907Y-118864315D01*
X132872854Y-118845408D01*
X132808423Y-118845408D01*
X132782564Y-118782978D01*
X132728721Y-118702396D01*
X132660191Y-118633866D01*
X132579609Y-118580023D01*
X132490070Y-118542935D01*
X132395017Y-118524028D01*
X132298101Y-118524028D01*
X132203048Y-118542935D01*
X132113509Y-118580023D01*
X132032927Y-118633866D01*
X131964397Y-118702396D01*
X131931648Y-118751408D01*
X131879458Y-118673299D01*
X131810928Y-118604769D01*
X131756236Y-118568225D01*
X131779405Y-118533550D01*
X131816493Y-118444011D01*
X131835400Y-118348958D01*
X131835400Y-118252042D01*
X131816493Y-118156989D01*
X131779405Y-118067450D01*
X131725562Y-117986868D01*
X131708994Y-117970300D01*
X131750962Y-117928332D01*
X131804805Y-117847750D01*
X131841893Y-117758211D01*
X131860800Y-117663158D01*
X131860800Y-117566242D01*
X131841893Y-117471189D01*
X131804805Y-117381650D01*
X131768363Y-117327110D01*
X131795867Y-117308732D01*
X131808976Y-117295624D01*
X131836615Y-117323263D01*
X131917197Y-117377106D01*
X132006736Y-117414194D01*
X132101789Y-117433101D01*
X132198705Y-117433101D01*
X132293758Y-117414194D01*
X132383297Y-117377106D01*
X132447462Y-117334232D01*
X132477847Y-117354535D01*
X132567386Y-117391623D01*
X132662439Y-117410530D01*
X132759355Y-117410530D01*
X132854408Y-117391623D01*
X132943947Y-117354535D01*
X132958803Y-117344609D01*
X132967861Y-117353667D01*
X133048443Y-117407510D01*
X133137982Y-117444598D01*
X133233035Y-117463505D01*
X133329951Y-117463505D01*
X133425004Y-117444598D01*
X133514543Y-117407510D01*
X133595125Y-117353667D01*
X133622484Y-117326309D01*
X133661057Y-117364882D01*
X133741639Y-117418725D01*
X133831178Y-117455813D01*
X133926231Y-117474720D01*
X134023147Y-117474720D01*
X134118200Y-117455813D01*
X134207739Y-117418725D01*
X134288321Y-117364882D01*
X134293810Y-117359393D01*
X134360881Y-117426464D01*
X134441463Y-117480307D01*
X134531002Y-117517395D01*
X134626055Y-117536302D01*
X134722971Y-117536302D01*
X134818024Y-117517395D01*
X134907563Y-117480307D01*
X134988145Y-117426464D01*
X135056675Y-117357934D01*
X135110518Y-117277352D01*
X135147606Y-117187813D01*
X135166513Y-117092760D01*
X135166513Y-116995844D01*
X135147606Y-116900791D01*
X135110518Y-116811252D01*
X135056675Y-116730670D01*
X134988145Y-116662140D01*
X134907563Y-116608297D01*
X134851694Y-116585155D01*
X134851694Y-116550527D01*
X134832787Y-116455474D01*
X134795699Y-116365935D01*
X134741856Y-116285353D01*
X134673326Y-116216823D01*
X134592744Y-116162980D01*
X134503205Y-116125892D01*
X134408152Y-116106985D01*
X134311236Y-116106985D01*
X134216183Y-116125892D01*
X134126644Y-116162980D01*
X134046062Y-116216823D01*
X133977532Y-116285353D01*
X133923689Y-116365935D01*
X133886601Y-116455474D01*
X133877669Y-116500380D01*
X133831178Y-116509627D01*
X133741639Y-116546715D01*
X133661057Y-116600558D01*
X133633699Y-116627917D01*
X133595125Y-116589343D01*
X133514543Y-116535500D01*
X133425004Y-116498412D01*
X133329951Y-116479505D01*
X133233035Y-116479505D01*
X133137982Y-116498412D01*
X133048443Y-116535500D01*
X133033587Y-116545426D01*
X133024529Y-116536368D01*
X132943947Y-116482525D01*
X132854408Y-116445437D01*
X132759355Y-116426530D01*
X132662439Y-116426530D01*
X132567386Y-116445437D01*
X132477847Y-116482525D01*
X132413682Y-116525399D01*
X132383297Y-116505096D01*
X132293758Y-116468008D01*
X132198705Y-116449101D01*
X132101789Y-116449101D01*
X132006736Y-116468008D01*
X131917197Y-116505096D01*
X131836615Y-116558939D01*
X131823507Y-116572048D01*
X131795867Y-116544408D01*
X131715285Y-116490565D01*
X131625746Y-116453477D01*
X131530693Y-116434570D01*
X131433777Y-116434570D01*
X131338724Y-116453477D01*
X131249185Y-116490565D01*
X131168603Y-116544408D01*
X131100073Y-116612938D01*
X131046230Y-116693520D01*
X131042055Y-116703600D01*
X131028242Y-116703600D01*
X130933189Y-116722507D01*
X130843650Y-116759595D01*
X130763068Y-116813438D01*
X130694538Y-116881968D01*
X130640695Y-116962550D01*
X130603607Y-117052089D01*
X130584700Y-117147142D01*
X130584700Y-117244058D01*
X130603607Y-117339111D01*
X130640695Y-117428650D01*
X130681634Y-117489920D01*
X130610668Y-117537338D01*
X130542138Y-117605868D01*
X130488295Y-117686450D01*
X130451207Y-117775989D01*
X130432300Y-117871042D01*
X130432300Y-117967958D01*
X130451207Y-118063011D01*
X130488295Y-118152550D01*
X130542138Y-118233132D01*
X130610668Y-118301662D01*
X130634746Y-118317750D01*
X130633595Y-118318519D01*
X130565065Y-118387049D01*
X130511222Y-118467631D01*
X130474134Y-118557170D01*
X130455227Y-118652223D01*
X130455227Y-118749139D01*
X130474134Y-118844192D01*
X130511222Y-118933731D01*
X130565065Y-119014313D01*
X130633595Y-119082843D01*
X130644683Y-119090251D01*
X130644471Y-119090568D01*
X130607383Y-119180107D01*
X130588476Y-119275160D01*
X130588476Y-119372076D01*
X130607383Y-119467129D01*
X130644471Y-119556668D01*
X130698314Y-119637250D01*
X130743771Y-119682707D01*
X130648893Y-119697832D01*
X126865771Y-119571728D01*
X121683688Y-118371002D01*
X116756201Y-116286296D01*
X116065718Y-115788242D01*
X121428000Y-115788242D01*
X121428000Y-115885158D01*
X121446907Y-115980211D01*
X121483995Y-116069750D01*
X121537838Y-116150332D01*
X121606368Y-116218862D01*
X121686950Y-116272705D01*
X121776489Y-116309793D01*
X121871542Y-116328700D01*
X121968458Y-116328700D01*
X122063511Y-116309793D01*
X122153050Y-116272705D01*
X122233632Y-116218862D01*
X122302162Y-116150332D01*
X122356005Y-116069750D01*
X122393093Y-115980211D01*
X122412000Y-115885158D01*
X122412000Y-115788242D01*
X122393093Y-115693189D01*
X122356005Y-115603650D01*
X122302162Y-115523068D01*
X122233632Y-115454538D01*
X122153050Y-115400695D01*
X122063511Y-115363607D01*
X121968458Y-115344700D01*
X121871542Y-115344700D01*
X121776489Y-115363607D01*
X121686950Y-115400695D01*
X121606368Y-115454538D01*
X121537838Y-115523068D01*
X121483995Y-115603650D01*
X121446907Y-115693189D01*
X121428000Y-115788242D01*
X116065718Y-115788242D01*
X113054952Y-113616542D01*
X123790200Y-113616542D01*
X123790200Y-113713458D01*
X123809107Y-113808511D01*
X123846195Y-113898050D01*
X123900038Y-113978632D01*
X123968568Y-114047162D01*
X124049150Y-114101005D01*
X124138689Y-114138093D01*
X124233742Y-114157000D01*
X124330658Y-114157000D01*
X124425711Y-114138093D01*
X124515250Y-114101005D01*
X124595832Y-114047162D01*
X124664362Y-113978632D01*
X124718205Y-113898050D01*
X124755293Y-113808511D01*
X124774200Y-113713458D01*
X124774200Y-113616542D01*
X124755293Y-113521489D01*
X124718205Y-113431950D01*
X124664362Y-113351368D01*
X124595832Y-113282838D01*
X124575281Y-113269106D01*
X125266200Y-113269106D01*
X125266200Y-113400494D01*
X125291833Y-113529357D01*
X125342113Y-113650743D01*
X125415108Y-113759988D01*
X125508012Y-113852892D01*
X125617257Y-113925887D01*
X125738643Y-113976167D01*
X125867506Y-114001800D01*
X125998894Y-114001800D01*
X126127757Y-113976167D01*
X126249143Y-113925887D01*
X126358388Y-113852892D01*
X126451292Y-113759988D01*
X126524287Y-113650743D01*
X126574567Y-113529357D01*
X126600200Y-113400494D01*
X126600200Y-113269106D01*
X126574567Y-113140243D01*
X126524287Y-113018857D01*
X126451292Y-112909612D01*
X126396222Y-112854542D01*
X139525500Y-112854542D01*
X139525500Y-112951458D01*
X139544407Y-113046511D01*
X139581495Y-113136050D01*
X139635338Y-113216632D01*
X139703868Y-113285162D01*
X139784450Y-113339005D01*
X139873989Y-113376093D01*
X139969042Y-113395000D01*
X140065958Y-113395000D01*
X140161011Y-113376093D01*
X140250550Y-113339005D01*
X140331132Y-113285162D01*
X140399662Y-113216632D01*
X140453505Y-113136050D01*
X140490593Y-113046511D01*
X140509500Y-112951458D01*
X140509500Y-112854542D01*
X140490593Y-112759489D01*
X140453505Y-112669950D01*
X140399662Y-112589368D01*
X140331132Y-112520838D01*
X140250550Y-112466995D01*
X140161011Y-112429907D01*
X140065958Y-112411000D01*
X139969042Y-112411000D01*
X139873989Y-112429907D01*
X139784450Y-112466995D01*
X139703868Y-112520838D01*
X139635338Y-112589368D01*
X139581495Y-112669950D01*
X139544407Y-112759489D01*
X139525500Y-112854542D01*
X126396222Y-112854542D01*
X126358388Y-112816708D01*
X126249143Y-112743713D01*
X126127757Y-112693433D01*
X125998894Y-112667800D01*
X125867506Y-112667800D01*
X125738643Y-112693433D01*
X125617257Y-112743713D01*
X125508012Y-112816708D01*
X125415108Y-112909612D01*
X125342113Y-113018857D01*
X125291833Y-113140243D01*
X125266200Y-113269106D01*
X124575281Y-113269106D01*
X124515250Y-113228995D01*
X124425711Y-113191907D01*
X124330658Y-113173000D01*
X124233742Y-113173000D01*
X124138689Y-113191907D01*
X124049150Y-113228995D01*
X123968568Y-113282838D01*
X123900038Y-113351368D01*
X123846195Y-113431950D01*
X123809107Y-113521489D01*
X123790200Y-113616542D01*
X113054952Y-113616542D01*
X112904483Y-113508007D01*
X111945745Y-112549269D01*
X112022832Y-112497762D01*
X112091362Y-112429232D01*
X112145205Y-112348650D01*
X112182293Y-112259111D01*
X112201200Y-112164058D01*
X112201200Y-112067142D01*
X112182293Y-111972089D01*
X112145205Y-111882550D01*
X112091362Y-111801968D01*
X112022832Y-111733438D01*
X111942250Y-111679595D01*
X111852711Y-111642507D01*
X111757658Y-111623600D01*
X111660742Y-111623600D01*
X111565689Y-111642507D01*
X111476150Y-111679595D01*
X111395568Y-111733438D01*
X111327038Y-111801968D01*
X111275531Y-111879055D01*
X110945252Y-111548776D01*
X110977050Y-111535605D01*
X111057632Y-111481762D01*
X111126162Y-111413232D01*
X111180005Y-111332650D01*
X111217093Y-111243111D01*
X111224963Y-111203542D01*
X117745000Y-111203542D01*
X117745000Y-111300458D01*
X117763907Y-111395511D01*
X117800995Y-111485050D01*
X117854838Y-111565632D01*
X117923368Y-111634162D01*
X118003950Y-111688005D01*
X118093489Y-111725093D01*
X118188542Y-111744000D01*
X118285458Y-111744000D01*
X118380511Y-111725093D01*
X118470050Y-111688005D01*
X118550632Y-111634162D01*
X118619162Y-111565632D01*
X118673005Y-111485050D01*
X118710093Y-111395511D01*
X118729000Y-111300458D01*
X118729000Y-111203542D01*
X118710093Y-111108489D01*
X118673005Y-111018950D01*
X118619162Y-110938368D01*
X118550632Y-110869838D01*
X118470050Y-110815995D01*
X118380511Y-110778907D01*
X118285458Y-110760000D01*
X118188542Y-110760000D01*
X118093489Y-110778907D01*
X118003950Y-110815995D01*
X117923368Y-110869838D01*
X117854838Y-110938368D01*
X117800995Y-111018950D01*
X117763907Y-111108489D01*
X117745000Y-111203542D01*
X111224963Y-111203542D01*
X111236000Y-111148058D01*
X111236000Y-111051142D01*
X111217093Y-110956089D01*
X111180005Y-110866550D01*
X111126162Y-110785968D01*
X111057632Y-110717438D01*
X110977050Y-110663595D01*
X110887511Y-110626507D01*
X110792458Y-110607600D01*
X110695542Y-110607600D01*
X110600489Y-110626507D01*
X110510950Y-110663595D01*
X110430368Y-110717438D01*
X110361838Y-110785968D01*
X110319943Y-110848668D01*
X110121877Y-110591183D01*
X109551345Y-109831942D01*
X117567200Y-109831942D01*
X117567200Y-109928858D01*
X117586107Y-110023911D01*
X117623195Y-110113450D01*
X117677038Y-110194032D01*
X117745568Y-110262562D01*
X117826150Y-110316405D01*
X117915689Y-110353493D01*
X118010742Y-110372400D01*
X118107658Y-110372400D01*
X118202711Y-110353493D01*
X118292250Y-110316405D01*
X118372832Y-110262562D01*
X118441362Y-110194032D01*
X118495205Y-110113450D01*
X118532293Y-110023911D01*
X118551200Y-109928858D01*
X118551200Y-109831942D01*
X118532293Y-109736889D01*
X118495205Y-109647350D01*
X118441362Y-109566768D01*
X118372832Y-109498238D01*
X118292250Y-109444395D01*
X118202711Y-109407307D01*
X118107658Y-109388400D01*
X118010742Y-109388400D01*
X117915689Y-109407307D01*
X117826150Y-109444395D01*
X117745568Y-109498238D01*
X117677038Y-109566768D01*
X117623195Y-109647350D01*
X117586107Y-109736889D01*
X117567200Y-109831942D01*
X109551345Y-109831942D01*
X109112269Y-109247639D01*
X108726847Y-108638142D01*
X110099600Y-108638142D01*
X110099600Y-108735058D01*
X110118507Y-108830111D01*
X110155595Y-108919650D01*
X110209438Y-109000232D01*
X110277968Y-109068762D01*
X110358550Y-109122605D01*
X110448089Y-109159693D01*
X110543142Y-109178600D01*
X110640058Y-109178600D01*
X110735111Y-109159693D01*
X110824650Y-109122605D01*
X110872240Y-109090806D01*
X131540000Y-109090806D01*
X131540000Y-109222194D01*
X131565633Y-109351057D01*
X131615913Y-109472443D01*
X131688908Y-109581688D01*
X131781812Y-109674592D01*
X131891057Y-109747587D01*
X131952585Y-109773073D01*
X131946633Y-109787443D01*
X131921000Y-109916306D01*
X131921000Y-110047694D01*
X131946633Y-110176557D01*
X131996913Y-110297943D01*
X132069908Y-110407188D01*
X132162812Y-110500092D01*
X132272057Y-110573087D01*
X132319057Y-110592555D01*
X132302000Y-110678306D01*
X132302000Y-110809694D01*
X132327633Y-110938557D01*
X132377913Y-111059943D01*
X132450908Y-111169188D01*
X132543812Y-111262092D01*
X132653057Y-111335087D01*
X132774443Y-111385367D01*
X132903306Y-111411000D01*
X133034694Y-111411000D01*
X133163557Y-111385367D01*
X133284943Y-111335087D01*
X133394188Y-111262092D01*
X133413500Y-111242780D01*
X133496312Y-111325592D01*
X133605557Y-111398587D01*
X133726943Y-111448867D01*
X133855806Y-111474500D01*
X133987194Y-111474500D01*
X134116057Y-111448867D01*
X134237443Y-111398587D01*
X134346688Y-111325592D01*
X134439592Y-111232688D01*
X134512587Y-111123443D01*
X134562867Y-111002057D01*
X134588500Y-110873194D01*
X134588500Y-110741806D01*
X134587946Y-110739022D01*
X134681943Y-110700087D01*
X134738210Y-110662490D01*
X134766312Y-110690592D01*
X134875557Y-110763587D01*
X134996943Y-110813867D01*
X135125806Y-110839500D01*
X135257194Y-110839500D01*
X135386057Y-110813867D01*
X135457094Y-110784442D01*
X143246600Y-110784442D01*
X143246600Y-110881358D01*
X143265507Y-110976411D01*
X143302595Y-111065950D01*
X143356438Y-111146532D01*
X143424968Y-111215062D01*
X143505550Y-111268905D01*
X143595089Y-111305993D01*
X143690142Y-111324900D01*
X143787058Y-111324900D01*
X143882111Y-111305993D01*
X143971650Y-111268905D01*
X144052232Y-111215062D01*
X144120762Y-111146532D01*
X144174605Y-111065950D01*
X144211693Y-110976411D01*
X144230600Y-110881358D01*
X144230600Y-110784442D01*
X144211693Y-110689389D01*
X144174605Y-110599850D01*
X144120762Y-110519268D01*
X144052232Y-110450738D01*
X143971650Y-110396895D01*
X143882111Y-110359807D01*
X143787058Y-110340900D01*
X143690142Y-110340900D01*
X143595089Y-110359807D01*
X143505550Y-110396895D01*
X143424968Y-110450738D01*
X143356438Y-110519268D01*
X143302595Y-110599850D01*
X143265507Y-110689389D01*
X143246600Y-110784442D01*
X135457094Y-110784442D01*
X135507443Y-110763587D01*
X135616688Y-110690592D01*
X135709592Y-110597688D01*
X135782587Y-110488443D01*
X135832867Y-110367057D01*
X135858500Y-110238194D01*
X135858500Y-110106806D01*
X135846277Y-110045356D01*
X135951943Y-110001587D01*
X136061188Y-109928592D01*
X136154092Y-109835688D01*
X136227087Y-109726443D01*
X136277367Y-109605057D01*
X136303000Y-109476194D01*
X136303000Y-109442500D01*
X136336694Y-109442500D01*
X136465557Y-109416867D01*
X136586943Y-109366587D01*
X136696188Y-109293592D01*
X136789092Y-109200688D01*
X136862087Y-109091443D01*
X136912367Y-108970057D01*
X136938000Y-108841194D01*
X136938000Y-108709806D01*
X136912367Y-108580943D01*
X136862087Y-108459557D01*
X136789092Y-108350312D01*
X136696188Y-108257408D01*
X136586943Y-108184413D01*
X136465557Y-108134133D01*
X136336694Y-108108500D01*
X136205306Y-108108500D01*
X136076443Y-108134133D01*
X135955057Y-108184413D01*
X135928422Y-108202210D01*
X135900092Y-108159812D01*
X135817937Y-108077657D01*
X147061000Y-108077657D01*
X147061000Y-108228743D01*
X147090476Y-108376926D01*
X147148294Y-108516511D01*
X147232232Y-108642134D01*
X147339066Y-108748968D01*
X147464689Y-108832906D01*
X147604274Y-108890724D01*
X147752457Y-108920200D01*
X147903543Y-108920200D01*
X148051726Y-108890724D01*
X148191311Y-108832906D01*
X148316934Y-108748968D01*
X148423768Y-108642134D01*
X148507706Y-108516511D01*
X148565524Y-108376926D01*
X148595000Y-108228743D01*
X148595000Y-108077657D01*
X148565524Y-107929474D01*
X148507706Y-107789889D01*
X148423768Y-107664266D01*
X148316934Y-107557432D01*
X148191311Y-107473494D01*
X148051726Y-107415676D01*
X147903543Y-107386200D01*
X147752457Y-107386200D01*
X147604274Y-107415676D01*
X147464689Y-107473494D01*
X147339066Y-107557432D01*
X147232232Y-107664266D01*
X147148294Y-107789889D01*
X147090476Y-107929474D01*
X147061000Y-108077657D01*
X135817937Y-108077657D01*
X135807188Y-108066908D01*
X135697943Y-107993913D01*
X135576557Y-107943633D01*
X135447694Y-107918000D01*
X135316306Y-107918000D01*
X135187443Y-107943633D01*
X135066057Y-107993913D01*
X134971724Y-108056944D01*
X134918188Y-108003408D01*
X134808943Y-107930413D01*
X134687557Y-107880133D01*
X134558694Y-107854500D01*
X134427306Y-107854500D01*
X134298443Y-107880133D01*
X134177057Y-107930413D01*
X134067812Y-108003408D01*
X134048500Y-108022720D01*
X133965688Y-107939908D01*
X133856443Y-107866913D01*
X133735057Y-107816633D01*
X133606194Y-107791000D01*
X133474806Y-107791000D01*
X133345943Y-107816633D01*
X133224557Y-107866913D01*
X133115312Y-107939908D01*
X133096000Y-107959220D01*
X133013188Y-107876408D01*
X132903943Y-107803413D01*
X132782557Y-107753133D01*
X132653694Y-107727500D01*
X132522306Y-107727500D01*
X132393443Y-107753133D01*
X132272057Y-107803413D01*
X132162812Y-107876408D01*
X132069908Y-107969312D01*
X131996913Y-108078557D01*
X131946633Y-108199943D01*
X131921000Y-108328806D01*
X131921000Y-108460194D01*
X131938057Y-108545945D01*
X131891057Y-108565413D01*
X131781812Y-108638408D01*
X131688908Y-108731312D01*
X131615913Y-108840557D01*
X131565633Y-108961943D01*
X131540000Y-109090806D01*
X110872240Y-109090806D01*
X110905232Y-109068762D01*
X110973762Y-109000232D01*
X111027605Y-108919650D01*
X111064693Y-108830111D01*
X111083600Y-108735058D01*
X111083600Y-108638142D01*
X111064693Y-108543089D01*
X111027605Y-108453550D01*
X110973762Y-108372968D01*
X110905232Y-108304438D01*
X110824650Y-108250595D01*
X110735111Y-108213507D01*
X110640058Y-108194600D01*
X110543142Y-108194600D01*
X110448089Y-108213507D01*
X110358550Y-108250595D01*
X110277968Y-108304438D01*
X110209438Y-108372968D01*
X110155595Y-108453550D01*
X110118507Y-108543089D01*
X110099600Y-108638142D01*
X108726847Y-108638142D01*
X108341360Y-108028542D01*
X114189000Y-108028542D01*
X114189000Y-108125458D01*
X114207907Y-108220511D01*
X114244995Y-108310050D01*
X114298838Y-108390632D01*
X114367368Y-108459162D01*
X114447950Y-108513005D01*
X114537489Y-108550093D01*
X114632542Y-108569000D01*
X114729458Y-108569000D01*
X114824511Y-108550093D01*
X114914050Y-108513005D01*
X114994632Y-108459162D01*
X115063162Y-108390632D01*
X115117005Y-108310050D01*
X115154093Y-108220511D01*
X115173000Y-108125458D01*
X115173000Y-108028542D01*
X115154093Y-107933489D01*
X115117005Y-107843950D01*
X115107557Y-107829809D01*
X115450767Y-107829809D01*
X115450767Y-107926725D01*
X115469674Y-108021778D01*
X115506762Y-108111317D01*
X115560605Y-108191899D01*
X115629135Y-108260429D01*
X115709717Y-108314272D01*
X115799256Y-108351360D01*
X115894309Y-108370267D01*
X115991225Y-108370267D01*
X116086278Y-108351360D01*
X116175817Y-108314272D01*
X116256399Y-108260429D01*
X116324929Y-108191899D01*
X116378772Y-108111317D01*
X116415860Y-108021778D01*
X116434767Y-107926725D01*
X116434767Y-107829809D01*
X116416196Y-107736442D01*
X116741700Y-107736442D01*
X116741700Y-107833358D01*
X116760607Y-107928411D01*
X116797695Y-108017950D01*
X116851538Y-108098532D01*
X116920068Y-108167062D01*
X117000650Y-108220905D01*
X117090189Y-108257993D01*
X117185242Y-108276900D01*
X117282158Y-108276900D01*
X117377211Y-108257993D01*
X117466750Y-108220905D01*
X117547332Y-108167062D01*
X117615862Y-108098532D01*
X117669705Y-108017950D01*
X117706793Y-107928411D01*
X117725700Y-107833358D01*
X117725700Y-107736442D01*
X117706793Y-107641389D01*
X117669705Y-107551850D01*
X117615862Y-107471268D01*
X117547332Y-107402738D01*
X117466750Y-107348895D01*
X117377211Y-107311807D01*
X117282158Y-107292900D01*
X117185242Y-107292900D01*
X117090189Y-107311807D01*
X117000650Y-107348895D01*
X116920068Y-107402738D01*
X116851538Y-107471268D01*
X116797695Y-107551850D01*
X116760607Y-107641389D01*
X116741700Y-107736442D01*
X116416196Y-107736442D01*
X116415860Y-107734756D01*
X116378772Y-107645217D01*
X116324929Y-107564635D01*
X116256399Y-107496105D01*
X116175817Y-107442262D01*
X116086278Y-107405174D01*
X115991225Y-107386267D01*
X115894309Y-107386267D01*
X115799256Y-107405174D01*
X115709717Y-107442262D01*
X115629135Y-107496105D01*
X115560605Y-107564635D01*
X115506762Y-107645217D01*
X115469674Y-107734756D01*
X115450767Y-107829809D01*
X115107557Y-107829809D01*
X115063162Y-107763368D01*
X114994632Y-107694838D01*
X114914050Y-107640995D01*
X114824511Y-107603907D01*
X114729458Y-107585000D01*
X114632542Y-107585000D01*
X114537489Y-107603907D01*
X114447950Y-107640995D01*
X114367368Y-107694838D01*
X114298838Y-107763368D01*
X114244995Y-107843950D01*
X114207907Y-107933489D01*
X114189000Y-108028542D01*
X108341360Y-108028542D01*
X108063041Y-107588416D01*
X107974095Y-107418942D01*
X110709200Y-107418942D01*
X110709200Y-107515858D01*
X110728107Y-107610911D01*
X110765195Y-107700450D01*
X110819038Y-107781032D01*
X110887568Y-107849562D01*
X110968150Y-107903405D01*
X111057689Y-107940493D01*
X111152742Y-107959400D01*
X111249658Y-107959400D01*
X111344711Y-107940493D01*
X111434250Y-107903405D01*
X111514832Y-107849562D01*
X111583362Y-107781032D01*
X111637205Y-107700450D01*
X111674293Y-107610911D01*
X111693200Y-107515858D01*
X111693200Y-107418942D01*
X111674293Y-107323889D01*
X111637205Y-107234350D01*
X111583362Y-107153768D01*
X111514832Y-107085238D01*
X111434250Y-107031395D01*
X111344711Y-106994307D01*
X111249658Y-106975400D01*
X111152742Y-106975400D01*
X111057689Y-106994307D01*
X110968150Y-107031395D01*
X110887568Y-107085238D01*
X110819038Y-107153768D01*
X110765195Y-107234350D01*
X110728107Y-107323889D01*
X110709200Y-107418942D01*
X107974095Y-107418942D01*
X107632449Y-106767992D01*
X110213149Y-107198109D01*
X110239693Y-107199951D01*
X110266730Y-107196561D01*
X110292586Y-107187961D01*
X110316268Y-107174482D01*
X110336864Y-107156642D01*
X110353585Y-107135126D01*
X110365787Y-107110762D01*
X110373001Y-107084486D01*
X110450648Y-106631542D01*
X118062500Y-106631542D01*
X118062500Y-106728458D01*
X118081407Y-106823511D01*
X118118495Y-106913050D01*
X118172338Y-106993632D01*
X118240868Y-107062162D01*
X118321450Y-107116005D01*
X118410989Y-107153093D01*
X118506042Y-107172000D01*
X118602243Y-107172000D01*
X118626495Y-107230550D01*
X118680338Y-107311132D01*
X118748868Y-107379662D01*
X118829450Y-107433505D01*
X118918989Y-107470593D01*
X119014042Y-107489500D01*
X119110958Y-107489500D01*
X119206011Y-107470593D01*
X119295550Y-107433505D01*
X119376132Y-107379662D01*
X119443500Y-107312294D01*
X119510868Y-107379662D01*
X119591450Y-107433505D01*
X119680989Y-107470593D01*
X119776042Y-107489500D01*
X119872958Y-107489500D01*
X119968011Y-107470593D01*
X120057550Y-107433505D01*
X120132251Y-107383592D01*
X120188989Y-107407093D01*
X120284042Y-107426000D01*
X120380958Y-107426000D01*
X120476011Y-107407093D01*
X120565550Y-107370005D01*
X120646132Y-107316162D01*
X120650000Y-107312294D01*
X120653868Y-107316162D01*
X120734450Y-107370005D01*
X120823989Y-107407093D01*
X120919042Y-107426000D01*
X121015958Y-107426000D01*
X121111011Y-107407093D01*
X121200550Y-107370005D01*
X121281132Y-107316162D01*
X121349662Y-107247632D01*
X121403505Y-107167050D01*
X121440593Y-107077511D01*
X121442603Y-107067405D01*
X137096702Y-107067405D01*
X137096702Y-107164321D01*
X137115609Y-107259374D01*
X137152697Y-107348913D01*
X137206540Y-107429495D01*
X137275070Y-107498025D01*
X137355652Y-107551868D01*
X137445191Y-107588956D01*
X137540244Y-107607863D01*
X137637160Y-107607863D01*
X137732213Y-107588956D01*
X137821752Y-107551868D01*
X137902334Y-107498025D01*
X137970864Y-107429495D01*
X138024707Y-107348913D01*
X138061795Y-107259374D01*
X138080702Y-107164321D01*
X138080702Y-107067405D01*
X138061795Y-106972352D01*
X138024707Y-106882813D01*
X137970864Y-106802231D01*
X137902334Y-106733701D01*
X137821752Y-106679858D01*
X137732213Y-106642770D01*
X137637160Y-106623863D01*
X137540244Y-106623863D01*
X137445191Y-106642770D01*
X137355652Y-106679858D01*
X137275070Y-106733701D01*
X137206540Y-106802231D01*
X137152697Y-106882813D01*
X137115609Y-106972352D01*
X137096702Y-107067405D01*
X121442603Y-107067405D01*
X121459500Y-106982458D01*
X121459500Y-106885542D01*
X121440593Y-106790489D01*
X121403505Y-106700950D01*
X121349662Y-106620368D01*
X121281132Y-106551838D01*
X121200550Y-106497995D01*
X121135324Y-106470978D01*
X121123093Y-106409489D01*
X121086005Y-106319950D01*
X121032162Y-106239368D01*
X120963632Y-106170838D01*
X120950486Y-106162054D01*
X120951500Y-106156958D01*
X120951500Y-106060042D01*
X120932593Y-105964989D01*
X120895505Y-105875450D01*
X120841662Y-105794868D01*
X120773132Y-105726338D01*
X120692550Y-105672495D01*
X120603011Y-105635407D01*
X120507958Y-105616500D01*
X120411042Y-105616500D01*
X120315989Y-105635407D01*
X120260631Y-105658337D01*
X120201632Y-105599338D01*
X120121050Y-105545495D01*
X120031511Y-105508407D01*
X119936458Y-105489500D01*
X119839542Y-105489500D01*
X119744489Y-105508407D01*
X119654950Y-105545495D01*
X119574368Y-105599338D01*
X119533968Y-105639738D01*
X119523511Y-105635407D01*
X119428458Y-105616500D01*
X119331542Y-105616500D01*
X119236489Y-105635407D01*
X119146950Y-105672495D01*
X119066368Y-105726338D01*
X118997838Y-105794868D01*
X118947302Y-105870500D01*
X118887042Y-105870500D01*
X118791989Y-105889407D01*
X118702450Y-105926495D01*
X118621868Y-105980338D01*
X118553338Y-106048868D01*
X118499495Y-106129450D01*
X118472478Y-106194676D01*
X118410989Y-106206907D01*
X118321450Y-106243995D01*
X118240868Y-106297838D01*
X118172338Y-106366368D01*
X118118495Y-106446950D01*
X118081407Y-106536489D01*
X118062500Y-106631542D01*
X110450648Y-106631542D01*
X110677071Y-105310742D01*
X111826800Y-105310742D01*
X111826800Y-105407658D01*
X111845707Y-105502711D01*
X111882795Y-105592250D01*
X111936638Y-105672832D01*
X112005168Y-105741362D01*
X112085750Y-105795205D01*
X112175289Y-105832293D01*
X112270342Y-105851200D01*
X112367258Y-105851200D01*
X112462311Y-105832293D01*
X112551850Y-105795205D01*
X112632432Y-105741362D01*
X112700962Y-105672832D01*
X112754805Y-105592250D01*
X112791893Y-105502711D01*
X112810800Y-105407658D01*
X112810800Y-105310742D01*
X112791893Y-105215689D01*
X112754805Y-105126150D01*
X112700962Y-105045568D01*
X112632432Y-104977038D01*
X112551850Y-104923195D01*
X112462311Y-104886107D01*
X112367258Y-104867200D01*
X112270342Y-104867200D01*
X112175289Y-104886107D01*
X112085750Y-104923195D01*
X112005168Y-104977038D01*
X111936638Y-105045568D01*
X111882795Y-105126150D01*
X111845707Y-105215689D01*
X111826800Y-105310742D01*
X110677071Y-105310742D01*
X110833825Y-104396342D01*
X118278400Y-104396342D01*
X118278400Y-104493258D01*
X118297307Y-104588311D01*
X118334395Y-104677850D01*
X118388238Y-104758432D01*
X118456768Y-104826962D01*
X118537350Y-104880805D01*
X118626889Y-104917893D01*
X118721942Y-104936800D01*
X118818858Y-104936800D01*
X118913911Y-104917893D01*
X119003450Y-104880805D01*
X119084032Y-104826962D01*
X119152562Y-104758432D01*
X119206405Y-104677850D01*
X119243493Y-104588311D01*
X119262400Y-104493258D01*
X119262400Y-104396342D01*
X119243493Y-104301289D01*
X119206405Y-104211750D01*
X119152562Y-104131168D01*
X119084032Y-104062638D01*
X119003450Y-104008795D01*
X118913911Y-103971707D01*
X118818858Y-103952800D01*
X118721942Y-103952800D01*
X118626889Y-103971707D01*
X118537350Y-104008795D01*
X118456768Y-104062638D01*
X118388238Y-104131168D01*
X118334395Y-104211750D01*
X118297307Y-104301289D01*
X118278400Y-104396342D01*
X110833825Y-104396342D01*
X110935237Y-103804773D01*
X129930705Y-103804773D01*
X129930705Y-103901689D01*
X129949612Y-103996742D01*
X129986700Y-104086281D01*
X130040543Y-104166863D01*
X130109073Y-104235393D01*
X130189655Y-104289236D01*
X130279194Y-104326324D01*
X130374247Y-104345231D01*
X130471163Y-104345231D01*
X130566216Y-104326324D01*
X130655755Y-104289236D01*
X130736337Y-104235393D01*
X130804867Y-104166863D01*
X130858710Y-104086281D01*
X130895798Y-103996742D01*
X130905018Y-103950390D01*
X130932795Y-104017450D01*
X130986638Y-104098032D01*
X131055168Y-104166562D01*
X131135750Y-104220405D01*
X131225289Y-104257493D01*
X131320342Y-104276400D01*
X131417258Y-104276400D01*
X131512311Y-104257493D01*
X131601850Y-104220405D01*
X131682432Y-104166562D01*
X131750962Y-104098032D01*
X131804805Y-104017450D01*
X131841893Y-103927911D01*
X131860800Y-103832858D01*
X131860800Y-103735942D01*
X131841893Y-103640889D01*
X131804805Y-103551350D01*
X131782802Y-103518420D01*
X131805050Y-103509205D01*
X131885632Y-103455362D01*
X131954162Y-103386832D01*
X132008005Y-103306250D01*
X132045093Y-103216711D01*
X132064000Y-103121658D01*
X132064000Y-103024742D01*
X132045093Y-102929689D01*
X132008005Y-102840150D01*
X131954162Y-102759568D01*
X131885632Y-102691038D01*
X131805050Y-102637195D01*
X131715511Y-102600107D01*
X131620458Y-102581200D01*
X131523542Y-102581200D01*
X131428489Y-102600107D01*
X131338950Y-102637195D01*
X131258368Y-102691038D01*
X131189838Y-102759568D01*
X131135995Y-102840150D01*
X131098907Y-102929689D01*
X131080000Y-103024742D01*
X131080000Y-103121658D01*
X131098907Y-103216711D01*
X131135995Y-103306250D01*
X131157998Y-103339180D01*
X131135750Y-103348395D01*
X131055168Y-103402238D01*
X130986638Y-103470768D01*
X130932795Y-103551350D01*
X130895707Y-103640889D01*
X130886487Y-103687241D01*
X130858710Y-103620181D01*
X130804867Y-103539599D01*
X130736337Y-103471069D01*
X130655755Y-103417226D01*
X130566216Y-103380138D01*
X130471163Y-103361231D01*
X130374247Y-103361231D01*
X130279194Y-103380138D01*
X130189655Y-103417226D01*
X130109073Y-103471069D01*
X130040543Y-103539599D01*
X129986700Y-103620181D01*
X129949612Y-103709720D01*
X129930705Y-103804773D01*
X110935237Y-103804773D01*
X111111624Y-102775855D01*
X111737149Y-102880109D01*
X111762698Y-102881974D01*
X111789759Y-102878777D01*
X111815676Y-102870363D01*
X111839453Y-102857054D01*
X111860177Y-102839362D01*
X111877051Y-102817966D01*
X111889428Y-102793690D01*
X111896830Y-102767466D01*
X112064287Y-101830942D01*
X121135900Y-101830942D01*
X121135900Y-101927858D01*
X121154807Y-102022911D01*
X121191895Y-102112450D01*
X121245738Y-102193032D01*
X121314268Y-102261562D01*
X121394850Y-102315405D01*
X121484389Y-102352493D01*
X121579442Y-102371400D01*
X121676358Y-102371400D01*
X121771411Y-102352493D01*
X121860950Y-102315405D01*
X121941532Y-102261562D01*
X121953052Y-102250042D01*
X123104400Y-102250042D01*
X123104400Y-102346958D01*
X123123307Y-102442011D01*
X123160395Y-102531550D01*
X123214238Y-102612132D01*
X123282768Y-102680662D01*
X123363350Y-102734505D01*
X123452889Y-102771593D01*
X123547942Y-102790500D01*
X123644858Y-102790500D01*
X123739911Y-102771593D01*
X123829450Y-102734505D01*
X123910032Y-102680662D01*
X123978562Y-102612132D01*
X123982307Y-102606527D01*
X123998595Y-102645850D01*
X124052438Y-102726432D01*
X124120968Y-102794962D01*
X124201550Y-102848805D01*
X124291089Y-102885893D01*
X124386142Y-102904800D01*
X124483058Y-102904800D01*
X124578111Y-102885893D01*
X124667650Y-102848805D01*
X124748232Y-102794962D01*
X124816762Y-102726432D01*
X124870605Y-102645850D01*
X124907693Y-102556311D01*
X124926600Y-102461258D01*
X124926600Y-102364342D01*
X124907693Y-102269289D01*
X124870605Y-102179750D01*
X124816762Y-102099168D01*
X124748232Y-102030638D01*
X124667650Y-101976795D01*
X124578111Y-101939707D01*
X124483058Y-101920800D01*
X124386142Y-101920800D01*
X124291089Y-101939707D01*
X124201550Y-101976795D01*
X124120968Y-102030638D01*
X124052438Y-102099168D01*
X124048693Y-102104773D01*
X124032405Y-102065450D01*
X123978562Y-101984868D01*
X123910032Y-101916338D01*
X123829450Y-101862495D01*
X123739911Y-101825407D01*
X123644858Y-101806500D01*
X123547942Y-101806500D01*
X123452889Y-101825407D01*
X123363350Y-101862495D01*
X123282768Y-101916338D01*
X123214238Y-101984868D01*
X123160395Y-102065450D01*
X123123307Y-102154989D01*
X123104400Y-102250042D01*
X121953052Y-102250042D01*
X122010062Y-102193032D01*
X122063905Y-102112450D01*
X122100993Y-102022911D01*
X122119900Y-101927858D01*
X122119900Y-101830942D01*
X122100993Y-101735889D01*
X122077240Y-101678542D01*
X127574800Y-101678542D01*
X127574800Y-101775458D01*
X127593707Y-101870511D01*
X127630795Y-101960050D01*
X127684638Y-102040632D01*
X127753168Y-102109162D01*
X127833750Y-102163005D01*
X127923289Y-102200093D01*
X128018342Y-102219000D01*
X128115258Y-102219000D01*
X128210311Y-102200093D01*
X128299850Y-102163005D01*
X128380432Y-102109162D01*
X128448962Y-102040632D01*
X128502805Y-101960050D01*
X128539893Y-101870511D01*
X128558800Y-101775458D01*
X128558800Y-101678542D01*
X128552846Y-101648606D01*
X133356100Y-101648606D01*
X133356100Y-101779994D01*
X133381733Y-101908857D01*
X133432013Y-102030243D01*
X133505008Y-102139488D01*
X133597912Y-102232392D01*
X133707157Y-102305387D01*
X133828543Y-102355667D01*
X133957406Y-102381300D01*
X134088794Y-102381300D01*
X134118100Y-102375471D01*
X134118100Y-102503894D01*
X134143733Y-102632757D01*
X134194013Y-102754143D01*
X134267008Y-102863388D01*
X134359912Y-102956292D01*
X134469157Y-103029287D01*
X134590543Y-103079567D01*
X134719406Y-103105200D01*
X134850794Y-103105200D01*
X134979657Y-103079567D01*
X135101043Y-103029287D01*
X135210288Y-102956292D01*
X135303192Y-102863388D01*
X135376187Y-102754143D01*
X135376911Y-102752395D01*
X135492243Y-102800167D01*
X135621106Y-102825800D01*
X135752494Y-102825800D01*
X135881357Y-102800167D01*
X136002743Y-102749887D01*
X136111988Y-102676892D01*
X136204892Y-102583988D01*
X136277887Y-102474743D01*
X136328167Y-102353357D01*
X136353800Y-102224494D01*
X136353800Y-102093106D01*
X136328167Y-101964243D01*
X136298387Y-101892347D01*
X136378688Y-101838692D01*
X136471592Y-101745788D01*
X136544587Y-101636543D01*
X136594867Y-101515157D01*
X136620500Y-101386294D01*
X136620500Y-101254906D01*
X136594867Y-101126043D01*
X136544587Y-101004657D01*
X136471592Y-100895412D01*
X136437714Y-100861534D01*
X136447243Y-100857587D01*
X136556488Y-100784592D01*
X136649392Y-100691688D01*
X136722387Y-100582443D01*
X136772667Y-100461057D01*
X136798300Y-100332194D01*
X136798300Y-100200806D01*
X136772667Y-100071943D01*
X136722387Y-99950557D01*
X136649392Y-99841312D01*
X136556488Y-99748408D01*
X136447243Y-99675413D01*
X136325857Y-99625133D01*
X136196994Y-99599500D01*
X136065606Y-99599500D01*
X136048921Y-99602819D01*
X136048767Y-99602043D01*
X135998487Y-99480657D01*
X135925492Y-99371412D01*
X135832588Y-99278508D01*
X135723343Y-99205513D01*
X135601957Y-99155233D01*
X135473094Y-99129600D01*
X135341706Y-99129600D01*
X135212843Y-99155233D01*
X135091457Y-99205513D01*
X134982212Y-99278508D01*
X134898258Y-99362462D01*
X134872443Y-99345213D01*
X134751057Y-99294933D01*
X134622194Y-99269300D01*
X134490806Y-99269300D01*
X134361943Y-99294933D01*
X134240557Y-99345213D01*
X134131312Y-99418208D01*
X134038408Y-99511112D01*
X133965413Y-99620357D01*
X133915133Y-99741743D01*
X133889500Y-99870606D01*
X133889500Y-100001994D01*
X133915133Y-100130857D01*
X133944626Y-100202058D01*
X133897657Y-100221513D01*
X133788412Y-100294508D01*
X133695508Y-100387412D01*
X133622513Y-100496657D01*
X133572233Y-100618043D01*
X133546600Y-100746906D01*
X133546600Y-100878294D01*
X133572233Y-101007157D01*
X133622513Y-101128543D01*
X133646177Y-101163959D01*
X133597912Y-101196208D01*
X133505008Y-101289112D01*
X133432013Y-101398357D01*
X133381733Y-101519743D01*
X133356100Y-101648606D01*
X128552846Y-101648606D01*
X128539893Y-101583489D01*
X128502805Y-101493950D01*
X128448962Y-101413368D01*
X128380432Y-101344838D01*
X128299850Y-101290995D01*
X128210311Y-101253907D01*
X128115258Y-101235000D01*
X128018342Y-101235000D01*
X127923289Y-101253907D01*
X127833750Y-101290995D01*
X127753168Y-101344838D01*
X127684638Y-101413368D01*
X127630795Y-101493950D01*
X127593707Y-101583489D01*
X127574800Y-101678542D01*
X122077240Y-101678542D01*
X122063905Y-101646350D01*
X122010062Y-101565768D01*
X121941532Y-101497238D01*
X121860950Y-101443395D01*
X121771411Y-101406307D01*
X121676358Y-101387400D01*
X121579442Y-101387400D01*
X121484389Y-101406307D01*
X121394850Y-101443395D01*
X121314268Y-101497238D01*
X121245738Y-101565768D01*
X121191895Y-101646350D01*
X121154807Y-101735889D01*
X121135900Y-101830942D01*
X112064287Y-101830942D01*
X112248227Y-100802242D01*
X116424200Y-100802242D01*
X116424200Y-100899158D01*
X116443107Y-100994211D01*
X116480195Y-101083750D01*
X116534038Y-101164332D01*
X116602568Y-101232862D01*
X116683150Y-101286705D01*
X116772689Y-101323793D01*
X116867742Y-101342700D01*
X116964658Y-101342700D01*
X117059711Y-101323793D01*
X117149250Y-101286705D01*
X117229832Y-101232862D01*
X117298362Y-101164332D01*
X117352205Y-101083750D01*
X117389293Y-100994211D01*
X117408200Y-100899158D01*
X117408200Y-100859827D01*
X121865715Y-100859827D01*
X121865715Y-100956743D01*
X121884622Y-101051796D01*
X121921710Y-101141335D01*
X121975553Y-101221917D01*
X122044083Y-101290447D01*
X122124665Y-101344290D01*
X122214204Y-101381378D01*
X122309257Y-101400285D01*
X122406173Y-101400285D01*
X122501226Y-101381378D01*
X122590765Y-101344290D01*
X122671347Y-101290447D01*
X122739877Y-101221917D01*
X122793720Y-101141335D01*
X122830808Y-101051796D01*
X122831230Y-101049672D01*
X132242270Y-101049672D01*
X132242270Y-101146588D01*
X132261177Y-101241641D01*
X132298265Y-101331180D01*
X132352108Y-101411762D01*
X132420638Y-101480292D01*
X132501220Y-101534135D01*
X132590759Y-101571223D01*
X132685812Y-101590130D01*
X132782728Y-101590130D01*
X132877781Y-101571223D01*
X132967320Y-101534135D01*
X133047902Y-101480292D01*
X133116432Y-101411762D01*
X133170275Y-101331180D01*
X133207363Y-101241641D01*
X133226270Y-101146588D01*
X133226270Y-101049672D01*
X133207363Y-100954619D01*
X133170275Y-100865080D01*
X133116432Y-100784498D01*
X133047902Y-100715968D01*
X132967320Y-100662125D01*
X132877781Y-100625037D01*
X132782728Y-100606130D01*
X132685812Y-100606130D01*
X132590759Y-100625037D01*
X132501220Y-100662125D01*
X132420638Y-100715968D01*
X132352108Y-100784498D01*
X132298265Y-100865080D01*
X132261177Y-100954619D01*
X132242270Y-101049672D01*
X122831230Y-101049672D01*
X122849715Y-100956743D01*
X122849715Y-100859827D01*
X122830808Y-100764774D01*
X122793720Y-100675235D01*
X122739877Y-100594653D01*
X122671347Y-100526123D01*
X122590765Y-100472280D01*
X122501226Y-100435192D01*
X122406173Y-100416285D01*
X122309257Y-100416285D01*
X122214204Y-100435192D01*
X122124665Y-100472280D01*
X122044083Y-100526123D01*
X121975553Y-100594653D01*
X121921710Y-100675235D01*
X121884622Y-100764774D01*
X121865715Y-100859827D01*
X117408200Y-100859827D01*
X117408200Y-100802242D01*
X117389293Y-100707189D01*
X117352205Y-100617650D01*
X117298362Y-100537068D01*
X117229832Y-100468538D01*
X117149250Y-100414695D01*
X117059711Y-100377607D01*
X116964658Y-100358700D01*
X116867742Y-100358700D01*
X116772689Y-100377607D01*
X116683150Y-100414695D01*
X116602568Y-100468538D01*
X116534038Y-100537068D01*
X116480195Y-100617650D01*
X116443107Y-100707189D01*
X116424200Y-100802242D01*
X112248227Y-100802242D01*
X112376744Y-100083498D01*
X120813244Y-100083498D01*
X120813244Y-100180414D01*
X120832151Y-100275467D01*
X120869239Y-100365006D01*
X120923082Y-100445588D01*
X120991612Y-100514118D01*
X121072194Y-100567961D01*
X121161733Y-100605049D01*
X121256786Y-100623956D01*
X121353702Y-100623956D01*
X121448755Y-100605049D01*
X121538294Y-100567961D01*
X121618876Y-100514118D01*
X121687406Y-100445588D01*
X121741249Y-100365006D01*
X121778337Y-100275467D01*
X121797244Y-100180414D01*
X121797244Y-100083498D01*
X121778337Y-99988445D01*
X121741249Y-99898906D01*
X121687406Y-99818324D01*
X121618876Y-99749794D01*
X121538294Y-99695951D01*
X121448755Y-99658863D01*
X121353702Y-99639956D01*
X121256786Y-99639956D01*
X121161733Y-99658863D01*
X121072194Y-99695951D01*
X120991612Y-99749794D01*
X120923082Y-99818324D01*
X120869239Y-99898906D01*
X120832151Y-99988445D01*
X120813244Y-100083498D01*
X112376744Y-100083498D01*
X112677420Y-98401942D01*
X116348000Y-98401942D01*
X116348000Y-98498858D01*
X116366907Y-98593911D01*
X116403995Y-98683450D01*
X116457838Y-98764032D01*
X116526368Y-98832562D01*
X116606950Y-98886405D01*
X116696489Y-98923493D01*
X116791542Y-98942400D01*
X116888458Y-98942400D01*
X116983511Y-98923493D01*
X117073050Y-98886405D01*
X117153632Y-98832562D01*
X117222162Y-98764032D01*
X117276005Y-98683450D01*
X117313093Y-98593911D01*
X117332000Y-98498858D01*
X117332000Y-98401942D01*
X117313093Y-98306889D01*
X117276005Y-98217350D01*
X117222162Y-98136768D01*
X117153632Y-98068238D01*
X117073050Y-98014395D01*
X116983511Y-97977307D01*
X116888458Y-97958400D01*
X116791542Y-97958400D01*
X116696489Y-97977307D01*
X116606950Y-98014395D01*
X116526368Y-98068238D01*
X116457838Y-98136768D01*
X116403995Y-98217350D01*
X116366907Y-98306889D01*
X116348000Y-98401942D01*
X112677420Y-98401942D01*
X113794682Y-92153542D01*
X129251200Y-92153542D01*
X129251200Y-92250458D01*
X129270107Y-92345511D01*
X129307195Y-92435050D01*
X129361038Y-92515632D01*
X129429568Y-92584162D01*
X129510150Y-92638005D01*
X129599689Y-92675093D01*
X129694742Y-92694000D01*
X129791658Y-92694000D01*
X129886711Y-92675093D01*
X129976250Y-92638005D01*
X130056832Y-92584162D01*
X130125362Y-92515632D01*
X130179205Y-92435050D01*
X130216293Y-92345511D01*
X130235200Y-92250458D01*
X130235200Y-92153542D01*
X130216293Y-92058489D01*
X130192529Y-92001116D01*
X130228142Y-92008200D01*
X130325058Y-92008200D01*
X130420111Y-91989293D01*
X130509650Y-91952205D01*
X130590232Y-91898362D01*
X130658762Y-91829832D01*
X130712605Y-91749250D01*
X130749693Y-91659711D01*
X130768600Y-91564658D01*
X130768600Y-91467742D01*
X130749693Y-91372689D01*
X130712605Y-91283150D01*
X130658762Y-91202568D01*
X130590232Y-91134038D01*
X130509650Y-91080195D01*
X130420111Y-91043107D01*
X130325058Y-91024200D01*
X130228142Y-91024200D01*
X130133089Y-91043107D01*
X130043550Y-91080195D01*
X129962968Y-91134038D01*
X129894438Y-91202568D01*
X129840595Y-91283150D01*
X129803507Y-91372689D01*
X129784600Y-91467742D01*
X129784600Y-91564658D01*
X129803507Y-91659711D01*
X129827271Y-91717084D01*
X129791658Y-91710000D01*
X129694742Y-91710000D01*
X129599689Y-91728907D01*
X129510150Y-91765995D01*
X129429568Y-91819838D01*
X129361038Y-91888368D01*
X129307195Y-91968950D01*
X129270107Y-92058489D01*
X129251200Y-92153542D01*
X113794682Y-92153542D01*
X114276105Y-89461142D01*
X127625600Y-89461142D01*
X127625600Y-89558058D01*
X127644507Y-89653111D01*
X127681595Y-89742650D01*
X127735438Y-89823232D01*
X127803968Y-89891762D01*
X127884550Y-89945605D01*
X127974089Y-89982693D01*
X128069142Y-90001600D01*
X128166058Y-90001600D01*
X128261111Y-89982693D01*
X128350650Y-89945605D01*
X128431232Y-89891762D01*
X128499762Y-89823232D01*
X128553605Y-89742650D01*
X128590693Y-89653111D01*
X128609600Y-89558058D01*
X128609600Y-89461142D01*
X128590693Y-89366089D01*
X128553605Y-89276550D01*
X128499762Y-89195968D01*
X128431232Y-89127438D01*
X128350650Y-89073595D01*
X128261111Y-89036507D01*
X128166058Y-89017600D01*
X128069142Y-89017600D01*
X127974089Y-89036507D01*
X127884550Y-89073595D01*
X127803968Y-89127438D01*
X127735438Y-89195968D01*
X127681595Y-89276550D01*
X127644507Y-89366089D01*
X127625600Y-89461142D01*
X114276105Y-89461142D01*
X114730278Y-86921142D01*
X117465600Y-86921142D01*
X117465600Y-87018058D01*
X117484507Y-87113111D01*
X117521595Y-87202650D01*
X117575438Y-87283232D01*
X117643968Y-87351762D01*
X117724550Y-87405605D01*
X117814089Y-87442693D01*
X117909142Y-87461600D01*
X118006058Y-87461600D01*
X118101111Y-87442693D01*
X118190650Y-87405605D01*
X118271232Y-87351762D01*
X118339762Y-87283232D01*
X118393605Y-87202650D01*
X118430693Y-87113111D01*
X118449600Y-87018058D01*
X118449600Y-86921142D01*
X118430693Y-86826089D01*
X118393605Y-86736550D01*
X118339762Y-86655968D01*
X118271232Y-86587438D01*
X118190650Y-86533595D01*
X118101111Y-86496507D01*
X118006058Y-86477600D01*
X117909142Y-86477600D01*
X117814089Y-86496507D01*
X117724550Y-86533595D01*
X117643968Y-86587438D01*
X117575438Y-86655968D01*
X117521595Y-86736550D01*
X117484507Y-86826089D01*
X117465600Y-86921142D01*
X114730278Y-86921142D01*
X115293452Y-83771542D01*
X118316500Y-83771542D01*
X118316500Y-83868458D01*
X118335407Y-83963511D01*
X118372495Y-84053050D01*
X118426338Y-84133632D01*
X118494868Y-84202162D01*
X118575450Y-84256005D01*
X118664989Y-84293093D01*
X118760042Y-84312000D01*
X118856958Y-84312000D01*
X118952011Y-84293093D01*
X119041550Y-84256005D01*
X119094250Y-84220792D01*
X119146950Y-84256005D01*
X119236489Y-84293093D01*
X119331542Y-84312000D01*
X119428458Y-84312000D01*
X119523511Y-84293093D01*
X119613050Y-84256005D01*
X119622138Y-84249932D01*
X119637868Y-84265662D01*
X119718450Y-84319505D01*
X119807989Y-84356593D01*
X119903042Y-84375500D01*
X119999958Y-84375500D01*
X120095011Y-84356593D01*
X120150369Y-84333663D01*
X120209368Y-84392662D01*
X120289950Y-84446505D01*
X120379489Y-84483593D01*
X120474542Y-84502500D01*
X120571458Y-84502500D01*
X120666511Y-84483593D01*
X120723249Y-84460092D01*
X120797950Y-84510005D01*
X120887489Y-84547093D01*
X120982542Y-84566000D01*
X121079458Y-84566000D01*
X121174511Y-84547093D01*
X121264050Y-84510005D01*
X121273138Y-84503932D01*
X121288868Y-84519662D01*
X121369450Y-84573505D01*
X121458989Y-84610593D01*
X121554042Y-84629500D01*
X121650958Y-84629500D01*
X121746011Y-84610593D01*
X121835550Y-84573505D01*
X121844638Y-84567432D01*
X121860368Y-84583162D01*
X121940950Y-84637005D01*
X122030489Y-84674093D01*
X122125542Y-84693000D01*
X122222458Y-84693000D01*
X122317511Y-84674093D01*
X122407050Y-84637005D01*
X122416138Y-84630932D01*
X122431868Y-84646662D01*
X122512450Y-84700505D01*
X122601989Y-84737593D01*
X122644876Y-84746124D01*
X122653407Y-84789011D01*
X122690495Y-84878550D01*
X122744338Y-84959132D01*
X122812868Y-85027662D01*
X122893450Y-85081505D01*
X122982989Y-85118593D01*
X123078042Y-85137500D01*
X123174958Y-85137500D01*
X123270011Y-85118593D01*
X123359550Y-85081505D01*
X123440132Y-85027662D01*
X123508662Y-84959132D01*
X123562505Y-84878550D01*
X123599593Y-84789011D01*
X123618500Y-84693958D01*
X123618500Y-84597042D01*
X123599593Y-84501989D01*
X123562505Y-84412450D01*
X123508662Y-84331868D01*
X123440132Y-84263338D01*
X123359550Y-84209495D01*
X123270011Y-84172407D01*
X123227124Y-84163876D01*
X123218593Y-84120989D01*
X123189579Y-84050942D01*
X134153400Y-84050942D01*
X134153400Y-84147858D01*
X134172307Y-84242911D01*
X134209395Y-84332450D01*
X134263238Y-84413032D01*
X134331768Y-84481562D01*
X134412350Y-84535405D01*
X134501889Y-84572493D01*
X134596942Y-84591400D01*
X134693858Y-84591400D01*
X134788911Y-84572493D01*
X134878450Y-84535405D01*
X134959032Y-84481562D01*
X135027562Y-84413032D01*
X135081405Y-84332450D01*
X135118493Y-84242911D01*
X135137400Y-84147858D01*
X135137400Y-84050942D01*
X135118493Y-83955889D01*
X135081405Y-83866350D01*
X135027562Y-83785768D01*
X134959032Y-83717238D01*
X134878450Y-83663395D01*
X134788911Y-83626307D01*
X134693858Y-83607400D01*
X134596942Y-83607400D01*
X134501889Y-83626307D01*
X134412350Y-83663395D01*
X134331768Y-83717238D01*
X134263238Y-83785768D01*
X134209395Y-83866350D01*
X134172307Y-83955889D01*
X134153400Y-84050942D01*
X123189579Y-84050942D01*
X123181505Y-84031450D01*
X123127662Y-83950868D01*
X123059132Y-83882338D01*
X122978550Y-83828495D01*
X122889011Y-83791407D01*
X122793958Y-83772500D01*
X122697042Y-83772500D01*
X122601989Y-83791407D01*
X122512450Y-83828495D01*
X122503362Y-83834568D01*
X122487632Y-83818838D01*
X122407050Y-83764995D01*
X122317511Y-83727907D01*
X122222458Y-83709000D01*
X122125542Y-83709000D01*
X122030489Y-83727907D01*
X121940950Y-83764995D01*
X121931862Y-83771068D01*
X121916132Y-83755338D01*
X121835550Y-83701495D01*
X121746011Y-83664407D01*
X121650958Y-83645500D01*
X121554042Y-83645500D01*
X121458989Y-83664407D01*
X121369450Y-83701495D01*
X121360362Y-83707568D01*
X121344632Y-83691838D01*
X121264050Y-83637995D01*
X121174511Y-83600907D01*
X121079458Y-83582000D01*
X120982542Y-83582000D01*
X120887489Y-83600907D01*
X120830751Y-83624408D01*
X120756050Y-83574495D01*
X120666511Y-83537407D01*
X120571458Y-83518500D01*
X120474542Y-83518500D01*
X120379489Y-83537407D01*
X120324131Y-83560337D01*
X120265132Y-83501338D01*
X120184550Y-83447495D01*
X120095011Y-83410407D01*
X119999958Y-83391500D01*
X119903042Y-83391500D01*
X119807989Y-83410407D01*
X119718450Y-83447495D01*
X119709362Y-83453568D01*
X119693632Y-83437838D01*
X119613050Y-83383995D01*
X119523511Y-83346907D01*
X119491683Y-83340576D01*
X123994234Y-83340576D01*
X123994234Y-83437492D01*
X124013141Y-83532545D01*
X124050229Y-83622084D01*
X124104072Y-83702666D01*
X124172602Y-83771196D01*
X124253184Y-83825039D01*
X124342723Y-83862127D01*
X124437776Y-83881034D01*
X124534692Y-83881034D01*
X124629745Y-83862127D01*
X124719284Y-83825039D01*
X124799866Y-83771196D01*
X124868396Y-83702666D01*
X124922239Y-83622084D01*
X124959327Y-83532545D01*
X124978234Y-83437492D01*
X124978234Y-83340576D01*
X124959327Y-83245523D01*
X124922239Y-83155984D01*
X124868396Y-83075402D01*
X124799866Y-83006872D01*
X124719284Y-82953029D01*
X124629745Y-82915941D01*
X124534692Y-82897034D01*
X124437776Y-82897034D01*
X124342723Y-82915941D01*
X124253184Y-82953029D01*
X124172602Y-83006872D01*
X124104072Y-83075402D01*
X124050229Y-83155984D01*
X124013141Y-83245523D01*
X123994234Y-83340576D01*
X119491683Y-83340576D01*
X119428458Y-83328000D01*
X119331542Y-83328000D01*
X119236489Y-83346907D01*
X119146950Y-83383995D01*
X119094250Y-83419208D01*
X119041550Y-83383995D01*
X118952011Y-83346907D01*
X118856958Y-83328000D01*
X118760042Y-83328000D01*
X118664989Y-83346907D01*
X118575450Y-83383995D01*
X118494868Y-83437838D01*
X118426338Y-83506368D01*
X118372495Y-83586950D01*
X118335407Y-83676489D01*
X118316500Y-83771542D01*
X115293452Y-83771542D01*
X115325830Y-83590466D01*
X115327650Y-83556146D01*
X115323064Y-83529286D01*
X115313325Y-83503837D01*
X115298809Y-83480777D01*
X115280073Y-83460992D01*
X115257837Y-83445242D01*
X115232956Y-83434133D01*
X114965726Y-83345056D01*
X115071481Y-82745773D01*
X124821831Y-82745773D01*
X124821831Y-82842689D01*
X124840738Y-82937742D01*
X124877826Y-83027281D01*
X124931669Y-83107863D01*
X125000199Y-83176393D01*
X125080781Y-83230236D01*
X125170320Y-83267324D01*
X125265373Y-83286231D01*
X125362289Y-83286231D01*
X125457342Y-83267324D01*
X125546881Y-83230236D01*
X125627463Y-83176393D01*
X125695993Y-83107863D01*
X125749836Y-83027281D01*
X125786924Y-82937742D01*
X125805831Y-82842689D01*
X125805831Y-82745773D01*
X125797670Y-82704742D01*
X134229600Y-82704742D01*
X134229600Y-82801658D01*
X134248507Y-82896711D01*
X134285595Y-82986250D01*
X134339438Y-83066832D01*
X134407968Y-83135362D01*
X134488550Y-83189205D01*
X134578089Y-83226293D01*
X134673142Y-83245200D01*
X134770058Y-83245200D01*
X134865111Y-83226293D01*
X134954650Y-83189205D01*
X135035232Y-83135362D01*
X135101858Y-83068736D01*
X138699871Y-83068736D01*
X138699871Y-83165652D01*
X138718778Y-83260705D01*
X138755866Y-83350244D01*
X138809709Y-83430826D01*
X138829801Y-83450918D01*
X138806795Y-83485350D01*
X138769707Y-83574889D01*
X138750800Y-83669942D01*
X138750800Y-83766858D01*
X138769707Y-83861911D01*
X138806795Y-83951450D01*
X138860638Y-84032032D01*
X138929168Y-84100562D01*
X139009750Y-84154405D01*
X139099289Y-84191493D01*
X139194342Y-84210400D01*
X139291258Y-84210400D01*
X139386311Y-84191493D01*
X139475850Y-84154405D01*
X139556432Y-84100562D01*
X139624962Y-84032032D01*
X139678805Y-83951450D01*
X139715893Y-83861911D01*
X139734800Y-83766858D01*
X139734800Y-83669942D01*
X139715893Y-83574889D01*
X139678805Y-83485350D01*
X139624962Y-83404768D01*
X139604870Y-83384676D01*
X139627876Y-83350244D01*
X139664964Y-83260705D01*
X139683871Y-83165652D01*
X139683871Y-83068736D01*
X139664964Y-82973683D01*
X139627876Y-82884144D01*
X139574033Y-82803562D01*
X139505503Y-82735032D01*
X139424921Y-82681189D01*
X139335382Y-82644101D01*
X139240329Y-82625194D01*
X139143413Y-82625194D01*
X139048360Y-82644101D01*
X138958821Y-82681189D01*
X138878239Y-82735032D01*
X138809709Y-82803562D01*
X138755866Y-82884144D01*
X138718778Y-82973683D01*
X138699871Y-83068736D01*
X135101858Y-83068736D01*
X135103762Y-83066832D01*
X135157605Y-82986250D01*
X135194693Y-82896711D01*
X135213600Y-82801658D01*
X135213600Y-82704742D01*
X135194693Y-82609689D01*
X135157605Y-82520150D01*
X135103762Y-82439568D01*
X135035232Y-82371038D01*
X134954650Y-82317195D01*
X134865111Y-82280107D01*
X134770058Y-82261200D01*
X134673142Y-82261200D01*
X134578089Y-82280107D01*
X134488550Y-82317195D01*
X134407968Y-82371038D01*
X134339438Y-82439568D01*
X134285595Y-82520150D01*
X134248507Y-82609689D01*
X134229600Y-82704742D01*
X125797670Y-82704742D01*
X125786924Y-82650720D01*
X125749836Y-82561181D01*
X125695993Y-82480599D01*
X125627463Y-82412069D01*
X125546881Y-82358226D01*
X125457342Y-82321138D01*
X125362289Y-82302231D01*
X125265373Y-82302231D01*
X125170320Y-82321138D01*
X125080781Y-82358226D01*
X125000199Y-82412069D01*
X124931669Y-82480599D01*
X124877826Y-82561181D01*
X124840738Y-82650720D01*
X124821831Y-82745773D01*
X115071481Y-82745773D01*
X115226616Y-81866672D01*
X138887921Y-81866672D01*
X138887921Y-81963588D01*
X138906828Y-82058641D01*
X138943916Y-82148180D01*
X138997759Y-82228762D01*
X139066289Y-82297292D01*
X139146871Y-82351135D01*
X139236410Y-82388223D01*
X139331463Y-82407130D01*
X139428379Y-82407130D01*
X139523432Y-82388223D01*
X139612971Y-82351135D01*
X139693553Y-82297292D01*
X139762083Y-82228762D01*
X139815926Y-82148180D01*
X139853014Y-82058641D01*
X139871921Y-81963588D01*
X139871921Y-81866672D01*
X139853014Y-81771619D01*
X139815926Y-81682080D01*
X139769463Y-81612542D01*
X145024600Y-81612542D01*
X145024600Y-81709458D01*
X145043507Y-81804511D01*
X145080595Y-81894050D01*
X145134438Y-81974632D01*
X145202968Y-82043162D01*
X145283550Y-82097005D01*
X145373089Y-82134093D01*
X145431825Y-82145776D01*
X145410795Y-82177250D01*
X145373707Y-82266789D01*
X145354800Y-82361842D01*
X145354800Y-82458758D01*
X145373707Y-82553811D01*
X145410795Y-82643350D01*
X145464638Y-82723932D01*
X145533168Y-82792462D01*
X145613750Y-82846305D01*
X145703289Y-82883393D01*
X145798342Y-82902300D01*
X145895258Y-82902300D01*
X145990311Y-82883393D01*
X146016607Y-82872501D01*
X146016226Y-82873758D01*
X146010588Y-82931000D01*
X146012000Y-82945336D01*
X146012001Y-103944081D01*
X146011134Y-103967379D01*
X146014282Y-103986990D01*
X146016227Y-104006742D01*
X146018828Y-104015315D01*
X146020249Y-104024171D01*
X146027164Y-104042795D01*
X146032924Y-104061784D01*
X146037148Y-104069686D01*
X146040269Y-104078093D01*
X146050680Y-104095003D01*
X146060038Y-104112511D01*
X146065726Y-104119442D01*
X146070424Y-104127073D01*
X146083925Y-104141618D01*
X146096527Y-104156974D01*
X146103460Y-104162664D01*
X146109555Y-104169230D01*
X146125639Y-104180865D01*
X146140990Y-104193463D01*
X146148895Y-104197688D01*
X146156159Y-104202943D01*
X146174207Y-104211218D01*
X146191717Y-104220577D01*
X146200297Y-104223180D01*
X146208444Y-104226915D01*
X146227753Y-104231509D01*
X146246759Y-104237274D01*
X146255683Y-104238153D01*
X146264401Y-104240227D01*
X146284233Y-104240965D01*
X146304000Y-104242912D01*
X146312926Y-104242033D01*
X146321879Y-104242366D01*
X146341474Y-104239221D01*
X146361242Y-104237274D01*
X146369822Y-104234671D01*
X146378671Y-104233251D01*
X146397281Y-104226342D01*
X146416284Y-104220577D01*
X146424192Y-104216350D01*
X146432593Y-104213231D01*
X146449491Y-104202828D01*
X146467011Y-104193463D01*
X146473946Y-104187771D01*
X146481573Y-104183076D01*
X146496108Y-104169584D01*
X146511474Y-104156974D01*
X146517167Y-104150037D01*
X146523730Y-104143945D01*
X146535357Y-104127872D01*
X146547963Y-104112511D01*
X146558959Y-104091938D01*
X146994160Y-103345881D01*
X146994914Y-103344819D01*
X147001367Y-103333527D01*
X147007946Y-103322248D01*
X147008491Y-103321059D01*
X147608578Y-102270906D01*
X149477480Y-102270906D01*
X149477480Y-102402294D01*
X149503113Y-102531157D01*
X149553393Y-102652543D01*
X149626388Y-102761788D01*
X149719292Y-102854692D01*
X149828537Y-102927687D01*
X149949923Y-102977967D01*
X150078786Y-103003600D01*
X150210174Y-103003600D01*
X150339037Y-102977967D01*
X150460423Y-102927687D01*
X150569668Y-102854692D01*
X150662572Y-102761788D01*
X150735567Y-102652543D01*
X150785847Y-102531157D01*
X150811480Y-102402294D01*
X150811480Y-102270906D01*
X150785847Y-102142043D01*
X150735567Y-102020657D01*
X150662572Y-101911412D01*
X150569668Y-101818508D01*
X150460423Y-101745513D01*
X150339037Y-101695233D01*
X150210174Y-101669600D01*
X150078786Y-101669600D01*
X149949923Y-101695233D01*
X149828537Y-101745513D01*
X149719292Y-101818508D01*
X149626388Y-101911412D01*
X149553393Y-102020657D01*
X149503113Y-102142043D01*
X149477480Y-102270906D01*
X147608578Y-102270906D01*
X148005825Y-101575725D01*
X148008463Y-101572511D01*
X148020061Y-101550812D01*
X148025139Y-101541926D01*
X148026832Y-101538145D01*
X148035577Y-101521784D01*
X148038560Y-101511951D01*
X148042757Y-101502577D01*
X148046887Y-101484502D01*
X148052274Y-101466742D01*
X148053282Y-101456510D01*
X148055568Y-101446503D01*
X148056092Y-101427975D01*
X148056500Y-101423836D01*
X148056500Y-101413567D01*
X148057195Y-101389007D01*
X148056500Y-101384911D01*
X148056500Y-100556406D01*
X149477480Y-100556406D01*
X149477480Y-100687794D01*
X149503113Y-100816657D01*
X149553393Y-100938043D01*
X149626388Y-101047288D01*
X149719292Y-101140192D01*
X149828537Y-101213187D01*
X149949923Y-101263467D01*
X150078786Y-101289100D01*
X150210174Y-101289100D01*
X150339037Y-101263467D01*
X150460423Y-101213187D01*
X150569668Y-101140192D01*
X150662572Y-101047288D01*
X150735567Y-100938043D01*
X150785847Y-100816657D01*
X150811480Y-100687794D01*
X150811480Y-100556406D01*
X150785847Y-100427543D01*
X150735567Y-100306157D01*
X150662572Y-100196912D01*
X150569668Y-100104008D01*
X150460423Y-100031013D01*
X150339037Y-99980733D01*
X150210174Y-99955100D01*
X150078786Y-99955100D01*
X149949923Y-99980733D01*
X149828537Y-100031013D01*
X149719292Y-100104008D01*
X149626388Y-100196912D01*
X149553393Y-100306157D01*
X149503113Y-100427543D01*
X149477480Y-100556406D01*
X148056500Y-100556406D01*
X148056500Y-99019094D01*
X148073168Y-99035762D01*
X148153750Y-99089605D01*
X148243289Y-99126693D01*
X148338342Y-99145600D01*
X148435258Y-99145600D01*
X148530311Y-99126693D01*
X148619850Y-99089605D01*
X148700432Y-99035762D01*
X148768962Y-98967232D01*
X148822805Y-98886650D01*
X148859893Y-98797111D01*
X148878800Y-98702058D01*
X148878800Y-98605142D01*
X148859893Y-98510089D01*
X148822805Y-98420550D01*
X148768962Y-98339968D01*
X148700432Y-98271438D01*
X148619850Y-98217595D01*
X148530311Y-98180507D01*
X148435258Y-98161600D01*
X148338342Y-98161600D01*
X148243289Y-98180507D01*
X148153750Y-98217595D01*
X148073168Y-98271438D01*
X148056500Y-98288106D01*
X148056500Y-96928742D01*
X148961600Y-96928742D01*
X148961600Y-97025658D01*
X148980507Y-97120711D01*
X149017595Y-97210250D01*
X149071438Y-97290832D01*
X149139968Y-97359362D01*
X149220550Y-97413205D01*
X149310089Y-97450293D01*
X149405142Y-97469200D01*
X149502058Y-97469200D01*
X149597111Y-97450293D01*
X149686650Y-97413205D01*
X149767232Y-97359362D01*
X149835762Y-97290832D01*
X149889605Y-97210250D01*
X149926693Y-97120711D01*
X149945600Y-97025658D01*
X149945600Y-96928742D01*
X149926693Y-96833689D01*
X149889605Y-96744150D01*
X149835762Y-96663568D01*
X149767232Y-96595038D01*
X149686650Y-96541195D01*
X149597111Y-96504107D01*
X149502058Y-96485200D01*
X149405142Y-96485200D01*
X149310089Y-96504107D01*
X149220550Y-96541195D01*
X149139968Y-96595038D01*
X149071438Y-96663568D01*
X149017595Y-96744150D01*
X148980507Y-96833689D01*
X148961600Y-96928742D01*
X148056500Y-96928742D01*
X148056500Y-96476769D01*
X150107000Y-96476769D01*
X150107000Y-96603231D01*
X150131672Y-96727264D01*
X150180067Y-96844101D01*
X150250326Y-96949251D01*
X150339749Y-97038674D01*
X150444899Y-97108933D01*
X150561736Y-97157328D01*
X150685769Y-97182000D01*
X150812231Y-97182000D01*
X150936264Y-97157328D01*
X151053101Y-97108933D01*
X151158251Y-97038674D01*
X151247674Y-96949251D01*
X151317933Y-96844101D01*
X151366328Y-96727264D01*
X151391000Y-96603231D01*
X151391000Y-96476769D01*
X151366328Y-96352736D01*
X151317933Y-96235899D01*
X151247674Y-96130749D01*
X151158251Y-96041326D01*
X151053101Y-95971067D01*
X150936264Y-95922672D01*
X150812231Y-95898000D01*
X150685769Y-95898000D01*
X150561736Y-95922672D01*
X150444899Y-95971067D01*
X150339749Y-96041326D01*
X150250326Y-96130749D01*
X150180067Y-96235899D01*
X150131672Y-96352736D01*
X150107000Y-96476769D01*
X148056500Y-96476769D01*
X148056500Y-95506342D01*
X149469600Y-95506342D01*
X149469600Y-95603258D01*
X149488507Y-95698311D01*
X149525595Y-95787850D01*
X149579438Y-95868432D01*
X149647968Y-95936962D01*
X149728550Y-95990805D01*
X149818089Y-96027893D01*
X149913142Y-96046800D01*
X150010058Y-96046800D01*
X150105111Y-96027893D01*
X150194650Y-95990805D01*
X150275232Y-95936962D01*
X150343762Y-95868432D01*
X150397605Y-95787850D01*
X150434693Y-95698311D01*
X150453600Y-95603258D01*
X150453600Y-95506342D01*
X150434693Y-95411289D01*
X150397605Y-95321750D01*
X150343762Y-95241168D01*
X150275232Y-95172638D01*
X150194650Y-95118795D01*
X150105111Y-95081707D01*
X150010058Y-95062800D01*
X149913142Y-95062800D01*
X149818089Y-95081707D01*
X149728550Y-95118795D01*
X149647968Y-95172638D01*
X149579438Y-95241168D01*
X149525595Y-95321750D01*
X149488507Y-95411289D01*
X149469600Y-95506342D01*
X148056500Y-95506342D01*
X148056500Y-94388742D01*
X148301200Y-94388742D01*
X148301200Y-94485658D01*
X148320107Y-94580711D01*
X148357195Y-94670250D01*
X148411038Y-94750832D01*
X148479568Y-94819362D01*
X148560150Y-94873205D01*
X148649689Y-94910293D01*
X148744742Y-94929200D01*
X148841658Y-94929200D01*
X148936711Y-94910293D01*
X148947215Y-94905942D01*
X151587000Y-94905942D01*
X151587000Y-95002858D01*
X151605907Y-95097911D01*
X151642995Y-95187450D01*
X151696838Y-95268032D01*
X151765368Y-95336562D01*
X151845950Y-95390405D01*
X151935489Y-95427493D01*
X152030542Y-95446400D01*
X152127458Y-95446400D01*
X152222511Y-95427493D01*
X152312050Y-95390405D01*
X152392632Y-95336562D01*
X152461162Y-95268032D01*
X152515005Y-95187450D01*
X152552093Y-95097911D01*
X152571000Y-95002858D01*
X152571000Y-94905942D01*
X152552093Y-94810889D01*
X152515005Y-94721350D01*
X152461162Y-94640768D01*
X152392632Y-94572238D01*
X152312050Y-94518395D01*
X152222511Y-94481307D01*
X152127458Y-94462400D01*
X152030542Y-94462400D01*
X151935489Y-94481307D01*
X151845950Y-94518395D01*
X151765368Y-94572238D01*
X151696838Y-94640768D01*
X151642995Y-94721350D01*
X151605907Y-94810889D01*
X151587000Y-94905942D01*
X148947215Y-94905942D01*
X149026250Y-94873205D01*
X149106832Y-94819362D01*
X149175362Y-94750832D01*
X149229205Y-94670250D01*
X149266293Y-94580711D01*
X149285200Y-94485658D01*
X149285200Y-94388742D01*
X149266293Y-94293689D01*
X149229205Y-94204150D01*
X149175362Y-94123568D01*
X149106832Y-94055038D01*
X149026250Y-94001195D01*
X148936711Y-93964107D01*
X148841658Y-93945200D01*
X148744742Y-93945200D01*
X148649689Y-93964107D01*
X148560150Y-94001195D01*
X148479568Y-94055038D01*
X148411038Y-94123568D01*
X148357195Y-94204150D01*
X148320107Y-94293689D01*
X148301200Y-94388742D01*
X148056500Y-94388742D01*
X148056500Y-93321942D01*
X148301200Y-93321942D01*
X148301200Y-93418858D01*
X148320107Y-93513911D01*
X148357195Y-93603450D01*
X148411038Y-93684032D01*
X148479568Y-93752562D01*
X148560150Y-93806405D01*
X148649689Y-93843493D01*
X148744742Y-93862400D01*
X148841658Y-93862400D01*
X148936711Y-93843493D01*
X149026250Y-93806405D01*
X149106832Y-93752562D01*
X149175362Y-93684032D01*
X149229205Y-93603450D01*
X149266293Y-93513911D01*
X149285200Y-93418858D01*
X149285200Y-93321942D01*
X149266293Y-93226889D01*
X149229205Y-93137350D01*
X149175362Y-93056768D01*
X149106832Y-92988238D01*
X149026250Y-92934395D01*
X148936711Y-92897307D01*
X148841658Y-92878400D01*
X148744742Y-92878400D01*
X148649689Y-92897307D01*
X148560150Y-92934395D01*
X148479568Y-92988238D01*
X148411038Y-93056768D01*
X148357195Y-93137350D01*
X148320107Y-93226889D01*
X148301200Y-93321942D01*
X148056500Y-93321942D01*
X148056500Y-89964606D01*
X149452080Y-89964606D01*
X149452080Y-90095994D01*
X149477713Y-90224857D01*
X149527993Y-90346243D01*
X149600988Y-90455488D01*
X149693892Y-90548392D01*
X149803137Y-90621387D01*
X149924523Y-90671667D01*
X150053386Y-90697300D01*
X150184774Y-90697300D01*
X150313637Y-90671667D01*
X150435023Y-90621387D01*
X150544268Y-90548392D01*
X150637172Y-90455488D01*
X150710167Y-90346243D01*
X150760447Y-90224857D01*
X150786080Y-90095994D01*
X150786080Y-89964606D01*
X150760447Y-89835743D01*
X150710167Y-89714357D01*
X150637172Y-89605112D01*
X150544268Y-89512208D01*
X150435023Y-89439213D01*
X150313637Y-89388933D01*
X150184774Y-89363300D01*
X150053386Y-89363300D01*
X149924523Y-89388933D01*
X149803137Y-89439213D01*
X149693892Y-89512208D01*
X149600988Y-89605112D01*
X149527993Y-89714357D01*
X149477713Y-89835743D01*
X149452080Y-89964606D01*
X148056500Y-89964606D01*
X148056500Y-88250106D01*
X149452080Y-88250106D01*
X149452080Y-88381494D01*
X149477713Y-88510357D01*
X149527993Y-88631743D01*
X149600988Y-88740988D01*
X149693892Y-88833892D01*
X149803137Y-88906887D01*
X149924523Y-88957167D01*
X150053386Y-88982800D01*
X150184774Y-88982800D01*
X150313637Y-88957167D01*
X150435023Y-88906887D01*
X150544268Y-88833892D01*
X150637172Y-88740988D01*
X150710167Y-88631743D01*
X150760447Y-88510357D01*
X150786080Y-88381494D01*
X150786080Y-88250106D01*
X150760447Y-88121243D01*
X150710167Y-87999857D01*
X150637172Y-87890612D01*
X150544268Y-87797708D01*
X150435023Y-87724713D01*
X150313637Y-87674433D01*
X150184774Y-87648800D01*
X150053386Y-87648800D01*
X149924523Y-87674433D01*
X149803137Y-87724713D01*
X149693892Y-87797708D01*
X149600988Y-87890612D01*
X149527993Y-87999857D01*
X149477713Y-88121243D01*
X149452080Y-88250106D01*
X148056500Y-88250106D01*
X148056500Y-86311542D01*
X148555200Y-86311542D01*
X148555200Y-86408458D01*
X148574107Y-86503511D01*
X148611195Y-86593050D01*
X148665038Y-86673632D01*
X148733568Y-86742162D01*
X148814150Y-86796005D01*
X148903689Y-86833093D01*
X148998742Y-86852000D01*
X149095658Y-86852000D01*
X149190711Y-86833093D01*
X149280250Y-86796005D01*
X149360832Y-86742162D01*
X149429362Y-86673632D01*
X149483205Y-86593050D01*
X149520293Y-86503511D01*
X149539200Y-86408458D01*
X149539200Y-86311542D01*
X149520293Y-86216489D01*
X149483205Y-86126950D01*
X149429362Y-86046368D01*
X149360832Y-85977838D01*
X149280250Y-85923995D01*
X149190711Y-85886907D01*
X149095658Y-85868000D01*
X148998742Y-85868000D01*
X148903689Y-85886907D01*
X148814150Y-85923995D01*
X148733568Y-85977838D01*
X148665038Y-86046368D01*
X148611195Y-86126950D01*
X148574107Y-86216489D01*
X148555200Y-86311542D01*
X148056500Y-86311542D01*
X148056500Y-82945336D01*
X148057912Y-82931000D01*
X148052274Y-82873758D01*
X148035577Y-82818716D01*
X148008463Y-82767989D01*
X147971974Y-82723526D01*
X147927511Y-82687037D01*
X147876784Y-82659923D01*
X147821742Y-82643226D01*
X147778836Y-82639000D01*
X147764500Y-82637588D01*
X147750164Y-82639000D01*
X146318336Y-82639000D01*
X146304000Y-82637588D01*
X146289664Y-82639000D01*
X146284392Y-82639519D01*
X146319893Y-82553811D01*
X146338800Y-82458758D01*
X146338800Y-82361842D01*
X146319893Y-82266789D01*
X146282805Y-82177250D01*
X146228962Y-82096668D01*
X146160432Y-82028138D01*
X146079850Y-81974295D01*
X145990311Y-81937207D01*
X145931575Y-81925524D01*
X145952605Y-81894050D01*
X145989693Y-81804511D01*
X146008600Y-81709458D01*
X146008600Y-81612542D01*
X145989693Y-81517489D01*
X145952605Y-81427950D01*
X145898762Y-81347368D01*
X145830232Y-81278838D01*
X145749650Y-81224995D01*
X145660111Y-81187907D01*
X145565058Y-81169000D01*
X145468142Y-81169000D01*
X145373089Y-81187907D01*
X145283550Y-81224995D01*
X145202968Y-81278838D01*
X145134438Y-81347368D01*
X145080595Y-81427950D01*
X145043507Y-81517489D01*
X145024600Y-81612542D01*
X139769463Y-81612542D01*
X139762083Y-81601498D01*
X139693553Y-81532968D01*
X139612971Y-81479125D01*
X139523432Y-81442037D01*
X139428379Y-81423130D01*
X139331463Y-81423130D01*
X139236410Y-81442037D01*
X139146871Y-81479125D01*
X139066289Y-81532968D01*
X138997759Y-81601498D01*
X138943916Y-81682080D01*
X138906828Y-81771619D01*
X138887921Y-81866672D01*
X115226616Y-81866672D01*
X115513808Y-80239257D01*
X122423000Y-80239257D01*
X122423000Y-80390343D01*
X122452476Y-80538526D01*
X122510294Y-80678111D01*
X122594232Y-80803734D01*
X122701066Y-80910568D01*
X122826689Y-80994506D01*
X122966274Y-81052324D01*
X123114457Y-81081800D01*
X123265543Y-81081800D01*
X123413726Y-81052324D01*
X123553311Y-80994506D01*
X123678934Y-80910568D01*
X123785768Y-80803734D01*
X123869706Y-80678111D01*
X123927524Y-80538526D01*
X123957000Y-80390343D01*
X123957000Y-80239257D01*
X123927524Y-80091074D01*
X123925778Y-80086857D01*
X142793800Y-80086857D01*
X142793800Y-80237943D01*
X142823276Y-80386126D01*
X142881094Y-80525711D01*
X142965032Y-80651334D01*
X143071866Y-80758168D01*
X143197489Y-80842106D01*
X143337074Y-80899924D01*
X143485257Y-80929400D01*
X143636343Y-80929400D01*
X143784526Y-80899924D01*
X143924111Y-80842106D01*
X144049734Y-80758168D01*
X144156568Y-80651334D01*
X144240506Y-80525711D01*
X144298324Y-80386126D01*
X144327800Y-80237943D01*
X144327800Y-80086857D01*
X144298324Y-79938674D01*
X144240506Y-79799089D01*
X144156568Y-79673466D01*
X144049734Y-79566632D01*
X143924111Y-79482694D01*
X143784526Y-79424876D01*
X143636343Y-79395400D01*
X143485257Y-79395400D01*
X143337074Y-79424876D01*
X143197489Y-79482694D01*
X143071866Y-79566632D01*
X142965032Y-79673466D01*
X142881094Y-79799089D01*
X142823276Y-79938674D01*
X142793800Y-80086857D01*
X123925778Y-80086857D01*
X123869706Y-79951489D01*
X123785768Y-79825866D01*
X123678934Y-79719032D01*
X123553311Y-79635094D01*
X123413726Y-79577276D01*
X123265543Y-79547800D01*
X123114457Y-79547800D01*
X122966274Y-79577276D01*
X122826689Y-79635094D01*
X122701066Y-79719032D01*
X122594232Y-79825866D01*
X122510294Y-79951489D01*
X122452476Y-80091074D01*
X122423000Y-80239257D01*
X115513808Y-80239257D01*
X115697287Y-79199542D01*
X129759200Y-79199542D01*
X129759200Y-79296458D01*
X129778107Y-79391511D01*
X129815195Y-79481050D01*
X129869038Y-79561632D01*
X129937568Y-79630162D01*
X130018150Y-79684005D01*
X130107689Y-79721093D01*
X130202742Y-79740000D01*
X130299658Y-79740000D01*
X130394711Y-79721093D01*
X130484250Y-79684005D01*
X130564832Y-79630162D01*
X130633362Y-79561632D01*
X130687205Y-79481050D01*
X130724293Y-79391511D01*
X130743200Y-79296458D01*
X130743200Y-79199542D01*
X130724293Y-79104489D01*
X130687205Y-79014950D01*
X130633362Y-78934368D01*
X130568336Y-78869342D01*
X143780000Y-78869342D01*
X143780000Y-78966258D01*
X143798907Y-79061311D01*
X143835995Y-79150850D01*
X143889838Y-79231432D01*
X143958368Y-79299962D01*
X144038950Y-79353805D01*
X144128489Y-79390893D01*
X144223542Y-79409800D01*
X144320458Y-79409800D01*
X144415511Y-79390893D01*
X144505050Y-79353805D01*
X144585632Y-79299962D01*
X144654162Y-79231432D01*
X144708005Y-79150850D01*
X144745093Y-79061311D01*
X144764000Y-78966258D01*
X144764000Y-78869342D01*
X144745093Y-78774289D01*
X144708005Y-78684750D01*
X144654162Y-78604168D01*
X144585632Y-78535638D01*
X144505050Y-78481795D01*
X144415511Y-78444707D01*
X144320458Y-78425800D01*
X144223542Y-78425800D01*
X144128489Y-78444707D01*
X144038950Y-78481795D01*
X143958368Y-78535638D01*
X143889838Y-78604168D01*
X143835995Y-78684750D01*
X143798907Y-78774289D01*
X143780000Y-78869342D01*
X130568336Y-78869342D01*
X130564832Y-78865838D01*
X130484250Y-78811995D01*
X130394711Y-78774907D01*
X130299658Y-78756000D01*
X130202742Y-78756000D01*
X130107689Y-78774907D01*
X130018150Y-78811995D01*
X129937568Y-78865838D01*
X129869038Y-78934368D01*
X129815195Y-79014950D01*
X129778107Y-79104489D01*
X129759200Y-79199542D01*
X115697287Y-79199542D01*
X115706885Y-79145156D01*
X115708650Y-79111146D01*
X115704064Y-79084286D01*
X115694325Y-79058837D01*
X115679809Y-79035777D01*
X115661073Y-79015992D01*
X115638837Y-79000242D01*
X115613956Y-78989133D01*
X115232956Y-78862133D01*
X115211851Y-78856891D01*
X114947905Y-78812900D01*
X114983458Y-78812900D01*
X115078511Y-78793993D01*
X115168050Y-78756905D01*
X115248632Y-78703062D01*
X115317162Y-78634532D01*
X115371005Y-78553950D01*
X115408093Y-78464411D01*
X115427000Y-78369358D01*
X115427000Y-78272442D01*
X115408093Y-78177389D01*
X115371005Y-78087850D01*
X115317162Y-78007268D01*
X115248632Y-77938738D01*
X115168050Y-77884895D01*
X115078511Y-77847807D01*
X114983458Y-77828900D01*
X114886542Y-77828900D01*
X114791489Y-77847807D01*
X114701950Y-77884895D01*
X114621368Y-77938738D01*
X114552838Y-78007268D01*
X114498995Y-78087850D01*
X114461907Y-78177389D01*
X114443000Y-78272442D01*
X114443000Y-78369358D01*
X114461907Y-78464411D01*
X114498995Y-78553950D01*
X114552838Y-78634532D01*
X114621368Y-78703062D01*
X114701950Y-78756905D01*
X114762555Y-78782008D01*
X111825876Y-78292562D01*
X113121958Y-77061285D01*
X113738440Y-76557942D01*
X116144800Y-76557942D01*
X116144800Y-76654858D01*
X116163707Y-76749911D01*
X116200795Y-76839450D01*
X116254638Y-76920032D01*
X116323168Y-76988562D01*
X116403750Y-77042405D01*
X116493289Y-77079493D01*
X116588342Y-77098400D01*
X116685258Y-77098400D01*
X116780311Y-77079493D01*
X116862943Y-77045266D01*
X116915038Y-77123232D01*
X116983568Y-77191762D01*
X117064150Y-77245605D01*
X117153689Y-77282693D01*
X117248742Y-77301600D01*
X117345658Y-77301600D01*
X117440711Y-77282693D01*
X117530250Y-77245605D01*
X117610832Y-77191762D01*
X117679362Y-77123232D01*
X117733205Y-77042650D01*
X117770293Y-76953111D01*
X117789200Y-76858058D01*
X117789200Y-76761142D01*
X117770293Y-76666089D01*
X117733205Y-76576550D01*
X117679362Y-76495968D01*
X117610832Y-76427438D01*
X117530250Y-76373595D01*
X117440711Y-76336507D01*
X117345658Y-76317600D01*
X117248742Y-76317600D01*
X117153689Y-76336507D01*
X117071057Y-76370734D01*
X117018962Y-76292768D01*
X116950432Y-76224238D01*
X116869850Y-76170395D01*
X116780311Y-76133307D01*
X116685258Y-76114400D01*
X116588342Y-76114400D01*
X116493289Y-76133307D01*
X116403750Y-76170395D01*
X116323168Y-76224238D01*
X116254638Y-76292768D01*
X116200795Y-76373350D01*
X116163707Y-76462889D01*
X116144800Y-76557942D01*
X113738440Y-76557942D01*
X114529878Y-75911753D01*
X115393388Y-75315715D01*
X118148880Y-75315715D01*
X118152469Y-75342726D01*
X118161259Y-75368519D01*
X119304259Y-77883119D01*
X119319203Y-77908468D01*
X119337514Y-77928647D01*
X119359410Y-77944866D01*
X119384049Y-77956502D01*
X119410485Y-77963107D01*
X119437702Y-77964429D01*
X119464653Y-77960414D01*
X119490304Y-77951220D01*
X121493279Y-77002442D01*
X122393200Y-77002442D01*
X122393200Y-77099358D01*
X122412107Y-77194411D01*
X122449195Y-77283950D01*
X122503038Y-77364532D01*
X122571568Y-77433062D01*
X122652150Y-77486905D01*
X122741689Y-77523993D01*
X122836742Y-77542900D01*
X122933658Y-77542900D01*
X123028711Y-77523993D01*
X123118250Y-77486905D01*
X123198832Y-77433062D01*
X123267362Y-77364532D01*
X123321205Y-77283950D01*
X123358293Y-77194411D01*
X123377200Y-77099358D01*
X123377200Y-77002442D01*
X123358293Y-76907389D01*
X123321205Y-76817850D01*
X123267362Y-76737268D01*
X123198832Y-76668738D01*
X123118250Y-76614895D01*
X123028711Y-76577807D01*
X122933658Y-76558900D01*
X122836742Y-76558900D01*
X122741689Y-76577807D01*
X122652150Y-76614895D01*
X122571568Y-76668738D01*
X122503038Y-76737268D01*
X122449195Y-76817850D01*
X122412107Y-76907389D01*
X122393200Y-77002442D01*
X121493279Y-77002442D01*
X121903304Y-76808220D01*
X121926717Y-76794160D01*
X121946888Y-76775840D01*
X121963098Y-76753937D01*
X121974723Y-76729293D01*
X121981316Y-76702854D01*
X121982625Y-76675636D01*
X121978599Y-76648687D01*
X121969393Y-76623040D01*
X121911418Y-76500786D01*
X124565051Y-76500786D01*
X124565051Y-76597702D01*
X124583958Y-76692755D01*
X124621046Y-76782294D01*
X124674889Y-76862876D01*
X124743419Y-76931406D01*
X124824001Y-76985249D01*
X124913540Y-77022337D01*
X125008593Y-77041244D01*
X125105509Y-77041244D01*
X125200562Y-77022337D01*
X125290101Y-76985249D01*
X125370683Y-76931406D01*
X125439213Y-76862876D01*
X125493056Y-76782294D01*
X125494212Y-76779504D01*
X125547557Y-76790115D01*
X125644473Y-76790115D01*
X125739526Y-76771208D01*
X125829065Y-76734120D01*
X125909647Y-76680277D01*
X125978177Y-76611747D01*
X126032020Y-76531165D01*
X126050669Y-76486141D01*
X135453199Y-76486141D01*
X135453199Y-76583057D01*
X135472106Y-76678110D01*
X135509194Y-76767649D01*
X135563037Y-76848231D01*
X135631567Y-76916761D01*
X135712149Y-76970604D01*
X135801688Y-77007692D01*
X135896741Y-77026599D01*
X135993657Y-77026599D01*
X136088710Y-77007692D01*
X136178249Y-76970604D01*
X136187620Y-76964342D01*
X136388600Y-76964342D01*
X136388600Y-77061258D01*
X136407507Y-77156311D01*
X136444595Y-77245850D01*
X136498438Y-77326432D01*
X136566968Y-77394962D01*
X136647550Y-77448805D01*
X136737089Y-77485893D01*
X136804783Y-77499358D01*
X136795000Y-77548542D01*
X136795000Y-77645458D01*
X136813907Y-77740511D01*
X136850995Y-77830050D01*
X136904838Y-77910632D01*
X136973368Y-77979162D01*
X137053950Y-78033005D01*
X137143489Y-78070093D01*
X137238542Y-78089000D01*
X137335458Y-78089000D01*
X137430511Y-78070093D01*
X137520050Y-78033005D01*
X137600632Y-77979162D01*
X137669162Y-77910632D01*
X137723005Y-77830050D01*
X137760093Y-77740511D01*
X137779000Y-77645458D01*
X137779000Y-77548542D01*
X137760093Y-77453489D01*
X137723005Y-77363950D01*
X137669162Y-77283368D01*
X137600632Y-77214838D01*
X137520050Y-77160995D01*
X137430511Y-77123907D01*
X137362817Y-77110442D01*
X137372600Y-77061258D01*
X137372600Y-76964342D01*
X137353693Y-76869289D01*
X137316605Y-76779750D01*
X137262762Y-76699168D01*
X137194232Y-76630638D01*
X137113650Y-76576795D01*
X137024111Y-76539707D01*
X136929058Y-76520800D01*
X136832142Y-76520800D01*
X136737089Y-76539707D01*
X136647550Y-76576795D01*
X136566968Y-76630638D01*
X136498438Y-76699168D01*
X136444595Y-76779750D01*
X136407507Y-76869289D01*
X136388600Y-76964342D01*
X136187620Y-76964342D01*
X136258831Y-76916761D01*
X136327361Y-76848231D01*
X136381204Y-76767649D01*
X136418292Y-76678110D01*
X136437199Y-76583057D01*
X136437199Y-76486141D01*
X136418292Y-76391088D01*
X136381204Y-76301549D01*
X136327361Y-76220967D01*
X136258831Y-76152437D01*
X136219917Y-76126435D01*
X141465909Y-76126435D01*
X141469921Y-76178876D01*
X141484087Y-76229527D01*
X141507862Y-76276441D01*
X141540332Y-76317815D01*
X141580251Y-76352059D01*
X142399403Y-76925635D01*
X142445235Y-76951434D01*
X142495219Y-76967795D01*
X142547435Y-76974091D01*
X142599876Y-76970079D01*
X142650527Y-76955913D01*
X142697441Y-76932138D01*
X142738815Y-76899668D01*
X142773059Y-76859749D01*
X143346635Y-76040597D01*
X143372434Y-75994765D01*
X143388795Y-75944781D01*
X143395091Y-75892565D01*
X143391079Y-75840124D01*
X143376913Y-75789473D01*
X143353138Y-75742559D01*
X143320668Y-75701185D01*
X143280749Y-75666941D01*
X142461597Y-75093365D01*
X142415765Y-75067566D01*
X142365781Y-75051205D01*
X142313565Y-75044909D01*
X142261124Y-75048921D01*
X142210473Y-75063087D01*
X142163559Y-75086862D01*
X142122185Y-75119332D01*
X142087941Y-75159251D01*
X141514365Y-75978403D01*
X141488566Y-76024235D01*
X141472205Y-76074219D01*
X141465909Y-76126435D01*
X136219917Y-76126435D01*
X136178249Y-76098594D01*
X136088710Y-76061506D01*
X135993657Y-76042599D01*
X135896741Y-76042599D01*
X135801688Y-76061506D01*
X135712149Y-76098594D01*
X135631567Y-76152437D01*
X135563037Y-76220967D01*
X135509194Y-76301549D01*
X135472106Y-76391088D01*
X135453199Y-76486141D01*
X126050669Y-76486141D01*
X126069108Y-76441626D01*
X126078560Y-76394107D01*
X126163994Y-76377113D01*
X126253533Y-76340025D01*
X126334115Y-76286182D01*
X126402645Y-76217652D01*
X126456488Y-76137070D01*
X126493576Y-76047531D01*
X126512483Y-75952478D01*
X126512483Y-75855562D01*
X126493576Y-75760509D01*
X126456488Y-75670970D01*
X126402645Y-75590388D01*
X126334115Y-75521858D01*
X126253533Y-75468015D01*
X126163994Y-75430927D01*
X126068941Y-75412020D01*
X125972025Y-75412020D01*
X125876972Y-75430927D01*
X125787433Y-75468015D01*
X125706851Y-75521858D01*
X125638321Y-75590388D01*
X125584478Y-75670970D01*
X125547390Y-75760509D01*
X125537938Y-75808028D01*
X125452504Y-75825022D01*
X125362965Y-75862110D01*
X125282383Y-75915953D01*
X125213853Y-75984483D01*
X125160010Y-76065065D01*
X125158854Y-76067855D01*
X125105509Y-76057244D01*
X125008593Y-76057244D01*
X124913540Y-76076151D01*
X124824001Y-76113239D01*
X124743419Y-76167082D01*
X124674889Y-76235612D01*
X124621046Y-76316194D01*
X124583958Y-76405733D01*
X124565051Y-76500786D01*
X121911418Y-76500786D01*
X121636919Y-75921952D01*
X122729618Y-75921952D01*
X122729618Y-76018868D01*
X122748525Y-76113921D01*
X122785613Y-76203460D01*
X122839456Y-76284042D01*
X122907986Y-76352572D01*
X122988568Y-76406415D01*
X123078107Y-76443503D01*
X123173160Y-76462410D01*
X123270076Y-76462410D01*
X123365129Y-76443503D01*
X123454668Y-76406415D01*
X123535250Y-76352572D01*
X123603780Y-76284042D01*
X123657623Y-76203460D01*
X123694711Y-76113921D01*
X123713618Y-76018868D01*
X123713618Y-75921952D01*
X123694711Y-75826899D01*
X123657623Y-75737360D01*
X123603780Y-75656778D01*
X123535250Y-75588248D01*
X123454668Y-75534405D01*
X123365129Y-75497317D01*
X123270076Y-75478410D01*
X123173160Y-75478410D01*
X123078107Y-75497317D01*
X122988568Y-75534405D01*
X122907986Y-75588248D01*
X122839456Y-75656778D01*
X122785613Y-75737360D01*
X122748525Y-75826899D01*
X122729618Y-75921952D01*
X121636919Y-75921952D01*
X121094090Y-74777290D01*
X132829948Y-74777290D01*
X132829948Y-74874206D01*
X132848855Y-74969259D01*
X132885943Y-75058798D01*
X132939786Y-75139380D01*
X133008316Y-75207910D01*
X133088898Y-75261753D01*
X133178437Y-75298841D01*
X133273490Y-75317748D01*
X133370406Y-75317748D01*
X133465459Y-75298841D01*
X133554998Y-75261753D01*
X133635580Y-75207910D01*
X133704110Y-75139380D01*
X133757953Y-75058798D01*
X133795041Y-74969259D01*
X133813948Y-74874206D01*
X133813948Y-74777290D01*
X133795041Y-74682237D01*
X133757953Y-74592698D01*
X133704110Y-74512116D01*
X133635580Y-74443586D01*
X133554998Y-74389743D01*
X133465459Y-74352655D01*
X133370406Y-74333748D01*
X133273490Y-74333748D01*
X133178437Y-74352655D01*
X133088898Y-74389743D01*
X133008316Y-74443586D01*
X132939786Y-74512116D01*
X132885943Y-74592698D01*
X132848855Y-74682237D01*
X132829948Y-74777290D01*
X121094090Y-74777290D01*
X120800993Y-74159240D01*
X120788093Y-74137429D01*
X120770053Y-74117007D01*
X120748375Y-74100497D01*
X120723893Y-74088533D01*
X120697548Y-74081576D01*
X120670351Y-74079892D01*
X120643349Y-74083546D01*
X120617578Y-74092398D01*
X118229978Y-75184598D01*
X118206700Y-75198112D01*
X118186235Y-75216103D01*
X118169673Y-75237741D01*
X118157650Y-75262194D01*
X118150629Y-75288523D01*
X118148880Y-75315715D01*
X115393388Y-75315715D01*
X116145506Y-74796566D01*
X117845631Y-73814998D01*
X119619226Y-72973417D01*
X119692491Y-72945631D01*
X121194373Y-72945631D01*
X121194373Y-73042547D01*
X121213280Y-73137600D01*
X121250368Y-73227139D01*
X121304211Y-73307721D01*
X121372741Y-73376251D01*
X121453323Y-73430094D01*
X121542862Y-73467182D01*
X121637915Y-73486089D01*
X121734831Y-73486089D01*
X121829884Y-73467182D01*
X121919423Y-73430094D01*
X122000005Y-73376251D01*
X122068535Y-73307721D01*
X122122378Y-73227139D01*
X122159466Y-73137600D01*
X122178373Y-73042547D01*
X122178373Y-72945631D01*
X122159466Y-72850578D01*
X122122378Y-72761039D01*
X122068535Y-72680457D01*
X122000005Y-72611927D01*
X121919423Y-72558084D01*
X121829884Y-72520996D01*
X121734831Y-72502089D01*
X121637915Y-72502089D01*
X121542862Y-72520996D01*
X121453323Y-72558084D01*
X121372741Y-72611927D01*
X121304211Y-72680457D01*
X121250368Y-72761039D01*
X121213280Y-72850578D01*
X121194373Y-72945631D01*
X119692491Y-72945631D01*
X121098149Y-72412536D01*
X121829690Y-72168689D01*
X123340415Y-71731102D01*
X125263876Y-71338424D01*
X127212697Y-71101794D01*
X129174240Y-71022747D01*
X131135783Y-71101794D01*
G37*
G04 #@! TD.AperFunction*
M02*
