G04 #@! TF.GenerationSoftware,KiCad,Pcbnew,5.1.7-a382d34a8~88~ubuntu18.04.1*
G04 #@! TF.CreationDate,2021-05-20T00:29:44+02:00*
G04 #@! TF.ProjectId,Emersense_V1,456d6572-7365-46e7-9365-5f56312e6b69,rev?*
G04 #@! TF.SameCoordinates,Original*
G04 #@! TF.FileFunction,Legend,Top*
G04 #@! TF.FilePolarity,Positive*
%FSLAX46Y46*%
G04 Gerber Fmt 4.6, Leading zero omitted, Abs format (unit mm)*
G04 Created by KiCad (PCBNEW 5.1.7-a382d34a8~88~ubuntu18.04.1) date 2021-05-20 00:29:44*
%MOMM*%
%LPD*%
G01*
G04 APERTURE LIST*
%ADD10C,0.120000*%
%ADD11C,0.150000*%
%ADD12C,0.350000*%
%ADD13C,0.100000*%
%ADD14C,0.200000*%
%ADD15C,0.127000*%
%ADD16C,0.880000*%
%ADD17C,1.000000*%
%ADD18R,1.200000X0.600000*%
%ADD19C,0.800000*%
%ADD20R,0.800000X0.900000*%
%ADD21C,1.800000*%
%ADD22R,0.600000X0.400000*%
%ADD23C,0.750000*%
G04 APERTURE END LIST*
D10*
X149415500Y-92875100D02*
X149415500Y-91998800D01*
X144297400Y-88519000D02*
X135610600Y-88519000D01*
X144297400Y-82550000D02*
X144297400Y-88519000D01*
D11*
X145153266Y-81623733D02*
X145186600Y-81590400D01*
X145253266Y-81557066D01*
X145419933Y-81557066D01*
X145486600Y-81590400D01*
X145519933Y-81623733D01*
X145553266Y-81690400D01*
X145553266Y-81757066D01*
X145519933Y-81857066D01*
X145119933Y-82257066D01*
X145553266Y-82257066D01*
X145853266Y-82190400D02*
X145886600Y-82223733D01*
X145853266Y-82257066D01*
X145819933Y-82223733D01*
X145853266Y-82190400D01*
X145853266Y-82257066D01*
X146119933Y-81557066D02*
X146553266Y-81557066D01*
X146319933Y-81823733D01*
X146419933Y-81823733D01*
X146486600Y-81857066D01*
X146519933Y-81890400D01*
X146553266Y-81957066D01*
X146553266Y-82123733D01*
X146519933Y-82190400D01*
X146486600Y-82223733D01*
X146419933Y-82257066D01*
X146219933Y-82257066D01*
X146153266Y-82223733D01*
X146119933Y-82190400D01*
X146853266Y-82257066D02*
X146853266Y-81790400D01*
X146853266Y-81857066D02*
X146886600Y-81823733D01*
X146953266Y-81790400D01*
X147053266Y-81790400D01*
X147119933Y-81823733D01*
X147153266Y-81890400D01*
X147153266Y-82257066D01*
X147153266Y-81890400D02*
X147186600Y-81823733D01*
X147253266Y-81790400D01*
X147353266Y-81790400D01*
X147419933Y-81823733D01*
X147453266Y-81890400D01*
X147453266Y-82257066D01*
X147786600Y-82257066D02*
X147786600Y-81790400D01*
X147786600Y-81857066D02*
X147819933Y-81823733D01*
X147886600Y-81790400D01*
X147986600Y-81790400D01*
X148053266Y-81823733D01*
X148086600Y-81890400D01*
X148086600Y-82257066D01*
X148086600Y-81890400D02*
X148119933Y-81823733D01*
X148186600Y-81790400D01*
X148286600Y-81790400D01*
X148353266Y-81823733D01*
X148386600Y-81890400D01*
X148386600Y-82257066D01*
D10*
X144754600Y-82550000D02*
X147066000Y-82550000D01*
X146291300Y-104013000D02*
X144907000Y-106362500D01*
X149415500Y-98552000D02*
X149415500Y-97612200D01*
X146240500Y-86347300D02*
X144970500Y-85280500D01*
D12*
X115697000Y-108712000D02*
X144780000Y-108712000D01*
X144780000Y-108712000D02*
X144780000Y-82550000D01*
X115697000Y-82550000D02*
X144780000Y-82550000D01*
X115697000Y-108712000D02*
X115697000Y-82550000D01*
D10*
X125132341Y-109195600D02*
X124825059Y-109195600D01*
X125132341Y-109955600D02*
X124825059Y-109955600D01*
X127077441Y-109195600D02*
X126770159Y-109195600D01*
X127077441Y-109955600D02*
X126770159Y-109955600D01*
X140933400Y-84074000D02*
G75*
G03*
X140933400Y-84074000I-700000J0D01*
G01*
D13*
X113934854Y-77224746D02*
G75*
G03*
X113934854Y-77224746I-50000J0D01*
G01*
X147340599Y-79472599D02*
G75*
G03*
X147340599Y-79472599I-50000J0D01*
G01*
X145395056Y-112310914D02*
G75*
G03*
X145395056Y-112310914I-50000J0D01*
G01*
X113591907Y-112398907D02*
G75*
G03*
X113591907Y-112398907I-50000J0D01*
G01*
D10*
X151485600Y-86309200D02*
X151485600Y-88290400D01*
X149352000Y-86309200D02*
X151485600Y-86309200D01*
X149352000Y-86766400D02*
X149352000Y-86309200D01*
X148031200Y-86766400D02*
X149352000Y-86766400D01*
X148031200Y-91490800D02*
X148031200Y-86766400D01*
X149301200Y-91490800D02*
X148031200Y-91490800D01*
X149301200Y-91998800D02*
X149301200Y-91490800D01*
X151485600Y-91998800D02*
X149301200Y-91998800D01*
X151485600Y-90119200D02*
X151485600Y-91998800D01*
X152958800Y-88290400D02*
X151485600Y-88290400D01*
X152958800Y-90119200D02*
X151485600Y-90119200D01*
X152958800Y-88290400D02*
X152958800Y-90119200D01*
D14*
X131847590Y-79107412D02*
G75*
G03*
X131847590Y-79107412I-2963974J0D01*
G01*
D10*
X120276252Y-110590000D02*
X119753748Y-110590000D01*
X120276252Y-109120000D02*
X119753748Y-109120000D01*
X140659571Y-116473598D02*
X142327151Y-115605511D01*
X140659571Y-116473598D02*
X138991991Y-117341685D01*
X138267713Y-111878882D02*
X139935293Y-111010795D01*
X138267713Y-111878882D02*
X135141000Y-113506546D01*
X128998710Y-113501622D02*
X130127259Y-112635657D01*
X130654541Y-115659543D02*
X131783090Y-114793578D01*
X136971627Y-110516260D02*
X137462620Y-110337553D01*
X137474396Y-111897609D02*
X137965389Y-111718902D01*
X125453379Y-113596711D02*
X125156567Y-113517181D01*
X125256677Y-114330815D02*
X124959865Y-114251285D01*
X125199379Y-114587311D02*
X124902567Y-114507781D01*
X125002677Y-115321415D02*
X124705865Y-115241885D01*
X115153796Y-76770044D02*
X114936515Y-76987325D01*
X115691197Y-77307445D02*
X115473916Y-77524726D01*
X134159368Y-80906293D02*
X135778782Y-81047973D01*
X135778782Y-81047973D02*
X135690232Y-82060107D01*
X135690232Y-82060107D02*
X134070818Y-81918427D01*
X134070818Y-81918427D02*
X134159368Y-80906293D01*
X135886568Y-81058693D02*
X137505982Y-81200373D01*
X137505982Y-81200373D02*
X137417432Y-82212507D01*
X137417432Y-82212507D02*
X135798018Y-82070827D01*
X135798018Y-82070827D02*
X135886568Y-81058693D01*
X109779217Y-108863655D02*
X109699687Y-108566843D01*
X109045113Y-109060357D02*
X108965583Y-108763545D01*
X115340400Y-102771641D02*
X115340400Y-102464359D01*
X114580400Y-102771641D02*
X114580400Y-102464359D01*
X135211810Y-74167420D02*
X135155990Y-74375743D01*
X135907276Y-74353769D02*
X135851456Y-74562092D01*
X134047476Y-77153444D02*
X132984958Y-76868743D01*
X134539232Y-75318185D02*
X133476714Y-75033484D01*
X135412713Y-77467494D02*
X135878588Y-75728828D01*
X131080027Y-75053128D02*
X131024207Y-75261451D01*
X131775493Y-75239477D02*
X131719673Y-75447800D01*
X129934666Y-110441128D02*
X130299923Y-110917140D01*
X127842491Y-111164180D02*
X128953186Y-110311914D01*
X128078534Y-112621672D02*
X127713277Y-112145660D01*
X130170709Y-111898620D02*
X129060014Y-112750886D01*
X129060014Y-112750886D02*
G75*
G02*
X128078534Y-112621672I-426133J555347D01*
G01*
X127713277Y-112145660D02*
G75*
G02*
X127842491Y-111164180I555347J426133D01*
G01*
X128953186Y-110311914D02*
G75*
G02*
X129934666Y-110441128I426133J-555347D01*
G01*
X130299923Y-110917140D02*
G75*
G02*
X130170709Y-111898620I-555347J-426133D01*
G01*
X145945292Y-79032756D02*
X146162573Y-79250037D01*
X145407891Y-79570157D02*
X145625172Y-79787438D01*
X143709862Y-111768484D02*
X143945254Y-111570967D01*
X144198380Y-112350677D02*
X144433772Y-112153160D01*
X114858816Y-112856217D02*
X114641535Y-112638936D01*
X115396217Y-112318816D02*
X115178936Y-112101535D01*
X113537583Y-108331745D02*
X113617113Y-108628557D01*
X114271687Y-108135043D02*
X114351217Y-108431855D01*
X114580011Y-104562914D02*
X113681700Y-104803616D01*
X111527686Y-105380782D02*
X112425997Y-105140081D01*
X111527686Y-105380782D02*
X112086735Y-107467182D01*
X114580011Y-104562914D02*
X114957887Y-105973166D01*
X110820888Y-108393721D02*
X111061590Y-109292032D01*
X111638756Y-111446046D02*
X111398055Y-110547735D01*
X111638756Y-111446046D02*
X113725156Y-110886997D01*
X110820888Y-108393721D02*
X112231140Y-108015845D01*
X119137100Y-113484252D02*
X119137100Y-112961748D01*
X117667100Y-113484252D02*
X117667100Y-112961748D01*
X117077664Y-111104000D02*
X117293336Y-111104000D01*
X117077664Y-110384000D02*
X117293336Y-110384000D01*
X152984200Y-100596700D02*
X152984200Y-102425500D01*
X152984200Y-102425500D02*
X151511000Y-102425500D01*
X152984200Y-100596700D02*
X151511000Y-100596700D01*
X151511000Y-102425500D02*
X151511000Y-104305100D01*
X151511000Y-104305100D02*
X149326600Y-104305100D01*
X149326600Y-104305100D02*
X149326600Y-103797100D01*
X149326600Y-103797100D02*
X148056600Y-103797100D01*
X148056600Y-103797100D02*
X148056600Y-99072700D01*
X148056600Y-99072700D02*
X149377400Y-99072700D01*
X149377400Y-99072700D02*
X149377400Y-98615500D01*
X149377400Y-98615500D02*
X151511000Y-98615500D01*
X151511000Y-98615500D02*
X151511000Y-100596700D01*
D14*
X148449000Y-93380000D02*
G75*
G03*
X148449000Y-93380000I-100000J0D01*
G01*
D15*
X151499000Y-97610000D02*
X152629000Y-97610000D01*
X148869000Y-97610000D02*
X149999000Y-97610000D01*
X148869000Y-92890000D02*
X148869000Y-97610000D01*
X152629000Y-92890000D02*
X152629000Y-97610000D01*
X148869000Y-92890000D02*
X152629000Y-92890000D01*
D11*
X124035400Y-111009866D02*
X123802066Y-110676533D01*
X123635400Y-111009866D02*
X123635400Y-110309866D01*
X123902066Y-110309866D01*
X123968733Y-110343200D01*
X124002066Y-110376533D01*
X124035400Y-110443200D01*
X124035400Y-110543200D01*
X124002066Y-110609866D01*
X123968733Y-110643200D01*
X123902066Y-110676533D01*
X123635400Y-110676533D01*
X124302066Y-110376533D02*
X124335400Y-110343200D01*
X124402066Y-110309866D01*
X124568733Y-110309866D01*
X124635400Y-110343200D01*
X124668733Y-110376533D01*
X124702066Y-110443200D01*
X124702066Y-110509866D01*
X124668733Y-110609866D01*
X124268733Y-111009866D01*
X124702066Y-111009866D01*
X125102066Y-110609866D02*
X125035400Y-110576533D01*
X125002066Y-110543200D01*
X124968733Y-110476533D01*
X124968733Y-110443200D01*
X125002066Y-110376533D01*
X125035400Y-110343200D01*
X125102066Y-110309866D01*
X125235400Y-110309866D01*
X125302066Y-110343200D01*
X125335400Y-110376533D01*
X125368733Y-110443200D01*
X125368733Y-110476533D01*
X125335400Y-110543200D01*
X125302066Y-110576533D01*
X125235400Y-110609866D01*
X125102066Y-110609866D01*
X125035400Y-110643200D01*
X125002066Y-110676533D01*
X124968733Y-110743200D01*
X124968733Y-110876533D01*
X125002066Y-110943200D01*
X125035400Y-110976533D01*
X125102066Y-111009866D01*
X125235400Y-111009866D01*
X125302066Y-110976533D01*
X125335400Y-110943200D01*
X125368733Y-110876533D01*
X125368733Y-110743200D01*
X125335400Y-110676533D01*
X125302066Y-110643200D01*
X125235400Y-110609866D01*
X126219800Y-110946366D02*
X125986466Y-110613033D01*
X125819800Y-110946366D02*
X125819800Y-110246366D01*
X126086466Y-110246366D01*
X126153133Y-110279700D01*
X126186466Y-110313033D01*
X126219800Y-110379700D01*
X126219800Y-110479700D01*
X126186466Y-110546366D01*
X126153133Y-110579700D01*
X126086466Y-110613033D01*
X125819800Y-110613033D01*
X126486466Y-110313033D02*
X126519800Y-110279700D01*
X126586466Y-110246366D01*
X126753133Y-110246366D01*
X126819800Y-110279700D01*
X126853133Y-110313033D01*
X126886466Y-110379700D01*
X126886466Y-110446366D01*
X126853133Y-110546366D01*
X126453133Y-110946366D01*
X126886466Y-110946366D01*
X127119800Y-110246366D02*
X127586466Y-110246366D01*
X127286466Y-110946366D01*
X139192900Y-85851166D02*
X139192900Y-85151166D01*
X139459566Y-85151166D01*
X139526233Y-85184500D01*
X139559566Y-85217833D01*
X139592900Y-85284500D01*
X139592900Y-85384500D01*
X139559566Y-85451166D01*
X139526233Y-85484500D01*
X139459566Y-85517833D01*
X139192900Y-85517833D01*
X140259566Y-85851166D02*
X139859566Y-85851166D01*
X140059566Y-85851166D02*
X140059566Y-85151166D01*
X139992900Y-85251166D01*
X139926233Y-85317833D01*
X139859566Y-85351166D01*
X140526233Y-85217833D02*
X140559566Y-85184500D01*
X140626233Y-85151166D01*
X140792900Y-85151166D01*
X140859566Y-85184500D01*
X140892900Y-85217833D01*
X140926233Y-85284500D01*
X140926233Y-85351166D01*
X140892900Y-85451166D01*
X140492900Y-85851166D01*
X140926233Y-85851166D01*
X112770276Y-78837157D02*
X112275301Y-78342183D01*
X112393152Y-78224332D01*
X112487433Y-78177191D01*
X112581714Y-78177191D01*
X112652425Y-78200761D01*
X112770276Y-78271472D01*
X112840987Y-78342183D01*
X112911697Y-78460034D01*
X112935267Y-78530744D01*
X112935267Y-78625025D01*
X112888127Y-78719306D01*
X112770276Y-78837157D01*
X113524523Y-78082910D02*
X113241680Y-78365753D01*
X113383102Y-78224332D02*
X112888127Y-77729357D01*
X112911697Y-77847208D01*
X112911697Y-77941489D01*
X112888127Y-78012200D01*
X113335961Y-77281522D02*
X113383102Y-77234382D01*
X113453812Y-77210812D01*
X113500953Y-77210812D01*
X113571664Y-77234382D01*
X113689515Y-77305093D01*
X113807366Y-77422944D01*
X113878077Y-77540795D01*
X113901647Y-77611506D01*
X113901647Y-77658646D01*
X113878077Y-77729357D01*
X113830936Y-77776497D01*
X113760225Y-77800067D01*
X113713085Y-77800067D01*
X113642374Y-77776497D01*
X113524523Y-77705787D01*
X113406672Y-77587935D01*
X113335961Y-77470084D01*
X113312391Y-77399374D01*
X113312391Y-77352233D01*
X113335961Y-77281522D01*
X147060944Y-79944778D02*
X147555919Y-79449803D01*
X147673770Y-79567655D01*
X147720910Y-79661935D01*
X147720910Y-79756216D01*
X147697340Y-79826927D01*
X147626629Y-79944778D01*
X147555919Y-80015489D01*
X147438067Y-80086200D01*
X147367357Y-80109770D01*
X147273076Y-80109770D01*
X147178795Y-80062629D01*
X147060944Y-79944778D01*
X147579489Y-80463323D02*
X147673770Y-80557604D01*
X147744480Y-80581174D01*
X147791621Y-80581174D01*
X147909472Y-80557604D01*
X148027323Y-80486893D01*
X148215885Y-80298332D01*
X148239455Y-80227621D01*
X148239455Y-80180480D01*
X148215885Y-80109770D01*
X148121604Y-80015489D01*
X148050893Y-79991919D01*
X148003753Y-79991919D01*
X147933042Y-80015489D01*
X147815191Y-80133340D01*
X147791621Y-80204051D01*
X147791621Y-80251191D01*
X147815191Y-80321902D01*
X147909472Y-80416183D01*
X147980183Y-80439753D01*
X148027323Y-80439753D01*
X148098034Y-80416183D01*
X145781559Y-112410887D02*
X145331608Y-111874656D01*
X145459282Y-111767525D01*
X145557313Y-111728781D01*
X145651235Y-111736998D01*
X145719622Y-111766641D01*
X145830862Y-111847354D01*
X145895141Y-111923959D01*
X145955311Y-112047524D01*
X145972629Y-112120020D01*
X145964412Y-112213942D01*
X145909233Y-112303756D01*
X145781559Y-112410887D01*
X145816769Y-111467557D02*
X146174257Y-111167590D01*
X146394395Y-111896657D01*
X114866397Y-114222031D02*
X115361372Y-113727056D01*
X115479223Y-113844908D01*
X115526363Y-113939188D01*
X115526363Y-114033469D01*
X115502793Y-114104180D01*
X115432082Y-114222031D01*
X115361372Y-114292742D01*
X115243520Y-114363453D01*
X115172810Y-114387023D01*
X115078529Y-114387023D01*
X114984248Y-114339882D01*
X114866397Y-114222031D01*
X116068478Y-114434163D02*
X115974197Y-114339882D01*
X115903487Y-114316312D01*
X115856346Y-114316312D01*
X115738495Y-114339882D01*
X115620644Y-114410593D01*
X115432082Y-114599155D01*
X115408512Y-114669865D01*
X115408512Y-114717006D01*
X115432082Y-114787717D01*
X115526363Y-114881997D01*
X115597074Y-114905568D01*
X115644214Y-114905568D01*
X115714925Y-114881997D01*
X115832776Y-114764146D01*
X115856346Y-114693436D01*
X115856346Y-114646295D01*
X115832776Y-114575585D01*
X115738495Y-114481304D01*
X115667785Y-114457733D01*
X115620644Y-114457733D01*
X115549933Y-114481304D01*
X149990933Y-85616933D02*
X150024266Y-85516933D01*
X150024266Y-85350266D01*
X149990933Y-85283600D01*
X149957600Y-85250266D01*
X149890933Y-85216933D01*
X149824266Y-85216933D01*
X149757600Y-85250266D01*
X149724266Y-85283600D01*
X149690933Y-85350266D01*
X149657600Y-85483600D01*
X149624266Y-85550266D01*
X149590933Y-85583600D01*
X149524266Y-85616933D01*
X149457600Y-85616933D01*
X149390933Y-85583600D01*
X149357600Y-85550266D01*
X149324266Y-85483600D01*
X149324266Y-85316933D01*
X149357600Y-85216933D01*
X149324266Y-84983600D02*
X150024266Y-84816933D01*
X149524266Y-84683600D01*
X150024266Y-84550266D01*
X149324266Y-84383600D01*
X149390933Y-84150266D02*
X149357600Y-84116933D01*
X149324266Y-84050266D01*
X149324266Y-83883600D01*
X149357600Y-83816933D01*
X149390933Y-83783600D01*
X149457600Y-83750266D01*
X149524266Y-83750266D01*
X149624266Y-83783600D01*
X150024266Y-84183600D01*
X150024266Y-83750266D01*
X126919308Y-74977550D02*
X127158722Y-74319766D01*
X127206974Y-74869417D01*
X127597246Y-74479375D01*
X127357831Y-75137160D01*
X127671062Y-75251166D02*
X127910476Y-74593382D01*
X128046939Y-75387975D02*
X127901840Y-74909491D01*
X128286353Y-74730190D02*
X127773668Y-74969259D01*
X128505615Y-74809994D02*
X128912815Y-74958203D01*
X128602348Y-75128983D01*
X128696317Y-75163185D01*
X128747563Y-75217310D01*
X128767485Y-75260033D01*
X128776007Y-75334080D01*
X128719004Y-75490696D01*
X128664879Y-75541941D01*
X128622156Y-75561864D01*
X128548109Y-75570385D01*
X128360170Y-75501981D01*
X128308925Y-75447857D01*
X128289002Y-75405133D01*
X120390500Y-112073500D02*
X120357166Y-112106833D01*
X120257166Y-112140166D01*
X120190500Y-112140166D01*
X120090500Y-112106833D01*
X120023833Y-112040166D01*
X119990500Y-111973500D01*
X119957166Y-111840166D01*
X119957166Y-111740166D01*
X119990500Y-111606833D01*
X120023833Y-111540166D01*
X120090500Y-111473500D01*
X120190500Y-111440166D01*
X120257166Y-111440166D01*
X120357166Y-111473500D01*
X120390500Y-111506833D01*
X120623833Y-111440166D02*
X121057166Y-111440166D01*
X120823833Y-111706833D01*
X120923833Y-111706833D01*
X120990500Y-111740166D01*
X121023833Y-111773500D01*
X121057166Y-111840166D01*
X121057166Y-112006833D01*
X121023833Y-112073500D01*
X120990500Y-112106833D01*
X120923833Y-112140166D01*
X120723833Y-112140166D01*
X120657166Y-112106833D01*
X120623833Y-112073500D01*
X121290500Y-111440166D02*
X121723833Y-111440166D01*
X121490500Y-111706833D01*
X121590500Y-111706833D01*
X121657166Y-111740166D01*
X121690500Y-111773500D01*
X121723833Y-111840166D01*
X121723833Y-112006833D01*
X121690500Y-112073500D01*
X121657166Y-112106833D01*
X121590500Y-112140166D01*
X121390500Y-112140166D01*
X121323833Y-112106833D01*
X121290500Y-112073500D01*
X133779423Y-114714245D02*
X134041081Y-115216884D01*
X134101431Y-115260627D01*
X134146390Y-115274802D01*
X134220916Y-115273586D01*
X134339184Y-115212019D01*
X134382926Y-115151669D01*
X134397102Y-115106710D01*
X134395885Y-115032185D01*
X134134228Y-114529545D01*
X134370764Y-114406412D02*
X134755135Y-114206321D01*
X134671299Y-114550599D01*
X134760000Y-114504424D01*
X134834526Y-114503208D01*
X134879485Y-114517383D01*
X134939835Y-114561125D01*
X135016793Y-114708961D01*
X135018009Y-114783486D01*
X135003834Y-114828445D01*
X134960091Y-114888795D01*
X134782689Y-114981145D01*
X134708163Y-114982361D01*
X134663205Y-114968186D01*
X132659129Y-112528258D02*
X132612391Y-112522105D01*
X132525070Y-112463062D01*
X132484486Y-112410171D01*
X132450055Y-112310544D01*
X132462361Y-112217070D01*
X132494959Y-112150040D01*
X132580448Y-112042427D01*
X132659783Y-111981551D01*
X132785856Y-111926828D01*
X132859038Y-111912689D01*
X132952512Y-111924995D01*
X133039833Y-111984038D01*
X133080417Y-112036929D01*
X133114848Y-112136556D01*
X133108695Y-112183293D01*
X133012079Y-113097744D02*
X132768575Y-112780403D01*
X132890327Y-112939074D02*
X133445674Y-112512941D01*
X133325755Y-112520926D01*
X133232281Y-112508620D01*
X133165251Y-112476022D01*
X133417920Y-113626646D02*
X133174416Y-113309305D01*
X133296168Y-113467976D02*
X133851515Y-113041843D01*
X133731596Y-113049829D01*
X133638122Y-113037523D01*
X133571092Y-113004924D01*
X140374374Y-109939325D02*
X140354451Y-109982049D01*
X140271883Y-110047574D01*
X140209237Y-110070375D01*
X140103867Y-110073254D01*
X140018419Y-110033409D01*
X139964295Y-109982164D01*
X139887369Y-109868272D01*
X139853167Y-109774303D01*
X139838887Y-109637610D01*
X139847409Y-109563563D01*
X139887254Y-109478115D01*
X139969822Y-109412590D01*
X140032469Y-109389789D01*
X140137839Y-109386910D01*
X140180562Y-109406833D01*
X141023637Y-109773958D02*
X140647760Y-109910766D01*
X140835698Y-109842362D02*
X140596284Y-109184577D01*
X140567840Y-109301348D01*
X140527995Y-109386795D01*
X140476750Y-109440919D01*
X123740174Y-112838408D02*
X123601064Y-112456042D01*
X123353803Y-112734881D02*
X123534977Y-112058733D01*
X123792557Y-112127751D01*
X123848324Y-112177203D01*
X123871895Y-112218028D01*
X123886838Y-112291050D01*
X123860956Y-112387643D01*
X123811504Y-112443411D01*
X123770679Y-112466981D01*
X123697656Y-112481924D01*
X123440076Y-112412906D01*
X124384124Y-113010954D02*
X123997754Y-112907427D01*
X124190939Y-112959191D02*
X124372112Y-112283043D01*
X124281835Y-112362381D01*
X124200186Y-112409521D01*
X124127163Y-112424464D01*
X124983865Y-112446961D02*
X125048260Y-112464216D01*
X125104028Y-112513668D01*
X125127598Y-112554493D01*
X125142541Y-112627515D01*
X125140230Y-112764933D01*
X125097093Y-112925920D01*
X125030386Y-113046083D01*
X124980934Y-113101851D01*
X124940109Y-113125421D01*
X124867087Y-113140364D01*
X124802692Y-113123109D01*
X124746924Y-113073657D01*
X124723354Y-113032832D01*
X124708411Y-112959810D01*
X124710723Y-112822393D01*
X124753859Y-112661405D01*
X124820566Y-112541242D01*
X124870018Y-112485474D01*
X124910843Y-112461904D01*
X124983865Y-112446961D01*
X124506649Y-116163180D02*
X124367539Y-115780814D01*
X124120278Y-116059653D02*
X124301452Y-115383505D01*
X124559032Y-115452523D01*
X124614800Y-115501975D01*
X124638370Y-115542800D01*
X124653313Y-115615822D01*
X124627431Y-115712415D01*
X124577979Y-115768183D01*
X124537154Y-115791753D01*
X124464132Y-115806696D01*
X124206551Y-115737678D01*
X125267378Y-115642324D02*
X125138588Y-115607815D01*
X125065565Y-115622758D01*
X125024740Y-115646328D01*
X124934463Y-115725666D01*
X124867757Y-115845829D01*
X124798738Y-116103409D01*
X124813681Y-116176431D01*
X124837251Y-116217256D01*
X124893019Y-116266708D01*
X125021809Y-116301217D01*
X125094832Y-116286274D01*
X125135656Y-116262704D01*
X125185109Y-116206936D01*
X125228245Y-116045949D01*
X125213302Y-115972926D01*
X125189732Y-115932102D01*
X125133964Y-115882649D01*
X125005174Y-115848140D01*
X124932152Y-115863083D01*
X124891327Y-115886653D01*
X124841875Y-115942421D01*
X116208204Y-78209553D02*
X115807510Y-78138843D01*
X115925361Y-78492396D02*
X115430386Y-77997421D01*
X115618948Y-77808860D01*
X115689659Y-77785289D01*
X115736799Y-77785289D01*
X115807510Y-77808860D01*
X115878221Y-77879570D01*
X115901791Y-77950281D01*
X115901791Y-77997421D01*
X115878221Y-78068132D01*
X115689659Y-78256694D01*
X116443906Y-77973851D02*
X116538187Y-77879570D01*
X116561757Y-77808860D01*
X116561757Y-77761719D01*
X116538187Y-77643868D01*
X116467476Y-77526017D01*
X116278915Y-77337455D01*
X116208204Y-77313885D01*
X116161063Y-77313885D01*
X116090353Y-77337455D01*
X115996072Y-77431736D01*
X115972502Y-77502447D01*
X115972502Y-77549587D01*
X115996072Y-77620298D01*
X116113923Y-77738149D01*
X116184634Y-77761719D01*
X116231774Y-77761719D01*
X116302485Y-77738149D01*
X116396766Y-77643868D01*
X116420336Y-77573157D01*
X116420336Y-77526017D01*
X116396766Y-77455306D01*
X147421666Y-106183866D02*
X147421666Y-105483866D01*
X147421666Y-105817200D02*
X147821666Y-105817200D01*
X147821666Y-106183866D02*
X147821666Y-105483866D01*
X148088333Y-105483866D02*
X148521666Y-105483866D01*
X148288333Y-105750533D01*
X148388333Y-105750533D01*
X148455000Y-105783866D01*
X148488333Y-105817200D01*
X148521666Y-105883866D01*
X148521666Y-106050533D01*
X148488333Y-106117200D01*
X148455000Y-106150533D01*
X148388333Y-106183866D01*
X148188333Y-106183866D01*
X148121666Y-106150533D01*
X148088333Y-106117200D01*
X143154466Y-78193066D02*
X143154466Y-77493066D01*
X143154466Y-77826400D02*
X143554466Y-77826400D01*
X143554466Y-78193066D02*
X143554466Y-77493066D01*
X143854466Y-77559733D02*
X143887800Y-77526400D01*
X143954466Y-77493066D01*
X144121133Y-77493066D01*
X144187800Y-77526400D01*
X144221133Y-77559733D01*
X144254466Y-77626400D01*
X144254466Y-77693066D01*
X144221133Y-77793066D01*
X143821133Y-78193066D01*
X144254466Y-78193066D01*
X122758266Y-78904266D02*
X122758266Y-78204266D01*
X122758266Y-78537600D02*
X123158266Y-78537600D01*
X123158266Y-78904266D02*
X123158266Y-78204266D01*
X123858266Y-78904266D02*
X123458266Y-78904266D01*
X123658266Y-78904266D02*
X123658266Y-78204266D01*
X123591600Y-78304266D01*
X123524933Y-78370933D01*
X123458266Y-78404266D01*
X134323615Y-79960637D02*
X134280037Y-80458734D01*
X134238115Y-80555449D01*
X134165891Y-80616051D01*
X134063367Y-80640542D01*
X133996954Y-80634732D01*
X134594671Y-80687025D02*
X134655680Y-79989689D01*
X134921331Y-80012930D01*
X134984839Y-80051947D01*
X135015141Y-80088059D01*
X135042537Y-80157377D01*
X135033821Y-80256997D01*
X134994804Y-80320504D01*
X134958693Y-80350806D01*
X134889374Y-80378202D01*
X134623722Y-80354960D01*
X135685081Y-80079750D02*
X135353016Y-80050698D01*
X135290757Y-80379858D01*
X135326869Y-80349556D01*
X135396187Y-80322160D01*
X135562220Y-80336686D01*
X135625728Y-80375703D01*
X135656029Y-80411815D01*
X135683425Y-80481133D01*
X135668899Y-80647165D01*
X135629882Y-80710673D01*
X135593770Y-80740974D01*
X135524452Y-80768371D01*
X135358420Y-80753845D01*
X135294912Y-80714828D01*
X135264611Y-80678716D01*
X137094896Y-80237684D02*
X137051318Y-80735781D01*
X137009396Y-80832496D01*
X136937172Y-80893098D01*
X136834648Y-80917589D01*
X136768235Y-80911779D01*
X137365952Y-80964072D02*
X137426961Y-80266736D01*
X137692612Y-80289977D01*
X137756120Y-80328994D01*
X137786422Y-80365106D01*
X137813818Y-80434424D01*
X137805102Y-80534044D01*
X137766085Y-80597551D01*
X137729974Y-80627853D01*
X137660655Y-80655249D01*
X137395003Y-80632007D01*
X138402819Y-80586337D02*
X138362146Y-81051228D01*
X138260028Y-80306159D02*
X138050418Y-80789731D01*
X138482102Y-80827498D01*
X108289654Y-106327292D02*
X108551239Y-106015637D01*
X108186127Y-105940922D02*
X108862275Y-105759749D01*
X108931293Y-106017329D01*
X108916350Y-106090351D01*
X108892780Y-106131176D01*
X108837012Y-106180628D01*
X108740420Y-106206510D01*
X108667397Y-106191567D01*
X108626573Y-106167997D01*
X108577120Y-106112229D01*
X108508102Y-105854649D01*
X108462200Y-106971243D02*
X108358673Y-106584872D01*
X108410437Y-106778058D02*
X109086585Y-106596884D01*
X108972738Y-106558371D01*
X108891088Y-106511231D01*
X108841636Y-106455463D01*
X109293640Y-107369625D02*
X109259131Y-107240835D01*
X109209679Y-107185067D01*
X109168854Y-107161497D01*
X109055007Y-107122984D01*
X108917589Y-107125295D01*
X108660009Y-107194314D01*
X108604241Y-107243766D01*
X108580671Y-107284591D01*
X108565728Y-107357613D01*
X108600237Y-107486403D01*
X108649689Y-107542171D01*
X108690514Y-107565741D01*
X108763537Y-107580684D01*
X108924524Y-107537548D01*
X108980292Y-107488096D01*
X109003862Y-107447271D01*
X109018805Y-107374248D01*
X108984296Y-107245458D01*
X108934844Y-107189690D01*
X108894019Y-107166120D01*
X108820997Y-107151177D01*
X114235666Y-102939000D02*
X113902333Y-103172333D01*
X114235666Y-103339000D02*
X113535666Y-103339000D01*
X113535666Y-103072333D01*
X113569000Y-103005666D01*
X113602333Y-102972333D01*
X113669000Y-102939000D01*
X113769000Y-102939000D01*
X113835666Y-102972333D01*
X113869000Y-103005666D01*
X113902333Y-103072333D01*
X113902333Y-103339000D01*
X114235666Y-102272333D02*
X114235666Y-102672333D01*
X114235666Y-102472333D02*
X113535666Y-102472333D01*
X113635666Y-102539000D01*
X113702333Y-102605666D01*
X113735666Y-102672333D01*
X113535666Y-101639000D02*
X113535666Y-101972333D01*
X113869000Y-102005666D01*
X113835666Y-101972333D01*
X113802333Y-101905666D01*
X113802333Y-101739000D01*
X113835666Y-101672333D01*
X113869000Y-101639000D01*
X113935666Y-101605666D01*
X114102333Y-101605666D01*
X114169000Y-101639000D01*
X114202333Y-101672333D01*
X114235666Y-101739000D01*
X114235666Y-101905666D01*
X114202333Y-101972333D01*
X114169000Y-102005666D01*
X134355288Y-73466506D02*
X134343087Y-73512040D01*
X134273151Y-73590908D01*
X134215416Y-73624241D01*
X134112147Y-73645373D01*
X134021079Y-73620972D01*
X133958878Y-73579903D01*
X133863344Y-73481100D01*
X133813344Y-73394497D01*
X133775545Y-73262361D01*
X133771079Y-73187959D01*
X133795480Y-73096891D01*
X133865416Y-73018023D01*
X133923151Y-72984690D01*
X134026421Y-72963557D01*
X134071955Y-72975758D01*
X134965972Y-73190908D02*
X134619562Y-73390908D01*
X134792767Y-73290908D02*
X134442767Y-72684690D01*
X134435032Y-72804626D01*
X134410630Y-72895694D01*
X134369562Y-72957895D01*
X134880245Y-72509091D02*
X134892446Y-72463557D01*
X134933514Y-72401356D01*
X135077852Y-72318023D01*
X135152254Y-72313557D01*
X135197788Y-72325758D01*
X135259989Y-72366826D01*
X135293322Y-72424562D01*
X135314454Y-72527831D01*
X135168044Y-73074241D01*
X135543322Y-72857574D01*
X133514938Y-74243428D02*
X133428665Y-74565403D01*
X133384455Y-73828864D02*
X133514938Y-74243428D01*
X133835221Y-73949646D01*
X134233603Y-74781086D02*
X133847233Y-74677558D01*
X134040418Y-74729322D02*
X134221591Y-74053174D01*
X134131314Y-74132512D01*
X134049665Y-74179652D01*
X133976642Y-74194595D01*
X130900889Y-74203106D02*
X130888688Y-74248640D01*
X130818752Y-74327508D01*
X130761017Y-74360841D01*
X130657748Y-74381973D01*
X130566680Y-74357572D01*
X130504479Y-74316503D01*
X130408945Y-74217700D01*
X130358945Y-74131097D01*
X130321146Y-73998961D01*
X130316680Y-73924559D01*
X130341081Y-73833491D01*
X130411017Y-73754623D01*
X130468752Y-73721290D01*
X130572022Y-73700157D01*
X130617556Y-73712358D01*
X131511573Y-73927508D02*
X131165163Y-74127508D01*
X131338368Y-74027508D02*
X130988368Y-73421290D01*
X130980633Y-73541226D01*
X130956231Y-73632294D01*
X130915163Y-73694495D01*
X131363645Y-73204623D02*
X131738923Y-72987956D01*
X131670184Y-73335563D01*
X131756786Y-73285563D01*
X131831188Y-73281097D01*
X131876722Y-73293298D01*
X131938923Y-73334367D01*
X132022256Y-73478704D01*
X132026722Y-73553106D01*
X132014521Y-73598640D01*
X131973453Y-73660841D01*
X131800248Y-73760841D01*
X131725846Y-73765307D01*
X131680312Y-73753106D01*
X130187507Y-108587352D02*
X129790831Y-108891732D01*
X129691203Y-108926163D01*
X129597729Y-108913857D01*
X129510408Y-108854814D01*
X129469824Y-108801924D01*
X129835081Y-109277936D02*
X130390428Y-108851803D01*
X130552764Y-109063364D01*
X130566903Y-109136546D01*
X130560750Y-109183283D01*
X130528152Y-109250312D01*
X130448817Y-109311188D01*
X130375634Y-109325327D01*
X130328897Y-109319174D01*
X130261868Y-109286576D01*
X130099532Y-109075015D01*
X130743379Y-109421289D02*
X130790116Y-109427442D01*
X130857145Y-109460040D01*
X130958605Y-109592266D01*
X130972744Y-109665448D01*
X130966591Y-109712185D01*
X130933993Y-109779214D01*
X130881103Y-109819798D01*
X130781475Y-109854229D01*
X130220629Y-109780393D01*
X130484426Y-110124179D01*
X146403987Y-81015020D02*
X146474697Y-80614326D01*
X146121144Y-80732177D02*
X146616119Y-80237202D01*
X146804680Y-80425764D01*
X146828251Y-80496475D01*
X146828251Y-80543615D01*
X146804680Y-80614326D01*
X146733970Y-80685037D01*
X146663259Y-80708607D01*
X146616119Y-80708607D01*
X146545408Y-80685037D01*
X146356846Y-80496475D01*
X146969672Y-81015020D02*
X146946102Y-80944309D01*
X146946102Y-80897169D01*
X146969672Y-80826458D01*
X146993242Y-80802888D01*
X147063953Y-80779318D01*
X147111093Y-80779318D01*
X147181804Y-80802888D01*
X147276085Y-80897169D01*
X147299655Y-80967879D01*
X147299655Y-81015020D01*
X147276085Y-81085731D01*
X147252515Y-81109301D01*
X147181804Y-81132871D01*
X147134664Y-81132871D01*
X147063953Y-81109301D01*
X146969672Y-81015020D01*
X146898961Y-80991450D01*
X146851821Y-80991450D01*
X146781110Y-81015020D01*
X146686829Y-81109301D01*
X146663259Y-81180011D01*
X146663259Y-81227152D01*
X146686829Y-81297863D01*
X146781110Y-81392143D01*
X146851821Y-81415714D01*
X146898961Y-81415714D01*
X146969672Y-81392143D01*
X147063953Y-81297863D01*
X147087523Y-81227152D01*
X147087523Y-81180011D01*
X147063953Y-81109301D01*
X145521467Y-110860536D02*
X145128461Y-110755172D01*
X145215049Y-111117651D02*
X144765098Y-110581420D01*
X144969376Y-110410010D01*
X145041872Y-110392692D01*
X145088833Y-110396801D01*
X145157221Y-110426444D01*
X145221500Y-110503049D01*
X145238817Y-110575545D01*
X145234709Y-110622506D01*
X145205065Y-110690893D01*
X145000787Y-110862303D01*
X145250259Y-110174321D02*
X145607747Y-109874354D01*
X145827885Y-110603421D01*
X115923383Y-113831217D02*
X115994093Y-113430523D01*
X115640540Y-113548374D02*
X116135515Y-113053399D01*
X116324076Y-113241961D01*
X116347647Y-113312672D01*
X116347647Y-113359812D01*
X116324076Y-113430523D01*
X116253366Y-113501234D01*
X116182655Y-113524804D01*
X116135515Y-113524804D01*
X116064804Y-113501234D01*
X115876242Y-113312672D01*
X116866192Y-113784076D02*
X116630489Y-113548374D01*
X116371217Y-113760506D01*
X116418357Y-113760506D01*
X116489068Y-113784076D01*
X116606919Y-113901928D01*
X116630489Y-113972638D01*
X116630489Y-114019779D01*
X116606919Y-114090489D01*
X116489068Y-114208340D01*
X116418357Y-114231911D01*
X116371217Y-114231911D01*
X116300506Y-114208340D01*
X116182655Y-114090489D01*
X116159085Y-114019779D01*
X116159085Y-113972638D01*
X114852927Y-109506768D02*
X115114512Y-109195112D01*
X114749400Y-109120397D02*
X115425548Y-108939224D01*
X115494566Y-109196804D01*
X115479623Y-109269826D01*
X115456053Y-109310651D01*
X115400285Y-109360103D01*
X115303693Y-109385985D01*
X115230670Y-109371042D01*
X115189846Y-109347472D01*
X115140394Y-109291704D01*
X115071375Y-109034124D01*
X115458984Y-109965541D02*
X115008219Y-110086323D01*
X115673428Y-109735535D02*
X115147329Y-109703957D01*
X115259483Y-110122524D01*
X111471124Y-104229527D02*
X111398102Y-104214584D01*
X111316452Y-104167443D01*
X111193978Y-104096733D01*
X111120956Y-104081790D01*
X111056560Y-104099044D01*
X111131895Y-104251405D02*
X111058872Y-104236462D01*
X110977223Y-104189321D01*
X110910516Y-104069158D01*
X110850125Y-103843776D01*
X110847813Y-103706358D01*
X110894953Y-103624709D01*
X110950721Y-103575257D01*
X111079511Y-103540747D01*
X111152534Y-103555690D01*
X111234183Y-103602831D01*
X111300890Y-103722994D01*
X111361281Y-103948376D01*
X111363593Y-104085794D01*
X111316452Y-104167443D01*
X111260685Y-104216895D01*
X111131895Y-104251405D01*
X111515334Y-103492987D02*
X111538904Y-103452163D01*
X111594672Y-103402711D01*
X111755659Y-103359574D01*
X111828682Y-103374517D01*
X111869507Y-103398087D01*
X111918959Y-103453855D01*
X111936213Y-103518250D01*
X111929898Y-103623470D01*
X111647055Y-104113368D01*
X112065623Y-104001213D01*
X112261473Y-112112318D02*
X112276416Y-112039296D01*
X112323557Y-111957646D01*
X112394267Y-111835172D01*
X112409210Y-111762150D01*
X112391956Y-111697754D01*
X112239595Y-111773089D02*
X112254538Y-111700066D01*
X112301679Y-111618417D01*
X112421842Y-111551710D01*
X112647224Y-111491319D01*
X112784642Y-111489007D01*
X112866291Y-111536147D01*
X112915743Y-111591915D01*
X112950253Y-111720705D01*
X112935310Y-111793728D01*
X112888169Y-111875377D01*
X112768006Y-111942084D01*
X112542624Y-112002475D01*
X112405206Y-112004787D01*
X112323557Y-111957646D01*
X112274105Y-111901879D01*
X112239595Y-111773089D01*
X112489787Y-112706817D02*
X112386259Y-112320447D01*
X112438023Y-112513632D02*
X113114171Y-112332458D01*
X113000324Y-112293945D01*
X112918675Y-112246805D01*
X112869222Y-112191037D01*
X117153500Y-112719866D02*
X117186833Y-112753200D01*
X117220166Y-112853200D01*
X117220166Y-112919866D01*
X117186833Y-113019866D01*
X117120166Y-113086533D01*
X117053500Y-113119866D01*
X116920166Y-113153200D01*
X116820166Y-113153200D01*
X116686833Y-113119866D01*
X116620166Y-113086533D01*
X116553500Y-113019866D01*
X116520166Y-112919866D01*
X116520166Y-112853200D01*
X116553500Y-112753200D01*
X116586833Y-112719866D01*
X117220166Y-112386533D02*
X117220166Y-112253200D01*
X117186833Y-112186533D01*
X117153500Y-112153200D01*
X117053500Y-112086533D01*
X116920166Y-112053200D01*
X116653500Y-112053200D01*
X116586833Y-112086533D01*
X116553500Y-112119866D01*
X116520166Y-112186533D01*
X116520166Y-112319866D01*
X116553500Y-112386533D01*
X116586833Y-112419866D01*
X116653500Y-112453200D01*
X116820166Y-112453200D01*
X116886833Y-112419866D01*
X116920166Y-112386533D01*
X116953500Y-112319866D01*
X116953500Y-112186533D01*
X116920166Y-112119866D01*
X116886833Y-112086533D01*
X116820166Y-112053200D01*
X116850333Y-109724000D02*
X116817000Y-109757333D01*
X116717000Y-109790666D01*
X116650333Y-109790666D01*
X116550333Y-109757333D01*
X116483666Y-109690666D01*
X116450333Y-109624000D01*
X116417000Y-109490666D01*
X116417000Y-109390666D01*
X116450333Y-109257333D01*
X116483666Y-109190666D01*
X116550333Y-109124000D01*
X116650333Y-109090666D01*
X116717000Y-109090666D01*
X116817000Y-109124000D01*
X116850333Y-109157333D01*
X117250333Y-109390666D02*
X117183666Y-109357333D01*
X117150333Y-109324000D01*
X117117000Y-109257333D01*
X117117000Y-109224000D01*
X117150333Y-109157333D01*
X117183666Y-109124000D01*
X117250333Y-109090666D01*
X117383666Y-109090666D01*
X117450333Y-109124000D01*
X117483666Y-109157333D01*
X117517000Y-109224000D01*
X117517000Y-109257333D01*
X117483666Y-109324000D01*
X117450333Y-109357333D01*
X117383666Y-109390666D01*
X117250333Y-109390666D01*
X117183666Y-109424000D01*
X117150333Y-109457333D01*
X117117000Y-109524000D01*
X117117000Y-109657333D01*
X117150333Y-109724000D01*
X117183666Y-109757333D01*
X117250333Y-109790666D01*
X117383666Y-109790666D01*
X117450333Y-109757333D01*
X117483666Y-109724000D01*
X117517000Y-109657333D01*
X117517000Y-109524000D01*
X117483666Y-109457333D01*
X117450333Y-109424000D01*
X117383666Y-109390666D01*
X150727533Y-106419533D02*
X150760866Y-106319533D01*
X150760866Y-106152866D01*
X150727533Y-106086200D01*
X150694200Y-106052866D01*
X150627533Y-106019533D01*
X150560866Y-106019533D01*
X150494200Y-106052866D01*
X150460866Y-106086200D01*
X150427533Y-106152866D01*
X150394200Y-106286200D01*
X150360866Y-106352866D01*
X150327533Y-106386200D01*
X150260866Y-106419533D01*
X150194200Y-106419533D01*
X150127533Y-106386200D01*
X150094200Y-106352866D01*
X150060866Y-106286200D01*
X150060866Y-106119533D01*
X150094200Y-106019533D01*
X150060866Y-105786200D02*
X150760866Y-105619533D01*
X150260866Y-105486200D01*
X150760866Y-105352866D01*
X150060866Y-105186200D01*
X150760866Y-104552866D02*
X150760866Y-104952866D01*
X150760866Y-104752866D02*
X150060866Y-104752866D01*
X150160866Y-104819533D01*
X150227533Y-104886200D01*
X150260866Y-104952866D01*
X153656466Y-95938066D02*
X152956466Y-95938066D01*
X153456466Y-95704733D01*
X152956466Y-95471400D01*
X153656466Y-95471400D01*
X153656466Y-95138066D02*
X152956466Y-95138066D01*
X153656466Y-94738066D02*
X153256466Y-95038066D01*
X152956466Y-94738066D02*
X153356466Y-95138066D01*
X153656466Y-94071400D02*
X153656466Y-94471400D01*
X153656466Y-94271400D02*
X152956466Y-94271400D01*
X153056466Y-94338066D01*
X153123133Y-94404733D01*
X153156466Y-94471400D01*
%LPC*%
D16*
X151189000Y-96540000D02*
G75*
G03*
X151189000Y-96540000I-440000J0D01*
G01*
G36*
G01*
X124738700Y-109390600D02*
X124738700Y-109760600D01*
G75*
G02*
X124603700Y-109895600I-135000J0D01*
G01*
X124333700Y-109895600D01*
G75*
G02*
X124198700Y-109760600I0J135000D01*
G01*
X124198700Y-109390600D01*
G75*
G02*
X124333700Y-109255600I135000J0D01*
G01*
X124603700Y-109255600D01*
G75*
G02*
X124738700Y-109390600I0J-135000D01*
G01*
G37*
G36*
G01*
X125758700Y-109390600D02*
X125758700Y-109760600D01*
G75*
G02*
X125623700Y-109895600I-135000J0D01*
G01*
X125353700Y-109895600D01*
G75*
G02*
X125218700Y-109760600I0J135000D01*
G01*
X125218700Y-109390600D01*
G75*
G02*
X125353700Y-109255600I135000J0D01*
G01*
X125623700Y-109255600D01*
G75*
G02*
X125758700Y-109390600I0J-135000D01*
G01*
G37*
G36*
G01*
X126683800Y-109390600D02*
X126683800Y-109760600D01*
G75*
G02*
X126548800Y-109895600I-135000J0D01*
G01*
X126278800Y-109895600D01*
G75*
G02*
X126143800Y-109760600I0J135000D01*
G01*
X126143800Y-109390600D01*
G75*
G02*
X126278800Y-109255600I135000J0D01*
G01*
X126548800Y-109255600D01*
G75*
G02*
X126683800Y-109390600I0J-135000D01*
G01*
G37*
G36*
G01*
X127703800Y-109390600D02*
X127703800Y-109760600D01*
G75*
G02*
X127568800Y-109895600I-135000J0D01*
G01*
X127298800Y-109895600D01*
G75*
G02*
X127163800Y-109760600I0J135000D01*
G01*
X127163800Y-109390600D01*
G75*
G02*
X127298800Y-109255600I135000J0D01*
G01*
X127568800Y-109255600D01*
G75*
G02*
X127703800Y-109390600I0J-135000D01*
G01*
G37*
D17*
X140233400Y-84074000D03*
G36*
G01*
X114226033Y-77127519D02*
X113982081Y-76883567D01*
G75*
G02*
X113982081Y-76674971I104298J104298D01*
G01*
X114190677Y-76466375D01*
G75*
G02*
X114399273Y-76466375I104298J-104298D01*
G01*
X114643225Y-76710327D01*
G75*
G02*
X114643225Y-76918923I-104298J-104298D01*
G01*
X114434629Y-77127519D01*
G75*
G02*
X114226033Y-77127519I-104298J104298D01*
G01*
G37*
G36*
G01*
X114911927Y-76441625D02*
X114667975Y-76197673D01*
G75*
G02*
X114667975Y-75989077I104298J104298D01*
G01*
X114876571Y-75780481D01*
G75*
G02*
X115085167Y-75780481I104298J-104298D01*
G01*
X115329119Y-76024433D01*
G75*
G02*
X115329119Y-76233029I-104298J-104298D01*
G01*
X115120523Y-76441625D01*
G75*
G02*
X114911927Y-76441625I-104298J104298D01*
G01*
G37*
G36*
G01*
X147193372Y-79131420D02*
X146949420Y-79375372D01*
G75*
G02*
X146740824Y-79375372I-104298J104298D01*
G01*
X146532228Y-79166776D01*
G75*
G02*
X146532228Y-78958180I104298J104298D01*
G01*
X146776180Y-78714228D01*
G75*
G02*
X146984776Y-78714228I104298J-104298D01*
G01*
X147193372Y-78922824D01*
G75*
G02*
X147193372Y-79131420I-104298J-104298D01*
G01*
G37*
G36*
G01*
X146507478Y-78445526D02*
X146263526Y-78689478D01*
G75*
G02*
X146054930Y-78689478I-104298J104298D01*
G01*
X145846334Y-78480882D01*
G75*
G02*
X145846334Y-78272286I104298J104298D01*
G01*
X146090286Y-78028334D01*
G75*
G02*
X146298882Y-78028334I104298J-104298D01*
G01*
X146507478Y-78236930D01*
G75*
G02*
X146507478Y-78445526I-104298J-104298D01*
G01*
G37*
G36*
G01*
X144996703Y-112378035D02*
X145218464Y-112642320D01*
G75*
G02*
X145200283Y-112850123I-112992J-94811D01*
G01*
X144974300Y-113039746D01*
G75*
G02*
X144766497Y-113021565I-94811J112992D01*
G01*
X144544736Y-112757280D01*
G75*
G02*
X144562917Y-112549477I112992J94811D01*
G01*
X144788900Y-112359854D01*
G75*
G02*
X144996703Y-112378035I94811J-112992D01*
G01*
G37*
G36*
G01*
X144253639Y-113001539D02*
X144475400Y-113265824D01*
G75*
G02*
X144457219Y-113473627I-112992J-94811D01*
G01*
X144231236Y-113663250D01*
G75*
G02*
X144023433Y-113645069I-94811J112992D01*
G01*
X143801672Y-113380784D01*
G75*
G02*
X143819853Y-113172981I112992J94811D01*
G01*
X144045836Y-112983358D01*
G75*
G02*
X144253639Y-113001539I94811J-112992D01*
G01*
G37*
G36*
G01*
X113639134Y-112740086D02*
X113883086Y-112496134D01*
G75*
G02*
X114091682Y-112496134I104298J-104298D01*
G01*
X114300278Y-112704730D01*
G75*
G02*
X114300278Y-112913326I-104298J-104298D01*
G01*
X114056326Y-113157278D01*
G75*
G02*
X113847730Y-113157278I-104298J104298D01*
G01*
X113639134Y-112948682D01*
G75*
G02*
X113639134Y-112740086I104298J104298D01*
G01*
G37*
G36*
G01*
X114325028Y-113425980D02*
X114568980Y-113182028D01*
G75*
G02*
X114777576Y-113182028I104298J-104298D01*
G01*
X114986172Y-113390624D01*
G75*
G02*
X114986172Y-113599220I-104298J-104298D01*
G01*
X114742220Y-113843172D01*
G75*
G02*
X114533624Y-113843172I-104298J104298D01*
G01*
X114325028Y-113634576D01*
G75*
G02*
X114325028Y-113425980I104298J104298D01*
G01*
G37*
D18*
X150723600Y-86766400D03*
X150723600Y-91592400D03*
D19*
X150119080Y-88315800D03*
X150119080Y-90030300D03*
D20*
X148722080Y-87442040D03*
X148722080Y-90896440D03*
D13*
G36*
X128674197Y-76493182D02*
G01*
X128713645Y-76512593D01*
X128751011Y-76535760D01*
X128785936Y-76562463D01*
X128818090Y-76592448D01*
X128847165Y-76625427D01*
X128872882Y-76661085D01*
X128894997Y-76699082D01*
X128913297Y-76739056D01*
X128927611Y-76780627D01*
X128937800Y-76823395D01*
X128943767Y-76866954D01*
X128945454Y-76910885D01*
X128942846Y-76954773D01*
X128935968Y-76998196D01*
X128924886Y-77040742D01*
X128909705Y-77082002D01*
X128890570Y-77121584D01*
X128867663Y-77159110D01*
X128841204Y-77194222D01*
X128811445Y-77226584D01*
X128778670Y-77255887D01*
X128743192Y-77281854D01*
X128705350Y-77304233D01*
X128665504Y-77322813D01*
X128624035Y-77337416D01*
X128581340Y-77347903D01*
X128519411Y-77359940D01*
X128343985Y-77406291D01*
X128180564Y-77467066D01*
X128023853Y-77543499D01*
X127875337Y-77634866D01*
X127718928Y-77753588D01*
X127713897Y-77757351D01*
X127677278Y-77781681D01*
X127638459Y-77802321D01*
X127597812Y-77819075D01*
X127555724Y-77831782D01*
X127512596Y-77840322D01*
X127468841Y-77844611D01*
X127424877Y-77844612D01*
X127381121Y-77840322D01*
X127337994Y-77831782D01*
X127295905Y-77819075D01*
X127255258Y-77802321D01*
X127216439Y-77781682D01*
X127179821Y-77757351D01*
X127145751Y-77729565D01*
X127114554Y-77698586D01*
X127086529Y-77664709D01*
X127061944Y-77628261D01*
X127041033Y-77589588D01*
X127023997Y-77549058D01*
X127010996Y-77507059D01*
X127002156Y-77463992D01*
X126997560Y-77420269D01*
X126997253Y-77376304D01*
X127001238Y-77332521D01*
X127009477Y-77289335D01*
X127021889Y-77247159D01*
X127038359Y-77206396D01*
X127058727Y-77167433D01*
X127082801Y-77130645D01*
X127110350Y-77096381D01*
X127141110Y-77064971D01*
X127174789Y-77036710D01*
X127348733Y-76904679D01*
X127353765Y-76900916D01*
X127369460Y-76890487D01*
X127385009Y-76879840D01*
X127571008Y-76765414D01*
X127576383Y-76762159D01*
X127593029Y-76753308D01*
X127609535Y-76744234D01*
X127805813Y-76648503D01*
X127811480Y-76645788D01*
X127828940Y-76638591D01*
X127846221Y-76631184D01*
X128050903Y-76555064D01*
X128056807Y-76552915D01*
X128074871Y-76547461D01*
X128092809Y-76541770D01*
X128303942Y-76485987D01*
X128310027Y-76484424D01*
X128321584Y-76482135D01*
X128333032Y-76479323D01*
X128409617Y-76464437D01*
X128415793Y-76463282D01*
X128459392Y-76457619D01*
X128503335Y-76456239D01*
X128547202Y-76459152D01*
X128590577Y-76466333D01*
X128633044Y-76477713D01*
X128674197Y-76493182D01*
G37*
D21*
X128883616Y-79107412D03*
D13*
G36*
X130038125Y-76683571D02*
G01*
X130231299Y-76785419D01*
X130236836Y-76788389D01*
X130252916Y-76798204D01*
X130269143Y-76807801D01*
X130451454Y-76928013D01*
X130456675Y-76931509D01*
X130471734Y-76942857D01*
X130486930Y-76953979D01*
X130656639Y-77091406D01*
X130656644Y-77091410D01*
X130656650Y-77091415D01*
X130661498Y-77095397D01*
X130675360Y-77108143D01*
X130689418Y-77120713D01*
X130844909Y-77274048D01*
X130849352Y-77278492D01*
X130861908Y-77292535D01*
X130874667Y-77306410D01*
X131014453Y-77474185D01*
X131018440Y-77479041D01*
X131029581Y-77494263D01*
X131040911Y-77509297D01*
X131163658Y-77689914D01*
X131167153Y-77695135D01*
X131176753Y-77711368D01*
X131186564Y-77727440D01*
X131291100Y-77919172D01*
X131294069Y-77924710D01*
X131302044Y-77941812D01*
X131310236Y-77958756D01*
X131395562Y-78159775D01*
X131397977Y-78165575D01*
X131404236Y-78183348D01*
X131410743Y-78201034D01*
X131476046Y-78409418D01*
X131477883Y-78415427D01*
X131482392Y-78433779D01*
X131487128Y-78451962D01*
X131531786Y-78665726D01*
X131533028Y-78671885D01*
X131535720Y-78690560D01*
X131538664Y-78709151D01*
X131562248Y-78926252D01*
X131562883Y-78932503D01*
X131563740Y-78951356D01*
X131564856Y-78970139D01*
X131567143Y-79188504D01*
X131567164Y-79194787D01*
X131566177Y-79213633D01*
X131565455Y-79232435D01*
X131546422Y-79449982D01*
X131545831Y-79456237D01*
X131543005Y-79474925D01*
X131540455Y-79493541D01*
X131500284Y-79708193D01*
X131499086Y-79714360D01*
X131494457Y-79732655D01*
X131490096Y-79750963D01*
X131429170Y-79960669D01*
X131427374Y-79966690D01*
X131420987Y-79984432D01*
X131414857Y-80002237D01*
X131333758Y-80204998D01*
X131331384Y-80210816D01*
X131323290Y-80227862D01*
X131315456Y-80244973D01*
X131214959Y-80438852D01*
X131212028Y-80444410D01*
X131202303Y-80460596D01*
X131192843Y-80476850D01*
X131073905Y-80659997D01*
X131070447Y-80665243D01*
X131059214Y-80680368D01*
X131048189Y-80695655D01*
X130911947Y-80866322D01*
X130907992Y-80871205D01*
X130895293Y-80885211D01*
X130882872Y-80899300D01*
X130730627Y-81055858D01*
X130726216Y-81060332D01*
X130712256Y-81072989D01*
X130698474Y-81085842D01*
X130531678Y-81226796D01*
X130526850Y-81230817D01*
X130511712Y-81242061D01*
X130496751Y-81253499D01*
X130316997Y-81377503D01*
X130311799Y-81381035D01*
X130295655Y-81390736D01*
X130279630Y-81400671D01*
X130088632Y-81506543D01*
X130083116Y-81509551D01*
X130066068Y-81517645D01*
X130049185Y-81525954D01*
X129848766Y-81612681D01*
X129842983Y-81615136D01*
X129825244Y-81621523D01*
X129807615Y-81628149D01*
X129599689Y-81694908D01*
X129593694Y-81696786D01*
X129575385Y-81701419D01*
X129557222Y-81706286D01*
X129343776Y-81752434D01*
X129337626Y-81753719D01*
X129318980Y-81756540D01*
X129300404Y-81759615D01*
X129083473Y-81784715D01*
X129077227Y-81785394D01*
X129058382Y-81786381D01*
X129039602Y-81787629D01*
X128821257Y-81791440D01*
X128814975Y-81791505D01*
X128796156Y-81790651D01*
X128777316Y-81790059D01*
X128559642Y-81772546D01*
X128553383Y-81771998D01*
X128534697Y-81769305D01*
X128516043Y-81766882D01*
X128301116Y-81728212D01*
X128294941Y-81727056D01*
X128276639Y-81722560D01*
X128258276Y-81718321D01*
X128048149Y-81658861D01*
X128042116Y-81657108D01*
X128024319Y-81650841D01*
X128006483Y-81644838D01*
X127803160Y-81565158D01*
X127797327Y-81562824D01*
X127780243Y-81554857D01*
X127763058Y-81547135D01*
X127568482Y-81447993D01*
X127562904Y-81445101D01*
X127546691Y-81435512D01*
X127530332Y-81426144D01*
X127346360Y-81308490D01*
X127341090Y-81305067D01*
X127325892Y-81293944D01*
X127310520Y-81283020D01*
X127138908Y-81147972D01*
X127133997Y-81144053D01*
X127119922Y-81131468D01*
X127105728Y-81119130D01*
X126948112Y-80967982D01*
X126943607Y-80963601D01*
X126930857Y-80949735D01*
X126917903Y-80936037D01*
X126775789Y-80770229D01*
X126771733Y-80765429D01*
X126760361Y-80750339D01*
X126748844Y-80735491D01*
X126623586Y-80556606D01*
X126620019Y-80551434D01*
X126610205Y-80535358D01*
X126600158Y-80519403D01*
X126492955Y-80329149D01*
X126489909Y-80323652D01*
X126481697Y-80306665D01*
X126473271Y-80289838D01*
X126385145Y-80090032D01*
X126382650Y-80084266D01*
X126376150Y-80066598D01*
X126369388Y-80048986D01*
X126301181Y-79841533D01*
X126299261Y-79835551D01*
X126294508Y-79817305D01*
X126289506Y-79799146D01*
X126241869Y-79586027D01*
X126240542Y-79579886D01*
X126237593Y-79561271D01*
X126234386Y-79542705D01*
X126207772Y-79325954D01*
X126207050Y-79319713D01*
X126205932Y-79300892D01*
X126204552Y-79282108D01*
X126199217Y-79063795D01*
X126199107Y-79057513D01*
X126199832Y-79038642D01*
X126200291Y-79019843D01*
X126216285Y-78802052D01*
X126216789Y-78795789D01*
X126219349Y-78777100D01*
X126221643Y-78758413D01*
X126258814Y-78543222D01*
X126259927Y-78537039D01*
X126262837Y-78524821D01*
X126265236Y-78512477D01*
X126287568Y-78421559D01*
X126289109Y-78415468D01*
X126302256Y-78373514D01*
X126319435Y-78333045D01*
X126340480Y-78294445D01*
X126365192Y-78258083D01*
X126393334Y-78224305D01*
X126424638Y-78193435D01*
X126458805Y-78165768D01*
X126495509Y-78141565D01*
X126534400Y-78121061D01*
X126575107Y-78104449D01*
X126617238Y-78091889D01*
X126660395Y-78083499D01*
X126704165Y-78079363D01*
X126748129Y-78079516D01*
X126791869Y-78083959D01*
X126834967Y-78092649D01*
X126877010Y-78105503D01*
X126917599Y-78122398D01*
X126956345Y-78143174D01*
X126992880Y-78167631D01*
X127026852Y-78195537D01*
X127057941Y-78226624D01*
X127085846Y-78260597D01*
X127110303Y-78297133D01*
X127131079Y-78335878D01*
X127147975Y-78376467D01*
X127160828Y-78418511D01*
X127169520Y-78461608D01*
X127173961Y-78505348D01*
X127174115Y-78549313D01*
X127169977Y-78593082D01*
X127161589Y-78636239D01*
X127143004Y-78711901D01*
X127112256Y-78889914D01*
X127099486Y-79063806D01*
X127103746Y-79238112D01*
X127124996Y-79411181D01*
X127163030Y-79581335D01*
X127217489Y-79746978D01*
X127287852Y-79906509D01*
X127373447Y-80058415D01*
X127473457Y-80201245D01*
X127586925Y-80333631D01*
X127712772Y-80454313D01*
X127849793Y-80562139D01*
X127996683Y-80656078D01*
X128152041Y-80735237D01*
X128314380Y-80798856D01*
X128482154Y-80846333D01*
X128653759Y-80877209D01*
X128827558Y-80891192D01*
X129001891Y-80888150D01*
X129175097Y-80868109D01*
X129345513Y-80831265D01*
X129511540Y-80777959D01*
X129671554Y-80708715D01*
X129824052Y-80624184D01*
X129967573Y-80525176D01*
X130100754Y-80412628D01*
X130222305Y-80287634D01*
X130331093Y-80151358D01*
X130426052Y-80005135D01*
X130506294Y-79850333D01*
X130571045Y-79688443D01*
X130619693Y-79520997D01*
X130651765Y-79349621D01*
X130666961Y-79175923D01*
X130665135Y-79001575D01*
X130646304Y-78828227D01*
X130610650Y-78657557D01*
X130558506Y-78491167D01*
X130490381Y-78330672D01*
X130406918Y-78177591D01*
X130308910Y-78033377D01*
X130197298Y-77899416D01*
X130073153Y-77776991D01*
X129937652Y-77667264D01*
X129792085Y-77571280D01*
X129618379Y-77479695D01*
X129612842Y-77476725D01*
X129575314Y-77453820D01*
X129540204Y-77427361D01*
X129507841Y-77397602D01*
X129478536Y-77364828D01*
X129452571Y-77329350D01*
X129430190Y-77291508D01*
X129411611Y-77251663D01*
X129397006Y-77210194D01*
X129386520Y-77167498D01*
X129380249Y-77123982D01*
X129378255Y-77080062D01*
X129380556Y-77036159D01*
X129387130Y-76992688D01*
X129397915Y-76950067D01*
X129412807Y-76908701D01*
X129431666Y-76868985D01*
X129454308Y-76831300D01*
X129480521Y-76796005D01*
X129510053Y-76763435D01*
X129542623Y-76733904D01*
X129577918Y-76707690D01*
X129615603Y-76685047D01*
X129655318Y-76666189D01*
X129696684Y-76651296D01*
X129739305Y-76640512D01*
X129782777Y-76633936D01*
X129826680Y-76631636D01*
X129870600Y-76633630D01*
X129914116Y-76639900D01*
X129956812Y-76650388D01*
X129998280Y-76664991D01*
X130038125Y-76683571D01*
G37*
G36*
G01*
X121465000Y-109380000D02*
X121465000Y-110330000D01*
G75*
G02*
X121215000Y-110580000I-250000J0D01*
G01*
X120715000Y-110580000D01*
G75*
G02*
X120465000Y-110330000I0J250000D01*
G01*
X120465000Y-109380000D01*
G75*
G02*
X120715000Y-109130000I250000J0D01*
G01*
X121215000Y-109130000D01*
G75*
G02*
X121465000Y-109380000I0J-250000D01*
G01*
G37*
G36*
G01*
X119565000Y-109380000D02*
X119565000Y-110330000D01*
G75*
G02*
X119315000Y-110580000I-250000J0D01*
G01*
X118815000Y-110580000D01*
G75*
G02*
X118565000Y-110330000I0J250000D01*
G01*
X118565000Y-109380000D01*
G75*
G02*
X118815000Y-109130000I250000J0D01*
G01*
X119315000Y-109130000D01*
G75*
G02*
X119565000Y-109380000I0J-250000D01*
G01*
G37*
G36*
G01*
X135532332Y-114258287D02*
X135382264Y-113970008D01*
G75*
G02*
X135451369Y-113750835I144139J75034D01*
G01*
X136914937Y-112988950D01*
G75*
G02*
X137134110Y-113058055I75034J-144139D01*
G01*
X137284178Y-113346334D01*
G75*
G02*
X137215073Y-113565507I-144139J-75034D01*
G01*
X135751505Y-114327392D01*
G75*
G02*
X135532332Y-114258287I-75034J144139D01*
G01*
G37*
G36*
G01*
X136118753Y-115384791D02*
X135968685Y-115096512D01*
G75*
G02*
X136037790Y-114877339I144139J75034D01*
G01*
X137501358Y-114115454D01*
G75*
G02*
X137720531Y-114184559I75034J-144139D01*
G01*
X137870599Y-114472838D01*
G75*
G02*
X137801494Y-114692011I-144139J-75034D01*
G01*
X136337926Y-115453896D01*
G75*
G02*
X136118753Y-115384791I-75034J144139D01*
G01*
G37*
G36*
G01*
X136705173Y-116511295D02*
X136555105Y-116223016D01*
G75*
G02*
X136624210Y-116003843I144139J75034D01*
G01*
X138087778Y-115241958D01*
G75*
G02*
X138306951Y-115311063I75034J-144139D01*
G01*
X138457019Y-115599342D01*
G75*
G02*
X138387914Y-115818515I-144139J-75034D01*
G01*
X136924346Y-116580400D01*
G75*
G02*
X136705173Y-116511295I-75034J144139D01*
G01*
G37*
G36*
G01*
X137291594Y-117637799D02*
X137141526Y-117349520D01*
G75*
G02*
X137210631Y-117130347I144139J75034D01*
G01*
X138674199Y-116368462D01*
G75*
G02*
X138893372Y-116437567I75034J-144139D01*
G01*
X139043440Y-116725846D01*
G75*
G02*
X138974335Y-116945019I-144139J-75034D01*
G01*
X137510767Y-117706904D01*
G75*
G02*
X137291594Y-117637799I-75034J144139D01*
G01*
G37*
G36*
G01*
X141793174Y-115294425D02*
X141643106Y-115006146D01*
G75*
G02*
X141712211Y-114786973I144139J75034D01*
G01*
X143175779Y-114025088D01*
G75*
G02*
X143394952Y-114094193I75034J-144139D01*
G01*
X143545020Y-114382472D01*
G75*
G02*
X143475915Y-114601645I-144139J-75034D01*
G01*
X142012347Y-115363530D01*
G75*
G02*
X141793174Y-115294425I-75034J144139D01*
G01*
G37*
G36*
G01*
X141206753Y-114167921D02*
X141056685Y-113879642D01*
G75*
G02*
X141125790Y-113660469I144139J75034D01*
G01*
X142589358Y-112898584D01*
G75*
G02*
X142808531Y-112967689I75034J-144139D01*
G01*
X142958599Y-113255968D01*
G75*
G02*
X142889494Y-113475141I-144139J-75034D01*
G01*
X141425926Y-114237026D01*
G75*
G02*
X141206753Y-114167921I-75034J144139D01*
G01*
G37*
G36*
G01*
X140620333Y-113041417D02*
X140470265Y-112753138D01*
G75*
G02*
X140539370Y-112533965I144139J75034D01*
G01*
X142002938Y-111772080D01*
G75*
G02*
X142222111Y-111841185I75034J-144139D01*
G01*
X142372179Y-112129464D01*
G75*
G02*
X142303074Y-112348637I-144139J-75034D01*
G01*
X140839506Y-113110522D01*
G75*
G02*
X140620333Y-113041417I-75034J144139D01*
G01*
G37*
G36*
G01*
X140033912Y-111914913D02*
X139883844Y-111626634D01*
G75*
G02*
X139952949Y-111407461I144139J75034D01*
G01*
X141416517Y-110645576D01*
G75*
G02*
X141635690Y-110714681I75034J-144139D01*
G01*
X141785758Y-111002960D01*
G75*
G02*
X141716653Y-111222133I-144139J-75034D01*
G01*
X140253085Y-111984018D01*
G75*
G02*
X140033912Y-111914913I-75034J144139D01*
G01*
G37*
G36*
G01*
X129434164Y-116268251D02*
X128094887Y-114522872D01*
G75*
G02*
X128141035Y-114172344I198338J152190D01*
G01*
X128656716Y-113776647D01*
G75*
G02*
X129007244Y-113822795I152190J-198338D01*
G01*
X130346521Y-115568174D01*
G75*
G02*
X130300373Y-115918702I-198338J-152190D01*
G01*
X129784692Y-116314399D01*
G75*
G02*
X129434164Y-116268251I-152190J198338D01*
G01*
G37*
G36*
G01*
X131774556Y-114472405D02*
X130435279Y-112727026D01*
G75*
G02*
X130481427Y-112376498I198338J152190D01*
G01*
X130997108Y-111980801D01*
G75*
G02*
X131347636Y-112026949I152190J-198338D01*
G01*
X132686913Y-113772328D01*
G75*
G02*
X132640765Y-114122856I-198338J-152190D01*
G01*
X132125084Y-114518553D01*
G75*
G02*
X131774556Y-114472405I-152190J198338D01*
G01*
G37*
G36*
G01*
X136268413Y-112059864D02*
X135943494Y-111167156D01*
G75*
G02*
X136092912Y-110846728I234923J85505D01*
G01*
X136562759Y-110675718D01*
G75*
G02*
X136883187Y-110825136I85505J-234923D01*
G01*
X137208106Y-111717844D01*
G75*
G02*
X137058688Y-112038272I-234923J-85505D01*
G01*
X136588841Y-112209282D01*
G75*
G02*
X136268413Y-112059864I-85505J234923D01*
G01*
G37*
G36*
G01*
X138053829Y-111410026D02*
X137728910Y-110517318D01*
G75*
G02*
X137878328Y-110196890I234923J85505D01*
G01*
X138348175Y-110025880D01*
G75*
G02*
X138668603Y-110175298I85505J-234923D01*
G01*
X138993522Y-111068006D01*
G75*
G02*
X138844104Y-111388434I-234923J-85505D01*
G01*
X138374257Y-111559444D01*
G75*
G02*
X138053829Y-111410026I-85505J234923D01*
G01*
G37*
G36*
G01*
X126007926Y-113947181D02*
X125912162Y-114304574D01*
G75*
G02*
X125746821Y-114400033I-130400J34941D01*
G01*
X125486021Y-114330152D01*
G75*
G02*
X125390562Y-114164811I34941J130400D01*
G01*
X125486326Y-113807418D01*
G75*
G02*
X125651667Y-113711959I130400J-34941D01*
G01*
X125912467Y-113781840D01*
G75*
G02*
X126007926Y-113947181I-34941J-130400D01*
G01*
G37*
G36*
G01*
X125022682Y-113683185D02*
X124926918Y-114040578D01*
G75*
G02*
X124761577Y-114136037I-130400J34941D01*
G01*
X124500777Y-114066156D01*
G75*
G02*
X124405318Y-113900815I34941J130400D01*
G01*
X124501082Y-113543422D01*
G75*
G02*
X124666423Y-113447963I130400J-34941D01*
G01*
X124927223Y-113517844D01*
G75*
G02*
X125022682Y-113683185I-34941J-130400D01*
G01*
G37*
G36*
G01*
X125753926Y-114937781D02*
X125658162Y-115295174D01*
G75*
G02*
X125492821Y-115390633I-130400J34941D01*
G01*
X125232021Y-115320752D01*
G75*
G02*
X125136562Y-115155411I34941J130400D01*
G01*
X125232326Y-114798018D01*
G75*
G02*
X125397667Y-114702559I130400J-34941D01*
G01*
X125658467Y-114772440D01*
G75*
G02*
X125753926Y-114937781I-34941J-130400D01*
G01*
G37*
G36*
G01*
X124768682Y-114673785D02*
X124672918Y-115031178D01*
G75*
G02*
X124507577Y-115126637I-130400J34941D01*
G01*
X124246777Y-115056756D01*
G75*
G02*
X124151318Y-114891415I34941J130400D01*
G01*
X124247082Y-114534022D01*
G75*
G02*
X124412423Y-114438563I130400J-34941D01*
G01*
X124673223Y-114508444D01*
G75*
G02*
X124768682Y-114673785I-34941J-130400D01*
G01*
G37*
G36*
G01*
X115734584Y-76465028D02*
X115996213Y-76726657D01*
G75*
G02*
X115996213Y-76917575I-95459J-95459D01*
G01*
X115805294Y-77108494D01*
G75*
G02*
X115614376Y-77108494I-95459J95459D01*
G01*
X115352747Y-76846865D01*
G75*
G02*
X115352747Y-76655947I95459J95459D01*
G01*
X115543666Y-76465028D01*
G75*
G02*
X115734584Y-76465028I95459J-95459D01*
G01*
G37*
G36*
G01*
X115013336Y-77186276D02*
X115274965Y-77447905D01*
G75*
G02*
X115274965Y-77638823I-95459J-95459D01*
G01*
X115084046Y-77829742D01*
G75*
G02*
X114893128Y-77829742I-95459J95459D01*
G01*
X114631499Y-77568113D01*
G75*
G02*
X114631499Y-77377195I95459J95459D01*
G01*
X114822418Y-77186276D01*
G75*
G02*
X115013336Y-77186276I95459J-95459D01*
G01*
G37*
D17*
X147828000Y-108153200D03*
X143560800Y-80162400D03*
X123190000Y-80314800D03*
D13*
G36*
X134184632Y-81819972D02*
G01*
X134254356Y-81023016D01*
X134652834Y-81057878D01*
X134583110Y-81854834D01*
X134184632Y-81819972D01*
G37*
G36*
X134690699Y-81864247D02*
G01*
X134760423Y-81067291D01*
X135158901Y-81102153D01*
X135089177Y-81899109D01*
X134690699Y-81864247D01*
G37*
G36*
X135196766Y-81908522D02*
G01*
X135266490Y-81111566D01*
X135664968Y-81146428D01*
X135595244Y-81943384D01*
X135196766Y-81908522D01*
G37*
G36*
X135911832Y-81972372D02*
G01*
X135981556Y-81175416D01*
X136380034Y-81210278D01*
X136310310Y-82007234D01*
X135911832Y-81972372D01*
G37*
G36*
X136417899Y-82016647D02*
G01*
X136487623Y-81219691D01*
X136886101Y-81254553D01*
X136816377Y-82051509D01*
X136417899Y-82016647D01*
G37*
G36*
X136923966Y-82060922D02*
G01*
X136993690Y-81263966D01*
X137392168Y-81298828D01*
X137322444Y-82095784D01*
X136923966Y-82060922D01*
G37*
G36*
G01*
X109752976Y-109519140D02*
X109395583Y-109614904D01*
G75*
G02*
X109230242Y-109519445I-34941J130400D01*
G01*
X109160361Y-109258645D01*
G75*
G02*
X109255820Y-109093304I130400J34941D01*
G01*
X109613213Y-108997540D01*
G75*
G02*
X109778554Y-109092999I34941J-130400D01*
G01*
X109848435Y-109353799D01*
G75*
G02*
X109752976Y-109519140I-130400J-34941D01*
G01*
G37*
G36*
G01*
X109488980Y-108533896D02*
X109131587Y-108629660D01*
G75*
G02*
X108966246Y-108534201I-34941J130400D01*
G01*
X108896365Y-108273401D01*
G75*
G02*
X108991824Y-108108060I130400J34941D01*
G01*
X109349217Y-108012296D01*
G75*
G02*
X109514558Y-108107755I34941J-130400D01*
G01*
X109584439Y-108368555D01*
G75*
G02*
X109488980Y-108533896I-130400J-34941D01*
G01*
G37*
G36*
G01*
X115145400Y-103398000D02*
X114775400Y-103398000D01*
G75*
G02*
X114640400Y-103263000I0J135000D01*
G01*
X114640400Y-102993000D01*
G75*
G02*
X114775400Y-102858000I135000J0D01*
G01*
X115145400Y-102858000D01*
G75*
G02*
X115280400Y-102993000I0J-135000D01*
G01*
X115280400Y-103263000D01*
G75*
G02*
X115145400Y-103398000I-135000J0D01*
G01*
G37*
G36*
G01*
X115145400Y-102378000D02*
X114775400Y-102378000D01*
G75*
G02*
X114640400Y-102243000I0J135000D01*
G01*
X114640400Y-101973000D01*
G75*
G02*
X114775400Y-101838000I135000J0D01*
G01*
X115145400Y-101838000D01*
G75*
G02*
X115280400Y-101973000I0J-135000D01*
G01*
X115280400Y-102243000D01*
G75*
G02*
X115145400Y-102378000I-135000J0D01*
G01*
G37*
G36*
G01*
X135564128Y-73586653D02*
X135892543Y-73674652D01*
G75*
G02*
X135991538Y-73846117I-36235J-135230D01*
G01*
X135919069Y-74116576D01*
G75*
G02*
X135747604Y-74215571I-135230J36235D01*
G01*
X135419189Y-74127572D01*
G75*
G02*
X135320194Y-73956107I36235J135230D01*
G01*
X135392663Y-73685648D01*
G75*
G02*
X135564128Y-73586653I135230J-36235D01*
G01*
G37*
G36*
G01*
X135315662Y-74513941D02*
X135644077Y-74601940D01*
G75*
G02*
X135743072Y-74773405I-36235J-135230D01*
G01*
X135670603Y-75043864D01*
G75*
G02*
X135499138Y-75142859I-135230J36235D01*
G01*
X135170723Y-75054860D01*
G75*
G02*
X135071728Y-74883395I36235J135230D01*
G01*
X135144197Y-74612936D01*
G75*
G02*
X135315662Y-74513941I135230J-36235D01*
G01*
G37*
G36*
X143126864Y-75886712D02*
G01*
X142553288Y-76705864D01*
X141734136Y-76132288D01*
X142307712Y-75313136D01*
X143126864Y-75886712D01*
G37*
G36*
X135685402Y-75677064D02*
G01*
X135219528Y-77415731D01*
X134253602Y-77156912D01*
X134719476Y-75418245D01*
X135685402Y-75677064D01*
G37*
G36*
X133270588Y-75030016D02*
G01*
X132804714Y-76768683D01*
X131838788Y-76509864D01*
X132304662Y-74771197D01*
X133270588Y-75030016D01*
G37*
G36*
G01*
X131432345Y-74472361D02*
X131760760Y-74560360D01*
G75*
G02*
X131859755Y-74731825I-36235J-135230D01*
G01*
X131787286Y-75002284D01*
G75*
G02*
X131615821Y-75101279I-135230J36235D01*
G01*
X131287406Y-75013280D01*
G75*
G02*
X131188411Y-74841815I36235J135230D01*
G01*
X131260880Y-74571356D01*
G75*
G02*
X131432345Y-74472361I135230J-36235D01*
G01*
G37*
G36*
G01*
X131183879Y-75399649D02*
X131512294Y-75487648D01*
G75*
G02*
X131611289Y-75659113I-36235J-135230D01*
G01*
X131538820Y-75929572D01*
G75*
G02*
X131367355Y-76028567I-135230J36235D01*
G01*
X131038940Y-75940568D01*
G75*
G02*
X130939945Y-75769103I36235J135230D01*
G01*
X131012414Y-75498644D01*
G75*
G02*
X131183879Y-75399649I135230J-36235D01*
G01*
G37*
G36*
X128669032Y-110845071D02*
G01*
X129065709Y-110540690D01*
X129066075Y-110541168D01*
X129085540Y-110526232D01*
X129127208Y-110500322D01*
X129171215Y-110478619D01*
X129217138Y-110461335D01*
X129264534Y-110448635D01*
X129312946Y-110440643D01*
X129361909Y-110437433D01*
X129410950Y-110439039D01*
X129459599Y-110445444D01*
X129507384Y-110456585D01*
X129553848Y-110472359D01*
X129598542Y-110492608D01*
X129641035Y-110517142D01*
X129680920Y-110545723D01*
X129717811Y-110578076D01*
X129751353Y-110613888D01*
X129766289Y-110633352D01*
X129766766Y-110632986D01*
X130071147Y-111029663D01*
X130070669Y-111030029D01*
X130085605Y-111049493D01*
X130111515Y-111091162D01*
X130133218Y-111135169D01*
X130150502Y-111181092D01*
X130163202Y-111228488D01*
X130171194Y-111276900D01*
X130174404Y-111325863D01*
X130172798Y-111374903D01*
X130166393Y-111423552D01*
X130155252Y-111471338D01*
X130139478Y-111517801D01*
X130119229Y-111562495D01*
X130094695Y-111604989D01*
X130066114Y-111644874D01*
X130033761Y-111681765D01*
X129997949Y-111715307D01*
X129978485Y-111730242D01*
X129978851Y-111730720D01*
X129582174Y-112035101D01*
X128669032Y-110845071D01*
G37*
G36*
X128947125Y-112521632D02*
G01*
X128927660Y-112536568D01*
X128885992Y-112562478D01*
X128841985Y-112584181D01*
X128796062Y-112601465D01*
X128748666Y-112614165D01*
X128700254Y-112622157D01*
X128651291Y-112625367D01*
X128602250Y-112623761D01*
X128553601Y-112617356D01*
X128505816Y-112606215D01*
X128459352Y-112590441D01*
X128414658Y-112570192D01*
X128372165Y-112545658D01*
X128332280Y-112517077D01*
X128295389Y-112484724D01*
X128261847Y-112448912D01*
X128246911Y-112429448D01*
X128246434Y-112429814D01*
X127942053Y-112033137D01*
X127942531Y-112032771D01*
X127927595Y-112013307D01*
X127901685Y-111971638D01*
X127879982Y-111927631D01*
X127862698Y-111881708D01*
X127849998Y-111834312D01*
X127842006Y-111785900D01*
X127838796Y-111736937D01*
X127840402Y-111687897D01*
X127846807Y-111639248D01*
X127857948Y-111591462D01*
X127873722Y-111544999D01*
X127893971Y-111500305D01*
X127918505Y-111457811D01*
X127947086Y-111417926D01*
X127979439Y-111381035D01*
X128015251Y-111347493D01*
X128034715Y-111332558D01*
X128034349Y-111332080D01*
X128431026Y-111027699D01*
X129344168Y-112217729D01*
X128947491Y-112522110D01*
X128947125Y-112521632D01*
G37*
G36*
G01*
X145102875Y-78989369D02*
X145364504Y-78727740D01*
G75*
G02*
X145555422Y-78727740I95459J-95459D01*
G01*
X145746341Y-78918659D01*
G75*
G02*
X145746341Y-79109577I-95459J-95459D01*
G01*
X145484712Y-79371206D01*
G75*
G02*
X145293794Y-79371206I-95459J95459D01*
G01*
X145102875Y-79180287D01*
G75*
G02*
X145102875Y-78989369I95459J95459D01*
G01*
G37*
G36*
G01*
X145824123Y-79710617D02*
X146085752Y-79448988D01*
G75*
G02*
X146276670Y-79448988I95459J-95459D01*
G01*
X146467589Y-79639907D01*
G75*
G02*
X146467589Y-79830825I-95459J-95459D01*
G01*
X146205960Y-80092454D01*
G75*
G02*
X146015042Y-80092454I-95459J95459D01*
G01*
X145824123Y-79901535D01*
G75*
G02*
X145824123Y-79710617I95459J95459D01*
G01*
G37*
G36*
G01*
X143593218Y-112603915D02*
X143355386Y-112320478D01*
G75*
G02*
X143372026Y-112130286I103416J86776D01*
G01*
X143578858Y-111956733D01*
G75*
G02*
X143769050Y-111973373I86776J-103416D01*
G01*
X144006882Y-112256810D01*
G75*
G02*
X143990242Y-112447002I-103416J-86776D01*
G01*
X143783410Y-112620555D01*
G75*
G02*
X143593218Y-112603915I-86776J103416D01*
G01*
G37*
G36*
G01*
X144374584Y-111948271D02*
X144136752Y-111664834D01*
G75*
G02*
X144153392Y-111474642I103416J86776D01*
G01*
X144360224Y-111301089D01*
G75*
G02*
X144550416Y-111317729I86776J-103416D01*
G01*
X144788248Y-111601166D01*
G75*
G02*
X144771608Y-111791358I-103416J-86776D01*
G01*
X144564776Y-111964911D01*
G75*
G02*
X144374584Y-111948271I-86776J103416D01*
G01*
G37*
G36*
G01*
X115701233Y-112899604D02*
X115439604Y-113161233D01*
G75*
G02*
X115248686Y-113161233I-95459J95459D01*
G01*
X115057767Y-112970314D01*
G75*
G02*
X115057767Y-112779396I95459J95459D01*
G01*
X115319396Y-112517767D01*
G75*
G02*
X115510314Y-112517767I95459J-95459D01*
G01*
X115701233Y-112708686D01*
G75*
G02*
X115701233Y-112899604I-95459J-95459D01*
G01*
G37*
G36*
G01*
X114979985Y-112178356D02*
X114718356Y-112439985D01*
G75*
G02*
X114527438Y-112439985I-95459J95459D01*
G01*
X114336519Y-112249066D01*
G75*
G02*
X114336519Y-112058148I95459J95459D01*
G01*
X114598148Y-111796519D01*
G75*
G02*
X114789066Y-111796519I95459J-95459D01*
G01*
X114979985Y-111987438D01*
G75*
G02*
X114979985Y-112178356I-95459J-95459D01*
G01*
G37*
G36*
G01*
X113563824Y-107676260D02*
X113921217Y-107580496D01*
G75*
G02*
X114086558Y-107675955I34941J-130400D01*
G01*
X114156439Y-107936755D01*
G75*
G02*
X114060980Y-108102096I-130400J-34941D01*
G01*
X113703587Y-108197860D01*
G75*
G02*
X113538246Y-108102401I-34941J130400D01*
G01*
X113468365Y-107841601D01*
G75*
G02*
X113563824Y-107676260I130400J34941D01*
G01*
G37*
G36*
G01*
X113827820Y-108661504D02*
X114185213Y-108565740D01*
G75*
G02*
X114350554Y-108661199I34941J-130400D01*
G01*
X114420435Y-108921999D01*
G75*
G02*
X114324976Y-109087340I-130400J-34941D01*
G01*
X113967583Y-109183104D01*
G75*
G02*
X113802242Y-109087645I-34941J130400D01*
G01*
X113732361Y-108826845D01*
G75*
G02*
X113827820Y-108661504I130400J34941D01*
G01*
G37*
G36*
X113494571Y-105071165D02*
G01*
X112721830Y-105278220D01*
X112488893Y-104408887D01*
X113261634Y-104201832D01*
X113494571Y-105071165D01*
G37*
G36*
X114929839Y-106757139D02*
G01*
X114157098Y-106964194D01*
X113924161Y-106094861D01*
X114696902Y-105887806D01*
X114929839Y-106757139D01*
G37*
G36*
X113094580Y-107248895D02*
G01*
X112321839Y-107455950D01*
X112088902Y-106586617D01*
X112861643Y-106379562D01*
X113094580Y-107248895D01*
G37*
G36*
X111329139Y-109479161D02*
G01*
X111536194Y-110251902D01*
X110666861Y-110484839D01*
X110459806Y-109712098D01*
X111329139Y-109479161D01*
G37*
G36*
X113015113Y-108043893D02*
G01*
X113222168Y-108816634D01*
X112352835Y-109049571D01*
X112145780Y-108276830D01*
X113015113Y-108043893D01*
G37*
G36*
X113506869Y-109879152D02*
G01*
X113713924Y-110651893D01*
X112844591Y-110884830D01*
X112637536Y-110112089D01*
X113506869Y-109879152D01*
G37*
G36*
G01*
X118877100Y-114673000D02*
X117927100Y-114673000D01*
G75*
G02*
X117677100Y-114423000I0J250000D01*
G01*
X117677100Y-113923000D01*
G75*
G02*
X117927100Y-113673000I250000J0D01*
G01*
X118877100Y-113673000D01*
G75*
G02*
X119127100Y-113923000I0J-250000D01*
G01*
X119127100Y-114423000D01*
G75*
G02*
X118877100Y-114673000I-250000J0D01*
G01*
G37*
G36*
G01*
X118877100Y-112773000D02*
X117927100Y-112773000D01*
G75*
G02*
X117677100Y-112523000I0J250000D01*
G01*
X117677100Y-112023000D01*
G75*
G02*
X117927100Y-111773000I250000J0D01*
G01*
X118877100Y-111773000D01*
G75*
G02*
X119127100Y-112023000I0J-250000D01*
G01*
X119127100Y-112523000D01*
G75*
G02*
X118877100Y-112773000I-250000J0D01*
G01*
G37*
G36*
G01*
X116425500Y-110914000D02*
X116425500Y-110574000D01*
G75*
G02*
X116565500Y-110434000I140000J0D01*
G01*
X116845500Y-110434000D01*
G75*
G02*
X116985500Y-110574000I0J-140000D01*
G01*
X116985500Y-110914000D01*
G75*
G02*
X116845500Y-111054000I-140000J0D01*
G01*
X116565500Y-111054000D01*
G75*
G02*
X116425500Y-110914000I0J140000D01*
G01*
G37*
G36*
G01*
X117385500Y-110914000D02*
X117385500Y-110574000D01*
G75*
G02*
X117525500Y-110434000I140000J0D01*
G01*
X117805500Y-110434000D01*
G75*
G02*
X117945500Y-110574000I0J-140000D01*
G01*
X117945500Y-110914000D01*
G75*
G02*
X117805500Y-111054000I-140000J0D01*
G01*
X117525500Y-111054000D01*
G75*
G02*
X117385500Y-110914000I0J140000D01*
G01*
G37*
G36*
G01*
X121162158Y-113896670D02*
X120773930Y-115345558D01*
G75*
G02*
X119855372Y-115875888I-724444J194114D01*
G01*
X119855372Y-115875888D01*
G75*
G02*
X119325042Y-114957330I194114J724444D01*
G01*
X119713270Y-113508442D01*
G75*
G02*
X120631828Y-112978112I724444J-194114D01*
G01*
X120631828Y-112978112D01*
G75*
G02*
X121162158Y-113896670I-194114J-724444D01*
G01*
G37*
G36*
G01*
X128255920Y-115784289D02*
X127867692Y-117233177D01*
G75*
G02*
X126949134Y-117763507I-724444J194114D01*
G01*
X126949134Y-117763507D01*
G75*
G02*
X126418804Y-116844949I194114J724444D01*
G01*
X126807032Y-115396061D01*
G75*
G02*
X127725590Y-114865731I724444J-194114D01*
G01*
X127725590Y-114865731D01*
G75*
G02*
X128255920Y-115784289I-194114J-724444D01*
G01*
G37*
D18*
X150749000Y-99072700D03*
X150749000Y-103898700D03*
D19*
X150144480Y-100622100D03*
X150144480Y-102336600D03*
D20*
X148747480Y-99748340D03*
X148747480Y-103202740D03*
D22*
X152079000Y-96530000D03*
X152079000Y-95480000D03*
X149419000Y-96530000D03*
X149419000Y-95480000D03*
D23*
X150749000Y-96540000D03*
D22*
X152079000Y-94430000D03*
X152079000Y-93380000D03*
X149419000Y-94430000D03*
X149419000Y-93380000D03*
M02*
