M48
; DRILL file {KiCad 5.1.7-a382d34a8~88~ubuntu18.04.1} date Thu May 20 00:29:48 2021
; FORMAT={-:-/ absolute / inch / decimal}
; #@! TF.CreationDate,2021-05-20T00:29:48+02:00
; #@! TF.GenerationSoftware,Kicad,Pcbnew,5.1.7-a382d34a8~88~ubuntu18.04.1
; #@! TF.FileFunction,Plated,1,4,PTH
FMAT,2
INCH
T1C0.0079
T2C0.0157
T3C0.0197
%
G90
G05
T1
X4.354Y-4.279
X4.36Y-4.374
X4.363Y-4.1455
X4.374Y-4.0835
X4.378Y-4.231
X4.398Y-4.414
X4.4075Y-4.055
X4.422Y-4.148
X4.4375Y-3.945
X4.4375Y-4.06
X4.445Y-3.92
X4.46Y-3.0565
X4.4625Y-3.95
X4.4625Y-4.3975
X4.4645Y-3.806
X4.47Y-3.925
X4.475Y-3.09
X4.48Y-4.3825
X4.48Y-4.41
X4.483Y-3.7115
X4.4975Y-4.365
X4.502Y-3.6135
X4.5075Y-4.3375
X4.515Y-4.255
X4.5155Y-3.537
X4.52Y-3.488
X4.525Y-3.0835
X4.531Y-3.415
X4.533Y-3.396
X4.535Y-3.26
X4.5485Y-3.3485
X4.55Y-3.2425
X4.55Y-3.292
X4.55Y-3.3125
X4.5525Y-4.375
X4.553Y-3.422
X4.554Y-3.401
X4.555Y-3.16
X4.556Y-3.271
X4.5575Y-4.34
X4.56Y-2.9685
X4.56Y-3.2175
X4.5647Y-4.2472
X4.5675Y-4.42
X4.5725Y-3.24
X4.5725Y-4.3925
X4.576Y-3.292
X4.58Y-3.27
X4.588Y-3.148
X4.592Y-3.016
X4.595Y-4.3925
X4.598Y-3.168
X4.6Y-3.876
X4.601Y-2.9416
X4.603Y-3.9705
X4.6087Y-2.961
X4.6125Y-3.1975
X4.615Y-4.555
X4.6155Y-4.2435
X4.6175Y-4.4925
X4.6175Y-4.515
X4.618Y-3.024
X4.6192Y-2.932
X4.62Y-3.22
X4.627Y-2.9524
X4.6375Y-2.9113
X4.6375Y-4.4625
X4.64Y-4.5325
X4.644Y-3.424
X4.648Y-4.326
X4.653Y-3.982
X4.655Y-4.38
X4.66Y-4.4625
X4.6675Y-4.2
X4.6675Y-4.5625
X4.67Y-4.5325
X4.6725Y-3.1725
X4.676Y-4.112
X4.6775Y-3.3
X4.68Y-4.4625
X4.6822Y-3.1011
X4.6825Y-4.1875
X4.6834Y-3.1261
X4.6875Y-4.2125
X4.695Y-3.165
X4.7Y-3.3
X4.7Y-4.1775
X4.705Y-4.1975
X4.7111Y-3.1096
X4.714Y-4.598
X4.7175Y-4.2125
X4.72Y-4.1725
X4.7225Y-3.3025
X4.723Y-3.986
X4.725Y-3.7325
X4.725Y-4.19
X4.73Y-3.695
X4.73Y-4.3
X4.736Y-4.358
X4.7375Y-3.65
X4.7375Y-4.21
X4.74Y-3.61
X4.7425Y-4.1775
X4.745Y-3.2075
X4.745Y-3.3075
X4.748Y-4.262
X4.75Y-4.195
X4.758Y-4.368
X4.76Y-3.1875
X4.76Y-3.735
X4.7625Y-4.21
X4.765Y-3.31
X4.775Y-3.655
X4.7758Y-3.9422
X4.78Y-3.69
X4.7825Y-3.615
X4.786Y-4.368
X4.7875Y-3.3125
X4.7885Y-4.011
X4.79Y-4.268
X4.7908Y-2.8738
X4.8Y-4.5605
X4.802Y-4.348
X4.806Y-4.322
X4.8075Y-3.7425
X4.81Y-3.315
X4.812Y-4.298
X4.8172Y-3.9728
X4.82Y-3.6675
X4.825Y-3.7025
X4.8325Y-3.3175
X4.8375Y-3.6225
X4.838Y-3.0335
X4.839Y-2.9659
X4.8475Y-3.3325
X4.8475Y-4.3925
X4.8512Y-2.991
X4.8525Y-3.755
X4.858Y-3.46
X4.865Y-3.675
X4.865Y-3.7075
X4.866Y-4.0275
X4.8705Y-4.662
X4.8775Y-3.63
X4.8803Y-2.887
X4.893Y-4.475
X4.8951Y-2.9189
X4.899Y-4.032
X4.901Y-3.283
X4.9013Y-2.8972
X4.909Y-4.5885
X4.9174Y-2.9209
X4.9235Y-3.0137
X4.9336Y-3.2596
X4.9425Y-4.67
X4.9447Y-3.0039
X4.9614Y-2.9883
X4.962Y-4.569
X4.9675Y-3.205
X4.9675Y-3.2325
X4.979Y-4.5335
X4.984Y-3.484
X4.986Y-3.108
X4.99Y-3.148
X4.994Y-3.074
X4.997Y-2.828
X5.014Y-2.8035
X5.02Y-4.5075
X5.02Y-4.667
X5.027Y-2.8375
X5.034Y-3.492
X5.0365Y-4.4875
X5.04Y-4.354
X5.042Y-4.005
X5.044Y-3.524
X5.046Y-4.334
X5.051Y-4.6145
X5.0675Y-4.5835
X5.07Y-4.338
X5.079Y-4.008
X5.084Y-3.204
X5.084Y-4.665
X5.088Y-3.532
X5.092Y-3.03
X5.0925Y-4.618
X5.096Y-4.4795
X5.1015Y-4.594
X5.103Y-2.9235
X5.108Y-3.63
X5.1095Y-2.9435
X5.1145Y-4.495
X5.116Y-3.38
X5.124Y-3.548
X5.128Y-3.12
X5.129Y-3.603
X5.1295Y-4.5155
X5.1315Y-2.948
X5.134Y-3.054
X5.1348Y-4.0887
X5.138Y-3.32
X5.1425Y-4.355
X5.147Y-4.5455
X5.1545Y-4.6425
X5.155Y-4.375
X5.1554Y-4.6733
X5.158Y-3.088
X5.158Y-3.219
X5.16Y-3.58
X5.1605Y-4.614
X5.1606Y-4.6978
X5.162Y-3.244
X5.162Y-3.388
X5.1641Y-3.0076
X5.166Y-3.55
X5.171Y-4.6575
X5.172Y-3.202
X5.172Y-3.322
X5.172Y-4.086
X5.172Y-4.6305
X5.1725Y-4.3625
X5.1765Y-4.6034
X5.1771Y-4.6845
X5.18Y-4.058
X5.18Y-4.385
X5.1953Y-4.7008
X5.198Y-3.14
X5.2028Y-4.604
X5.205Y-3.037
X5.21Y-3.116
X5.2105Y-4.6857
X5.211Y-3.079
X5.2248Y-4.6031
X5.225Y-3.05
X5.2258Y-3.9802
X5.2293Y-4.6983
X5.233Y-3.096
X5.246Y-3.466
X5.2473Y-4.6052
X5.2489Y-2.9459
X5.252Y-2.991
X5.253Y-4.6871
X5.2746Y-4.6056
X5.275Y-3.7925
X5.276Y-2.979
X5.2784Y-4.6878
X5.28Y-3.478
X5.285Y-3.4375
X5.2898Y-4.5905
X5.301Y-3.311
X5.302Y-4.6865
X5.3021Y-4.608
X5.304Y-3.258
X5.3045Y-2.9371
X5.3079Y-2.9187
X5.3125Y-3.835
X5.3225Y-3.4225
X5.324Y-3.486
X5.34Y-3.805
X5.34Y-3.8275
X5.3522Y-3.0132
X5.355Y-4.6175
X5.36Y-3.147
X5.361Y-3.169
X5.3612Y-2.9542
X5.365Y-3.128
X5.366Y-2.8484
X5.3685Y-4.64
X5.3702Y-2.9193
X5.3705Y-4.6605
X5.389Y-3.032
X5.392Y-3.273
X5.3961Y-2.9632
X5.397Y-4.3405
X5.4025Y-4.06
X5.403Y-3.299
X5.404Y-3.37
X5.405Y-3.055
X5.406Y-3.342
X5.4062Y-2.9292
X5.408Y-4.3055
X5.4115Y-4.366
X5.4125Y-3.3975
X5.416Y-3.27
X5.4169Y-4.2172
X5.4225Y-4.3905
X5.425Y-4.06
X5.433Y-4.4105
X5.434Y-4.2925
X5.4475Y-3.4
X5.45Y-4.0725
X5.4545Y-4.4265
X5.4625Y-4.296
X5.4705Y-2.9416
X5.475Y-4.565
X5.4754Y-2.894
X5.4755Y-4.3215
X5.478Y-3.32
X5.479Y-4.4215
X5.4797Y-2.9207
X5.48Y-3.2723
X5.482Y-3.296
X5.4874Y-3.225
X5.4875Y-4.3465
X5.49Y-3.1725
X5.4925Y-4.5875
X5.4974Y-2.9051
X5.499Y-4.4125
X5.5Y-3.152
X5.5005Y-4.369
X5.5125Y-4.445
X5.518Y-3.594
X5.518Y-3.62
X5.518Y-3.676
X5.518Y-3.788
X5.522Y-3.484
X5.5221Y-2.912
X5.53Y-3.154
X5.5425Y-4.4975
X5.545Y-4.4675
X5.5525Y-4.52
X5.553Y-3.17
X5.56Y-4.345
X5.5675Y-4.545
X5.57Y-4.4525
X5.5725Y-4.395
X5.574Y-3.356
X5.575Y-4.5075
X5.595Y-4.36
X5.5975Y-4.4375
X5.6Y-4.385
X5.6Y-4.495
X5.6Y-4.5525
X5.6025Y-3.2775
X5.614Y-3.354
X5.62Y-4.4025
X5.625Y-4.54
X5.6275Y-4.48
X5.63Y-3.318
X5.632Y-3.296
X5.6375Y-4.4425
X5.65Y-4.5275
X5.659Y-4.3635
X5.68Y-3.107
X5.6925Y-4.07
X5.7025Y-4.0125
X5.7025Y-4.0425
X5.72Y-4.065
X5.725Y-4.02
X5.725Y-4.0425
X5.729Y-3.215
X5.742Y-3.2445
X5.842Y-3.884
X5.854Y-3.618
X5.856Y-3.546
X5.856Y-4.104
X5.858Y-3.676
X5.858Y-3.718
X5.868Y-3.4
X5.884Y-3.818
X5.898Y-4.062
X5.9Y-3.584
X5.904Y-3.762
X5.912Y-3.656
X5.939Y-3.648
X5.969Y-3.658
X5.974Y-3.597
X5.9874Y-3.7384
X6.0075Y-3.83
X6.0125Y-3.7825
X6.0175Y-3.7
T2
X4.958Y-4.462
X5.205Y-4.2975
X5.22Y-4.2675
X5.22Y-4.33
X5.235Y-4.36
X5.2375Y-4.3
X5.255Y-4.3325
X5.2575Y-4.27
X5.2725Y-4.3025
X5.2725Y-4.3625
X5.2765Y-4.0045
X5.284Y-3.969
X5.29Y-4.335
X5.295Y-4.2725
X5.2975Y-3.9345
X5.3065Y-4.033
X5.3075Y-4.305
X5.314Y-3.9985
X5.3225Y-4.3375
X5.324Y-3.9655
X5.33Y-4.275
X5.331Y-3.929
X5.34Y-4.3075
X5.342Y-4.022
X5.3525Y-3.989
X5.3595Y-3.9475
X5.365Y-4.2825
T3
X5.6075Y-2.9925
T3
G00X4.7264Y-4.5335
M15
G01X4.7416Y-4.4765
M16
G05
G00X5.0056Y-4.6078
M15
G01X5.0209Y-4.5508
M16
G05
T0
M30
