G04 #@! TF.GenerationSoftware,KiCad,Pcbnew,5.1.7-a382d34a8~88~ubuntu18.04.1*
G04 #@! TF.CreationDate,2021-05-20T00:29:44+02:00*
G04 #@! TF.ProjectId,Emersense_V1,456d6572-7365-46e7-9365-5f56312e6b69,rev?*
G04 #@! TF.SameCoordinates,Original*
G04 #@! TF.FileFunction,Legend,Bot*
G04 #@! TF.FilePolarity,Positive*
%FSLAX46Y46*%
G04 Gerber Fmt 4.6, Leading zero omitted, Abs format (unit mm)*
G04 Created by KiCad (PCBNEW 5.1.7-a382d34a8~88~ubuntu18.04.1) date 2021-05-20 00:29:44*
%MOMM*%
%LPD*%
G01*
G04 APERTURE LIST*
%ADD10C,0.120000*%
%ADD11C,0.150000*%
%ADD12C,0.060000*%
%ADD13C,0.020000*%
%ADD14C,0.200000*%
%ADD15C,0.015000*%
%ADD16C,0.800000*%
%ADD17C,1.000000*%
%ADD18R,0.700000X0.600000*%
%ADD19C,0.100000*%
%ADD20R,0.900000X0.800000*%
%ADD21R,3.000000X0.350000*%
%ADD22R,1.400000X2.500000*%
%ADD23R,0.400000X0.800000*%
%ADD24C,0.750000*%
G04 APERTURE END LIST*
D10*
X144830800Y-82651600D02*
X136956800Y-82651600D01*
D11*
X148651666Y-81649133D02*
X148618333Y-81615800D01*
X148551666Y-81582466D01*
X148385000Y-81582466D01*
X148318333Y-81615800D01*
X148285000Y-81649133D01*
X148251666Y-81715800D01*
X148251666Y-81782466D01*
X148285000Y-81882466D01*
X148685000Y-82282466D01*
X148251666Y-82282466D01*
X147951666Y-82215800D02*
X147918333Y-82249133D01*
X147951666Y-82282466D01*
X147985000Y-82249133D01*
X147951666Y-82215800D01*
X147951666Y-82282466D01*
X147651666Y-81649133D02*
X147618333Y-81615800D01*
X147551666Y-81582466D01*
X147385000Y-81582466D01*
X147318333Y-81615800D01*
X147285000Y-81649133D01*
X147251666Y-81715800D01*
X147251666Y-81782466D01*
X147285000Y-81882466D01*
X147685000Y-82282466D01*
X147251666Y-82282466D01*
X146618333Y-81582466D02*
X146951666Y-81582466D01*
X146985000Y-81915800D01*
X146951666Y-81882466D01*
X146885000Y-81849133D01*
X146718333Y-81849133D01*
X146651666Y-81882466D01*
X146618333Y-81915800D01*
X146585000Y-81982466D01*
X146585000Y-82149133D01*
X146618333Y-82215800D01*
X146651666Y-82249133D01*
X146718333Y-82282466D01*
X146885000Y-82282466D01*
X146951666Y-82249133D01*
X146985000Y-82215800D01*
X146285000Y-82282466D02*
X146285000Y-81815800D01*
X146285000Y-81882466D02*
X146251666Y-81849133D01*
X146185000Y-81815800D01*
X146085000Y-81815800D01*
X146018333Y-81849133D01*
X145985000Y-81915800D01*
X145985000Y-82282466D01*
X145985000Y-81915800D02*
X145951666Y-81849133D01*
X145885000Y-81815800D01*
X145785000Y-81815800D01*
X145718333Y-81849133D01*
X145685000Y-81915800D01*
X145685000Y-82282466D01*
X145351666Y-82282466D02*
X145351666Y-81815800D01*
X145351666Y-81882466D02*
X145318333Y-81849133D01*
X145251666Y-81815800D01*
X145151666Y-81815800D01*
X145085000Y-81849133D01*
X145051666Y-81915800D01*
X145051666Y-82282466D01*
X145051666Y-81915800D02*
X145018333Y-81849133D01*
X144951666Y-81815800D01*
X144851666Y-81815800D01*
X144785000Y-81849133D01*
X144751666Y-81915800D01*
X144751666Y-82282466D01*
D10*
X147066000Y-82550000D02*
X144830800Y-82550000D01*
X127395200Y-109016800D02*
G75*
G03*
X127395200Y-109016800I-700000J0D01*
G01*
X125922000Y-108610400D02*
G75*
G03*
X125922000Y-108610400I-700000J0D01*
G01*
X123432800Y-108153200D02*
G75*
G03*
X123432800Y-108153200I-700000J0D01*
G01*
X129325600Y-108458000D02*
G75*
G03*
X129325600Y-108458000I-700000J0D01*
G01*
X133897600Y-99669600D02*
G75*
G03*
X133897600Y-99669600I-700000J0D01*
G01*
X123077200Y-105664000D02*
G75*
G03*
X123077200Y-105664000I-700000J0D01*
G01*
X136488400Y-91463400D02*
G75*
G03*
X136488400Y-91463400I-700000J0D01*
G01*
X133440400Y-102362000D02*
G75*
G03*
X133440400Y-102362000I-700000J0D01*
G01*
X128065616Y-106537935D02*
G75*
G03*
X128065616Y-106537935I-700000J0D01*
G01*
X126564769Y-106273295D02*
G75*
G03*
X126564769Y-106273295I-700000J0D01*
G01*
X125063922Y-106008656D02*
G75*
G03*
X125063922Y-106008656I-700000J0D01*
G01*
X135878800Y-93116400D02*
G75*
G03*
X135878800Y-93116400I-700000J0D01*
G01*
X134710400Y-94284800D02*
G75*
G03*
X134710400Y-94284800I-700000J0D01*
G01*
X115064450Y-105278334D02*
G75*
G03*
X115064450Y-105278334I-700000J0D01*
G01*
X116573941Y-106544947D02*
G75*
G03*
X116573941Y-106544947I-700000J0D01*
G01*
X140878000Y-101085000D02*
X142078000Y-101085000D01*
X140878000Y-102935000D02*
X140878000Y-101085000D01*
X142078000Y-102935000D02*
X142078000Y-101085000D01*
X127573000Y-83121500D02*
G75*
G03*
X127573000Y-83121500I-700000J0D01*
G01*
X129097000Y-83121500D02*
G75*
G03*
X129097000Y-83121500I-700000J0D01*
G01*
X126621115Y-84493156D02*
G75*
G03*
X126621115Y-84493156I-700000J0D01*
G01*
X125116329Y-84227821D02*
G75*
G03*
X125116329Y-84227821I-700000J0D01*
G01*
X135383500Y-105918000D02*
G75*
G03*
X135383500Y-105918000I-700000J0D01*
G01*
X121907807Y-81774690D02*
X122060310Y-81927193D01*
X121398690Y-82283807D02*
X121551193Y-82436310D01*
X118933500Y-82195580D02*
X118933500Y-81914420D01*
X119953500Y-82195580D02*
X119953500Y-81914420D01*
X117063819Y-83274441D02*
X116955983Y-83087663D01*
X117687357Y-82914441D02*
X117579521Y-82727663D01*
X136273738Y-114250747D02*
X136251579Y-114758263D01*
X136251579Y-114758263D02*
X136615597Y-115155520D01*
X136615597Y-115155520D02*
X136526963Y-117185586D01*
X136526963Y-117185586D02*
X136129706Y-117549604D01*
X136129706Y-117549604D02*
X136107548Y-118057121D01*
X131435179Y-117344637D02*
X131071160Y-116947380D01*
X131557051Y-114553296D02*
X131579210Y-114045779D01*
X131159795Y-114917314D02*
X131557051Y-114553296D01*
X131071160Y-116947380D02*
X131159795Y-114917314D01*
X131413020Y-117852153D02*
X131435179Y-117344637D01*
X136884792Y-116299961D02*
X140120597Y-114543063D01*
X137839110Y-118057595D02*
X141074914Y-116300697D01*
X137839110Y-118057595D02*
X136884792Y-116299961D01*
X137118749Y-112947133D02*
X138380525Y-112290294D01*
X135862793Y-110534464D02*
X137124569Y-109877625D01*
X131551939Y-113134650D02*
X132062057Y-113247741D01*
X131870105Y-111699495D02*
X132380223Y-111812586D01*
X132946314Y-87421819D02*
X133714464Y-87557264D01*
X133714464Y-87557264D02*
X133540816Y-88542072D01*
X129778971Y-105384712D02*
X130547121Y-105520158D01*
X130547121Y-105520158D02*
X130720769Y-104535350D01*
X108360588Y-83086692D02*
X105193246Y-101049585D01*
X105193246Y-101049585D02*
X111515711Y-102164407D01*
X108360588Y-83086692D02*
X114683054Y-84201513D01*
X114683054Y-84201513D02*
X114749040Y-83827286D01*
X135550964Y-87524000D02*
X135766636Y-87524000D01*
X135550964Y-88244000D02*
X135766636Y-88244000D01*
X148891559Y-85724000D02*
X149198841Y-85724000D01*
X148891559Y-84964000D02*
X149198841Y-84964000D01*
X149401559Y-84657200D02*
X149708841Y-84657200D01*
X149401559Y-83897200D02*
X149708841Y-83897200D01*
X133050355Y-97792169D02*
X133103714Y-97489555D01*
X133798808Y-97924141D02*
X133852167Y-97621527D01*
X138634441Y-98982800D02*
X138327159Y-98982800D01*
X138634441Y-98222800D02*
X138327159Y-98222800D01*
X136599200Y-96057600D02*
X136599200Y-96987600D01*
X136599200Y-99217600D02*
X136599200Y-98287600D01*
X136599200Y-99217600D02*
X134439200Y-99217600D01*
X136599200Y-96057600D02*
X135139200Y-96057600D01*
D12*
X138264900Y-88290400D02*
X138264900Y-86626700D01*
X138277600Y-98018600D02*
X138277600Y-96380300D01*
X138277600Y-98018600D02*
X146151600Y-98018600D01*
X138264900Y-86626700D02*
X146138900Y-86626700D01*
X146151600Y-98018600D02*
X146151600Y-84315300D01*
X143675100Y-84315300D02*
X146151600Y-84315300D01*
D13*
X140538200Y-86614000D02*
X138264900Y-86614000D01*
D12*
X140538200Y-86614000D02*
X143675100Y-84315300D01*
D10*
X143780336Y-102256000D02*
X143564664Y-102256000D01*
X143780336Y-102976000D02*
X143564664Y-102976000D01*
X138722859Y-107631500D02*
X139030141Y-107631500D01*
X138722859Y-106871500D02*
X139030141Y-106871500D01*
X139396500Y-103322000D02*
X137936500Y-103322000D01*
X139396500Y-106482000D02*
X137236500Y-106482000D01*
X139396500Y-106482000D02*
X139396500Y-105552000D01*
X139396500Y-103322000D02*
X139396500Y-104252000D01*
X144145000Y-109347000D02*
X142240000Y-109347000D01*
X140716000Y-109347000D02*
X140589000Y-109347000D01*
X140589000Y-109347000D02*
X140589000Y-104013000D01*
X140589000Y-104013000D02*
X140716000Y-104013000D01*
X142240000Y-104013000D02*
X144653000Y-104013000D01*
X144653000Y-104013000D02*
X145796000Y-105156000D01*
X145796000Y-105156000D02*
X145796000Y-109347000D01*
X145796000Y-109347000D02*
X145669000Y-109347000D01*
D11*
X138347739Y-84383268D02*
X135359155Y-84121801D01*
X137136703Y-81014902D02*
X135642411Y-80884168D01*
D10*
X140928851Y-83643977D02*
X141208941Y-83668482D01*
X140839953Y-84660096D02*
X141120043Y-84684601D01*
X128217445Y-73362263D02*
X128190663Y-73668376D01*
X127460337Y-73296024D02*
X127433555Y-73602137D01*
X129383019Y-73658067D02*
X129303489Y-73954879D01*
X128648915Y-73461365D02*
X128569385Y-73758177D01*
X128551113Y-71188857D02*
X128759436Y-71244677D01*
X128364764Y-71884323D02*
X128573087Y-71940143D01*
X130119624Y-73613931D02*
X130175444Y-73405608D01*
X130815090Y-73800280D02*
X130870910Y-73591957D01*
X139329894Y-84998106D02*
X139049804Y-84973601D01*
X139240996Y-86014225D02*
X138960906Y-85989720D01*
X133065502Y-80411955D02*
X133371615Y-80438737D01*
X133131741Y-79654847D02*
X133437854Y-79681629D01*
X135036312Y-80887230D02*
X135063094Y-80581117D01*
X134279204Y-80820991D02*
X134305986Y-80514878D01*
X133029137Y-81404882D02*
X133335250Y-81431664D01*
X133095376Y-80647774D02*
X133401489Y-80674556D01*
X133163545Y-83264739D02*
X132883455Y-83240234D01*
X133074647Y-84280858D02*
X132794557Y-84256353D01*
X137966199Y-79603483D02*
X137686109Y-79578978D01*
X137877301Y-80619602D02*
X137597211Y-80595097D01*
X140745697Y-82047777D02*
X140770202Y-81767687D01*
X139729578Y-81958879D02*
X139754083Y-81678789D01*
X132960345Y-81766139D02*
X132680255Y-81741634D01*
X132871447Y-82782258D02*
X132591357Y-82757753D01*
X122874936Y-72005244D02*
X121954127Y-72434624D01*
X123561944Y-73478538D02*
X122874936Y-72005244D01*
X122641135Y-73907918D02*
X123561944Y-73478538D01*
X121954127Y-72434624D02*
X122641135Y-73907918D01*
D11*
X119010694Y-78869414D02*
X118788819Y-78393602D01*
X122907817Y-77052155D02*
X122685942Y-76576344D01*
X121090558Y-73155032D02*
X121312433Y-73630844D01*
X117193435Y-74972291D02*
X117415310Y-75448102D01*
X122907817Y-77052155D02*
X122432005Y-77274030D01*
X121090558Y-73155032D02*
X120614747Y-73376907D01*
X119010694Y-78869414D02*
X119486505Y-78647539D01*
D10*
X124216064Y-82144965D02*
X123998783Y-81927684D01*
X124753465Y-81607564D02*
X124536184Y-81390283D01*
X123494816Y-82884217D02*
X123277535Y-82666936D01*
X124032217Y-82346816D02*
X123814936Y-82129535D01*
X124985217Y-75049189D02*
X125076364Y-75244654D01*
X124332676Y-75353474D02*
X124423823Y-75548939D01*
X123566984Y-75955364D02*
X123475837Y-75759899D01*
X124219525Y-75651079D02*
X124128378Y-75455614D01*
X123470055Y-74556614D02*
X123274590Y-74647761D01*
X123165770Y-73904073D02*
X122970305Y-73995220D01*
X117155759Y-79069672D02*
X117036935Y-78814855D01*
X118080193Y-78638601D02*
X117961369Y-78383784D01*
X143405410Y-75837597D02*
X142258597Y-75034590D01*
X142258597Y-75034590D02*
X141455590Y-76181403D01*
X141455590Y-76181403D02*
X142602403Y-76984410D01*
X142602403Y-76984410D02*
X143405410Y-75837597D01*
D14*
X139300379Y-74054650D02*
G75*
G03*
X139300379Y-74054650I-100000J0D01*
G01*
D10*
X139016364Y-77879848D02*
X138719552Y-77800318D01*
X139213066Y-77145744D02*
X138916254Y-77066214D01*
X139218145Y-76097983D02*
X139514957Y-76177513D01*
X139021443Y-76832087D02*
X139318255Y-76911617D01*
X132959257Y-72967274D02*
X133230837Y-73040044D01*
X132695261Y-73952518D02*
X132966841Y-74025288D01*
X133842041Y-71691680D02*
X134113621Y-71764450D01*
X133578045Y-72676924D02*
X133849625Y-72749694D01*
X133963854Y-77428817D02*
X134207346Y-77288237D01*
X134473854Y-78312163D02*
X134717346Y-78171583D01*
X133457611Y-76500949D02*
X133644389Y-76393113D01*
X133817611Y-77124487D02*
X134004389Y-77016651D01*
X111977969Y-111272318D02*
X111511948Y-111827700D01*
X111511948Y-111827700D02*
X112067331Y-112293721D01*
X118400031Y-111739682D02*
X118866052Y-111184300D01*
X118866052Y-111184300D02*
X118310669Y-110718279D01*
X115976721Y-114627669D02*
X115510700Y-115183052D01*
X115510700Y-115183052D02*
X114955318Y-114717031D01*
X114401279Y-108384331D02*
X114867300Y-107828948D01*
X110600846Y-109056367D02*
X110836238Y-109253884D01*
X110112328Y-109638560D02*
X110347720Y-109836077D01*
X116580506Y-104486479D02*
X116527147Y-104789093D01*
X115832053Y-104354507D02*
X115778694Y-104657121D01*
X117786667Y-104695427D02*
X117733308Y-104998041D01*
X117038214Y-104563455D02*
X116984855Y-104866069D01*
X130491434Y-111216851D02*
X127792637Y-110493711D01*
X130491434Y-111216851D02*
X129801163Y-113792975D01*
X129187800Y-113628625D02*
X129801163Y-113792975D01*
X129187800Y-113628625D02*
X127347079Y-120498290D01*
X127347079Y-120498290D02*
X118146636Y-118033038D01*
X119987357Y-111163374D02*
X118146636Y-118033038D01*
X119373994Y-110999024D02*
X119987357Y-111163374D01*
X120064264Y-108422899D02*
X119373994Y-110999024D01*
X122763061Y-109146040D02*
X120064264Y-108422899D01*
X149885400Y-94335600D02*
X151511000Y-94335600D01*
X151511000Y-94335600D02*
X151511000Y-93319600D01*
X151511000Y-93319600D02*
X149885400Y-93319600D01*
X149885400Y-93319600D02*
X149885400Y-94335600D01*
X151951636Y-92485800D02*
X151735964Y-92485800D01*
X151951636Y-91765800D02*
X151735964Y-91765800D01*
D11*
X127821466Y-108165066D02*
X127821466Y-107465066D01*
X127554800Y-107465066D01*
X127488133Y-107498400D01*
X127454800Y-107531733D01*
X127421466Y-107598400D01*
X127421466Y-107698400D01*
X127454800Y-107765066D01*
X127488133Y-107798400D01*
X127554800Y-107831733D01*
X127821466Y-107831733D01*
X127154800Y-107531733D02*
X127121466Y-107498400D01*
X127054800Y-107465066D01*
X126888133Y-107465066D01*
X126821466Y-107498400D01*
X126788133Y-107531733D01*
X126754800Y-107598400D01*
X126754800Y-107665066D01*
X126788133Y-107765066D01*
X127188133Y-108165066D01*
X126754800Y-108165066D01*
X124370266Y-108093733D02*
X123670266Y-108093733D01*
X123670266Y-108360400D01*
X123703600Y-108427066D01*
X123736933Y-108460400D01*
X123803600Y-108493733D01*
X123903600Y-108493733D01*
X123970266Y-108460400D01*
X124003600Y-108427066D01*
X124036933Y-108360400D01*
X124036933Y-108093733D01*
X124370266Y-109160400D02*
X124370266Y-108760400D01*
X124370266Y-108960400D02*
X123670266Y-108960400D01*
X123770266Y-108893733D01*
X123836933Y-108827066D01*
X123870266Y-108760400D01*
X121979466Y-107961866D02*
X121979466Y-107261866D01*
X121712800Y-107261866D01*
X121646133Y-107295200D01*
X121612800Y-107328533D01*
X121579466Y-107395200D01*
X121579466Y-107495200D01*
X121612800Y-107561866D01*
X121646133Y-107595200D01*
X121712800Y-107628533D01*
X121979466Y-107628533D01*
X120979466Y-107495200D02*
X120979466Y-107961866D01*
X121146133Y-107228533D02*
X121312800Y-107728533D01*
X120879466Y-107728533D01*
X130313866Y-108042933D02*
X129613866Y-108042933D01*
X129613866Y-108309600D01*
X129647200Y-108376266D01*
X129680533Y-108409600D01*
X129747200Y-108442933D01*
X129847200Y-108442933D01*
X129913866Y-108409600D01*
X129947200Y-108376266D01*
X129980533Y-108309600D01*
X129980533Y-108042933D01*
X129613866Y-108676266D02*
X129613866Y-109109600D01*
X129880533Y-108876266D01*
X129880533Y-108976266D01*
X129913866Y-109042933D01*
X129947200Y-109076266D01*
X130013866Y-109109600D01*
X130180533Y-109109600D01*
X130247200Y-109076266D01*
X130280533Y-109042933D01*
X130313866Y-108976266D01*
X130313866Y-108776266D01*
X130280533Y-108709600D01*
X130247200Y-108676266D01*
X133793600Y-101357866D02*
X133793600Y-100657866D01*
X133526933Y-100657866D01*
X133460266Y-100691200D01*
X133426933Y-100724533D01*
X133393600Y-100791200D01*
X133393600Y-100891200D01*
X133426933Y-100957866D01*
X133460266Y-100991200D01*
X133526933Y-101024533D01*
X133793600Y-101024533D01*
X132726933Y-101357866D02*
X133126933Y-101357866D01*
X132926933Y-101357866D02*
X132926933Y-100657866D01*
X132993600Y-100757866D01*
X133060266Y-100824533D01*
X133126933Y-100857866D01*
X132493600Y-100657866D02*
X132026933Y-100657866D01*
X132326933Y-101357866D01*
X121076498Y-105513856D02*
X121198051Y-104824491D01*
X120935436Y-104778185D01*
X120863994Y-104799435D01*
X120825379Y-104826474D01*
X120780975Y-104886339D01*
X120763610Y-104984820D01*
X120784861Y-105056262D01*
X120811899Y-105094877D01*
X120871765Y-105139281D01*
X121134380Y-105185587D01*
X120026036Y-105328632D02*
X120419959Y-105398091D01*
X120222997Y-105363361D02*
X120344551Y-104673996D01*
X120392840Y-104784053D01*
X120446918Y-104861283D01*
X120506783Y-104905687D01*
X119556705Y-104535077D02*
X119688013Y-104558230D01*
X119747878Y-104602634D01*
X119774917Y-104641249D01*
X119823206Y-104751306D01*
X119832880Y-104888402D01*
X119786574Y-105151018D01*
X119742170Y-105210883D01*
X119703555Y-105237922D01*
X119632113Y-105259172D01*
X119500805Y-105236019D01*
X119440940Y-105191616D01*
X119413901Y-105153000D01*
X119392650Y-105081558D01*
X119421592Y-104917424D01*
X119465995Y-104857558D01*
X119504611Y-104830520D01*
X119576053Y-104809269D01*
X119707360Y-104832422D01*
X119767226Y-104876826D01*
X119794265Y-104915441D01*
X119815515Y-104986883D01*
X136113298Y-90680256D02*
X136234851Y-89990891D01*
X135972236Y-89944585D01*
X135900794Y-89965835D01*
X135862179Y-89992874D01*
X135817775Y-90052739D01*
X135800410Y-90151220D01*
X135821661Y-90222662D01*
X135848699Y-90261277D01*
X135908565Y-90305681D01*
X136171180Y-90351987D01*
X135566736Y-89940779D02*
X135539698Y-89902164D01*
X135479832Y-89857761D01*
X135315697Y-89828819D01*
X135244255Y-89850070D01*
X135205640Y-89877108D01*
X135161237Y-89936974D01*
X135149660Y-90002628D01*
X135165122Y-90106897D01*
X135489586Y-90570279D01*
X135062836Y-90495032D01*
X134406297Y-90379266D02*
X134800220Y-90448725D01*
X134603259Y-90413996D02*
X134724813Y-89724630D01*
X134773102Y-89834688D01*
X134827179Y-89911918D01*
X134887045Y-89956321D01*
X135012800Y-103796266D02*
X135012800Y-103096266D01*
X134746133Y-103096266D01*
X134679466Y-103129600D01*
X134646133Y-103162933D01*
X134612800Y-103229600D01*
X134612800Y-103329600D01*
X134646133Y-103396266D01*
X134679466Y-103429600D01*
X134746133Y-103462933D01*
X135012800Y-103462933D01*
X134346133Y-103162933D02*
X134312800Y-103129600D01*
X134246133Y-103096266D01*
X134079466Y-103096266D01*
X134012800Y-103129600D01*
X133979466Y-103162933D01*
X133946133Y-103229600D01*
X133946133Y-103296266D01*
X133979466Y-103396266D01*
X134379466Y-103796266D01*
X133946133Y-103796266D01*
X133512800Y-103096266D02*
X133446133Y-103096266D01*
X133379466Y-103129600D01*
X133346133Y-103162933D01*
X133312800Y-103229600D01*
X133279466Y-103362933D01*
X133279466Y-103529600D01*
X133312800Y-103662933D01*
X133346133Y-103729600D01*
X133379466Y-103762933D01*
X133446133Y-103796266D01*
X133512800Y-103796266D01*
X133579466Y-103762933D01*
X133612800Y-103729600D01*
X133646133Y-103662933D01*
X133679466Y-103529600D01*
X133679466Y-103362933D01*
X133646133Y-103229600D01*
X133612800Y-103162933D01*
X133579466Y-103129600D01*
X133512800Y-103096266D01*
X130068098Y-106987056D02*
X130189651Y-106297691D01*
X129927036Y-106251385D01*
X129855594Y-106272635D01*
X129816979Y-106299674D01*
X129772575Y-106359539D01*
X129755210Y-106458020D01*
X129776461Y-106529462D01*
X129803499Y-106568077D01*
X129863365Y-106612481D01*
X130125980Y-106658787D01*
X129017636Y-106801832D02*
X129411559Y-106871291D01*
X129214597Y-106836561D02*
X129336151Y-106147196D01*
X129384440Y-106257253D01*
X129438518Y-106334483D01*
X129498383Y-106378887D01*
X128515478Y-106002489D02*
X128843747Y-106060372D01*
X128818691Y-106394429D01*
X128791653Y-106355814D01*
X128731787Y-106311410D01*
X128567653Y-106282469D01*
X128496211Y-106303720D01*
X128457595Y-106330758D01*
X128413192Y-106390624D01*
X128384250Y-106554758D01*
X128405501Y-106626200D01*
X128432540Y-106664816D01*
X128492405Y-106709219D01*
X128656540Y-106738161D01*
X128727982Y-106716910D01*
X128766597Y-106689871D01*
X126461298Y-107952256D02*
X126582851Y-107262891D01*
X126320236Y-107216585D01*
X126248794Y-107237835D01*
X126210179Y-107264874D01*
X126165775Y-107324739D01*
X126148410Y-107423220D01*
X126169661Y-107494662D01*
X126196699Y-107533277D01*
X126256565Y-107577681D01*
X126519180Y-107623987D01*
X125410836Y-107767032D02*
X125804759Y-107836491D01*
X125607797Y-107801761D02*
X125729351Y-107112396D01*
X125777640Y-107222453D01*
X125831718Y-107299683D01*
X125891583Y-107344087D01*
X124900987Y-107203266D02*
X124819951Y-107662843D01*
X125111428Y-106969592D02*
X125188738Y-107490937D01*
X124761988Y-107415689D01*
X124326588Y-107785640D02*
X124676588Y-107179422D01*
X124445648Y-107046089D01*
X124371246Y-107041623D01*
X124325712Y-107053824D01*
X124263511Y-107094892D01*
X124213511Y-107181495D01*
X124209045Y-107255896D01*
X124221246Y-107301431D01*
X124262314Y-107363631D01*
X124493254Y-107496965D01*
X123402827Y-107252307D02*
X123749237Y-107452307D01*
X123576032Y-107352307D02*
X123926032Y-106746089D01*
X123933767Y-106866025D01*
X123958169Y-106957093D01*
X123999237Y-107019294D01*
X123550755Y-106529422D02*
X123175477Y-106312755D01*
X123244216Y-106660362D01*
X123157614Y-106610362D01*
X123083212Y-106605896D01*
X123037678Y-106618097D01*
X122975477Y-106659166D01*
X122892144Y-106803503D01*
X122887678Y-106877905D01*
X122899879Y-106923439D01*
X122940947Y-106985640D01*
X123114152Y-107085640D01*
X123188554Y-107090106D01*
X123234088Y-107077905D01*
X136632054Y-94083241D02*
X136282054Y-93477023D01*
X136051114Y-93610356D01*
X136010046Y-93672557D01*
X135997845Y-93718091D01*
X136002311Y-93792493D01*
X136052311Y-93879096D01*
X136114512Y-93920164D01*
X136160046Y-93932365D01*
X136234448Y-93927899D01*
X136465388Y-93794566D01*
X135708294Y-94616574D02*
X136054704Y-94416574D01*
X135881499Y-94516574D02*
X135531499Y-93910356D01*
X135639234Y-93963626D01*
X135730302Y-93988027D01*
X135804704Y-93983562D01*
X135419619Y-94783241D02*
X135304149Y-94849908D01*
X135229747Y-94854373D01*
X135184213Y-94842173D01*
X135076478Y-94788903D01*
X134980944Y-94690100D01*
X134847610Y-94459160D01*
X134843145Y-94384758D01*
X134855345Y-94339224D01*
X134896414Y-94277023D01*
X135011884Y-94210356D01*
X135086286Y-94205891D01*
X135131820Y-94218091D01*
X135194021Y-94259160D01*
X135277354Y-94403497D01*
X135281820Y-94477899D01*
X135269619Y-94523433D01*
X135228551Y-94585634D01*
X135113080Y-94652301D01*
X135038679Y-94656767D01*
X134993145Y-94644566D01*
X134930944Y-94603497D01*
X136020075Y-95515854D02*
X135898521Y-94826489D01*
X135635906Y-94872795D01*
X135576040Y-94917199D01*
X135549001Y-94955814D01*
X135527751Y-95027256D01*
X135545116Y-95125737D01*
X135589519Y-95185602D01*
X135628134Y-95212641D01*
X135699577Y-95233891D01*
X135962192Y-95187585D01*
X134969613Y-95701079D02*
X135363536Y-95631620D01*
X135166575Y-95666349D02*
X135045021Y-94976984D01*
X135128040Y-95063888D01*
X135205270Y-95117966D01*
X135276712Y-95139216D01*
X134506231Y-95376615D02*
X134566096Y-95332212D01*
X134593135Y-95293597D01*
X134614385Y-95222154D01*
X134608597Y-95189328D01*
X134564194Y-95129462D01*
X134525578Y-95102423D01*
X134454136Y-95081173D01*
X134322829Y-95104326D01*
X134262963Y-95148729D01*
X134235924Y-95187345D01*
X134214674Y-95258787D01*
X134220462Y-95291614D01*
X134264866Y-95351479D01*
X134303481Y-95378518D01*
X134374923Y-95399768D01*
X134506231Y-95376615D01*
X134577673Y-95397866D01*
X134616288Y-95424904D01*
X134660691Y-95484770D01*
X134683845Y-95616078D01*
X134662594Y-95687520D01*
X134635556Y-95726135D01*
X134575690Y-95770538D01*
X134444382Y-95793691D01*
X134372940Y-95772441D01*
X134334325Y-95745402D01*
X134289921Y-95685537D01*
X134266768Y-95554229D01*
X134288019Y-95482787D01*
X134315057Y-95444172D01*
X134374923Y-95399768D01*
X113818951Y-106232411D02*
X113282720Y-105782460D01*
X113111310Y-105986738D01*
X113093992Y-106059234D01*
X113098100Y-106106195D01*
X113127744Y-106174583D01*
X113204348Y-106238861D01*
X113276844Y-106256179D01*
X113323805Y-106252070D01*
X113392193Y-106222427D01*
X113563603Y-106018149D01*
X113133311Y-107049525D02*
X113390426Y-106743107D01*
X113261868Y-106896316D02*
X112725637Y-106446365D01*
X112845094Y-106459574D01*
X112939016Y-106451357D01*
X113007403Y-106421714D01*
X112704786Y-107560222D02*
X112961901Y-107253804D01*
X112833343Y-107407013D02*
X112297112Y-106957061D01*
X112416569Y-106970270D01*
X112510491Y-106962053D01*
X112578878Y-106932410D01*
X118049587Y-107849950D02*
X118499538Y-107313719D01*
X118295260Y-107142309D01*
X118222764Y-107124991D01*
X118175803Y-107129099D01*
X118107415Y-107158743D01*
X118043137Y-107235347D01*
X118025819Y-107307843D01*
X118029928Y-107354804D01*
X118059571Y-107423192D01*
X118263849Y-107594602D01*
X117232473Y-107164310D02*
X117538891Y-107421425D01*
X117385682Y-107292867D02*
X117835633Y-106756636D01*
X117822424Y-106876093D01*
X117830641Y-106970015D01*
X117860284Y-107038402D01*
X117350472Y-106349537D02*
X117299402Y-106306685D01*
X117226906Y-106289367D01*
X117179945Y-106293476D01*
X117111558Y-106323119D01*
X117000318Y-106403832D01*
X116893187Y-106531506D01*
X116833016Y-106655072D01*
X116815699Y-106727567D01*
X116819807Y-106774528D01*
X116849451Y-106842916D01*
X116900520Y-106885768D01*
X116973016Y-106903086D01*
X117019977Y-106898977D01*
X117088364Y-106869334D01*
X117199604Y-106788621D01*
X117306736Y-106660947D01*
X117366906Y-106537381D01*
X117384223Y-106464886D01*
X117380115Y-106417925D01*
X117350472Y-106349537D01*
X140397666Y-101019833D02*
X139697666Y-101019833D01*
X139697666Y-101186500D01*
X139731000Y-101286500D01*
X139797666Y-101353166D01*
X139864333Y-101386500D01*
X139997666Y-101419833D01*
X140097666Y-101419833D01*
X140231000Y-101386500D01*
X140297666Y-101353166D01*
X140364333Y-101286500D01*
X140397666Y-101186500D01*
X140397666Y-101019833D01*
X139997666Y-101819833D02*
X139964333Y-101753166D01*
X139931000Y-101719833D01*
X139864333Y-101686500D01*
X139831000Y-101686500D01*
X139764333Y-101719833D01*
X139731000Y-101753166D01*
X139697666Y-101819833D01*
X139697666Y-101953166D01*
X139731000Y-102019833D01*
X139764333Y-102053166D01*
X139831000Y-102086500D01*
X139864333Y-102086500D01*
X139931000Y-102053166D01*
X139964333Y-102019833D01*
X139997666Y-101953166D01*
X139997666Y-101819833D01*
X140031000Y-101753166D01*
X140064333Y-101719833D01*
X140131000Y-101686500D01*
X140264333Y-101686500D01*
X140331000Y-101719833D01*
X140364333Y-101753166D01*
X140397666Y-101819833D01*
X140397666Y-101953166D01*
X140364333Y-102019833D01*
X140331000Y-102053166D01*
X140264333Y-102086500D01*
X140131000Y-102086500D01*
X140064333Y-102053166D01*
X140031000Y-102019833D01*
X139997666Y-101953166D01*
X127770666Y-81977666D02*
X127770666Y-81277666D01*
X127504000Y-81277666D01*
X127437333Y-81311000D01*
X127404000Y-81344333D01*
X127370666Y-81411000D01*
X127370666Y-81511000D01*
X127404000Y-81577666D01*
X127437333Y-81611000D01*
X127504000Y-81644333D01*
X127770666Y-81644333D01*
X127037333Y-81977666D02*
X126904000Y-81977666D01*
X126837333Y-81944333D01*
X126804000Y-81911000D01*
X126737333Y-81811000D01*
X126704000Y-81677666D01*
X126704000Y-81411000D01*
X126737333Y-81344333D01*
X126770666Y-81311000D01*
X126837333Y-81277666D01*
X126970666Y-81277666D01*
X127037333Y-81311000D01*
X127070666Y-81344333D01*
X127104000Y-81411000D01*
X127104000Y-81577666D01*
X127070666Y-81644333D01*
X127037333Y-81677666D01*
X126970666Y-81711000D01*
X126837333Y-81711000D01*
X126770666Y-81677666D01*
X126737333Y-81644333D01*
X126704000Y-81577666D01*
X129475666Y-84065333D02*
X128775666Y-84065333D01*
X128775666Y-84332000D01*
X128809000Y-84398666D01*
X128842333Y-84432000D01*
X128909000Y-84465333D01*
X129009000Y-84465333D01*
X129075666Y-84432000D01*
X129109000Y-84398666D01*
X129142333Y-84332000D01*
X129142333Y-84065333D01*
X129075666Y-84865333D02*
X129042333Y-84798666D01*
X129009000Y-84765333D01*
X128942333Y-84732000D01*
X128909000Y-84732000D01*
X128842333Y-84765333D01*
X128809000Y-84798666D01*
X128775666Y-84865333D01*
X128775666Y-84998666D01*
X128809000Y-85065333D01*
X128842333Y-85098666D01*
X128909000Y-85132000D01*
X128942333Y-85132000D01*
X129009000Y-85098666D01*
X129042333Y-85065333D01*
X129075666Y-84998666D01*
X129075666Y-84865333D01*
X129109000Y-84798666D01*
X129142333Y-84765333D01*
X129209000Y-84732000D01*
X129342333Y-84732000D01*
X129409000Y-84765333D01*
X129442333Y-84798666D01*
X129475666Y-84865333D01*
X129475666Y-84998666D01*
X129442333Y-85065333D01*
X129409000Y-85098666D01*
X129342333Y-85132000D01*
X129209000Y-85132000D01*
X129142333Y-85098666D01*
X129109000Y-85065333D01*
X129075666Y-84998666D01*
X127707828Y-85809074D02*
X127829382Y-85119708D01*
X127566767Y-85073402D01*
X127495324Y-85094652D01*
X127456709Y-85121691D01*
X127412306Y-85181557D01*
X127394941Y-85280037D01*
X127416191Y-85351479D01*
X127443230Y-85390095D01*
X127503096Y-85434498D01*
X127765711Y-85480804D01*
X127205670Y-85009731D02*
X126746093Y-84928695D01*
X126919982Y-85670155D01*
X123389828Y-84031074D02*
X123511382Y-83341708D01*
X123248767Y-83295402D01*
X123177324Y-83316652D01*
X123138709Y-83343691D01*
X123094306Y-83403557D01*
X123076941Y-83502037D01*
X123098191Y-83573479D01*
X123125230Y-83612095D01*
X123185096Y-83656498D01*
X123447711Y-83702804D01*
X122526574Y-83168060D02*
X122657882Y-83191213D01*
X122717747Y-83235616D01*
X122744786Y-83274232D01*
X122793075Y-83384289D01*
X122802749Y-83521385D01*
X122756443Y-83784000D01*
X122712039Y-83843866D01*
X122673424Y-83870905D01*
X122601982Y-83892155D01*
X122470674Y-83869002D01*
X122410809Y-83824598D01*
X122383770Y-83785983D01*
X122362520Y-83714541D01*
X122391461Y-83550406D01*
X122435865Y-83490541D01*
X122474480Y-83463502D01*
X122545922Y-83442252D01*
X122677230Y-83465405D01*
X122737095Y-83509808D01*
X122764134Y-83548424D01*
X122785384Y-83619866D01*
X133549166Y-106107666D02*
X133549166Y-105407666D01*
X133282500Y-105407666D01*
X133215833Y-105441000D01*
X133182500Y-105474333D01*
X133149166Y-105541000D01*
X133149166Y-105641000D01*
X133182500Y-105707666D01*
X133215833Y-105741000D01*
X133282500Y-105774333D01*
X133549166Y-105774333D01*
X132515833Y-105407666D02*
X132849166Y-105407666D01*
X132882500Y-105741000D01*
X132849166Y-105707666D01*
X132782500Y-105674333D01*
X132615833Y-105674333D01*
X132549166Y-105707666D01*
X132515833Y-105741000D01*
X132482500Y-105807666D01*
X132482500Y-105974333D01*
X132515833Y-106041000D01*
X132549166Y-106074333D01*
X132615833Y-106107666D01*
X132782500Y-106107666D01*
X132849166Y-106074333D01*
X132882500Y-106041000D01*
X120600921Y-80885974D02*
X120600921Y-80933115D01*
X120648061Y-81027396D01*
X120695202Y-81074536D01*
X120789483Y-81121677D01*
X120883764Y-81121677D01*
X120954474Y-81098106D01*
X121072325Y-81027396D01*
X121143036Y-80956685D01*
X121213747Y-80838834D01*
X121237317Y-80768123D01*
X121237317Y-80673842D01*
X121190177Y-80579561D01*
X121143036Y-80532421D01*
X121048755Y-80485280D01*
X121001615Y-80485280D01*
X120883764Y-80273148D02*
X120577351Y-79966735D01*
X120553780Y-80320289D01*
X120483070Y-80249578D01*
X120412359Y-80226008D01*
X120365219Y-80226008D01*
X120294508Y-80249578D01*
X120176657Y-80367429D01*
X120153087Y-80438140D01*
X120153087Y-80485280D01*
X120176657Y-80555991D01*
X120318078Y-80697412D01*
X120388789Y-80720983D01*
X120435929Y-80720983D01*
X120341648Y-79825314D02*
X120341648Y-79778174D01*
X120318078Y-79707463D01*
X120200227Y-79589612D01*
X120129516Y-79566042D01*
X120082376Y-79566042D01*
X120011665Y-79589612D01*
X119964525Y-79636752D01*
X119917384Y-79731033D01*
X119917384Y-80296719D01*
X119610971Y-79990306D01*
X120900000Y-82750833D02*
X120933333Y-82717500D01*
X120966666Y-82617500D01*
X120966666Y-82550833D01*
X120933333Y-82450833D01*
X120866666Y-82384166D01*
X120800000Y-82350833D01*
X120666666Y-82317500D01*
X120566666Y-82317500D01*
X120433333Y-82350833D01*
X120366666Y-82384166D01*
X120300000Y-82450833D01*
X120266666Y-82550833D01*
X120266666Y-82617500D01*
X120300000Y-82717500D01*
X120333333Y-82750833D01*
X120266666Y-82984166D02*
X120266666Y-83450833D01*
X120966666Y-83150833D01*
X117761326Y-82395036D02*
X117749126Y-82440570D01*
X117770258Y-82543839D01*
X117803591Y-82601574D01*
X117882459Y-82671510D01*
X117973527Y-82695912D01*
X118047929Y-82691446D01*
X118180066Y-82653647D01*
X118266668Y-82603647D01*
X118365472Y-82508113D01*
X118406540Y-82445912D01*
X118430942Y-82354843D01*
X118409809Y-82251574D01*
X118376476Y-82193839D01*
X118297608Y-82123903D01*
X118252074Y-82111702D01*
X118193143Y-81876297D02*
X117976476Y-81501019D01*
X117862202Y-81836425D01*
X117812202Y-81749822D01*
X117750002Y-81708754D01*
X117704467Y-81696553D01*
X117630066Y-81701019D01*
X117485728Y-81784352D01*
X117444660Y-81846553D01*
X117432459Y-81892087D01*
X117436925Y-81966489D01*
X117536925Y-82139694D01*
X117599126Y-82180762D01*
X117644660Y-82192963D01*
X137580242Y-115065954D02*
X137913258Y-115080493D01*
X137943792Y-114381160D01*
X137444268Y-114359350D02*
X137011347Y-114340448D01*
X137232826Y-114617039D01*
X137132922Y-114612677D01*
X137064864Y-114643071D01*
X137030109Y-114674918D01*
X136993899Y-114740068D01*
X136986629Y-114906576D01*
X137017023Y-114974633D01*
X137048871Y-115009388D01*
X137114020Y-115045598D01*
X137313829Y-115054322D01*
X137381887Y-115023928D01*
X137416642Y-114992081D01*
X139733655Y-114395261D02*
X139399644Y-113780089D01*
X139253175Y-113859615D01*
X139181198Y-113936625D01*
X139154421Y-114027023D01*
X139156938Y-114101516D01*
X139191265Y-114234597D01*
X139238981Y-114322479D01*
X139331896Y-114423749D01*
X139393000Y-114466432D01*
X139483399Y-114493209D01*
X139587186Y-114474787D01*
X139733655Y-114395261D01*
X138796250Y-114904230D02*
X139147777Y-114713366D01*
X138972014Y-114808798D02*
X138638003Y-114193626D01*
X138744306Y-114249697D01*
X138834705Y-114276475D01*
X138909198Y-114273958D01*
X136362896Y-109508661D02*
X136407854Y-109522837D01*
X136511947Y-109506229D01*
X136571081Y-109475446D01*
X136644390Y-109399704D01*
X136672741Y-109309786D01*
X136671525Y-109235261D01*
X136639526Y-109101601D01*
X136593351Y-109012900D01*
X136502217Y-108910023D01*
X136441867Y-108866281D01*
X136351950Y-108837930D01*
X136247857Y-108854538D01*
X136188723Y-108885321D01*
X136115413Y-108961063D01*
X136101238Y-109006022D01*
X135802338Y-109875628D02*
X136157143Y-109690928D01*
X135979740Y-109783278D02*
X135656516Y-109162370D01*
X135761825Y-109220288D01*
X135851743Y-109248639D01*
X135926268Y-109247423D01*
X135094743Y-109454811D02*
X135035609Y-109485595D01*
X134991866Y-109545945D01*
X134977691Y-109590903D01*
X134978907Y-109665429D01*
X135010907Y-109799089D01*
X135087865Y-109946924D01*
X135178998Y-110049800D01*
X135239348Y-110093543D01*
X135284307Y-110107718D01*
X135358833Y-110106502D01*
X135417967Y-110075719D01*
X135461709Y-110015369D01*
X135475885Y-109970410D01*
X135474668Y-109895884D01*
X135442669Y-109762225D01*
X135365711Y-109614389D01*
X135274577Y-109511513D01*
X135214227Y-109467770D01*
X135169268Y-109453595D01*
X135094743Y-109454811D01*
X130869791Y-113870825D02*
X130895119Y-113910583D01*
X130985534Y-113964770D01*
X131050621Y-113979199D01*
X131155465Y-113968300D01*
X131234981Y-113917643D01*
X131281953Y-113859771D01*
X131343355Y-113736813D01*
X131364999Y-113639183D01*
X131361314Y-113501796D01*
X131343200Y-113429495D01*
X131292543Y-113349979D01*
X131202128Y-113295792D01*
X131137042Y-113281363D01*
X131032198Y-113292262D01*
X130992440Y-113317590D01*
X130732094Y-113259873D02*
X130706766Y-113220115D01*
X130648894Y-113173143D01*
X130486178Y-113137070D01*
X130413877Y-113155183D01*
X130374119Y-113180512D01*
X130327147Y-113238384D01*
X130312717Y-113303470D01*
X130323617Y-113408314D01*
X130627559Y-113885409D01*
X130204497Y-113791618D01*
X133877902Y-91000604D02*
X134435960Y-91099004D01*
X134495826Y-91143408D01*
X134522864Y-91182023D01*
X134544115Y-91253465D01*
X134520961Y-91384773D01*
X134476558Y-91444638D01*
X134437943Y-91471677D01*
X134366501Y-91492927D01*
X133808443Y-91394527D01*
X134376255Y-92205446D02*
X134445714Y-91811523D01*
X134410984Y-92008484D02*
X133721619Y-91886931D01*
X133831676Y-91838642D01*
X133908907Y-91784564D01*
X133953310Y-91724699D01*
X135374800Y-89505600D02*
X135408133Y-89538933D01*
X135508133Y-89572266D01*
X135574800Y-89572266D01*
X135674800Y-89538933D01*
X135741466Y-89472266D01*
X135774800Y-89405600D01*
X135808133Y-89272266D01*
X135808133Y-89172266D01*
X135774800Y-89038933D01*
X135741466Y-88972266D01*
X135674800Y-88905600D01*
X135574800Y-88872266D01*
X135508133Y-88872266D01*
X135408133Y-88905600D01*
X135374800Y-88938933D01*
X135141466Y-88872266D02*
X134708133Y-88872266D01*
X134941466Y-89138933D01*
X134841466Y-89138933D01*
X134774800Y-89172266D01*
X134741466Y-89205600D01*
X134708133Y-89272266D01*
X134708133Y-89438933D01*
X134741466Y-89505600D01*
X134774800Y-89538933D01*
X134841466Y-89572266D01*
X135041466Y-89572266D01*
X135108133Y-89538933D01*
X135141466Y-89505600D01*
X134041466Y-89572266D02*
X134441466Y-89572266D01*
X134241466Y-89572266D02*
X134241466Y-88872266D01*
X134308133Y-88972266D01*
X134374800Y-89038933D01*
X134441466Y-89072266D01*
X150868800Y-86676666D02*
X151102133Y-86343333D01*
X151268800Y-86676666D02*
X151268800Y-85976666D01*
X151002133Y-85976666D01*
X150935466Y-86010000D01*
X150902133Y-86043333D01*
X150868800Y-86110000D01*
X150868800Y-86210000D01*
X150902133Y-86276666D01*
X150935466Y-86310000D01*
X151002133Y-86343333D01*
X151268800Y-86343333D01*
X150602133Y-86043333D02*
X150568800Y-86010000D01*
X150502133Y-85976666D01*
X150335466Y-85976666D01*
X150268800Y-86010000D01*
X150235466Y-86043333D01*
X150202133Y-86110000D01*
X150202133Y-86176666D01*
X150235466Y-86276666D01*
X150635466Y-86676666D01*
X150202133Y-86676666D01*
X149602133Y-85976666D02*
X149735466Y-85976666D01*
X149802133Y-86010000D01*
X149835466Y-86043333D01*
X149902133Y-86143333D01*
X149935466Y-86276666D01*
X149935466Y-86543333D01*
X149902133Y-86610000D01*
X149868800Y-86643333D01*
X149802133Y-86676666D01*
X149668800Y-86676666D01*
X149602133Y-86643333D01*
X149568800Y-86610000D01*
X149535466Y-86543333D01*
X149535466Y-86376666D01*
X149568800Y-86310000D01*
X149602133Y-86276666D01*
X149668800Y-86243333D01*
X149802133Y-86243333D01*
X149868800Y-86276666D01*
X149902133Y-86310000D01*
X149935466Y-86376666D01*
X149903600Y-83577866D02*
X150136933Y-83244533D01*
X150303600Y-83577866D02*
X150303600Y-82877866D01*
X150036933Y-82877866D01*
X149970266Y-82911200D01*
X149936933Y-82944533D01*
X149903600Y-83011200D01*
X149903600Y-83111200D01*
X149936933Y-83177866D01*
X149970266Y-83211200D01*
X150036933Y-83244533D01*
X150303600Y-83244533D01*
X149636933Y-82944533D02*
X149603600Y-82911200D01*
X149536933Y-82877866D01*
X149370266Y-82877866D01*
X149303600Y-82911200D01*
X149270266Y-82944533D01*
X149236933Y-83011200D01*
X149236933Y-83077866D01*
X149270266Y-83177866D01*
X149670266Y-83577866D01*
X149236933Y-83577866D01*
X148603600Y-82877866D02*
X148936933Y-82877866D01*
X148970266Y-83211200D01*
X148936933Y-83177866D01*
X148870266Y-83144533D01*
X148703600Y-83144533D01*
X148636933Y-83177866D01*
X148603600Y-83211200D01*
X148570266Y-83277866D01*
X148570266Y-83444533D01*
X148603600Y-83511200D01*
X148636933Y-83544533D01*
X148703600Y-83577866D01*
X148870266Y-83577866D01*
X148936933Y-83544533D01*
X148970266Y-83511200D01*
X133841597Y-95319025D02*
X133553846Y-95031353D01*
X133911056Y-94925101D02*
X133221691Y-94803548D01*
X133175385Y-95066163D01*
X133196635Y-95137605D01*
X133223674Y-95176220D01*
X133283539Y-95220624D01*
X133382020Y-95237989D01*
X133453462Y-95216738D01*
X133492077Y-95189700D01*
X133536481Y-95129834D01*
X133582787Y-94867219D01*
X133171579Y-95471663D02*
X133132964Y-95498701D01*
X133088561Y-95558567D01*
X133059619Y-95722702D01*
X133080870Y-95794144D01*
X133107908Y-95832759D01*
X133167774Y-95877162D01*
X133233428Y-95888739D01*
X133337697Y-95873277D01*
X133801079Y-95548813D01*
X133725832Y-95975563D01*
X133162066Y-96485412D02*
X133621643Y-96566448D01*
X132928392Y-96274971D02*
X133449737Y-96197661D01*
X133374489Y-96624411D01*
X139997600Y-100087866D02*
X140230933Y-99754533D01*
X140397600Y-100087866D02*
X140397600Y-99387866D01*
X140130933Y-99387866D01*
X140064266Y-99421200D01*
X140030933Y-99454533D01*
X139997600Y-99521200D01*
X139997600Y-99621200D01*
X140030933Y-99687866D01*
X140064266Y-99721200D01*
X140130933Y-99754533D01*
X140397600Y-99754533D01*
X139730933Y-99454533D02*
X139697600Y-99421200D01*
X139630933Y-99387866D01*
X139464266Y-99387866D01*
X139397600Y-99421200D01*
X139364266Y-99454533D01*
X139330933Y-99521200D01*
X139330933Y-99587866D01*
X139364266Y-99687866D01*
X139764266Y-100087866D01*
X139330933Y-100087866D01*
X139097600Y-99387866D02*
X138664266Y-99387866D01*
X138897600Y-99654533D01*
X138797600Y-99654533D01*
X138730933Y-99687866D01*
X138697600Y-99721200D01*
X138664266Y-99787866D01*
X138664266Y-99954533D01*
X138697600Y-100021200D01*
X138730933Y-100054533D01*
X138797600Y-100087866D01*
X138997600Y-100087866D01*
X139064266Y-100054533D01*
X139097600Y-100021200D01*
X137480666Y-100713333D02*
X137547333Y-100680000D01*
X137614000Y-100613333D01*
X137714000Y-100513333D01*
X137780666Y-100480000D01*
X137847333Y-100480000D01*
X137814000Y-100646666D02*
X137880666Y-100613333D01*
X137947333Y-100546666D01*
X137980666Y-100413333D01*
X137980666Y-100180000D01*
X137947333Y-100046666D01*
X137880666Y-99980000D01*
X137814000Y-99946666D01*
X137680666Y-99946666D01*
X137614000Y-99980000D01*
X137547333Y-100046666D01*
X137514000Y-100180000D01*
X137514000Y-100413333D01*
X137547333Y-100546666D01*
X137614000Y-100613333D01*
X137680666Y-100646666D01*
X137814000Y-100646666D01*
X136914000Y-100180000D02*
X136914000Y-100646666D01*
X137080666Y-99913333D02*
X137247333Y-100413333D01*
X136814000Y-100413333D01*
X135963866Y-85821866D02*
X136463866Y-85821866D01*
X136563866Y-85788533D01*
X136630533Y-85721866D01*
X136663866Y-85621866D01*
X136663866Y-85555200D01*
X135963866Y-86088533D02*
X135963866Y-86521866D01*
X136230533Y-86288533D01*
X136230533Y-86388533D01*
X136263866Y-86455200D01*
X136297200Y-86488533D01*
X136363866Y-86521866D01*
X136530533Y-86521866D01*
X136597200Y-86488533D01*
X136630533Y-86455200D01*
X136663866Y-86388533D01*
X136663866Y-86188533D01*
X136630533Y-86121866D01*
X136597200Y-86088533D01*
X143833000Y-101723000D02*
X143866333Y-101756333D01*
X143966333Y-101789666D01*
X144033000Y-101789666D01*
X144133000Y-101756333D01*
X144199666Y-101689666D01*
X144233000Y-101623000D01*
X144266333Y-101489666D01*
X144266333Y-101389666D01*
X144233000Y-101256333D01*
X144199666Y-101189666D01*
X144133000Y-101123000D01*
X144033000Y-101089666D01*
X143966333Y-101089666D01*
X143866333Y-101123000D01*
X143833000Y-101156333D01*
X143599666Y-101089666D02*
X143166333Y-101089666D01*
X143399666Y-101356333D01*
X143299666Y-101356333D01*
X143233000Y-101389666D01*
X143199666Y-101423000D01*
X143166333Y-101489666D01*
X143166333Y-101656333D01*
X143199666Y-101723000D01*
X143233000Y-101756333D01*
X143299666Y-101789666D01*
X143499666Y-101789666D01*
X143566333Y-101756333D01*
X143599666Y-101723000D01*
X142733000Y-101089666D02*
X142666333Y-101089666D01*
X142599666Y-101123000D01*
X142566333Y-101156333D01*
X142533000Y-101223000D01*
X142499666Y-101356333D01*
X142499666Y-101523000D01*
X142533000Y-101656333D01*
X142566333Y-101723000D01*
X142599666Y-101756333D01*
X142666333Y-101789666D01*
X142733000Y-101789666D01*
X142799666Y-101756333D01*
X142833000Y-101723000D01*
X142866333Y-101656333D01*
X142899666Y-101523000D01*
X142899666Y-101356333D01*
X142866333Y-101223000D01*
X142833000Y-101156333D01*
X142799666Y-101123000D01*
X142733000Y-101089666D01*
X139578500Y-108520666D02*
X139811833Y-108187333D01*
X139978500Y-108520666D02*
X139978500Y-107820666D01*
X139711833Y-107820666D01*
X139645166Y-107854000D01*
X139611833Y-107887333D01*
X139578500Y-107954000D01*
X139578500Y-108054000D01*
X139611833Y-108120666D01*
X139645166Y-108154000D01*
X139711833Y-108187333D01*
X139978500Y-108187333D01*
X139311833Y-107887333D02*
X139278500Y-107854000D01*
X139211833Y-107820666D01*
X139045166Y-107820666D01*
X138978500Y-107854000D01*
X138945166Y-107887333D01*
X138911833Y-107954000D01*
X138911833Y-108020666D01*
X138945166Y-108120666D01*
X139345166Y-108520666D01*
X138911833Y-108520666D01*
X138645166Y-107887333D02*
X138611833Y-107854000D01*
X138545166Y-107820666D01*
X138378500Y-107820666D01*
X138311833Y-107854000D01*
X138278500Y-107887333D01*
X138245166Y-107954000D01*
X138245166Y-108020666D01*
X138278500Y-108120666D01*
X138678500Y-108520666D01*
X138245166Y-108520666D01*
X139004666Y-102872333D02*
X139071333Y-102839000D01*
X139138000Y-102772333D01*
X139238000Y-102672333D01*
X139304666Y-102639000D01*
X139371333Y-102639000D01*
X139338000Y-102805666D02*
X139404666Y-102772333D01*
X139471333Y-102705666D01*
X139504666Y-102572333D01*
X139504666Y-102339000D01*
X139471333Y-102205666D01*
X139404666Y-102139000D01*
X139338000Y-102105666D01*
X139204666Y-102105666D01*
X139138000Y-102139000D01*
X139071333Y-102205666D01*
X139038000Y-102339000D01*
X139038000Y-102572333D01*
X139071333Y-102705666D01*
X139138000Y-102772333D01*
X139204666Y-102805666D01*
X139338000Y-102805666D01*
X138804666Y-102105666D02*
X138371333Y-102105666D01*
X138604666Y-102372333D01*
X138504666Y-102372333D01*
X138438000Y-102405666D01*
X138404666Y-102439000D01*
X138371333Y-102505666D01*
X138371333Y-102672333D01*
X138404666Y-102739000D01*
X138438000Y-102772333D01*
X138504666Y-102805666D01*
X138704666Y-102805666D01*
X138771333Y-102772333D01*
X138804666Y-102739000D01*
X146730166Y-110376500D02*
X146630166Y-110409833D01*
X146596833Y-110443166D01*
X146563500Y-110509833D01*
X146563500Y-110609833D01*
X146596833Y-110676500D01*
X146630166Y-110709833D01*
X146696833Y-110743166D01*
X146963500Y-110743166D01*
X146963500Y-110043166D01*
X146730166Y-110043166D01*
X146663500Y-110076500D01*
X146630166Y-110109833D01*
X146596833Y-110176500D01*
X146596833Y-110243166D01*
X146630166Y-110309833D01*
X146663500Y-110343166D01*
X146730166Y-110376500D01*
X146963500Y-110376500D01*
X146330166Y-110043166D02*
X145863500Y-110043166D01*
X146330166Y-110743166D01*
X145863500Y-110743166D01*
X145230166Y-110743166D02*
X145630166Y-110743166D01*
X145430166Y-110743166D02*
X145430166Y-110043166D01*
X145496833Y-110143166D01*
X145563500Y-110209833D01*
X145630166Y-110243166D01*
X134422712Y-85389608D02*
X134373324Y-85954118D01*
X134334307Y-86017626D01*
X134298195Y-86047927D01*
X134228877Y-86075323D01*
X134096051Y-86063703D01*
X134032543Y-86024686D01*
X134002242Y-85988574D01*
X133974846Y-85919256D01*
X134024234Y-85354746D01*
X133758582Y-85331504D02*
X133293691Y-85290831D01*
X133531541Y-86014314D01*
X144888998Y-83917768D02*
X144919299Y-83953880D01*
X145016014Y-83995802D01*
X145082427Y-84001612D01*
X145184951Y-83977121D01*
X145257175Y-83916519D01*
X145296192Y-83853011D01*
X145341019Y-83723090D01*
X145349734Y-83623471D01*
X145328149Y-83487740D01*
X145300753Y-83418422D01*
X145240150Y-83346198D01*
X145143436Y-83304276D01*
X145077023Y-83298466D01*
X144974498Y-83322957D01*
X144938386Y-83353258D01*
X144672735Y-83330016D02*
X144642433Y-83293905D01*
X144578925Y-83254888D01*
X144412893Y-83240362D01*
X144343575Y-83267758D01*
X144307463Y-83298059D01*
X144268446Y-83361567D01*
X144262636Y-83427980D01*
X144287127Y-83530505D01*
X144650742Y-83963845D01*
X144219058Y-83926077D01*
X143886993Y-83897025D02*
X143754167Y-83885405D01*
X143690659Y-83846388D01*
X143660358Y-83810276D01*
X143602661Y-83704846D01*
X143581075Y-83569115D01*
X143604316Y-83303463D01*
X143643333Y-83239955D01*
X143679445Y-83209654D01*
X143748763Y-83182258D01*
X143881589Y-83193879D01*
X143945097Y-83232896D01*
X143975398Y-83269007D01*
X144002794Y-83338326D01*
X143988268Y-83504358D01*
X143949252Y-83567866D01*
X143913140Y-83598167D01*
X143843822Y-83625563D01*
X143710996Y-83613942D01*
X143647488Y-83574926D01*
X143617187Y-83538814D01*
X143589790Y-83469496D01*
X127982754Y-74940439D02*
X127671026Y-74678942D01*
X128017617Y-74541961D02*
X127320280Y-74480952D01*
X127297039Y-74746604D01*
X127324435Y-74815922D01*
X127354736Y-74852034D01*
X127418244Y-74891051D01*
X127517863Y-74899767D01*
X127587182Y-74872370D01*
X127623293Y-74842069D01*
X127662310Y-74778561D01*
X127685552Y-74512909D01*
X127328589Y-75150892D02*
X127292478Y-75181194D01*
X127253461Y-75244702D01*
X127238935Y-75410734D01*
X127266331Y-75480052D01*
X127296632Y-75516164D01*
X127360140Y-75555181D01*
X127426553Y-75560991D01*
X127529078Y-75536500D01*
X127962418Y-75172885D01*
X127924650Y-75604569D01*
X127866547Y-76268699D02*
X127901409Y-75870221D01*
X127883978Y-76069460D02*
X127186641Y-76008451D01*
X127292071Y-75950753D01*
X127364295Y-75890151D01*
X127403312Y-75826643D01*
X129009845Y-75250392D02*
X128748260Y-74938737D01*
X129113372Y-74864022D02*
X128437224Y-74682849D01*
X128368206Y-74940429D01*
X128383149Y-75013451D01*
X128406719Y-75054276D01*
X128462487Y-75103728D01*
X128559079Y-75129610D01*
X128632102Y-75114667D01*
X128672926Y-75091097D01*
X128722379Y-75035329D01*
X128791397Y-74777749D01*
X128329073Y-75344054D02*
X128288248Y-75367624D01*
X128238796Y-75423392D01*
X128195660Y-75584379D01*
X128210603Y-75657402D01*
X128234173Y-75698227D01*
X128289941Y-75747679D01*
X128354336Y-75764933D01*
X128459556Y-75758618D01*
X128949453Y-75475775D01*
X128837299Y-75894343D01*
X128048996Y-76131737D02*
X128031741Y-76196132D01*
X128046684Y-76269155D01*
X128070254Y-76309980D01*
X128126022Y-76359432D01*
X128246185Y-76426138D01*
X128407172Y-76469275D01*
X128544590Y-76471587D01*
X128617612Y-76456644D01*
X128658437Y-76433073D01*
X128707889Y-76377306D01*
X128725144Y-76312911D01*
X128710201Y-76239888D01*
X128686630Y-76199063D01*
X128630863Y-76149611D01*
X128510700Y-76082905D01*
X128349712Y-76039768D01*
X128212295Y-76037456D01*
X128139273Y-76052399D01*
X128098448Y-76075970D01*
X128048996Y-76131737D01*
X126760361Y-72290750D02*
X126783932Y-72331574D01*
X126871897Y-72389654D01*
X126936292Y-72406908D01*
X127041512Y-72400593D01*
X127123161Y-72353452D01*
X127172614Y-72297685D01*
X127239320Y-72177522D01*
X127265202Y-72080929D01*
X127267514Y-71943512D01*
X127252571Y-71870489D01*
X127205431Y-71788840D01*
X127117465Y-71730760D01*
X127053070Y-71713506D01*
X126947850Y-71719821D01*
X126907025Y-71743392D01*
X126649445Y-71674373D02*
X126625875Y-71633548D01*
X126570107Y-71584096D01*
X126409120Y-71540960D01*
X126336097Y-71555903D01*
X126295272Y-71579473D01*
X126245820Y-71635241D01*
X126228566Y-71699636D01*
X126234881Y-71804856D01*
X126517724Y-72294753D01*
X126099156Y-72182599D01*
X125816313Y-71692701D02*
X125889336Y-71677758D01*
X125930161Y-71654187D01*
X125979613Y-71598420D01*
X125988240Y-71566222D01*
X125973297Y-71493200D01*
X125949727Y-71452375D01*
X125893959Y-71402923D01*
X125765169Y-71368414D01*
X125692147Y-71383357D01*
X125651322Y-71406927D01*
X125601870Y-71462695D01*
X125593242Y-71494892D01*
X125608185Y-71567914D01*
X125631756Y-71608739D01*
X125687523Y-71658191D01*
X125816313Y-71692701D01*
X125872081Y-71742153D01*
X125895651Y-71782978D01*
X125910594Y-71856000D01*
X125876085Y-71984790D01*
X125826633Y-72040558D01*
X125785808Y-72064128D01*
X125712786Y-72079071D01*
X125583996Y-72044562D01*
X125528228Y-71995110D01*
X125504658Y-71954285D01*
X125489715Y-71881262D01*
X125524224Y-71752472D01*
X125573676Y-71696705D01*
X125614501Y-71673134D01*
X125687523Y-71658191D01*
X131675950Y-74560038D02*
X131716774Y-74536467D01*
X131774854Y-74448502D01*
X131792108Y-74384107D01*
X131785793Y-74278887D01*
X131738652Y-74197238D01*
X131682885Y-74147785D01*
X131562722Y-74081079D01*
X131466129Y-74055197D01*
X131328712Y-74052885D01*
X131255689Y-74067828D01*
X131174040Y-74114968D01*
X131115960Y-74202934D01*
X131098706Y-74267329D01*
X131105021Y-74372549D01*
X131128592Y-74413374D01*
X131059573Y-74670954D02*
X131018748Y-74694524D01*
X130969296Y-74750292D01*
X130926160Y-74911279D01*
X130941103Y-74984302D01*
X130964673Y-75025127D01*
X131020441Y-75074579D01*
X131084836Y-75091833D01*
X131190056Y-75085518D01*
X131679953Y-74802675D01*
X131567799Y-75221243D01*
X130831259Y-75265452D02*
X130710477Y-75716218D01*
X131464271Y-75607613D01*
X142260098Y-86343468D02*
X142290399Y-86379580D01*
X142387114Y-86421502D01*
X142453527Y-86427312D01*
X142556051Y-86402821D01*
X142628275Y-86342219D01*
X142667292Y-86278711D01*
X142712119Y-86148790D01*
X142720834Y-86049171D01*
X142699249Y-85913440D01*
X142671853Y-85844122D01*
X142611250Y-85771898D01*
X142514536Y-85729976D01*
X142448123Y-85724166D01*
X142345598Y-85748657D01*
X142309486Y-85778958D01*
X142043835Y-85755716D02*
X142013533Y-85719605D01*
X141950025Y-85680588D01*
X141783993Y-85666062D01*
X141714675Y-85693458D01*
X141678563Y-85723759D01*
X141639546Y-85787267D01*
X141633736Y-85853680D01*
X141658227Y-85956205D01*
X142021842Y-86389545D01*
X141590158Y-86351777D01*
X141053450Y-85602148D02*
X141186276Y-85613768D01*
X141249784Y-85652785D01*
X141280085Y-85688897D01*
X141337783Y-85794327D01*
X141359368Y-85930058D01*
X141336127Y-86195710D01*
X141297110Y-86259218D01*
X141260998Y-86289519D01*
X141191680Y-86316915D01*
X141058854Y-86305294D01*
X140995346Y-86266277D01*
X140965045Y-86230166D01*
X140937649Y-86160848D01*
X140952175Y-85994815D01*
X140991192Y-85931307D01*
X141027303Y-85901006D01*
X141096622Y-85873610D01*
X141229448Y-85885231D01*
X141292955Y-85924248D01*
X141323257Y-85960359D01*
X141350653Y-86029677D01*
X131027488Y-80237681D02*
X131288985Y-79925953D01*
X131425966Y-80272544D02*
X131486975Y-79575207D01*
X131221323Y-79551966D01*
X131152005Y-79579362D01*
X131115893Y-79609663D01*
X131076876Y-79673171D01*
X131068160Y-79772790D01*
X131095557Y-79842109D01*
X131125858Y-79878220D01*
X131189366Y-79917237D01*
X131455018Y-79940479D01*
X130363358Y-80179577D02*
X130761836Y-80214440D01*
X130562597Y-80197009D02*
X130623606Y-79499672D01*
X130681303Y-79605102D01*
X130741906Y-79677325D01*
X130805414Y-79716342D01*
X130031293Y-80150525D02*
X129898467Y-80138905D01*
X129834959Y-80099888D01*
X129804658Y-80063776D01*
X129746961Y-79958346D01*
X129725375Y-79822615D01*
X129748616Y-79556963D01*
X129787633Y-79493455D01*
X129823745Y-79463154D01*
X129893063Y-79435758D01*
X130025889Y-79447379D01*
X130089397Y-79486396D01*
X130119698Y-79522507D01*
X130147094Y-79591826D01*
X130132568Y-79757858D01*
X130093552Y-79821366D01*
X130057440Y-79851667D01*
X129988122Y-79879063D01*
X129855296Y-79867442D01*
X129791788Y-79828426D01*
X129761487Y-79792314D01*
X129734090Y-79722996D01*
X136054181Y-78573311D02*
X135742453Y-78311814D01*
X136089044Y-78174833D02*
X135391707Y-78113824D01*
X135368466Y-78379476D01*
X135395862Y-78448794D01*
X135426163Y-78484906D01*
X135489671Y-78523923D01*
X135589290Y-78532639D01*
X135658609Y-78505242D01*
X135694720Y-78474941D01*
X135733737Y-78411433D01*
X135756979Y-78145781D01*
X135996077Y-79237441D02*
X136030940Y-78838963D01*
X136013509Y-79038202D02*
X135316172Y-78977193D01*
X135421602Y-78919496D01*
X135493825Y-78858893D01*
X135532842Y-78795385D01*
X135562737Y-79601057D02*
X135535341Y-79531738D01*
X135505040Y-79495627D01*
X135441532Y-79456610D01*
X135408326Y-79453705D01*
X135339007Y-79481101D01*
X135302896Y-79511402D01*
X135263879Y-79574910D01*
X135252258Y-79707736D01*
X135279654Y-79777054D01*
X135309955Y-79813166D01*
X135373463Y-79852183D01*
X135406670Y-79855088D01*
X135475988Y-79827692D01*
X135512100Y-79797390D01*
X135551116Y-79733883D01*
X135562737Y-79601057D01*
X135601754Y-79537549D01*
X135637866Y-79507247D01*
X135707184Y-79479851D01*
X135840010Y-79491472D01*
X135903518Y-79530489D01*
X135933819Y-79566601D01*
X135961215Y-79635919D01*
X135949594Y-79768745D01*
X135910577Y-79832253D01*
X135874466Y-79862554D01*
X135805148Y-79889950D01*
X135672322Y-79878329D01*
X135608814Y-79839312D01*
X135578513Y-79803201D01*
X135551116Y-79733883D01*
X130976688Y-81279081D02*
X131238185Y-80967353D01*
X131375166Y-81313944D02*
X131436175Y-80616607D01*
X131170523Y-80593366D01*
X131101205Y-80620762D01*
X131065093Y-80651063D01*
X131026076Y-80714571D01*
X131017360Y-80814190D01*
X131044757Y-80883509D01*
X131075058Y-80919620D01*
X131138566Y-80958637D01*
X131404218Y-80981879D01*
X130312558Y-81220977D02*
X130711036Y-81255840D01*
X130511797Y-81238409D02*
X130572806Y-80541072D01*
X130630503Y-80646502D01*
X130691106Y-80718725D01*
X130754614Y-80757742D01*
X130141122Y-80503305D02*
X129676231Y-80462632D01*
X129914080Y-81186115D01*
X131738049Y-85129864D02*
X131768350Y-85165976D01*
X131865065Y-85207898D01*
X131931478Y-85213708D01*
X132034002Y-85189217D01*
X132106226Y-85128615D01*
X132145243Y-85065107D01*
X132190070Y-84935186D01*
X132198785Y-84835567D01*
X132177200Y-84699836D01*
X132149804Y-84630518D01*
X132089201Y-84558294D01*
X131992487Y-84516372D01*
X131926074Y-84510562D01*
X131823549Y-84535053D01*
X131787437Y-84565354D01*
X131521786Y-84542112D02*
X131491484Y-84506001D01*
X131427976Y-84466984D01*
X131261944Y-84452458D01*
X131192626Y-84479854D01*
X131156514Y-84510155D01*
X131117497Y-84573663D01*
X131111687Y-84640076D01*
X131136178Y-84742601D01*
X131499793Y-85175941D01*
X131068109Y-85138173D01*
X130498195Y-84385638D02*
X130830260Y-84414690D01*
X130834414Y-84749660D01*
X130804113Y-84713549D01*
X130740605Y-84674532D01*
X130574573Y-84660006D01*
X130505254Y-84687402D01*
X130469143Y-84717703D01*
X130430126Y-84781211D01*
X130415600Y-84947244D01*
X130442996Y-85016562D01*
X130473297Y-85052673D01*
X130536805Y-85091690D01*
X130702838Y-85106216D01*
X130772156Y-85078820D01*
X130808267Y-85048519D01*
X138157998Y-79218768D02*
X138188299Y-79254880D01*
X138285014Y-79296802D01*
X138351427Y-79302612D01*
X138453951Y-79278121D01*
X138526175Y-79217519D01*
X138565192Y-79154011D01*
X138610019Y-79024090D01*
X138618734Y-78924471D01*
X138597149Y-78788740D01*
X138569753Y-78719422D01*
X138509150Y-78647198D01*
X138412436Y-78605276D01*
X138346023Y-78599466D01*
X138243498Y-78623957D01*
X138207386Y-78654258D01*
X137941735Y-78631016D02*
X137911433Y-78594905D01*
X137847925Y-78555888D01*
X137681893Y-78541362D01*
X137612575Y-78568758D01*
X137576463Y-78599059D01*
X137537446Y-78662567D01*
X137531636Y-78728980D01*
X137556127Y-78831505D01*
X137919742Y-79264845D01*
X137488058Y-79227077D01*
X136931014Y-78709893D02*
X136890341Y-79174784D01*
X137120288Y-78458767D02*
X137242742Y-78971390D01*
X136811058Y-78933623D01*
X141893268Y-81107501D02*
X141929380Y-81077200D01*
X141971302Y-80980485D01*
X141977112Y-80914072D01*
X141952621Y-80811548D01*
X141892019Y-80739324D01*
X141828511Y-80700307D01*
X141698590Y-80655480D01*
X141598971Y-80646765D01*
X141463240Y-80668350D01*
X141393922Y-80695746D01*
X141321698Y-80756349D01*
X141279776Y-80853063D01*
X141273966Y-80919476D01*
X141298457Y-81022001D01*
X141328758Y-81058113D01*
X141305516Y-81323764D02*
X141269405Y-81354066D01*
X141230388Y-81417574D01*
X141215862Y-81583606D01*
X141243258Y-81652924D01*
X141273559Y-81689036D01*
X141337067Y-81728053D01*
X141403480Y-81733863D01*
X141506005Y-81709372D01*
X141939345Y-81345757D01*
X141901577Y-81777441D01*
X141183905Y-81948877D02*
X141146137Y-82380562D01*
X141432126Y-82171358D01*
X141423410Y-82270977D01*
X141450806Y-82340296D01*
X141481107Y-82376407D01*
X141544615Y-82415424D01*
X141710648Y-82429950D01*
X141779966Y-82402554D01*
X141816077Y-82372253D01*
X141855094Y-82308745D01*
X141872525Y-82109506D01*
X141845129Y-82040188D01*
X141814828Y-82004076D01*
X130175929Y-82444064D02*
X130206230Y-82480176D01*
X130302945Y-82522098D01*
X130369358Y-82527908D01*
X130471882Y-82503417D01*
X130544106Y-82442815D01*
X130583123Y-82379307D01*
X130627950Y-82249386D01*
X130636665Y-82149767D01*
X130615080Y-82014036D01*
X130587684Y-81944718D01*
X130527081Y-81872494D01*
X130430367Y-81830572D01*
X130363954Y-81824762D01*
X130261429Y-81849253D01*
X130225317Y-81879554D01*
X129959666Y-81856312D02*
X129929364Y-81820201D01*
X129865856Y-81781184D01*
X129699824Y-81766658D01*
X129630506Y-81794054D01*
X129594394Y-81824355D01*
X129555377Y-81887863D01*
X129549567Y-81954276D01*
X129574058Y-82056801D01*
X129937673Y-82490141D01*
X129505989Y-82452373D01*
X129295536Y-81798209D02*
X129265234Y-81762097D01*
X129201727Y-81723080D01*
X129035694Y-81708554D01*
X128966376Y-81735950D01*
X128930264Y-81766251D01*
X128891247Y-81829759D01*
X128885437Y-81896172D01*
X128909928Y-81998697D01*
X129273544Y-82432037D01*
X128841859Y-82394270D01*
X124170166Y-72812969D02*
X123717012Y-73024279D01*
X123640468Y-73096751D01*
X123608222Y-73185346D01*
X123620274Y-73290064D01*
X123648449Y-73350484D01*
X123394878Y-72806700D02*
X124029293Y-72510867D01*
X123916595Y-72269185D01*
X123858210Y-72222851D01*
X123813913Y-72206728D01*
X123739405Y-72204693D01*
X123648774Y-72246955D01*
X123602441Y-72305339D01*
X123586318Y-72349637D01*
X123584282Y-72424145D01*
X123696980Y-72665827D01*
X123761635Y-71936872D02*
X123578500Y-71544138D01*
X123435429Y-71868308D01*
X123393167Y-71777678D01*
X123334782Y-71731344D01*
X123290485Y-71715221D01*
X123215977Y-71713186D01*
X123064926Y-71783622D01*
X123018593Y-71842007D01*
X123002470Y-71886305D01*
X123000434Y-71960812D01*
X123084958Y-72142074D01*
X123143342Y-72188407D01*
X123187640Y-72204530D01*
X122088961Y-78370385D02*
X122328445Y-78883960D01*
X122326409Y-78958467D01*
X122310286Y-79002765D01*
X122263953Y-79061150D01*
X122143112Y-79117499D01*
X122068604Y-79115463D01*
X122024306Y-79099340D01*
X121965922Y-79053007D01*
X121726438Y-78539432D01*
X121122233Y-78821178D02*
X121424335Y-78680305D01*
X121595418Y-78968320D01*
X121551121Y-78952198D01*
X121476613Y-78950162D01*
X121325562Y-79020598D01*
X121279228Y-79078983D01*
X121263105Y-79123281D01*
X121261070Y-79197788D01*
X121331506Y-79348840D01*
X121389891Y-79395173D01*
X121434188Y-79411296D01*
X121508696Y-79413332D01*
X121659748Y-79342895D01*
X121706081Y-79284510D01*
X121722204Y-79240213D01*
X125034228Y-81603563D02*
X125434922Y-81532852D01*
X125317071Y-81886405D02*
X125812046Y-81391431D01*
X125623484Y-81202869D01*
X125552773Y-81179299D01*
X125505633Y-81179299D01*
X125434922Y-81202869D01*
X125364212Y-81273580D01*
X125340641Y-81344290D01*
X125340641Y-81391431D01*
X125364212Y-81462141D01*
X125552773Y-81650703D01*
X124562824Y-81132158D02*
X124845667Y-81415001D01*
X124704245Y-81273580D02*
X125199220Y-80778605D01*
X125175650Y-80896456D01*
X125175650Y-80990737D01*
X125199220Y-81061448D01*
X124468543Y-80377911D02*
X124138560Y-80707894D01*
X124774956Y-80307200D02*
X124539254Y-80778605D01*
X124232841Y-80472192D01*
X122014280Y-81314115D02*
X122414974Y-81243404D01*
X122297123Y-81596957D02*
X122792098Y-81101983D01*
X122603536Y-80913421D01*
X122532825Y-80889851D01*
X122485685Y-80889851D01*
X122414974Y-80913421D01*
X122344264Y-80984132D01*
X122320693Y-81054842D01*
X122320693Y-81101983D01*
X122344264Y-81172693D01*
X122532825Y-81361255D01*
X121542876Y-80842710D02*
X121825719Y-81125553D01*
X121684297Y-80984132D02*
X122179272Y-80489157D01*
X122155702Y-80607008D01*
X122155702Y-80701289D01*
X122179272Y-80772000D01*
X121872859Y-80182744D02*
X121566446Y-79876331D01*
X121542876Y-80229884D01*
X121472165Y-80159174D01*
X121401455Y-80135603D01*
X121354314Y-80135603D01*
X121283603Y-80159174D01*
X121165752Y-80277025D01*
X121142182Y-80347735D01*
X121142182Y-80394876D01*
X121165752Y-80465587D01*
X121307174Y-80607008D01*
X121377884Y-80630578D01*
X121425025Y-80630578D01*
X125871401Y-75189493D02*
X125855278Y-75233790D01*
X125867329Y-75338508D01*
X125895504Y-75398929D01*
X125967976Y-75475472D01*
X126056571Y-75507718D01*
X126131079Y-75509754D01*
X126266007Y-75483615D01*
X126356638Y-75441353D01*
X126463392Y-75354794D01*
X126509725Y-75296409D01*
X126541971Y-75207814D01*
X126529919Y-75103096D01*
X126501745Y-75042675D01*
X126429273Y-74966132D01*
X126384975Y-74950009D01*
X126272277Y-74708327D02*
X126288400Y-74664029D01*
X126290436Y-74589521D01*
X126219999Y-74438470D01*
X126161614Y-74392137D01*
X126117317Y-74376014D01*
X126042809Y-74373978D01*
X125982389Y-74402153D01*
X125905845Y-74474625D01*
X125712369Y-75006195D01*
X125529235Y-74613462D01*
X125247489Y-74009257D02*
X125416537Y-74371780D01*
X125332013Y-74190518D02*
X125966428Y-73894686D01*
X125903972Y-73997368D01*
X125871726Y-74085963D01*
X125869690Y-74160471D01*
X124405948Y-77554430D02*
X124450245Y-77570553D01*
X124554963Y-77558502D01*
X124615384Y-77530327D01*
X124691927Y-77457855D01*
X124724173Y-77369260D01*
X124726209Y-77294752D01*
X124700070Y-77159824D01*
X124657808Y-77069193D01*
X124571249Y-76962439D01*
X124512864Y-76916106D01*
X124424269Y-76883860D01*
X124319551Y-76895912D01*
X124259130Y-76924086D01*
X124182587Y-76996558D01*
X124166464Y-77040856D01*
X123924782Y-77153554D02*
X123880484Y-77137431D01*
X123805976Y-77135395D01*
X123654925Y-77205832D01*
X123608592Y-77264217D01*
X123592469Y-77308514D01*
X123590433Y-77383022D01*
X123618608Y-77443442D01*
X123691080Y-77519986D01*
X124222650Y-77713462D01*
X123829917Y-77896596D01*
X123141351Y-77445315D02*
X123080930Y-77473490D01*
X123034597Y-77531875D01*
X123018474Y-77576172D01*
X123016438Y-77650680D01*
X123042577Y-77785608D01*
X123113014Y-77936660D01*
X123199573Y-78043413D01*
X123257958Y-78089747D01*
X123302255Y-78105870D01*
X123376763Y-78107905D01*
X123437184Y-78079731D01*
X123483517Y-78021346D01*
X123499640Y-77977048D01*
X123501675Y-77902541D01*
X123475537Y-77767612D01*
X123405100Y-77616561D01*
X123318541Y-77509807D01*
X123260156Y-77463474D01*
X123215859Y-77447351D01*
X123141351Y-77445315D01*
X126319693Y-73086798D02*
X126363990Y-73102921D01*
X126468708Y-73090870D01*
X126529129Y-73062695D01*
X126605672Y-72990223D01*
X126637918Y-72901628D01*
X126639954Y-72827120D01*
X126613815Y-72692192D01*
X126571553Y-72601561D01*
X126484994Y-72494807D01*
X126426609Y-72448474D01*
X126338014Y-72416228D01*
X126233296Y-72428280D01*
X126172875Y-72456454D01*
X126096332Y-72528926D01*
X126080209Y-72573224D01*
X125743662Y-73428964D02*
X126106185Y-73259917D01*
X125924923Y-73344441D02*
X125629091Y-72710025D01*
X125731773Y-72772481D01*
X125820368Y-72804727D01*
X125894876Y-72806763D01*
X125441559Y-73569837D02*
X125320718Y-73626186D01*
X125246211Y-73624150D01*
X125201913Y-73608027D01*
X125099231Y-73545571D01*
X125012671Y-73438817D01*
X124899973Y-73197135D01*
X124902009Y-73122628D01*
X124918132Y-73078330D01*
X124964465Y-73019945D01*
X125085306Y-72963596D01*
X125159814Y-72965632D01*
X125204111Y-72981755D01*
X125262496Y-73028088D01*
X125332933Y-73179139D01*
X125330897Y-73253647D01*
X125314774Y-73297945D01*
X125268441Y-73356329D01*
X125147600Y-73412679D01*
X125073092Y-73410643D01*
X125028794Y-73394520D01*
X124970409Y-73348187D01*
X116196094Y-79364607D02*
X116179971Y-79408904D01*
X116192022Y-79513622D01*
X116220197Y-79574043D01*
X116292669Y-79650586D01*
X116381264Y-79682832D01*
X116455772Y-79684868D01*
X116590700Y-79658729D01*
X116681331Y-79616467D01*
X116788085Y-79529908D01*
X116834418Y-79471523D01*
X116866664Y-79382928D01*
X116854612Y-79278210D01*
X116826438Y-79217789D01*
X116753966Y-79141246D01*
X116709668Y-79125123D01*
X115853928Y-78788576D02*
X116022975Y-79151099D01*
X115938451Y-78969837D02*
X116572867Y-78674005D01*
X116510411Y-78776687D01*
X116478165Y-78865282D01*
X116476129Y-78939790D01*
X116047404Y-78257006D02*
X116105788Y-78303339D01*
X116150086Y-78319462D01*
X116224594Y-78321497D01*
X116254804Y-78307410D01*
X116301137Y-78249025D01*
X116317260Y-78204728D01*
X116319296Y-78130220D01*
X116262947Y-78009379D01*
X116204562Y-77963046D01*
X116160264Y-77946923D01*
X116085757Y-77944887D01*
X116055546Y-77958974D01*
X116009213Y-78017359D01*
X115993090Y-78061657D01*
X115991054Y-78136164D01*
X116047404Y-78257006D01*
X116045368Y-78331513D01*
X116029245Y-78375811D01*
X115982912Y-78434196D01*
X115862071Y-78490545D01*
X115787563Y-78488509D01*
X115743265Y-78472386D01*
X115684880Y-78426053D01*
X115628531Y-78305212D01*
X115630567Y-78230704D01*
X115646690Y-78186406D01*
X115693023Y-78128022D01*
X115813864Y-78071673D01*
X115888372Y-78073708D01*
X115932670Y-78089831D01*
X115991054Y-78136164D01*
X143748160Y-76930260D02*
X143881994Y-76739125D01*
X144182350Y-76949436D02*
X143608944Y-76547933D01*
X143417752Y-76820983D01*
X143838204Y-77440927D02*
X143264798Y-77039424D01*
X143540539Y-77517348D01*
X142997129Y-77421695D01*
X143570535Y-77823198D01*
X143169032Y-78396605D02*
X143398462Y-78068944D01*
X143283747Y-78232774D02*
X142710341Y-77831271D01*
X142830494Y-77834018D01*
X142923343Y-77817647D01*
X142988886Y-77782156D01*
D15*
X138073322Y-72200018D02*
X137926658Y-72747376D01*
X137877206Y-72803143D01*
X137836381Y-72826714D01*
X137763358Y-72841657D01*
X137634568Y-72807147D01*
X137578801Y-72757695D01*
X137555230Y-72716870D01*
X137540287Y-72643848D01*
X137686952Y-72096490D01*
X137014807Y-72157954D02*
X136894025Y-72608719D01*
X137244813Y-71943510D02*
X137276392Y-72469610D01*
X136857824Y-72357455D01*
D11*
X141322707Y-78463844D02*
X141634362Y-78202259D01*
X141709077Y-78567371D02*
X141890250Y-77891223D01*
X141632670Y-77822205D01*
X141559648Y-77837148D01*
X141518823Y-77860718D01*
X141469371Y-77916486D01*
X141443489Y-78013078D01*
X141458432Y-78086101D01*
X141482002Y-78126925D01*
X141537770Y-78176378D01*
X141795350Y-78245396D01*
X140678756Y-78291298D02*
X141065127Y-78394825D01*
X140871941Y-78343061D02*
X141053115Y-77666913D01*
X141091628Y-77780760D01*
X141138768Y-77862410D01*
X141194536Y-77911862D01*
X140585095Y-77610526D02*
X140561524Y-77569701D01*
X140505757Y-77520249D01*
X140344769Y-77477113D01*
X140271747Y-77492056D01*
X140230922Y-77515626D01*
X140181470Y-77571394D01*
X140164215Y-77635789D01*
X140170531Y-77741008D01*
X140453374Y-78230906D01*
X140034806Y-78118752D01*
X141576707Y-77447845D02*
X141888362Y-77186260D01*
X141963077Y-77551372D02*
X142144250Y-76875224D01*
X141886670Y-76806206D01*
X141813648Y-76821149D01*
X141772823Y-76844719D01*
X141723371Y-76900487D01*
X141697489Y-76997079D01*
X141712432Y-77070102D01*
X141736002Y-77110926D01*
X141791770Y-77160379D01*
X142049350Y-77229397D01*
X140932756Y-77275299D02*
X141319127Y-77378826D01*
X141125941Y-77327062D02*
X141307115Y-76650914D01*
X141345628Y-76764761D01*
X141392768Y-76846411D01*
X141448536Y-76895863D01*
X140288806Y-77102753D02*
X140675176Y-77206280D01*
X140481991Y-77154516D02*
X140663164Y-76478368D01*
X140701677Y-76592215D01*
X140748818Y-76673865D01*
X140804586Y-76723317D01*
X141496572Y-74835768D02*
X141582845Y-74513792D01*
X140906697Y-74332619D01*
X140833055Y-74865034D02*
X140792230Y-74888604D01*
X140742778Y-74944372D01*
X140699641Y-75105360D01*
X140714584Y-75178382D01*
X140738154Y-75219207D01*
X140793922Y-75268659D01*
X140858317Y-75285913D01*
X140963537Y-75279598D01*
X141453435Y-74996755D01*
X141341280Y-75415323D01*
X131103761Y-72659050D02*
X131127332Y-72699874D01*
X131215297Y-72757954D01*
X131279692Y-72775208D01*
X131384912Y-72768893D01*
X131466561Y-72721752D01*
X131516014Y-72665985D01*
X131582720Y-72545822D01*
X131608602Y-72449229D01*
X131610914Y-72311812D01*
X131595971Y-72238789D01*
X131548831Y-72157140D01*
X131460865Y-72099060D01*
X131396470Y-72081806D01*
X131291250Y-72088121D01*
X131250425Y-72111692D01*
X130442556Y-72550899D02*
X130828927Y-72654426D01*
X130635741Y-72602662D02*
X130816915Y-71926514D01*
X130855428Y-72040361D01*
X130902568Y-72122011D01*
X130958336Y-72171463D01*
X130398347Y-71814359D02*
X129947581Y-71693577D01*
X130056186Y-72447371D01*
X131872332Y-71825885D02*
X131895903Y-71866709D01*
X131983868Y-71924789D01*
X132048263Y-71942043D01*
X132153483Y-71935728D01*
X132235132Y-71888587D01*
X132284585Y-71832820D01*
X132351291Y-71712657D01*
X132377173Y-71616064D01*
X132379485Y-71478647D01*
X132364542Y-71405624D01*
X132317402Y-71323975D01*
X132229436Y-71265895D01*
X132165041Y-71248641D01*
X132059821Y-71254956D01*
X132018996Y-71278527D01*
X131211127Y-71717734D02*
X131597498Y-71821261D01*
X131404312Y-71769497D02*
X131585486Y-71093349D01*
X131623999Y-71207196D01*
X131671139Y-71288846D01*
X131726907Y-71338298D01*
X130812745Y-70886294D02*
X130941535Y-70920803D01*
X130997303Y-70970255D01*
X131020873Y-71011080D01*
X131059386Y-71124927D01*
X131057075Y-71262345D01*
X130988056Y-71519925D01*
X130938604Y-71575693D01*
X130897779Y-71599263D01*
X130824757Y-71614206D01*
X130695967Y-71579697D01*
X130640199Y-71530245D01*
X130616629Y-71489420D01*
X130601686Y-71416397D01*
X130644822Y-71255410D01*
X130694274Y-71199642D01*
X130735099Y-71176072D01*
X130808122Y-71161129D01*
X130936912Y-71195638D01*
X130992680Y-71245090D01*
X131016250Y-71285915D01*
X131031193Y-71358937D01*
X135134710Y-79010906D02*
X135180244Y-79023107D01*
X135283513Y-79001974D01*
X135341248Y-78968641D01*
X135411184Y-78889773D01*
X135435586Y-78798705D01*
X135431120Y-78724303D01*
X135393321Y-78592167D01*
X135343321Y-78505564D01*
X135247787Y-78406761D01*
X135185586Y-78365692D01*
X135094518Y-78341291D01*
X134991248Y-78362423D01*
X134933513Y-78395756D01*
X134863577Y-78474624D01*
X134851377Y-78520158D01*
X134590693Y-79401974D02*
X134937103Y-79201974D01*
X134763898Y-79301974D02*
X134413898Y-78695756D01*
X134521633Y-78749026D01*
X134612701Y-78773427D01*
X134687103Y-78768962D01*
X133692210Y-79112423D02*
X133980885Y-78945756D01*
X134176420Y-79217765D01*
X134130885Y-79205564D01*
X134056484Y-79210030D01*
X133912146Y-79293363D01*
X133871078Y-79355564D01*
X133858877Y-79401098D01*
X133863343Y-79475500D01*
X133946676Y-79619837D01*
X134008877Y-79660906D01*
X134054411Y-79673107D01*
X134128813Y-79668641D01*
X134273150Y-79585308D01*
X134314219Y-79523107D01*
X134326420Y-79477573D01*
X132912211Y-75747006D02*
X132957745Y-75759207D01*
X133061014Y-75738074D01*
X133118749Y-75704741D01*
X133188685Y-75625873D01*
X133213087Y-75534805D01*
X133208621Y-75460403D01*
X133170822Y-75328267D01*
X133120822Y-75241664D01*
X133025288Y-75142861D01*
X132963087Y-75101792D01*
X132872019Y-75077391D01*
X132768749Y-75098523D01*
X132711014Y-75131856D01*
X132641078Y-75210724D01*
X132628878Y-75256258D01*
X132368194Y-76138074D02*
X132714604Y-75938074D01*
X132541399Y-76038074D02*
X132191399Y-75431856D01*
X132299134Y-75485126D01*
X132390202Y-75509527D01*
X132464604Y-75505062D01*
X131615245Y-76033929D02*
X131848579Y-76438074D01*
X131626250Y-75719656D02*
X132020587Y-76069335D01*
X131645310Y-76286002D01*
X112875969Y-107879241D02*
X113310061Y-108243487D01*
X113339704Y-108311874D01*
X113343813Y-108358835D01*
X113326495Y-108431331D01*
X113240790Y-108533470D01*
X113172403Y-108563114D01*
X113125442Y-108567222D01*
X113052946Y-108549905D01*
X112618854Y-108185658D01*
X112477087Y-108458324D02*
X112430126Y-108462433D01*
X112361739Y-108492076D01*
X112254608Y-108619750D01*
X112237290Y-108692246D01*
X112241399Y-108739207D01*
X112271042Y-108807594D01*
X112322112Y-108850447D01*
X112420142Y-108889191D01*
X112983675Y-108839888D01*
X112705134Y-109171841D01*
X111455322Y-109283572D02*
X111848328Y-109178208D01*
X111761740Y-109540687D02*
X112211691Y-109004456D01*
X112007413Y-108833046D01*
X111934917Y-108815728D01*
X111887956Y-108819837D01*
X111819568Y-108849480D01*
X111755289Y-108926085D01*
X111737972Y-108998581D01*
X111742080Y-109045542D01*
X111771724Y-109113929D01*
X111976002Y-109285339D01*
X110944626Y-108855047D02*
X111251043Y-109112162D01*
X111097835Y-108983605D02*
X111547786Y-108447373D01*
X111534577Y-108566830D01*
X111542794Y-108660753D01*
X111572437Y-108729140D01*
X115248905Y-104345114D02*
X115536576Y-104057363D01*
X115642828Y-104414574D02*
X115764382Y-103725208D01*
X115501767Y-103678902D01*
X115430324Y-103700152D01*
X115391709Y-103727191D01*
X115347306Y-103787057D01*
X115329941Y-103885537D01*
X115351191Y-103956979D01*
X115378230Y-103995595D01*
X115438096Y-104039998D01*
X115700711Y-104086304D01*
X115140670Y-103615231D02*
X114713920Y-103539983D01*
X114897403Y-103843117D01*
X114798922Y-103825752D01*
X114727480Y-103847002D01*
X114688865Y-103874041D01*
X114644461Y-103933906D01*
X114615520Y-104098041D01*
X114636770Y-104169483D01*
X114663809Y-104208098D01*
X114723674Y-104252502D01*
X114920636Y-104287232D01*
X114992078Y-104265981D01*
X115030693Y-104238942D01*
X118391314Y-105908894D02*
X118103563Y-105621223D01*
X118460774Y-105514971D02*
X117771408Y-105393417D01*
X117725102Y-105656032D01*
X117746352Y-105727475D01*
X117773391Y-105766090D01*
X117833257Y-105810493D01*
X117931737Y-105827858D01*
X118003179Y-105806608D01*
X118041795Y-105779569D01*
X118086198Y-105719703D01*
X118132504Y-105457088D01*
X117721296Y-106061532D02*
X117682681Y-106088571D01*
X117638278Y-106148436D01*
X117609336Y-106312571D01*
X117630587Y-106384013D01*
X117657625Y-106422628D01*
X117717491Y-106467032D01*
X117783145Y-106478608D01*
X117887414Y-106463146D01*
X118350796Y-106138682D01*
X118275549Y-106565432D01*
X118155196Y-115641119D02*
X118025787Y-116124082D01*
X118032102Y-116229302D01*
X118079243Y-116310951D01*
X118167208Y-116369031D01*
X118231603Y-116386286D01*
X117297875Y-116136094D02*
X117684245Y-116239621D01*
X117491060Y-116187858D02*
X117672233Y-115511710D01*
X117710746Y-115625557D01*
X117757887Y-115707206D01*
X117813655Y-115756658D01*
X151332333Y-94612666D02*
X151332333Y-95112666D01*
X151365666Y-95212666D01*
X151432333Y-95279333D01*
X151532333Y-95312666D01*
X151599000Y-95312666D01*
X150999000Y-95312666D02*
X150999000Y-94612666D01*
X150732333Y-94612666D01*
X150665666Y-94646000D01*
X150632333Y-94679333D01*
X150599000Y-94746000D01*
X150599000Y-94846000D01*
X150632333Y-94912666D01*
X150665666Y-94946000D01*
X150732333Y-94979333D01*
X150999000Y-94979333D01*
X149932333Y-95312666D02*
X150332333Y-95312666D01*
X150132333Y-95312666D02*
X150132333Y-94612666D01*
X150199000Y-94712666D01*
X150265666Y-94779333D01*
X150332333Y-94812666D01*
X153230466Y-93391800D02*
X153263800Y-93425133D01*
X153363800Y-93458466D01*
X153430466Y-93458466D01*
X153530466Y-93425133D01*
X153597133Y-93358466D01*
X153630466Y-93291800D01*
X153663800Y-93158466D01*
X153663800Y-93058466D01*
X153630466Y-92925133D01*
X153597133Y-92858466D01*
X153530466Y-92791800D01*
X153430466Y-92758466D01*
X153363800Y-92758466D01*
X153263800Y-92791800D01*
X153230466Y-92825133D01*
X152630466Y-92991800D02*
X152630466Y-93458466D01*
X152797133Y-92725133D02*
X152963800Y-93225133D01*
X152530466Y-93225133D01*
%LPC*%
D16*
X150119080Y-88315800D03*
X150119080Y-90030300D03*
D17*
X126695200Y-109016800D03*
X125222000Y-108610400D03*
X122732800Y-108153200D03*
X128625600Y-108458000D03*
X133197600Y-99669600D03*
X122377200Y-105664000D03*
X135788400Y-91463400D03*
X132740400Y-102362000D03*
X127365616Y-106537935D03*
X125864769Y-106273295D03*
X124363922Y-106008656D03*
X135178800Y-93116400D03*
X134010400Y-94284800D03*
X114364450Y-105278334D03*
X115873941Y-106544947D03*
D18*
X141478000Y-102935000D03*
X141478000Y-101535000D03*
D17*
X126873000Y-83121500D03*
X128397000Y-83121500D03*
X125921115Y-84493156D03*
X124416329Y-84227821D03*
X134683500Y-105918000D03*
G36*
G01*
X121071891Y-81688307D02*
X121312307Y-81447891D01*
G75*
G02*
X121510297Y-81447891I98995J-98995D01*
G01*
X121708287Y-81645881D01*
G75*
G02*
X121708287Y-81843871I-98995J-98995D01*
G01*
X121467871Y-82084287D01*
G75*
G02*
X121269881Y-82084287I-98995J98995D01*
G01*
X121071891Y-81886297D01*
G75*
G02*
X121071891Y-81688307I98995J98995D01*
G01*
G37*
G36*
G01*
X121750713Y-82367129D02*
X121991129Y-82126713D01*
G75*
G02*
X122189119Y-82126713I98995J-98995D01*
G01*
X122387109Y-82324703D01*
G75*
G02*
X122387109Y-82522693I-98995J-98995D01*
G01*
X122146693Y-82763109D01*
G75*
G02*
X121948703Y-82763109I-98995J98995D01*
G01*
X121750713Y-82565119D01*
G75*
G02*
X121750713Y-82367129I98995J98995D01*
G01*
G37*
G36*
G01*
X119693500Y-83280000D02*
X119193500Y-83280000D01*
G75*
G02*
X118968500Y-83055000I0J225000D01*
G01*
X118968500Y-82605000D01*
G75*
G02*
X119193500Y-82380000I225000J0D01*
G01*
X119693500Y-82380000D01*
G75*
G02*
X119918500Y-82605000I0J-225000D01*
G01*
X119918500Y-83055000D01*
G75*
G02*
X119693500Y-83280000I-225000J0D01*
G01*
G37*
G36*
G01*
X119693500Y-81730000D02*
X119193500Y-81730000D01*
G75*
G02*
X118968500Y-81505000I0J225000D01*
G01*
X118968500Y-81055000D01*
G75*
G02*
X119193500Y-80830000I225000J0D01*
G01*
X119693500Y-80830000D01*
G75*
G02*
X119918500Y-81055000I0J-225000D01*
G01*
X119918500Y-81505000D01*
G75*
G02*
X119693500Y-81730000I-225000J0D01*
G01*
G37*
G36*
G01*
X117848894Y-83574232D02*
X117554446Y-83744232D01*
G75*
G02*
X117363202Y-83692988I-70000J121244D01*
G01*
X117223202Y-83450500D01*
G75*
G02*
X117274446Y-83259256I121244J70000D01*
G01*
X117568894Y-83089256D01*
G75*
G02*
X117760138Y-83140500I70000J-121244D01*
G01*
X117900138Y-83382988D01*
G75*
G02*
X117848894Y-83574232I-121244J-70000D01*
G01*
G37*
G36*
G01*
X117368894Y-82742848D02*
X117074446Y-82912848D01*
G75*
G02*
X116883202Y-82861604I-70000J121244D01*
G01*
X116743202Y-82619116D01*
G75*
G02*
X116794446Y-82427872I121244J70000D01*
G01*
X117088894Y-82257872D01*
G75*
G02*
X117280138Y-82309116I70000J-121244D01*
G01*
X117420138Y-82551604D01*
G75*
G02*
X117368894Y-82742848I-121244J-70000D01*
G01*
G37*
D19*
G36*
X131678466Y-117201213D02*
G01*
X135874469Y-117384414D01*
X135813402Y-118783081D01*
X131617399Y-118599880D01*
X131678466Y-117201213D01*
G37*
G36*
X131841332Y-113470966D02*
G01*
X136037335Y-113654167D01*
X135976268Y-115052834D01*
X131780265Y-114869633D01*
X131841332Y-113470966D01*
G37*
G36*
X139926839Y-116582683D02*
G01*
X139258817Y-115352339D01*
X140489161Y-114684317D01*
X141157183Y-115914661D01*
X139926839Y-116582683D01*
G37*
G36*
X137806253Y-117734067D02*
G01*
X137138231Y-116503723D01*
X138368575Y-115835701D01*
X139036597Y-117066045D01*
X137806253Y-117734067D01*
G37*
G36*
G01*
X135811211Y-113334677D02*
X134795363Y-111383251D01*
G75*
G02*
X134901678Y-111046062I221752J115437D01*
G01*
X135478236Y-110745924D01*
G75*
G02*
X135815425Y-110852239I115437J-221752D01*
G01*
X136831273Y-112803665D01*
G75*
G02*
X136724958Y-113140854I-221752J-115437D01*
G01*
X136148400Y-113440992D01*
G75*
G02*
X135811211Y-113334677I-115437J221752D01*
G01*
G37*
G36*
G01*
X138427893Y-111972519D02*
X137412045Y-110021093D01*
G75*
G02*
X137518360Y-109683904I221752J115437D01*
G01*
X138094918Y-109383766D01*
G75*
G02*
X138432107Y-109490081I115437J-221752D01*
G01*
X139447955Y-111441507D01*
G75*
G02*
X139341640Y-111778696I-221752J-115437D01*
G01*
X138765082Y-112078834D01*
G75*
G02*
X138427893Y-111972519I-115437J221752D01*
G01*
G37*
G36*
G01*
X130447643Y-112623521D02*
X130653261Y-111696039D01*
G75*
G02*
X130951445Y-111506075I244074J-54110D01*
G01*
X131439593Y-111614295D01*
G75*
G02*
X131629557Y-111912479I-54110J-244074D01*
G01*
X131423939Y-112839961D01*
G75*
G02*
X131125755Y-113029925I-244074J54110D01*
G01*
X130637607Y-112921705D01*
G75*
G02*
X130447643Y-112623521I54110J244074D01*
G01*
G37*
G36*
G01*
X132302605Y-113034757D02*
X132508223Y-112107275D01*
G75*
G02*
X132806407Y-111917311I244074J-54110D01*
G01*
X133294555Y-112025531D01*
G75*
G02*
X133484519Y-112323715I-54110J-244074D01*
G01*
X133278901Y-113251197D01*
G75*
G02*
X132980717Y-113441161I-244074J54110D01*
G01*
X132492569Y-113332941D01*
G75*
G02*
X132302605Y-113034757I54110J244074D01*
G01*
G37*
G36*
X119803111Y-90811015D02*
G01*
X124727150Y-91679256D01*
X123858909Y-96603295D01*
X118934870Y-95735054D01*
X119803111Y-90811015D01*
G37*
G36*
X115477799Y-83955786D02*
G01*
X116364126Y-84112069D01*
X116016829Y-86081684D01*
X115130502Y-85925401D01*
X115477799Y-83955786D01*
G37*
G36*
X116728504Y-84176320D02*
G01*
X117614831Y-84332603D01*
X117267534Y-86302218D01*
X116381207Y-86145935D01*
X116728504Y-84176320D01*
G37*
G36*
X117979210Y-84396853D02*
G01*
X118865537Y-84553136D01*
X118518240Y-86522751D01*
X117631913Y-86366468D01*
X117979210Y-84396853D01*
G37*
G36*
X119229916Y-84617386D02*
G01*
X120116243Y-84773669D01*
X119768946Y-86743284D01*
X118882619Y-86587001D01*
X119229916Y-84617386D01*
G37*
G36*
X120480622Y-84837919D02*
G01*
X121366949Y-84994202D01*
X121019652Y-86963817D01*
X120133325Y-86807534D01*
X120480622Y-84837919D01*
G37*
G36*
X121731328Y-85058452D02*
G01*
X122617655Y-85214735D01*
X122270358Y-87184350D01*
X121384031Y-87028067D01*
X121731328Y-85058452D01*
G37*
G36*
X122982034Y-85278986D02*
G01*
X123868361Y-85435269D01*
X123521064Y-87404884D01*
X122634737Y-87248601D01*
X122982034Y-85278986D01*
G37*
G36*
X124232739Y-85499519D02*
G01*
X125119066Y-85655802D01*
X124771769Y-87625417D01*
X123885442Y-87469134D01*
X124232739Y-85499519D01*
G37*
G36*
X125483445Y-85720052D02*
G01*
X126369772Y-85876335D01*
X126022475Y-87845950D01*
X125136148Y-87689667D01*
X125483445Y-85720052D01*
G37*
G36*
X126734151Y-85940585D02*
G01*
X127620478Y-86096868D01*
X127273181Y-88066483D01*
X126386854Y-87910200D01*
X126734151Y-85940585D01*
G37*
G36*
X127984857Y-86161118D02*
G01*
X128871184Y-86317401D01*
X128523887Y-88287016D01*
X127637560Y-88130733D01*
X127984857Y-86161118D01*
G37*
G36*
X129235563Y-86381651D02*
G01*
X130121890Y-86537934D01*
X129774593Y-88507549D01*
X128888266Y-88351266D01*
X129235563Y-86381651D01*
G37*
G36*
X130486269Y-86602185D02*
G01*
X131372596Y-86758468D01*
X131025299Y-88728083D01*
X130138972Y-88571800D01*
X130486269Y-86602185D01*
G37*
G36*
X131736975Y-86822718D02*
G01*
X132623302Y-86979001D01*
X132276005Y-88948616D01*
X131389678Y-88792333D01*
X131736975Y-86822718D01*
G37*
G36*
X133570636Y-90532490D02*
G01*
X133414353Y-91418817D01*
X131444738Y-91071520D01*
X131601021Y-90185193D01*
X133570636Y-90532490D01*
G37*
G36*
X133350103Y-91783195D02*
G01*
X133193820Y-92669522D01*
X131224205Y-92322225D01*
X131380488Y-91435898D01*
X133350103Y-91783195D01*
G37*
G36*
X133129570Y-93033901D02*
G01*
X132973287Y-93920228D01*
X131003672Y-93572931D01*
X131159955Y-92686604D01*
X133129570Y-93033901D01*
G37*
G36*
X132909037Y-94284607D02*
G01*
X132752754Y-95170934D01*
X130783139Y-94823637D01*
X130939422Y-93937310D01*
X132909037Y-94284607D01*
G37*
G36*
X132688503Y-95535313D02*
G01*
X132532220Y-96421640D01*
X130562605Y-96074343D01*
X130718888Y-95188016D01*
X132688503Y-95535313D01*
G37*
G36*
X132467970Y-96786019D02*
G01*
X132311687Y-97672346D01*
X130342072Y-97325049D01*
X130498355Y-96438722D01*
X132467970Y-96786019D01*
G37*
G36*
X132247437Y-98036725D02*
G01*
X132091154Y-98923052D01*
X130121539Y-98575755D01*
X130277822Y-97689428D01*
X132247437Y-98036725D01*
G37*
G36*
X132026904Y-99287431D02*
G01*
X131870621Y-100173758D01*
X129901006Y-99826461D01*
X130057289Y-98940134D01*
X132026904Y-99287431D01*
G37*
G36*
X131806371Y-100538136D02*
G01*
X131650088Y-101424463D01*
X129680473Y-101077166D01*
X129836756Y-100190839D01*
X131806371Y-100538136D01*
G37*
G36*
X131585837Y-101788842D02*
G01*
X131429554Y-102675169D01*
X129459939Y-102327872D01*
X129616222Y-101441545D01*
X131585837Y-101788842D01*
G37*
G36*
X128784955Y-103564450D02*
G01*
X129671282Y-103720733D01*
X129323985Y-105690348D01*
X128437658Y-105534065D01*
X128784955Y-103564450D01*
G37*
G36*
X127534250Y-103343916D02*
G01*
X128420577Y-103500199D01*
X128073280Y-105469814D01*
X127186953Y-105313531D01*
X127534250Y-103343916D01*
G37*
G36*
X126283544Y-103123383D02*
G01*
X127169871Y-103279666D01*
X126822574Y-105249281D01*
X125936247Y-105092998D01*
X126283544Y-103123383D01*
G37*
G36*
X125032838Y-102902850D02*
G01*
X125919165Y-103059133D01*
X125571868Y-105028748D01*
X124685541Y-104872465D01*
X125032838Y-102902850D01*
G37*
G36*
X123782132Y-102682317D02*
G01*
X124668459Y-102838600D01*
X124321162Y-104808215D01*
X123434835Y-104651932D01*
X123782132Y-102682317D01*
G37*
G36*
X122531426Y-102461784D02*
G01*
X123417753Y-102618067D01*
X123070456Y-104587682D01*
X122184129Y-104431399D01*
X122531426Y-102461784D01*
G37*
G36*
X121280720Y-102241250D02*
G01*
X122167047Y-102397533D01*
X121819750Y-104367148D01*
X120933423Y-104210865D01*
X121280720Y-102241250D01*
G37*
G36*
X120030015Y-102020717D02*
G01*
X120916342Y-102177000D01*
X120569045Y-104146615D01*
X119682718Y-103990332D01*
X120030015Y-102020717D01*
G37*
G36*
X118779309Y-101800184D02*
G01*
X119665636Y-101956467D01*
X119318339Y-103926082D01*
X118432012Y-103769799D01*
X118779309Y-101800184D01*
G37*
G36*
X117528603Y-101579651D02*
G01*
X118414930Y-101735934D01*
X118067633Y-103705549D01*
X117181306Y-103549266D01*
X117528603Y-101579651D01*
G37*
G36*
X116277897Y-101359118D02*
G01*
X117164224Y-101515401D01*
X116816927Y-103485016D01*
X115930600Y-103328733D01*
X116277897Y-101359118D01*
G37*
G36*
X115027191Y-101138585D02*
G01*
X115913518Y-101294868D01*
X115566221Y-103264483D01*
X114679894Y-103108200D01*
X115027191Y-101138585D01*
G37*
G36*
X113776485Y-100918051D02*
G01*
X114662812Y-101074334D01*
X114315515Y-103043949D01*
X113429188Y-102887666D01*
X113776485Y-100918051D01*
G37*
G36*
X112525779Y-100697518D02*
G01*
X113412106Y-100853801D01*
X113064809Y-102823416D01*
X112178482Y-102667133D01*
X112525779Y-100697518D01*
G37*
G36*
G01*
X134898800Y-88054000D02*
X134898800Y-87714000D01*
G75*
G02*
X135038800Y-87574000I140000J0D01*
G01*
X135318800Y-87574000D01*
G75*
G02*
X135458800Y-87714000I0J-140000D01*
G01*
X135458800Y-88054000D01*
G75*
G02*
X135318800Y-88194000I-140000J0D01*
G01*
X135038800Y-88194000D01*
G75*
G02*
X134898800Y-88054000I0J140000D01*
G01*
G37*
G36*
G01*
X135858800Y-88054000D02*
X135858800Y-87714000D01*
G75*
G02*
X135998800Y-87574000I140000J0D01*
G01*
X136278800Y-87574000D01*
G75*
G02*
X136418800Y-87714000I0J-140000D01*
G01*
X136418800Y-88054000D01*
G75*
G02*
X136278800Y-88194000I-140000J0D01*
G01*
X135998800Y-88194000D01*
G75*
G02*
X135858800Y-88054000I0J140000D01*
G01*
G37*
D17*
X147828000Y-108153200D03*
X143560800Y-80162400D03*
X123190000Y-80314800D03*
G36*
G01*
X148265200Y-85529000D02*
X148265200Y-85159000D01*
G75*
G02*
X148400200Y-85024000I135000J0D01*
G01*
X148670200Y-85024000D01*
G75*
G02*
X148805200Y-85159000I0J-135000D01*
G01*
X148805200Y-85529000D01*
G75*
G02*
X148670200Y-85664000I-135000J0D01*
G01*
X148400200Y-85664000D01*
G75*
G02*
X148265200Y-85529000I0J135000D01*
G01*
G37*
G36*
G01*
X149285200Y-85529000D02*
X149285200Y-85159000D01*
G75*
G02*
X149420200Y-85024000I135000J0D01*
G01*
X149690200Y-85024000D01*
G75*
G02*
X149825200Y-85159000I0J-135000D01*
G01*
X149825200Y-85529000D01*
G75*
G02*
X149690200Y-85664000I-135000J0D01*
G01*
X149420200Y-85664000D01*
G75*
G02*
X149285200Y-85529000I0J135000D01*
G01*
G37*
G36*
G01*
X148775200Y-84462200D02*
X148775200Y-84092200D01*
G75*
G02*
X148910200Y-83957200I135000J0D01*
G01*
X149180200Y-83957200D01*
G75*
G02*
X149315200Y-84092200I0J-135000D01*
G01*
X149315200Y-84462200D01*
G75*
G02*
X149180200Y-84597200I-135000J0D01*
G01*
X148910200Y-84597200D01*
G75*
G02*
X148775200Y-84462200I0J135000D01*
G01*
G37*
G36*
G01*
X149795200Y-84462200D02*
X149795200Y-84092200D01*
G75*
G02*
X149930200Y-83957200I135000J0D01*
G01*
X150200200Y-83957200D01*
G75*
G02*
X150335200Y-84092200I0J-135000D01*
G01*
X150335200Y-84462200D01*
G75*
G02*
X150200200Y-84597200I-135000J0D01*
G01*
X149930200Y-84597200D01*
G75*
G02*
X149795200Y-84462200I0J135000D01*
G01*
G37*
G36*
G01*
X133498004Y-98507123D02*
X133133625Y-98442873D01*
G75*
G02*
X133024119Y-98286481I23443J132949D01*
G01*
X133071004Y-98020583D01*
G75*
G02*
X133227396Y-97911077I132949J-23443D01*
G01*
X133591775Y-97975327D01*
G75*
G02*
X133701281Y-98131719I-23443J-132949D01*
G01*
X133654396Y-98397617D01*
G75*
G02*
X133498004Y-98507123I-132949J23443D01*
G01*
G37*
G36*
G01*
X133675126Y-97502619D02*
X133310747Y-97438369D01*
G75*
G02*
X133201241Y-97281977I23443J132949D01*
G01*
X133248126Y-97016079D01*
G75*
G02*
X133404518Y-96906573I132949J-23443D01*
G01*
X133768897Y-96970823D01*
G75*
G02*
X133878403Y-97127215I-23443J-132949D01*
G01*
X133831518Y-97393113D01*
G75*
G02*
X133675126Y-97502619I-132949J23443D01*
G01*
G37*
G36*
G01*
X139260800Y-98417800D02*
X139260800Y-98787800D01*
G75*
G02*
X139125800Y-98922800I-135000J0D01*
G01*
X138855800Y-98922800D01*
G75*
G02*
X138720800Y-98787800I0J135000D01*
G01*
X138720800Y-98417800D01*
G75*
G02*
X138855800Y-98282800I135000J0D01*
G01*
X139125800Y-98282800D01*
G75*
G02*
X139260800Y-98417800I0J-135000D01*
G01*
G37*
G36*
G01*
X138240800Y-98417800D02*
X138240800Y-98787800D01*
G75*
G02*
X138105800Y-98922800I-135000J0D01*
G01*
X137835800Y-98922800D01*
G75*
G02*
X137700800Y-98787800I0J135000D01*
G01*
X137700800Y-98417800D01*
G75*
G02*
X137835800Y-98282800I135000J0D01*
G01*
X138105800Y-98282800D01*
G75*
G02*
X138240800Y-98417800I0J-135000D01*
G01*
G37*
D20*
X136839200Y-97637600D03*
X134839200Y-96687600D03*
X134839200Y-98587600D03*
D21*
X138239500Y-95478600D03*
X138239500Y-94780100D03*
X138239500Y-93383100D03*
X138239500Y-96177100D03*
X138239500Y-94081600D03*
X138239500Y-92684600D03*
X138239500Y-91287600D03*
X138239500Y-91986100D03*
X138239500Y-90589100D03*
X138239500Y-89890600D03*
X138239500Y-89192100D03*
X138239500Y-88493600D03*
G36*
G01*
X144432500Y-102446000D02*
X144432500Y-102786000D01*
G75*
G02*
X144292500Y-102926000I-140000J0D01*
G01*
X144012500Y-102926000D01*
G75*
G02*
X143872500Y-102786000I0J140000D01*
G01*
X143872500Y-102446000D01*
G75*
G02*
X144012500Y-102306000I140000J0D01*
G01*
X144292500Y-102306000D01*
G75*
G02*
X144432500Y-102446000I0J-140000D01*
G01*
G37*
G36*
G01*
X143472500Y-102446000D02*
X143472500Y-102786000D01*
G75*
G02*
X143332500Y-102926000I-140000J0D01*
G01*
X143052500Y-102926000D01*
G75*
G02*
X142912500Y-102786000I0J140000D01*
G01*
X142912500Y-102446000D01*
G75*
G02*
X143052500Y-102306000I140000J0D01*
G01*
X143332500Y-102306000D01*
G75*
G02*
X143472500Y-102446000I0J-140000D01*
G01*
G37*
G36*
G01*
X138096500Y-107436500D02*
X138096500Y-107066500D01*
G75*
G02*
X138231500Y-106931500I135000J0D01*
G01*
X138501500Y-106931500D01*
G75*
G02*
X138636500Y-107066500I0J-135000D01*
G01*
X138636500Y-107436500D01*
G75*
G02*
X138501500Y-107571500I-135000J0D01*
G01*
X138231500Y-107571500D01*
G75*
G02*
X138096500Y-107436500I0J135000D01*
G01*
G37*
G36*
G01*
X139116500Y-107436500D02*
X139116500Y-107066500D01*
G75*
G02*
X139251500Y-106931500I135000J0D01*
G01*
X139521500Y-106931500D01*
G75*
G02*
X139656500Y-107066500I0J-135000D01*
G01*
X139656500Y-107436500D01*
G75*
G02*
X139521500Y-107571500I-135000J0D01*
G01*
X139251500Y-107571500D01*
G75*
G02*
X139116500Y-107436500I0J135000D01*
G01*
G37*
D20*
X139636500Y-104902000D03*
X137636500Y-103952000D03*
X137636500Y-105852000D03*
D22*
X141478000Y-104902000D03*
X141478000Y-108458000D03*
X144907000Y-108458000D03*
D19*
G36*
X135989838Y-81215710D02*
G01*
X135968049Y-81464759D01*
X135270712Y-81403750D01*
X135292501Y-81154701D01*
X135989838Y-81215710D01*
G37*
G36*
X135954975Y-81614188D02*
G01*
X135933186Y-81863237D01*
X135235849Y-81802228D01*
X135257638Y-81553179D01*
X135954975Y-81614188D01*
G37*
G36*
X135920113Y-82012665D02*
G01*
X135898324Y-82261714D01*
X135200987Y-82200705D01*
X135222776Y-81951656D01*
X135920113Y-82012665D01*
G37*
G36*
X135885251Y-82411143D02*
G01*
X135863462Y-82660192D01*
X135166125Y-82599183D01*
X135187914Y-82350134D01*
X135885251Y-82411143D01*
G37*
G36*
X135850389Y-82809621D02*
G01*
X135828600Y-83058670D01*
X135131263Y-82997661D01*
X135153052Y-82748612D01*
X135850389Y-82809621D01*
G37*
G36*
X135815526Y-83208099D02*
G01*
X135793737Y-83457148D01*
X135096400Y-83396139D01*
X135118189Y-83147090D01*
X135815526Y-83208099D01*
G37*
G36*
X138754301Y-83465208D02*
G01*
X138732512Y-83714257D01*
X138035175Y-83653248D01*
X138056964Y-83404199D01*
X138754301Y-83465208D01*
G37*
G36*
X138789163Y-83066731D02*
G01*
X138767374Y-83315780D01*
X138070037Y-83254771D01*
X138091826Y-83005722D01*
X138789163Y-83066731D01*
G37*
G36*
X138824025Y-82668253D02*
G01*
X138802236Y-82917302D01*
X138104899Y-82856293D01*
X138126688Y-82607244D01*
X138824025Y-82668253D01*
G37*
G36*
X138858887Y-82269775D02*
G01*
X138837098Y-82518824D01*
X138139761Y-82457815D01*
X138161550Y-82208766D01*
X138858887Y-82269775D01*
G37*
G36*
X138893750Y-81871297D02*
G01*
X138871961Y-82120346D01*
X138174624Y-82059337D01*
X138196413Y-81810288D01*
X138893750Y-81871297D01*
G37*
G36*
X138928612Y-81472819D02*
G01*
X138906823Y-81721868D01*
X138209486Y-81660859D01*
X138231275Y-81411810D01*
X138928612Y-81472819D01*
G37*
G36*
X138719438Y-83863686D02*
G01*
X138697649Y-84112735D01*
X138000312Y-84051726D01*
X138022101Y-83802677D01*
X138719438Y-83863686D01*
G37*
G36*
X135780664Y-83606577D02*
G01*
X135758875Y-83855626D01*
X135061538Y-83794617D01*
X135083327Y-83545568D01*
X135780664Y-83606577D01*
G37*
G36*
X137984096Y-81540758D02*
G01*
X137779280Y-83881815D01*
X136006054Y-83726678D01*
X136210870Y-81385621D01*
X137984096Y-81540758D01*
G37*
G36*
G01*
X139782319Y-84306572D02*
X139825897Y-83808474D01*
G75*
G02*
X140069651Y-83603940I224144J-19610D01*
G01*
X140517939Y-83643160D01*
G75*
G02*
X140722473Y-83886914I-19610J-224144D01*
G01*
X140678895Y-84385012D01*
G75*
G02*
X140435141Y-84589546I-224144J19610D01*
G01*
X139986853Y-84550326D01*
G75*
G02*
X139782319Y-84306572I19610J224144D01*
G01*
G37*
G36*
G01*
X141326421Y-84441664D02*
X141369999Y-83943566D01*
G75*
G02*
X141613753Y-83739032I224144J-19610D01*
G01*
X142062041Y-83778252D01*
G75*
G02*
X142266575Y-84022006I-19610J-224144D01*
G01*
X142222997Y-84520104D01*
G75*
G02*
X141979243Y-84724638I-224144J19610D01*
G01*
X141530955Y-84685418D01*
G75*
G02*
X141326421Y-84441664I19610J224144D01*
G01*
G37*
G36*
G01*
X127709185Y-72689045D02*
X128077777Y-72721293D01*
G75*
G02*
X128200497Y-72867545I-11766J-134486D01*
G01*
X128176965Y-73136517D01*
G75*
G02*
X128030713Y-73259237I-134486J11766D01*
G01*
X127662121Y-73226989D01*
G75*
G02*
X127539401Y-73080737I11766J134486D01*
G01*
X127562933Y-72811765D01*
G75*
G02*
X127709185Y-72689045I134486J-11766D01*
G01*
G37*
G36*
G01*
X127620287Y-73705163D02*
X127988879Y-73737411D01*
G75*
G02*
X128111599Y-73883663I-11766J-134486D01*
G01*
X128088067Y-74152635D01*
G75*
G02*
X127941815Y-74275355I-134486J11766D01*
G01*
X127573223Y-74243107D01*
G75*
G02*
X127450503Y-74096855I11766J134486D01*
G01*
X127474035Y-73827883D01*
G75*
G02*
X127620287Y-73705163I134486J-11766D01*
G01*
G37*
G36*
G01*
X128999385Y-72906818D02*
X129356778Y-73002582D01*
G75*
G02*
X129452237Y-73167923I-34941J-130400D01*
G01*
X129382356Y-73428723D01*
G75*
G02*
X129217015Y-73524182I-130400J34941D01*
G01*
X128859622Y-73428418D01*
G75*
G02*
X128764163Y-73263077I34941J130400D01*
G01*
X128834044Y-73002277D01*
G75*
G02*
X128999385Y-72906818I130400J-34941D01*
G01*
G37*
G36*
G01*
X128735389Y-73892062D02*
X129092782Y-73987826D01*
G75*
G02*
X129188241Y-74153167I-34941J-130400D01*
G01*
X129118360Y-74413967D01*
G75*
G02*
X128953019Y-74509426I-130400J34941D01*
G01*
X128595626Y-74413662D01*
G75*
G02*
X128500167Y-74248321I34941J130400D01*
G01*
X128570048Y-73987521D01*
G75*
G02*
X128735389Y-73892062I130400J-34941D01*
G01*
G37*
G36*
G01*
X127783997Y-71532005D02*
X127871996Y-71203590D01*
G75*
G02*
X128043461Y-71104595I135230J-36235D01*
G01*
X128313920Y-71177064D01*
G75*
G02*
X128412915Y-71348529I-36235J-135230D01*
G01*
X128324916Y-71676944D01*
G75*
G02*
X128153451Y-71775939I-135230J36235D01*
G01*
X127882992Y-71703470D01*
G75*
G02*
X127783997Y-71532005I36235J135230D01*
G01*
G37*
G36*
G01*
X128711285Y-71780471D02*
X128799284Y-71452056D01*
G75*
G02*
X128970749Y-71353061I135230J-36235D01*
G01*
X129241208Y-71425530D01*
G75*
G02*
X129340203Y-71596995I-36235J-135230D01*
G01*
X129252204Y-71925410D01*
G75*
G02*
X129080739Y-72024405I-135230J36235D01*
G01*
X128810280Y-71951936D01*
G75*
G02*
X128711285Y-71780471I36235J135230D01*
G01*
G37*
G36*
G01*
X130462772Y-74381047D02*
X130134357Y-74293048D01*
G75*
G02*
X130035362Y-74121583I36235J135230D01*
G01*
X130107831Y-73851124D01*
G75*
G02*
X130279296Y-73752129I135230J-36235D01*
G01*
X130607711Y-73840128D01*
G75*
G02*
X130706706Y-74011593I-36235J-135230D01*
G01*
X130634237Y-74282052D01*
G75*
G02*
X130462772Y-74381047I-135230J36235D01*
G01*
G37*
G36*
G01*
X130711238Y-73453759D02*
X130382823Y-73365760D01*
G75*
G02*
X130283828Y-73194295I36235J135230D01*
G01*
X130356297Y-72923836D01*
G75*
G02*
X130527762Y-72824841I135230J-36235D01*
G01*
X130856177Y-72912840D01*
G75*
G02*
X130955172Y-73084305I-36235J-135230D01*
G01*
X130882703Y-73354764D01*
G75*
G02*
X130711238Y-73453759I-135230J36235D01*
G01*
G37*
G36*
G01*
X140387528Y-85351630D02*
X140343950Y-85849728D01*
G75*
G02*
X140100196Y-86054262I-224144J19610D01*
G01*
X139651908Y-86015042D01*
G75*
G02*
X139447374Y-85771288I19610J224144D01*
G01*
X139490952Y-85273190D01*
G75*
G02*
X139734706Y-85068656I224144J-19610D01*
G01*
X140182994Y-85107876D01*
G75*
G02*
X140387528Y-85351630I-19610J-224144D01*
G01*
G37*
G36*
G01*
X138843426Y-85216538D02*
X138799848Y-85714636D01*
G75*
G02*
X138556094Y-85919170I-224144J19610D01*
G01*
X138107806Y-85879950D01*
G75*
G02*
X137903272Y-85636196I19610J224144D01*
G01*
X137946850Y-85138098D01*
G75*
G02*
X138190604Y-84933564I224144J-19610D01*
G01*
X138638892Y-84972784D01*
G75*
G02*
X138843426Y-85216538I-19610J-224144D01*
G01*
G37*
G36*
G01*
X132458523Y-80163107D02*
X132490771Y-79794515D01*
G75*
G02*
X132637023Y-79671795I134486J-11766D01*
G01*
X132905995Y-79695327D01*
G75*
G02*
X133028715Y-79841579I-11766J-134486D01*
G01*
X132996467Y-80210171D01*
G75*
G02*
X132850215Y-80332891I-134486J11766D01*
G01*
X132581243Y-80309359D01*
G75*
G02*
X132458523Y-80163107I11766J134486D01*
G01*
G37*
G36*
G01*
X133474641Y-80252005D02*
X133506889Y-79883413D01*
G75*
G02*
X133653141Y-79760693I134486J-11766D01*
G01*
X133922113Y-79784225D01*
G75*
G02*
X134044833Y-79930477I-11766J-134486D01*
G01*
X134012585Y-80299069D01*
G75*
G02*
X133866333Y-80421789I-134486J11766D01*
G01*
X133597361Y-80398257D01*
G75*
G02*
X133474641Y-80252005I11766J134486D01*
G01*
G37*
G36*
G01*
X134787464Y-81494209D02*
X134418872Y-81461961D01*
G75*
G02*
X134296152Y-81315709I11766J134486D01*
G01*
X134319684Y-81046737D01*
G75*
G02*
X134465936Y-80924017I134486J-11766D01*
G01*
X134834528Y-80956265D01*
G75*
G02*
X134957248Y-81102517I-11766J-134486D01*
G01*
X134933716Y-81371489D01*
G75*
G02*
X134787464Y-81494209I-134486J11766D01*
G01*
G37*
G36*
G01*
X134876362Y-80478091D02*
X134507770Y-80445843D01*
G75*
G02*
X134385050Y-80299591I11766J134486D01*
G01*
X134408582Y-80030619D01*
G75*
G02*
X134554834Y-79907899I134486J-11766D01*
G01*
X134923426Y-79940147D01*
G75*
G02*
X135046146Y-80086399I-11766J-134486D01*
G01*
X135022614Y-80355371D01*
G75*
G02*
X134876362Y-80478091I-134486J11766D01*
G01*
G37*
G36*
G01*
X132422158Y-81156034D02*
X132454406Y-80787442D01*
G75*
G02*
X132600658Y-80664722I134486J-11766D01*
G01*
X132869630Y-80688254D01*
G75*
G02*
X132992350Y-80834506I-11766J-134486D01*
G01*
X132960102Y-81203098D01*
G75*
G02*
X132813850Y-81325818I-134486J11766D01*
G01*
X132544878Y-81302286D01*
G75*
G02*
X132422158Y-81156034I11766J134486D01*
G01*
G37*
G36*
G01*
X133438276Y-81244932D02*
X133470524Y-80876340D01*
G75*
G02*
X133616776Y-80753620I134486J-11766D01*
G01*
X133885748Y-80777152D01*
G75*
G02*
X134008468Y-80923404I-11766J-134486D01*
G01*
X133976220Y-81291996D01*
G75*
G02*
X133829968Y-81414716I-134486J11766D01*
G01*
X133560996Y-81391184D01*
G75*
G02*
X133438276Y-81244932I11766J134486D01*
G01*
G37*
G36*
G01*
X134221179Y-83618263D02*
X134177601Y-84116361D01*
G75*
G02*
X133933847Y-84320895I-224144J19610D01*
G01*
X133485559Y-84281675D01*
G75*
G02*
X133281025Y-84037921I19610J224144D01*
G01*
X133324603Y-83539823D01*
G75*
G02*
X133568357Y-83335289I224144J-19610D01*
G01*
X134016645Y-83374509D01*
G75*
G02*
X134221179Y-83618263I-19610J-224144D01*
G01*
G37*
G36*
G01*
X132677077Y-83483171D02*
X132633499Y-83981269D01*
G75*
G02*
X132389745Y-84185803I-224144J19610D01*
G01*
X131941457Y-84146583D01*
G75*
G02*
X131736923Y-83902829I19610J224144D01*
G01*
X131780501Y-83404731D01*
G75*
G02*
X132024255Y-83200197I224144J-19610D01*
G01*
X132472543Y-83239417D01*
G75*
G02*
X132677077Y-83483171I-19610J-224144D01*
G01*
G37*
G36*
G01*
X139023833Y-79957007D02*
X138980255Y-80455105D01*
G75*
G02*
X138736501Y-80659639I-224144J19610D01*
G01*
X138288213Y-80620419D01*
G75*
G02*
X138083679Y-80376665I19610J224144D01*
G01*
X138127257Y-79878567D01*
G75*
G02*
X138371011Y-79674033I224144J-19610D01*
G01*
X138819299Y-79713253D01*
G75*
G02*
X139023833Y-79957007I-19610J-224144D01*
G01*
G37*
G36*
G01*
X137479731Y-79821915D02*
X137436153Y-80320013D01*
G75*
G02*
X137192399Y-80524547I-224144J19610D01*
G01*
X136744111Y-80485327D01*
G75*
G02*
X136539577Y-80241573I19610J224144D01*
G01*
X136583155Y-79743475D01*
G75*
G02*
X136826909Y-79538941I224144J-19610D01*
G01*
X137275197Y-79578161D01*
G75*
G02*
X137479731Y-79821915I-19610J-224144D01*
G01*
G37*
G36*
G01*
X140392173Y-83105411D02*
X139894075Y-83061833D01*
G75*
G02*
X139689541Y-82818079I19610J224144D01*
G01*
X139728761Y-82369791D01*
G75*
G02*
X139972515Y-82165257I224144J-19610D01*
G01*
X140470613Y-82208835D01*
G75*
G02*
X140675147Y-82452589I-19610J-224144D01*
G01*
X140635927Y-82900877D01*
G75*
G02*
X140392173Y-83105411I-224144J19610D01*
G01*
G37*
G36*
G01*
X140527265Y-81561309D02*
X140029167Y-81517731D01*
G75*
G02*
X139824633Y-81273977I19610J224144D01*
G01*
X139863853Y-80825689D01*
G75*
G02*
X140107607Y-80621155I224144J-19610D01*
G01*
X140605705Y-80664733D01*
G75*
G02*
X140810239Y-80908487I-19610J-224144D01*
G01*
X140771019Y-81356775D01*
G75*
G02*
X140527265Y-81561309I-224144J19610D01*
G01*
G37*
G36*
G01*
X134017979Y-82119663D02*
X133974401Y-82617761D01*
G75*
G02*
X133730647Y-82822295I-224144J19610D01*
G01*
X133282359Y-82783075D01*
G75*
G02*
X133077825Y-82539321I19610J224144D01*
G01*
X133121403Y-82041223D01*
G75*
G02*
X133365157Y-81836689I224144J-19610D01*
G01*
X133813445Y-81875909D01*
G75*
G02*
X134017979Y-82119663I-19610J-224144D01*
G01*
G37*
G36*
G01*
X132473877Y-81984571D02*
X132430299Y-82482669D01*
G75*
G02*
X132186545Y-82687203I-224144J19610D01*
G01*
X131738257Y-82647983D01*
G75*
G02*
X131533723Y-82404229I19610J224144D01*
G01*
X131577301Y-81906131D01*
G75*
G02*
X131821055Y-81701597I224144J-19610D01*
G01*
X132269343Y-81740817D01*
G75*
G02*
X132473877Y-81984571I-19610J-224144D01*
G01*
G37*
G36*
X122096298Y-72483963D02*
G01*
X122821344Y-72145868D01*
X122990392Y-72508391D01*
X122265346Y-72846486D01*
X122096298Y-72483963D01*
G37*
G36*
X122310988Y-72944367D02*
G01*
X123036034Y-72606272D01*
X123205082Y-72968795D01*
X122480036Y-73306890D01*
X122310988Y-72944367D01*
G37*
G36*
X122525678Y-73404771D02*
G01*
X123250724Y-73066676D01*
X123419772Y-73429199D01*
X122694726Y-73767294D01*
X122525678Y-73404771D01*
G37*
G36*
G01*
X117846051Y-74419712D02*
X117981997Y-74356319D01*
G75*
G02*
X118081666Y-74392596I31696J-67973D01*
G01*
X118377498Y-75027011D01*
G75*
G02*
X118341221Y-75126680I-67973J-31696D01*
G01*
X118205275Y-75190073D01*
G75*
G02*
X118105606Y-75153796I-31696J67973D01*
G01*
X117809774Y-74519381D01*
G75*
G02*
X117846051Y-74419712I67973J31696D01*
G01*
G37*
G36*
G01*
X118299205Y-74208403D02*
X118435151Y-74145010D01*
G75*
G02*
X118534820Y-74181287I31696J-67973D01*
G01*
X118830652Y-74815702D01*
G75*
G02*
X118794375Y-74915371I-67973J-31696D01*
G01*
X118658429Y-74978764D01*
G75*
G02*
X118558760Y-74942487I-31696J67973D01*
G01*
X118262928Y-74308072D01*
G75*
G02*
X118299205Y-74208403I67973J31696D01*
G01*
G37*
G36*
G01*
X118752358Y-73997093D02*
X118888304Y-73933700D01*
G75*
G02*
X118987973Y-73969977I31696J-67973D01*
G01*
X119283805Y-74604392D01*
G75*
G02*
X119247528Y-74704061I-67973J-31696D01*
G01*
X119111582Y-74767454D01*
G75*
G02*
X119011913Y-74731177I-31696J67973D01*
G01*
X118716081Y-74096762D01*
G75*
G02*
X118752358Y-73997093I67973J31696D01*
G01*
G37*
G36*
G01*
X119205512Y-73785784D02*
X119341458Y-73722391D01*
G75*
G02*
X119441127Y-73758668I31696J-67973D01*
G01*
X119736959Y-74393083D01*
G75*
G02*
X119700682Y-74492752I-67973J-31696D01*
G01*
X119564736Y-74556145D01*
G75*
G02*
X119465067Y-74519868I-31696J67973D01*
G01*
X119169235Y-73885453D01*
G75*
G02*
X119205512Y-73785784I67973J31696D01*
G01*
G37*
G36*
G01*
X119658666Y-73574475D02*
X119794612Y-73511082D01*
G75*
G02*
X119894281Y-73547359I31696J-67973D01*
G01*
X120190113Y-74181774D01*
G75*
G02*
X120153836Y-74281443I-67973J-31696D01*
G01*
X120017890Y-74344836D01*
G75*
G02*
X119918221Y-74308559I-31696J67973D01*
G01*
X119622389Y-73674144D01*
G75*
G02*
X119658666Y-73574475I67973J31696D01*
G01*
G37*
G36*
G01*
X120111820Y-73363166D02*
X120247766Y-73299773D01*
G75*
G02*
X120347435Y-73336050I31696J-67973D01*
G01*
X120643267Y-73970465D01*
G75*
G02*
X120606990Y-74070134I-67973J-31696D01*
G01*
X120471044Y-74133527D01*
G75*
G02*
X120371375Y-74097250I-31696J67973D01*
G01*
X120075543Y-73462835D01*
G75*
G02*
X120111820Y-73363166I67973J31696D01*
G01*
G37*
G36*
G01*
X121643137Y-73807648D02*
X121706530Y-73943594D01*
G75*
G02*
X121670253Y-74043263I-67973J-31696D01*
G01*
X121035838Y-74339095D01*
G75*
G02*
X120936169Y-74302818I-31696J67973D01*
G01*
X120872776Y-74166872D01*
G75*
G02*
X120909053Y-74067203I67973J31696D01*
G01*
X121543468Y-73771371D01*
G75*
G02*
X121643137Y-73807648I31696J-67973D01*
G01*
G37*
G36*
G01*
X121854446Y-74260802D02*
X121917839Y-74396748D01*
G75*
G02*
X121881562Y-74496417I-67973J-31696D01*
G01*
X121247147Y-74792249D01*
G75*
G02*
X121147478Y-74755972I-31696J67973D01*
G01*
X121084085Y-74620026D01*
G75*
G02*
X121120362Y-74520357I67973J31696D01*
G01*
X121754777Y-74224525D01*
G75*
G02*
X121854446Y-74260802I31696J-67973D01*
G01*
G37*
G36*
G01*
X122065756Y-74713955D02*
X122129149Y-74849901D01*
G75*
G02*
X122092872Y-74949570I-67973J-31696D01*
G01*
X121458457Y-75245402D01*
G75*
G02*
X121358788Y-75209125I-31696J67973D01*
G01*
X121295395Y-75073179D01*
G75*
G02*
X121331672Y-74973510I67973J31696D01*
G01*
X121966087Y-74677678D01*
G75*
G02*
X122065756Y-74713955I31696J-67973D01*
G01*
G37*
G36*
G01*
X122277065Y-75167109D02*
X122340458Y-75303055D01*
G75*
G02*
X122304181Y-75402724I-67973J-31696D01*
G01*
X121669766Y-75698556D01*
G75*
G02*
X121570097Y-75662279I-31696J67973D01*
G01*
X121506704Y-75526333D01*
G75*
G02*
X121542981Y-75426664I67973J31696D01*
G01*
X122177396Y-75130832D01*
G75*
G02*
X122277065Y-75167109I31696J-67973D01*
G01*
G37*
G36*
G01*
X122488374Y-75620263D02*
X122551767Y-75756209D01*
G75*
G02*
X122515490Y-75855878I-67973J-31696D01*
G01*
X121881075Y-76151710D01*
G75*
G02*
X121781406Y-76115433I-31696J67973D01*
G01*
X121718013Y-75979487D01*
G75*
G02*
X121754290Y-75879818I67973J31696D01*
G01*
X122388705Y-75583986D01*
G75*
G02*
X122488374Y-75620263I31696J-67973D01*
G01*
G37*
G36*
G01*
X122699683Y-76073417D02*
X122763076Y-76209363D01*
G75*
G02*
X122726799Y-76309032I-67973J-31696D01*
G01*
X122092384Y-76604864D01*
G75*
G02*
X121992715Y-76568587I-31696J67973D01*
G01*
X121929322Y-76432641D01*
G75*
G02*
X121965599Y-76332972I67973J31696D01*
G01*
X122600014Y-76037140D01*
G75*
G02*
X122699683Y-76073417I31696J-67973D01*
G01*
G37*
G36*
G01*
X121760031Y-76897766D02*
X121895977Y-76834373D01*
G75*
G02*
X121995646Y-76870650I31696J-67973D01*
G01*
X122291478Y-77505065D01*
G75*
G02*
X122255201Y-77604734I-67973J-31696D01*
G01*
X122119255Y-77668127D01*
G75*
G02*
X122019586Y-77631850I-31696J67973D01*
G01*
X121723754Y-76997435D01*
G75*
G02*
X121760031Y-76897766I67973J31696D01*
G01*
G37*
G36*
G01*
X121306877Y-77109075D02*
X121442823Y-77045682D01*
G75*
G02*
X121542492Y-77081959I31696J-67973D01*
G01*
X121838324Y-77716374D01*
G75*
G02*
X121802047Y-77816043I-67973J-31696D01*
G01*
X121666101Y-77879436D01*
G75*
G02*
X121566432Y-77843159I-31696J67973D01*
G01*
X121270600Y-77208744D01*
G75*
G02*
X121306877Y-77109075I67973J31696D01*
G01*
G37*
G36*
G01*
X120853724Y-77320385D02*
X120989670Y-77256992D01*
G75*
G02*
X121089339Y-77293269I31696J-67973D01*
G01*
X121385171Y-77927684D01*
G75*
G02*
X121348894Y-78027353I-67973J-31696D01*
G01*
X121212948Y-78090746D01*
G75*
G02*
X121113279Y-78054469I-31696J67973D01*
G01*
X120817447Y-77420054D01*
G75*
G02*
X120853724Y-77320385I67973J31696D01*
G01*
G37*
G36*
G01*
X120400570Y-77531694D02*
X120536516Y-77468301D01*
G75*
G02*
X120636185Y-77504578I31696J-67973D01*
G01*
X120932017Y-78138993D01*
G75*
G02*
X120895740Y-78238662I-67973J-31696D01*
G01*
X120759794Y-78302055D01*
G75*
G02*
X120660125Y-78265778I-31696J67973D01*
G01*
X120364293Y-77631363D01*
G75*
G02*
X120400570Y-77531694I67973J31696D01*
G01*
G37*
G36*
G01*
X119947416Y-77743003D02*
X120083362Y-77679610D01*
G75*
G02*
X120183031Y-77715887I31696J-67973D01*
G01*
X120478863Y-78350302D01*
G75*
G02*
X120442586Y-78449971I-67973J-31696D01*
G01*
X120306640Y-78513364D01*
G75*
G02*
X120206971Y-78477087I-31696J67973D01*
G01*
X119911139Y-77842672D01*
G75*
G02*
X119947416Y-77743003I67973J31696D01*
G01*
G37*
G36*
G01*
X119494262Y-77954312D02*
X119630208Y-77890919D01*
G75*
G02*
X119729877Y-77927196I31696J-67973D01*
G01*
X120025709Y-78561611D01*
G75*
G02*
X119989432Y-78661280I-67973J-31696D01*
G01*
X119853486Y-78724673D01*
G75*
G02*
X119753817Y-78688396I-31696J67973D01*
G01*
X119457985Y-78053981D01*
G75*
G02*
X119494262Y-77954312I67973J31696D01*
G01*
G37*
G36*
G01*
X119165083Y-77721628D02*
X119228476Y-77857574D01*
G75*
G02*
X119192199Y-77957243I-67973J-31696D01*
G01*
X118557784Y-78253075D01*
G75*
G02*
X118458115Y-78216798I-31696J67973D01*
G01*
X118394722Y-78080852D01*
G75*
G02*
X118430999Y-77981183I67973J31696D01*
G01*
X119065414Y-77685351D01*
G75*
G02*
X119165083Y-77721628I31696J-67973D01*
G01*
G37*
G36*
G01*
X118953774Y-77268474D02*
X119017167Y-77404420D01*
G75*
G02*
X118980890Y-77504089I-67973J-31696D01*
G01*
X118346475Y-77799921D01*
G75*
G02*
X118246806Y-77763644I-31696J67973D01*
G01*
X118183413Y-77627698D01*
G75*
G02*
X118219690Y-77528029I67973J31696D01*
G01*
X118854105Y-77232197D01*
G75*
G02*
X118953774Y-77268474I31696J-67973D01*
G01*
G37*
G36*
G01*
X118742464Y-76815321D02*
X118805857Y-76951267D01*
G75*
G02*
X118769580Y-77050936I-67973J-31696D01*
G01*
X118135165Y-77346768D01*
G75*
G02*
X118035496Y-77310491I-31696J67973D01*
G01*
X117972103Y-77174545D01*
G75*
G02*
X118008380Y-77074876I67973J31696D01*
G01*
X118642795Y-76779044D01*
G75*
G02*
X118742464Y-76815321I31696J-67973D01*
G01*
G37*
G36*
G01*
X118531155Y-76362167D02*
X118594548Y-76498113D01*
G75*
G02*
X118558271Y-76597782I-67973J-31696D01*
G01*
X117923856Y-76893614D01*
G75*
G02*
X117824187Y-76857337I-31696J67973D01*
G01*
X117760794Y-76721391D01*
G75*
G02*
X117797071Y-76621722I67973J31696D01*
G01*
X118431486Y-76325890D01*
G75*
G02*
X118531155Y-76362167I31696J-67973D01*
G01*
G37*
G36*
G01*
X118319846Y-75909013D02*
X118383239Y-76044959D01*
G75*
G02*
X118346962Y-76144628I-67973J-31696D01*
G01*
X117712547Y-76440460D01*
G75*
G02*
X117612878Y-76404183I-31696J67973D01*
G01*
X117549485Y-76268237D01*
G75*
G02*
X117585762Y-76168568I67973J31696D01*
G01*
X118220177Y-75872736D01*
G75*
G02*
X118319846Y-75909013I31696J-67973D01*
G01*
G37*
G36*
G01*
X118108537Y-75455859D02*
X118171930Y-75591805D01*
G75*
G02*
X118135653Y-75691474I-67973J-31696D01*
G01*
X117501238Y-75987306D01*
G75*
G02*
X117401569Y-75951029I-31696J67973D01*
G01*
X117338176Y-75815083D01*
G75*
G02*
X117374453Y-75715414I67973J31696D01*
G01*
X118008868Y-75419582D01*
G75*
G02*
X118108537Y-75455859I31696J-67973D01*
G01*
G37*
G36*
G01*
X125058481Y-82188352D02*
X124796852Y-82449981D01*
G75*
G02*
X124605934Y-82449981I-95459J95459D01*
G01*
X124415015Y-82259062D01*
G75*
G02*
X124415015Y-82068144I95459J95459D01*
G01*
X124676644Y-81806515D01*
G75*
G02*
X124867562Y-81806515I95459J-95459D01*
G01*
X125058481Y-81997434D01*
G75*
G02*
X125058481Y-82188352I-95459J-95459D01*
G01*
G37*
G36*
G01*
X124337233Y-81467104D02*
X124075604Y-81728733D01*
G75*
G02*
X123884686Y-81728733I-95459J95459D01*
G01*
X123693767Y-81537814D01*
G75*
G02*
X123693767Y-81346896I95459J95459D01*
G01*
X123955396Y-81085267D01*
G75*
G02*
X124146314Y-81085267I95459J-95459D01*
G01*
X124337233Y-81276186D01*
G75*
G02*
X124337233Y-81467104I-95459J-95459D01*
G01*
G37*
G36*
G01*
X124337233Y-82927604D02*
X124075604Y-83189233D01*
G75*
G02*
X123884686Y-83189233I-95459J95459D01*
G01*
X123693767Y-82998314D01*
G75*
G02*
X123693767Y-82807396I95459J95459D01*
G01*
X123955396Y-82545767D01*
G75*
G02*
X124146314Y-82545767I95459J-95459D01*
G01*
X124337233Y-82736686D01*
G75*
G02*
X124337233Y-82927604I-95459J-95459D01*
G01*
G37*
G36*
G01*
X123615985Y-82206356D02*
X123354356Y-82467985D01*
G75*
G02*
X123163438Y-82467985I-95459J95459D01*
G01*
X122972519Y-82277066D01*
G75*
G02*
X122972519Y-82086148I95459J95459D01*
G01*
X123234148Y-81824519D01*
G75*
G02*
X123425066Y-81824519I95459J-95459D01*
G01*
X123615985Y-82015438D01*
G75*
G02*
X123615985Y-82206356I-95459J-95459D01*
G01*
G37*
G36*
G01*
X124229257Y-74682115D02*
X124537402Y-74538425D01*
G75*
G02*
X124723452Y-74606141I59167J-126883D01*
G01*
X124841785Y-74859907D01*
G75*
G02*
X124774069Y-75045957I-126883J-59167D01*
G01*
X124465924Y-75189647D01*
G75*
G02*
X124279874Y-75121931I-59167J126883D01*
G01*
X124161541Y-74868165D01*
G75*
G02*
X124229257Y-74682115I126883J59167D01*
G01*
G37*
G36*
G01*
X124634971Y-75552171D02*
X124943116Y-75408481D01*
G75*
G02*
X125129166Y-75476197I59167J-126883D01*
G01*
X125247499Y-75729963D01*
G75*
G02*
X125179783Y-75916013I-126883J-59167D01*
G01*
X124871638Y-76059703D01*
G75*
G02*
X124685588Y-75991987I-59167J126883D01*
G01*
X124567255Y-75738221D01*
G75*
G02*
X124634971Y-75552171I126883J59167D01*
G01*
G37*
G36*
G01*
X124322944Y-76322438D02*
X124014799Y-76466128D01*
G75*
G02*
X123828749Y-76398412I-59167J126883D01*
G01*
X123710416Y-76144646D01*
G75*
G02*
X123778132Y-75958596I126883J59167D01*
G01*
X124086277Y-75814906D01*
G75*
G02*
X124272327Y-75882622I59167J-126883D01*
G01*
X124390660Y-76136388D01*
G75*
G02*
X124322944Y-76322438I-126883J-59167D01*
G01*
G37*
G36*
G01*
X123917230Y-75452382D02*
X123609085Y-75596072D01*
G75*
G02*
X123423035Y-75528356I-59167J126883D01*
G01*
X123304702Y-75274590D01*
G75*
G02*
X123372418Y-75088540I126883J59167D01*
G01*
X123680563Y-74944850D01*
G75*
G02*
X123866613Y-75012566I59167J-126883D01*
G01*
X123984946Y-75266332D01*
G75*
G02*
X123917230Y-75452382I-126883J-59167D01*
G01*
G37*
G36*
G01*
X123837129Y-73800654D02*
X123980819Y-74108799D01*
G75*
G02*
X123913103Y-74294849I-126883J-59167D01*
G01*
X123659337Y-74413182D01*
G75*
G02*
X123473287Y-74345466I-59167J126883D01*
G01*
X123329597Y-74037321D01*
G75*
G02*
X123397313Y-73851271I126883J59167D01*
G01*
X123651079Y-73732938D01*
G75*
G02*
X123837129Y-73800654I59167J-126883D01*
G01*
G37*
G36*
G01*
X122967073Y-74206368D02*
X123110763Y-74514513D01*
G75*
G02*
X123043047Y-74700563I-126883J-59167D01*
G01*
X122789281Y-74818896D01*
G75*
G02*
X122603231Y-74751180I-59167J126883D01*
G01*
X122459541Y-74443035D01*
G75*
G02*
X122527257Y-74256985I126883J59167D01*
G01*
X122781023Y-74138652D01*
G75*
G02*
X122967073Y-74206368I59167J-126883D01*
G01*
G37*
G36*
G01*
X118302848Y-79731301D02*
X117849694Y-79942610D01*
G75*
G02*
X117550686Y-79833780I-95089J203919D01*
G01*
X117360508Y-79425941D01*
G75*
G02*
X117469338Y-79126933I203919J95089D01*
G01*
X117922492Y-78915624D01*
G75*
G02*
X118221500Y-79024454I95089J-203919D01*
G01*
X118411678Y-79432293D01*
G75*
G02*
X118302848Y-79731301I-203919J-95089D01*
G01*
G37*
G36*
G01*
X117647790Y-78326523D02*
X117194636Y-78537832D01*
G75*
G02*
X116895628Y-78429002I-95089J203919D01*
G01*
X116705450Y-78021163D01*
G75*
G02*
X116814280Y-77722155I203919J95089D01*
G01*
X117267434Y-77510846D01*
G75*
G02*
X117566442Y-77619676I95089J-203919D01*
G01*
X117756620Y-78027515D01*
G75*
G02*
X117647790Y-78326523I-203919J-95089D01*
G01*
G37*
G36*
X143126864Y-75886712D02*
G01*
X142553288Y-76705864D01*
X141734136Y-76132288D01*
X142307712Y-75313136D01*
X143126864Y-75886712D01*
G37*
G36*
X137863481Y-76165563D02*
G01*
X137775482Y-76493978D01*
X137447067Y-76405979D01*
X137535066Y-76077564D01*
X137863481Y-76165563D01*
G37*
G36*
X137801817Y-74135428D02*
G01*
X137361825Y-75777502D01*
X135719751Y-75337510D01*
X136159743Y-73695436D01*
X137801817Y-74135428D01*
G37*
G36*
X136074501Y-73066959D02*
G01*
X135986502Y-73395374D01*
X135658087Y-73307375D01*
X135746086Y-72978960D01*
X136074501Y-73066959D01*
G37*
G36*
X135980793Y-73590546D02*
G01*
X135908324Y-73861005D01*
X135319109Y-73703126D01*
X135391578Y-73432667D01*
X135980793Y-73590546D01*
G37*
G36*
X135851384Y-74073509D02*
G01*
X135778915Y-74343968D01*
X135189700Y-74186089D01*
X135262169Y-73915630D01*
X135851384Y-74073509D01*
G37*
G36*
X135721974Y-74556472D02*
G01*
X135649505Y-74826931D01*
X135060290Y-74669052D01*
X135132759Y-74398593D01*
X135721974Y-74556472D01*
G37*
G36*
X135592565Y-75039435D02*
G01*
X135520096Y-75309894D01*
X134930881Y-75152015D01*
X135003350Y-74881556D01*
X135592565Y-75039435D01*
G37*
G36*
X138210223Y-75740834D02*
G01*
X138137754Y-76011293D01*
X137548539Y-75853414D01*
X137621008Y-75582955D01*
X138210223Y-75740834D01*
G37*
G36*
X138339633Y-75257871D02*
G01*
X138267164Y-75528330D01*
X137677949Y-75370451D01*
X137750418Y-75099992D01*
X138339633Y-75257871D01*
G37*
G36*
X138469043Y-74774908D02*
G01*
X138396574Y-75045367D01*
X137807359Y-74887488D01*
X137879828Y-74617029D01*
X138469043Y-74774908D01*
G37*
G36*
X138598452Y-74291946D02*
G01*
X138525983Y-74562405D01*
X137936768Y-74404526D01*
X138009237Y-74134067D01*
X138598452Y-74291946D01*
G37*
G36*
X138518293Y-73721771D02*
G01*
X138430294Y-74050186D01*
X138101879Y-73962187D01*
X138189878Y-73633772D01*
X138518293Y-73721771D01*
G37*
G36*
X138064586Y-73367263D02*
G01*
X137906707Y-73956478D01*
X137636248Y-73884009D01*
X137794127Y-73294794D01*
X138064586Y-73367263D01*
G37*
G36*
X137581623Y-73237854D02*
G01*
X137423744Y-73827069D01*
X137153285Y-73754600D01*
X137311164Y-73165385D01*
X137581623Y-73237854D01*
G37*
G36*
X137098660Y-73108444D02*
G01*
X136940781Y-73697659D01*
X136670322Y-73625190D01*
X136828201Y-73035975D01*
X137098660Y-73108444D01*
G37*
G36*
X136615697Y-72979035D02*
G01*
X136457818Y-73568250D01*
X136187359Y-73495781D01*
X136345238Y-72906566D01*
X136615697Y-72979035D01*
G37*
G36*
X135419689Y-75510751D02*
G01*
X135331690Y-75839166D01*
X135003275Y-75751167D01*
X135091274Y-75422752D01*
X135419689Y-75510751D01*
G37*
G36*
X135914298Y-75596693D02*
G01*
X135756419Y-76185908D01*
X135485960Y-76113439D01*
X135643839Y-75524224D01*
X135914298Y-75596693D01*
G37*
G36*
X136397261Y-75726103D02*
G01*
X136239382Y-76315318D01*
X135968923Y-76242849D01*
X136126802Y-75653634D01*
X136397261Y-75726103D01*
G37*
G36*
X136880224Y-75855513D02*
G01*
X136722345Y-76444728D01*
X136451886Y-76372259D01*
X136609765Y-75783044D01*
X136880224Y-75855513D01*
G37*
G36*
X137363186Y-75984922D02*
G01*
X137205307Y-76574137D01*
X136934848Y-76501668D01*
X137092727Y-75912453D01*
X137363186Y-75984922D01*
G37*
G36*
G01*
X139767613Y-77496214D02*
X139671849Y-77853607D01*
G75*
G02*
X139506508Y-77949066I-130400J34941D01*
G01*
X139245708Y-77879185D01*
G75*
G02*
X139150249Y-77713844I34941J130400D01*
G01*
X139246013Y-77356451D01*
G75*
G02*
X139411354Y-77260992I130400J-34941D01*
G01*
X139672154Y-77330873D01*
G75*
G02*
X139767613Y-77496214I-34941J-130400D01*
G01*
G37*
G36*
G01*
X138782369Y-77232218D02*
X138686605Y-77589611D01*
G75*
G02*
X138521264Y-77685070I-130400J34941D01*
G01*
X138260464Y-77615189D01*
G75*
G02*
X138165005Y-77449848I34941J130400D01*
G01*
X138260769Y-77092455D01*
G75*
G02*
X138426110Y-76996996I130400J-34941D01*
G01*
X138686910Y-77066877D01*
G75*
G02*
X138782369Y-77232218I-34941J-130400D01*
G01*
G37*
G36*
G01*
X138466896Y-76481617D02*
X138562660Y-76124224D01*
G75*
G02*
X138728001Y-76028765I130400J-34941D01*
G01*
X138988801Y-76098646D01*
G75*
G02*
X139084260Y-76263987I-34941J-130400D01*
G01*
X138988496Y-76621380D01*
G75*
G02*
X138823155Y-76716839I-130400J34941D01*
G01*
X138562355Y-76646958D01*
G75*
G02*
X138466896Y-76481617I34941J130400D01*
G01*
G37*
G36*
G01*
X139452140Y-76745613D02*
X139547904Y-76388220D01*
G75*
G02*
X139713245Y-76292761I130400J-34941D01*
G01*
X139974045Y-76362642D01*
G75*
G02*
X140069504Y-76527983I-34941J-130400D01*
G01*
X139973740Y-76885376D01*
G75*
G02*
X139808399Y-76980835I-130400J34941D01*
G01*
X139547599Y-76910954D01*
G75*
G02*
X139452140Y-76745613I34941J130400D01*
G01*
G37*
G36*
G01*
X139765251Y-75917630D02*
X139432007Y-75828338D01*
G75*
G02*
X139327709Y-75647688I38176J142474D01*
G01*
X139404061Y-75362740D01*
G75*
G02*
X139584711Y-75258442I142474J-38176D01*
G01*
X139917955Y-75347734D01*
G75*
G02*
X140022253Y-75528384I-38176J-142474D01*
G01*
X139945901Y-75813332D01*
G75*
G02*
X139765251Y-75917630I-142474J38176D01*
G01*
G37*
G36*
G01*
X140016305Y-74980682D02*
X139683061Y-74891390D01*
G75*
G02*
X139578763Y-74710740I38176J142474D01*
G01*
X139655115Y-74425792D01*
G75*
G02*
X139835765Y-74321494I142474J-38176D01*
G01*
X140169009Y-74410786D01*
G75*
G02*
X140273307Y-74591436I-38176J-142474D01*
G01*
X140196955Y-74876384D01*
G75*
G02*
X140016305Y-74980682I-142474J38176D01*
G01*
G37*
G36*
G01*
X131715085Y-73420709D02*
X131844494Y-72937746D01*
G75*
G02*
X132120061Y-72778647I217333J-58234D01*
G01*
X132554728Y-72895116D01*
G75*
G02*
X132713827Y-73170683I-58234J-217333D01*
G01*
X132584418Y-73653646D01*
G75*
G02*
X132308851Y-73812745I-217333J58234D01*
G01*
X131874184Y-73696276D01*
G75*
G02*
X131715085Y-73420709I58234J217333D01*
G01*
G37*
G36*
G01*
X133212271Y-73821879D02*
X133341680Y-73338916D01*
G75*
G02*
X133617247Y-73179817I217333J-58234D01*
G01*
X134051914Y-73296286D01*
G75*
G02*
X134211013Y-73571853I-58234J-217333D01*
G01*
X134081604Y-74054816D01*
G75*
G02*
X133806037Y-74213915I-217333J58234D01*
G01*
X133371370Y-74097446D01*
G75*
G02*
X133212271Y-73821879I58234J217333D01*
G01*
G37*
G36*
G01*
X132597869Y-72145115D02*
X132727278Y-71662152D01*
G75*
G02*
X133002845Y-71503053I217333J-58234D01*
G01*
X133437512Y-71619522D01*
G75*
G02*
X133596611Y-71895089I-58234J-217333D01*
G01*
X133467202Y-72378052D01*
G75*
G02*
X133191635Y-72537151I-217333J58234D01*
G01*
X132756968Y-72420682D01*
G75*
G02*
X132597869Y-72145115I58234J217333D01*
G01*
G37*
G36*
G01*
X134095055Y-72546285D02*
X134224464Y-72063322D01*
G75*
G02*
X134500031Y-71904223I217333J-58234D01*
G01*
X134934698Y-72020692D01*
G75*
G02*
X135093797Y-72296259I-58234J-217333D01*
G01*
X134964388Y-72779222D01*
G75*
G02*
X134688821Y-72938321I-217333J58234D01*
G01*
X134254154Y-72821852D01*
G75*
G02*
X134095055Y-72546285I58234J217333D01*
G01*
G37*
G36*
G01*
X133404718Y-78629206D02*
X133154718Y-78196194D01*
G75*
G02*
X133237074Y-77888838I194856J112500D01*
G01*
X133626786Y-77663838D01*
G75*
G02*
X133934142Y-77746194I112500J-194856D01*
G01*
X134184142Y-78179206D01*
G75*
G02*
X134101786Y-78486562I-194856J-112500D01*
G01*
X133712074Y-78711562D01*
G75*
G02*
X133404718Y-78629206I-112500J194856D01*
G01*
G37*
G36*
G01*
X134747058Y-77854206D02*
X134497058Y-77421194D01*
G75*
G02*
X134579414Y-77113838I194856J112500D01*
G01*
X134969126Y-76888838D01*
G75*
G02*
X135276482Y-76971194I112500J-194856D01*
G01*
X135526482Y-77404206D01*
G75*
G02*
X135444126Y-77711562I-194856J-112500D01*
G01*
X135054414Y-77936562D01*
G75*
G02*
X134747058Y-77854206I-112500J194856D01*
G01*
G37*
G36*
G01*
X133157820Y-77286024D02*
X132987820Y-76991576D01*
G75*
G02*
X133039064Y-76800332I121244J70000D01*
G01*
X133281552Y-76660332D01*
G75*
G02*
X133472796Y-76711576I70000J-121244D01*
G01*
X133642796Y-77006024D01*
G75*
G02*
X133591552Y-77197268I-121244J-70000D01*
G01*
X133349064Y-77337268D01*
G75*
G02*
X133157820Y-77286024I-70000J121244D01*
G01*
G37*
G36*
G01*
X133989204Y-76806024D02*
X133819204Y-76511576D01*
G75*
G02*
X133870448Y-76320332I121244J70000D01*
G01*
X134112936Y-76180332D01*
G75*
G02*
X134304180Y-76231576I70000J-121244D01*
G01*
X134474180Y-76526024D01*
G75*
G02*
X134422936Y-76717268I-121244J-70000D01*
G01*
X134180448Y-76857268D01*
G75*
G02*
X133989204Y-76806024I-70000J121244D01*
G01*
G37*
G36*
G01*
X115824000Y-108318418D02*
X115919756Y-108398766D01*
G75*
G02*
X115927460Y-108486818I-40174J-47878D01*
G01*
X115493578Y-109003898D01*
G75*
G02*
X115405526Y-109011602I-47878J40174D01*
G01*
X115309770Y-108931254D01*
G75*
G02*
X115302066Y-108843202I40174J47878D01*
G01*
X115735948Y-108326122D01*
G75*
G02*
X115824000Y-108318418I47878J-40174D01*
G01*
G37*
G36*
G01*
X116207022Y-108639812D02*
X116302778Y-108720160D01*
G75*
G02*
X116310482Y-108808212I-40174J-47878D01*
G01*
X115876600Y-109325292D01*
G75*
G02*
X115788548Y-109332996I-47878J40174D01*
G01*
X115692792Y-109252648D01*
G75*
G02*
X115685088Y-109164596I40174J47878D01*
G01*
X116118970Y-108647516D01*
G75*
G02*
X116207022Y-108639812I47878J-40174D01*
G01*
G37*
G36*
G01*
X116590044Y-108961205D02*
X116685800Y-109041553D01*
G75*
G02*
X116693504Y-109129605I-40174J-47878D01*
G01*
X116259622Y-109646685D01*
G75*
G02*
X116171570Y-109654389I-47878J40174D01*
G01*
X116075814Y-109574041D01*
G75*
G02*
X116068110Y-109485989I40174J47878D01*
G01*
X116501992Y-108968909D01*
G75*
G02*
X116590044Y-108961205I47878J-40174D01*
G01*
G37*
G36*
G01*
X116973067Y-109282599D02*
X117068823Y-109362947D01*
G75*
G02*
X117076527Y-109450999I-40174J-47878D01*
G01*
X116642645Y-109968079D01*
G75*
G02*
X116554593Y-109975783I-47878J40174D01*
G01*
X116458837Y-109895435D01*
G75*
G02*
X116451133Y-109807383I40174J47878D01*
G01*
X116885015Y-109290303D01*
G75*
G02*
X116973067Y-109282599I47878J-40174D01*
G01*
G37*
G36*
G01*
X117356089Y-109603993D02*
X117451845Y-109684341D01*
G75*
G02*
X117459549Y-109772393I-40174J-47878D01*
G01*
X117025667Y-110289473D01*
G75*
G02*
X116937615Y-110297177I-47878J40174D01*
G01*
X116841859Y-110216829D01*
G75*
G02*
X116834155Y-110128777I40174J47878D01*
G01*
X117268037Y-109611697D01*
G75*
G02*
X117356089Y-109603993I47878J-40174D01*
G01*
G37*
G36*
G01*
X117739111Y-109925387D02*
X117834867Y-110005735D01*
G75*
G02*
X117842571Y-110093787I-40174J-47878D01*
G01*
X117408689Y-110610867D01*
G75*
G02*
X117320637Y-110618571I-47878J40174D01*
G01*
X117224881Y-110538223D01*
G75*
G02*
X117217177Y-110450171I40174J47878D01*
G01*
X117651059Y-109933091D01*
G75*
G02*
X117739111Y-109925387I47878J-40174D01*
G01*
G37*
G36*
G01*
X118122133Y-110246781D02*
X118217889Y-110327129D01*
G75*
G02*
X118225593Y-110415181I-40174J-47878D01*
G01*
X117791711Y-110932261D01*
G75*
G02*
X117703659Y-110939965I-47878J40174D01*
G01*
X117607903Y-110859617D01*
G75*
G02*
X117600199Y-110771565I40174J47878D01*
G01*
X118034081Y-110254485D01*
G75*
G02*
X118122133Y-110246781I47878J-40174D01*
G01*
G37*
G36*
G01*
X117851798Y-111619066D02*
X118368878Y-112052948D01*
G75*
G02*
X118376582Y-112141000I-40174J-47878D01*
G01*
X118296234Y-112236756D01*
G75*
G02*
X118208182Y-112244460I-47878J40174D01*
G01*
X117691102Y-111810578D01*
G75*
G02*
X117683398Y-111722526I40174J47878D01*
G01*
X117763746Y-111626770D01*
G75*
G02*
X117851798Y-111619066I47878J-40174D01*
G01*
G37*
G36*
G01*
X117530404Y-112002088D02*
X118047484Y-112435970D01*
G75*
G02*
X118055188Y-112524022I-40174J-47878D01*
G01*
X117974840Y-112619778D01*
G75*
G02*
X117886788Y-112627482I-47878J40174D01*
G01*
X117369708Y-112193600D01*
G75*
G02*
X117362004Y-112105548I40174J47878D01*
G01*
X117442352Y-112009792D01*
G75*
G02*
X117530404Y-112002088I47878J-40174D01*
G01*
G37*
G36*
G01*
X117209011Y-112385110D02*
X117726091Y-112818992D01*
G75*
G02*
X117733795Y-112907044I-40174J-47878D01*
G01*
X117653447Y-113002800D01*
G75*
G02*
X117565395Y-113010504I-47878J40174D01*
G01*
X117048315Y-112576622D01*
G75*
G02*
X117040611Y-112488570I40174J47878D01*
G01*
X117120959Y-112392814D01*
G75*
G02*
X117209011Y-112385110I47878J-40174D01*
G01*
G37*
G36*
G01*
X116887617Y-112768133D02*
X117404697Y-113202015D01*
G75*
G02*
X117412401Y-113290067I-40174J-47878D01*
G01*
X117332053Y-113385823D01*
G75*
G02*
X117244001Y-113393527I-47878J40174D01*
G01*
X116726921Y-112959645D01*
G75*
G02*
X116719217Y-112871593I40174J47878D01*
G01*
X116799565Y-112775837D01*
G75*
G02*
X116887617Y-112768133I47878J-40174D01*
G01*
G37*
G36*
G01*
X116566223Y-113151155D02*
X117083303Y-113585037D01*
G75*
G02*
X117091007Y-113673089I-40174J-47878D01*
G01*
X117010659Y-113768845D01*
G75*
G02*
X116922607Y-113776549I-47878J40174D01*
G01*
X116405527Y-113342667D01*
G75*
G02*
X116397823Y-113254615I40174J47878D01*
G01*
X116478171Y-113158859D01*
G75*
G02*
X116566223Y-113151155I47878J-40174D01*
G01*
G37*
G36*
G01*
X116244829Y-113534177D02*
X116761909Y-113968059D01*
G75*
G02*
X116769613Y-114056111I-40174J-47878D01*
G01*
X116689265Y-114151867D01*
G75*
G02*
X116601213Y-114159571I-47878J40174D01*
G01*
X116084133Y-113725689D01*
G75*
G02*
X116076429Y-113637637I40174J47878D01*
G01*
X116156777Y-113541881D01*
G75*
G02*
X116244829Y-113534177I47878J-40174D01*
G01*
G37*
G36*
G01*
X115923435Y-113917199D02*
X116440515Y-114351081D01*
G75*
G02*
X116448219Y-114439133I-40174J-47878D01*
G01*
X116367871Y-114534889D01*
G75*
G02*
X116279819Y-114542593I-47878J40174D01*
G01*
X115762739Y-114108711D01*
G75*
G02*
X115755035Y-114020659I40174J47878D01*
G01*
X115835383Y-113924903D01*
G75*
G02*
X115923435Y-113917199I47878J-40174D01*
G01*
G37*
G36*
G01*
X114972474Y-114000398D02*
X115068230Y-114080746D01*
G75*
G02*
X115075934Y-114168798I-40174J-47878D01*
G01*
X114642052Y-114685878D01*
G75*
G02*
X114554000Y-114693582I-47878J40174D01*
G01*
X114458244Y-114613234D01*
G75*
G02*
X114450540Y-114525182I40174J47878D01*
G01*
X114884422Y-114008102D01*
G75*
G02*
X114972474Y-114000398I47878J-40174D01*
G01*
G37*
G36*
G01*
X114589452Y-113679004D02*
X114685208Y-113759352D01*
G75*
G02*
X114692912Y-113847404I-40174J-47878D01*
G01*
X114259030Y-114364484D01*
G75*
G02*
X114170978Y-114372188I-47878J40174D01*
G01*
X114075222Y-114291840D01*
G75*
G02*
X114067518Y-114203788I40174J47878D01*
G01*
X114501400Y-113686708D01*
G75*
G02*
X114589452Y-113679004I47878J-40174D01*
G01*
G37*
G36*
G01*
X114206430Y-113357611D02*
X114302186Y-113437959D01*
G75*
G02*
X114309890Y-113526011I-40174J-47878D01*
G01*
X113876008Y-114043091D01*
G75*
G02*
X113787956Y-114050795I-47878J40174D01*
G01*
X113692200Y-113970447D01*
G75*
G02*
X113684496Y-113882395I40174J47878D01*
G01*
X114118378Y-113365315D01*
G75*
G02*
X114206430Y-113357611I47878J-40174D01*
G01*
G37*
G36*
G01*
X113823407Y-113036217D02*
X113919163Y-113116565D01*
G75*
G02*
X113926867Y-113204617I-40174J-47878D01*
G01*
X113492985Y-113721697D01*
G75*
G02*
X113404933Y-113729401I-47878J40174D01*
G01*
X113309177Y-113649053D01*
G75*
G02*
X113301473Y-113561001I40174J47878D01*
G01*
X113735355Y-113043921D01*
G75*
G02*
X113823407Y-113036217I47878J-40174D01*
G01*
G37*
G36*
G01*
X113440385Y-112714823D02*
X113536141Y-112795171D01*
G75*
G02*
X113543845Y-112883223I-40174J-47878D01*
G01*
X113109963Y-113400303D01*
G75*
G02*
X113021911Y-113408007I-47878J40174D01*
G01*
X112926155Y-113327659D01*
G75*
G02*
X112918451Y-113239607I40174J47878D01*
G01*
X113352333Y-112722527D01*
G75*
G02*
X113440385Y-112714823I47878J-40174D01*
G01*
G37*
G36*
G01*
X113057363Y-112393429D02*
X113153119Y-112473777D01*
G75*
G02*
X113160823Y-112561829I-40174J-47878D01*
G01*
X112726941Y-113078909D01*
G75*
G02*
X112638889Y-113086613I-47878J40174D01*
G01*
X112543133Y-113006265D01*
G75*
G02*
X112535429Y-112918213I40174J47878D01*
G01*
X112969311Y-112401133D01*
G75*
G02*
X113057363Y-112393429I47878J-40174D01*
G01*
G37*
G36*
G01*
X112674341Y-112072035D02*
X112770097Y-112152383D01*
G75*
G02*
X112777801Y-112240435I-40174J-47878D01*
G01*
X112343919Y-112757515D01*
G75*
G02*
X112255867Y-112765219I-47878J40174D01*
G01*
X112160111Y-112684871D01*
G75*
G02*
X112152407Y-112596819I40174J47878D01*
G01*
X112586289Y-112079739D01*
G75*
G02*
X112674341Y-112072035I47878J-40174D01*
G01*
G37*
G36*
G01*
X112169818Y-110767540D02*
X112686898Y-111201422D01*
G75*
G02*
X112694602Y-111289474I-40174J-47878D01*
G01*
X112614254Y-111385230D01*
G75*
G02*
X112526202Y-111392934I-47878J40174D01*
G01*
X112009122Y-110959052D01*
G75*
G02*
X112001418Y-110871000I40174J47878D01*
G01*
X112081766Y-110775244D01*
G75*
G02*
X112169818Y-110767540I47878J-40174D01*
G01*
G37*
G36*
G01*
X112491212Y-110384518D02*
X113008292Y-110818400D01*
G75*
G02*
X113015996Y-110906452I-40174J-47878D01*
G01*
X112935648Y-111002208D01*
G75*
G02*
X112847596Y-111009912I-47878J40174D01*
G01*
X112330516Y-110576030D01*
G75*
G02*
X112322812Y-110487978I40174J47878D01*
G01*
X112403160Y-110392222D01*
G75*
G02*
X112491212Y-110384518I47878J-40174D01*
G01*
G37*
G36*
G01*
X112812605Y-110001496D02*
X113329685Y-110435378D01*
G75*
G02*
X113337389Y-110523430I-40174J-47878D01*
G01*
X113257041Y-110619186D01*
G75*
G02*
X113168989Y-110626890I-47878J40174D01*
G01*
X112651909Y-110193008D01*
G75*
G02*
X112644205Y-110104956I40174J47878D01*
G01*
X112724553Y-110009200D01*
G75*
G02*
X112812605Y-110001496I47878J-40174D01*
G01*
G37*
G36*
G01*
X113133999Y-109618473D02*
X113651079Y-110052355D01*
G75*
G02*
X113658783Y-110140407I-40174J-47878D01*
G01*
X113578435Y-110236163D01*
G75*
G02*
X113490383Y-110243867I-47878J40174D01*
G01*
X112973303Y-109809985D01*
G75*
G02*
X112965599Y-109721933I40174J47878D01*
G01*
X113045947Y-109626177D01*
G75*
G02*
X113133999Y-109618473I47878J-40174D01*
G01*
G37*
G36*
G01*
X113455393Y-109235451D02*
X113972473Y-109669333D01*
G75*
G02*
X113980177Y-109757385I-40174J-47878D01*
G01*
X113899829Y-109853141D01*
G75*
G02*
X113811777Y-109860845I-47878J40174D01*
G01*
X113294697Y-109426963D01*
G75*
G02*
X113286993Y-109338911I40174J47878D01*
G01*
X113367341Y-109243155D01*
G75*
G02*
X113455393Y-109235451I47878J-40174D01*
G01*
G37*
G36*
G01*
X113776787Y-108852429D02*
X114293867Y-109286311D01*
G75*
G02*
X114301571Y-109374363I-40174J-47878D01*
G01*
X114221223Y-109470119D01*
G75*
G02*
X114133171Y-109477823I-47878J40174D01*
G01*
X113616091Y-109043941D01*
G75*
G02*
X113608387Y-108955889I40174J47878D01*
G01*
X113688735Y-108860133D01*
G75*
G02*
X113776787Y-108852429I47878J-40174D01*
G01*
G37*
G36*
G01*
X114098181Y-108469407D02*
X114615261Y-108903289D01*
G75*
G02*
X114622965Y-108991341I-40174J-47878D01*
G01*
X114542617Y-109087097D01*
G75*
G02*
X114454565Y-109094801I-47878J40174D01*
G01*
X113937485Y-108660919D01*
G75*
G02*
X113929781Y-108572867I40174J47878D01*
G01*
X114010129Y-108477111D01*
G75*
G02*
X114098181Y-108469407I47878J-40174D01*
G01*
G37*
G36*
X114982545Y-109146206D02*
G01*
X117548794Y-111299545D01*
X115395455Y-113865794D01*
X112829206Y-111712455D01*
X114982545Y-109146206D01*
G37*
G36*
G01*
X109757852Y-109086566D02*
X109995684Y-108803129D01*
G75*
G02*
X110185876Y-108786489I103416J-86776D01*
G01*
X110392708Y-108960042D01*
G75*
G02*
X110409348Y-109150234I-86776J-103416D01*
G01*
X110171516Y-109433671D01*
G75*
G02*
X109981324Y-109450311I-103416J86776D01*
G01*
X109774492Y-109276758D01*
G75*
G02*
X109757852Y-109086566I86776J103416D01*
G01*
G37*
G36*
G01*
X110539218Y-109742210D02*
X110777050Y-109458773D01*
G75*
G02*
X110967242Y-109442133I103416J-86776D01*
G01*
X111174074Y-109615686D01*
G75*
G02*
X111190714Y-109805878I-86776J-103416D01*
G01*
X110952882Y-110089315D01*
G75*
G02*
X110762690Y-110105955I-103416J86776D01*
G01*
X110555858Y-109932402D01*
G75*
G02*
X110539218Y-109742210I86776J103416D01*
G01*
G37*
G36*
G01*
X116132857Y-103771525D02*
X116497236Y-103835775D01*
G75*
G02*
X116606742Y-103992167I-23443J-132949D01*
G01*
X116559857Y-104258065D01*
G75*
G02*
X116403465Y-104367571I-132949J23443D01*
G01*
X116039086Y-104303321D01*
G75*
G02*
X115929580Y-104146929I23443J132949D01*
G01*
X115976465Y-103881031D01*
G75*
G02*
X116132857Y-103771525I132949J-23443D01*
G01*
G37*
G36*
G01*
X115955735Y-104776029D02*
X116320114Y-104840279D01*
G75*
G02*
X116429620Y-104996671I-23443J-132949D01*
G01*
X116382735Y-105262569D01*
G75*
G02*
X116226343Y-105372075I-132949J23443D01*
G01*
X115861964Y-105307825D01*
G75*
G02*
X115752458Y-105151433I23443J132949D01*
G01*
X115799343Y-104885535D01*
G75*
G02*
X115955735Y-104776029I132949J-23443D01*
G01*
G37*
G36*
G01*
X117339018Y-103980473D02*
X117703397Y-104044723D01*
G75*
G02*
X117812903Y-104201115I-23443J-132949D01*
G01*
X117766018Y-104467013D01*
G75*
G02*
X117609626Y-104576519I-132949J23443D01*
G01*
X117245247Y-104512269D01*
G75*
G02*
X117135741Y-104355877I23443J132949D01*
G01*
X117182626Y-104089979D01*
G75*
G02*
X117339018Y-103980473I132949J-23443D01*
G01*
G37*
G36*
G01*
X117161896Y-104984977D02*
X117526275Y-105049227D01*
G75*
G02*
X117635781Y-105205619I-23443J-132949D01*
G01*
X117588896Y-105471517D01*
G75*
G02*
X117432504Y-105581023I-132949J23443D01*
G01*
X117068125Y-105516773D01*
G75*
G02*
X116958619Y-105360381I23443J132949D01*
G01*
X117005504Y-105094483D01*
G75*
G02*
X117161896Y-104984977I132949J-23443D01*
G01*
G37*
G36*
X127072499Y-110270003D02*
G01*
X126554860Y-112201855D01*
X126071897Y-112072445D01*
X126589536Y-110140593D01*
X127072499Y-110270003D01*
G37*
G36*
X121879998Y-109109232D02*
G01*
X121388242Y-110944491D01*
X119987650Y-110569204D01*
X120479406Y-108733945D01*
X121879998Y-109109232D01*
G37*
G36*
X125527018Y-109855892D02*
G01*
X125009379Y-111787744D01*
X124526416Y-111658334D01*
X125044055Y-109726482D01*
X125527018Y-109855892D01*
G37*
G36*
X124754277Y-109648837D02*
G01*
X124236638Y-111580689D01*
X123753675Y-111451279D01*
X124271314Y-109519427D01*
X124754277Y-109648837D01*
G37*
G36*
X129976388Y-111278653D02*
G01*
X129484632Y-113113912D01*
X128084040Y-112738625D01*
X128575796Y-110903366D01*
X129976388Y-111278653D01*
G37*
G36*
X123981537Y-109441782D02*
G01*
X123463898Y-111373634D01*
X122980935Y-111244224D01*
X123498574Y-109312372D01*
X123981537Y-109441782D01*
G37*
G36*
X126299759Y-110062947D02*
G01*
X125782120Y-111994799D01*
X125299157Y-111865389D01*
X125816796Y-109933537D01*
X126299759Y-110062947D01*
G37*
G36*
G01*
X121162158Y-113896670D02*
X120773930Y-115345558D01*
G75*
G02*
X119855372Y-115875888I-724444J194114D01*
G01*
X119855372Y-115875888D01*
G75*
G02*
X119325042Y-114957330I194114J724444D01*
G01*
X119713270Y-113508442D01*
G75*
G02*
X120631828Y-112978112I724444J-194114D01*
G01*
X120631828Y-112978112D01*
G75*
G02*
X121162158Y-113896670I-194114J-724444D01*
G01*
G37*
G36*
G01*
X128255920Y-115784289D02*
X127867692Y-117233177D01*
G75*
G02*
X126949134Y-117763507I-724444J194114D01*
G01*
X126949134Y-117763507D01*
G75*
G02*
X126418804Y-116844949I194114J724444D01*
G01*
X126807032Y-115396061D01*
G75*
G02*
X127725590Y-114865731I724444J-194114D01*
G01*
X127725590Y-114865731D01*
G75*
G02*
X128255920Y-115784289I-194114J-724444D01*
G01*
G37*
D23*
X150190200Y-93827600D03*
X150698200Y-93827600D03*
X151206200Y-93827600D03*
G36*
G01*
X152603800Y-91955800D02*
X152603800Y-92295800D01*
G75*
G02*
X152463800Y-92435800I-140000J0D01*
G01*
X152183800Y-92435800D01*
G75*
G02*
X152043800Y-92295800I0J140000D01*
G01*
X152043800Y-91955800D01*
G75*
G02*
X152183800Y-91815800I140000J0D01*
G01*
X152463800Y-91815800D01*
G75*
G02*
X152603800Y-91955800I0J-140000D01*
G01*
G37*
G36*
G01*
X151643800Y-91955800D02*
X151643800Y-92295800D01*
G75*
G02*
X151503800Y-92435800I-140000J0D01*
G01*
X151223800Y-92435800D01*
G75*
G02*
X151083800Y-92295800I0J140000D01*
G01*
X151083800Y-91955800D01*
G75*
G02*
X151223800Y-91815800I140000J0D01*
G01*
X151503800Y-91815800D01*
G75*
G02*
X151643800Y-91955800I0J-140000D01*
G01*
G37*
D16*
X150144480Y-100622100D03*
X150144480Y-102336600D03*
D24*
X150749000Y-96540000D03*
M02*
