G04 #@! TF.GenerationSoftware,KiCad,Pcbnew,5.1.7-a382d34a8~88~ubuntu18.04.1*
G04 #@! TF.CreationDate,2021-05-20T00:29:44+02:00*
G04 #@! TF.ProjectId,Emersense_V1,456d6572-7365-46e7-9365-5f56312e6b69,rev?*
G04 #@! TF.SameCoordinates,Original*
G04 #@! TF.FileFunction,Soldermask,Top*
G04 #@! TF.FilePolarity,Negative*
%FSLAX46Y46*%
G04 Gerber Fmt 4.6, Leading zero omitted, Abs format (unit mm)*
G04 Created by KiCad (PCBNEW 5.1.7-a382d34a8~88~ubuntu18.04.1) date 2021-05-20 00:29:44*
%MOMM*%
%LPD*%
G01*
G04 APERTURE LIST*
%ADD10C,0.880000*%
%ADD11C,1.000000*%
%ADD12R,1.200000X0.600000*%
%ADD13C,0.800000*%
%ADD14R,0.800000X0.900000*%
%ADD15C,0.100000*%
%ADD16C,1.800000*%
%ADD17R,0.600000X0.400000*%
%ADD18C,0.750000*%
G04 APERTURE END LIST*
D10*
X151189000Y-96540000D02*
G75*
G03*
X151189000Y-96540000I-440000J0D01*
G01*
G36*
G01*
X124738700Y-109390600D02*
X124738700Y-109760600D01*
G75*
G02*
X124603700Y-109895600I-135000J0D01*
G01*
X124333700Y-109895600D01*
G75*
G02*
X124198700Y-109760600I0J135000D01*
G01*
X124198700Y-109390600D01*
G75*
G02*
X124333700Y-109255600I135000J0D01*
G01*
X124603700Y-109255600D01*
G75*
G02*
X124738700Y-109390600I0J-135000D01*
G01*
G37*
G36*
G01*
X125758700Y-109390600D02*
X125758700Y-109760600D01*
G75*
G02*
X125623700Y-109895600I-135000J0D01*
G01*
X125353700Y-109895600D01*
G75*
G02*
X125218700Y-109760600I0J135000D01*
G01*
X125218700Y-109390600D01*
G75*
G02*
X125353700Y-109255600I135000J0D01*
G01*
X125623700Y-109255600D01*
G75*
G02*
X125758700Y-109390600I0J-135000D01*
G01*
G37*
G36*
G01*
X126683800Y-109390600D02*
X126683800Y-109760600D01*
G75*
G02*
X126548800Y-109895600I-135000J0D01*
G01*
X126278800Y-109895600D01*
G75*
G02*
X126143800Y-109760600I0J135000D01*
G01*
X126143800Y-109390600D01*
G75*
G02*
X126278800Y-109255600I135000J0D01*
G01*
X126548800Y-109255600D01*
G75*
G02*
X126683800Y-109390600I0J-135000D01*
G01*
G37*
G36*
G01*
X127703800Y-109390600D02*
X127703800Y-109760600D01*
G75*
G02*
X127568800Y-109895600I-135000J0D01*
G01*
X127298800Y-109895600D01*
G75*
G02*
X127163800Y-109760600I0J135000D01*
G01*
X127163800Y-109390600D01*
G75*
G02*
X127298800Y-109255600I135000J0D01*
G01*
X127568800Y-109255600D01*
G75*
G02*
X127703800Y-109390600I0J-135000D01*
G01*
G37*
D11*
X140233400Y-84074000D03*
G36*
G01*
X114226033Y-77127519D02*
X113982081Y-76883567D01*
G75*
G02*
X113982081Y-76674971I104298J104298D01*
G01*
X114190677Y-76466375D01*
G75*
G02*
X114399273Y-76466375I104298J-104298D01*
G01*
X114643225Y-76710327D01*
G75*
G02*
X114643225Y-76918923I-104298J-104298D01*
G01*
X114434629Y-77127519D01*
G75*
G02*
X114226033Y-77127519I-104298J104298D01*
G01*
G37*
G36*
G01*
X114911927Y-76441625D02*
X114667975Y-76197673D01*
G75*
G02*
X114667975Y-75989077I104298J104298D01*
G01*
X114876571Y-75780481D01*
G75*
G02*
X115085167Y-75780481I104298J-104298D01*
G01*
X115329119Y-76024433D01*
G75*
G02*
X115329119Y-76233029I-104298J-104298D01*
G01*
X115120523Y-76441625D01*
G75*
G02*
X114911927Y-76441625I-104298J104298D01*
G01*
G37*
G36*
G01*
X147193372Y-79131420D02*
X146949420Y-79375372D01*
G75*
G02*
X146740824Y-79375372I-104298J104298D01*
G01*
X146532228Y-79166776D01*
G75*
G02*
X146532228Y-78958180I104298J104298D01*
G01*
X146776180Y-78714228D01*
G75*
G02*
X146984776Y-78714228I104298J-104298D01*
G01*
X147193372Y-78922824D01*
G75*
G02*
X147193372Y-79131420I-104298J-104298D01*
G01*
G37*
G36*
G01*
X146507478Y-78445526D02*
X146263526Y-78689478D01*
G75*
G02*
X146054930Y-78689478I-104298J104298D01*
G01*
X145846334Y-78480882D01*
G75*
G02*
X145846334Y-78272286I104298J104298D01*
G01*
X146090286Y-78028334D01*
G75*
G02*
X146298882Y-78028334I104298J-104298D01*
G01*
X146507478Y-78236930D01*
G75*
G02*
X146507478Y-78445526I-104298J-104298D01*
G01*
G37*
G36*
G01*
X144996703Y-112378035D02*
X145218464Y-112642320D01*
G75*
G02*
X145200283Y-112850123I-112992J-94811D01*
G01*
X144974300Y-113039746D01*
G75*
G02*
X144766497Y-113021565I-94811J112992D01*
G01*
X144544736Y-112757280D01*
G75*
G02*
X144562917Y-112549477I112992J94811D01*
G01*
X144788900Y-112359854D01*
G75*
G02*
X144996703Y-112378035I94811J-112992D01*
G01*
G37*
G36*
G01*
X144253639Y-113001539D02*
X144475400Y-113265824D01*
G75*
G02*
X144457219Y-113473627I-112992J-94811D01*
G01*
X144231236Y-113663250D01*
G75*
G02*
X144023433Y-113645069I-94811J112992D01*
G01*
X143801672Y-113380784D01*
G75*
G02*
X143819853Y-113172981I112992J94811D01*
G01*
X144045836Y-112983358D01*
G75*
G02*
X144253639Y-113001539I94811J-112992D01*
G01*
G37*
G36*
G01*
X113639134Y-112740086D02*
X113883086Y-112496134D01*
G75*
G02*
X114091682Y-112496134I104298J-104298D01*
G01*
X114300278Y-112704730D01*
G75*
G02*
X114300278Y-112913326I-104298J-104298D01*
G01*
X114056326Y-113157278D01*
G75*
G02*
X113847730Y-113157278I-104298J104298D01*
G01*
X113639134Y-112948682D01*
G75*
G02*
X113639134Y-112740086I104298J104298D01*
G01*
G37*
G36*
G01*
X114325028Y-113425980D02*
X114568980Y-113182028D01*
G75*
G02*
X114777576Y-113182028I104298J-104298D01*
G01*
X114986172Y-113390624D01*
G75*
G02*
X114986172Y-113599220I-104298J-104298D01*
G01*
X114742220Y-113843172D01*
G75*
G02*
X114533624Y-113843172I-104298J104298D01*
G01*
X114325028Y-113634576D01*
G75*
G02*
X114325028Y-113425980I104298J104298D01*
G01*
G37*
D12*
X150723600Y-86766400D03*
X150723600Y-91592400D03*
D13*
X150119080Y-88315800D03*
X150119080Y-90030300D03*
D14*
X148722080Y-87442040D03*
X148722080Y-90896440D03*
D15*
G36*
X128674197Y-76493182D02*
G01*
X128713645Y-76512593D01*
X128751011Y-76535760D01*
X128785936Y-76562463D01*
X128818090Y-76592448D01*
X128847165Y-76625427D01*
X128872882Y-76661085D01*
X128894997Y-76699082D01*
X128913297Y-76739056D01*
X128927611Y-76780627D01*
X128937800Y-76823395D01*
X128943767Y-76866954D01*
X128945454Y-76910885D01*
X128942846Y-76954773D01*
X128935968Y-76998196D01*
X128924886Y-77040742D01*
X128909705Y-77082002D01*
X128890570Y-77121584D01*
X128867663Y-77159110D01*
X128841204Y-77194222D01*
X128811445Y-77226584D01*
X128778670Y-77255887D01*
X128743192Y-77281854D01*
X128705350Y-77304233D01*
X128665504Y-77322813D01*
X128624035Y-77337416D01*
X128581340Y-77347903D01*
X128519411Y-77359940D01*
X128343985Y-77406291D01*
X128180564Y-77467066D01*
X128023853Y-77543499D01*
X127875337Y-77634866D01*
X127718928Y-77753588D01*
X127713897Y-77757351D01*
X127677278Y-77781681D01*
X127638459Y-77802321D01*
X127597812Y-77819075D01*
X127555724Y-77831782D01*
X127512596Y-77840322D01*
X127468841Y-77844611D01*
X127424877Y-77844612D01*
X127381121Y-77840322D01*
X127337994Y-77831782D01*
X127295905Y-77819075D01*
X127255258Y-77802321D01*
X127216439Y-77781682D01*
X127179821Y-77757351D01*
X127145751Y-77729565D01*
X127114554Y-77698586D01*
X127086529Y-77664709D01*
X127061944Y-77628261D01*
X127041033Y-77589588D01*
X127023997Y-77549058D01*
X127010996Y-77507059D01*
X127002156Y-77463992D01*
X126997560Y-77420269D01*
X126997253Y-77376304D01*
X127001238Y-77332521D01*
X127009477Y-77289335D01*
X127021889Y-77247159D01*
X127038359Y-77206396D01*
X127058727Y-77167433D01*
X127082801Y-77130645D01*
X127110350Y-77096381D01*
X127141110Y-77064971D01*
X127174789Y-77036710D01*
X127348733Y-76904679D01*
X127353765Y-76900916D01*
X127369460Y-76890487D01*
X127385009Y-76879840D01*
X127571008Y-76765414D01*
X127576383Y-76762159D01*
X127593029Y-76753308D01*
X127609535Y-76744234D01*
X127805813Y-76648503D01*
X127811480Y-76645788D01*
X127828940Y-76638591D01*
X127846221Y-76631184D01*
X128050903Y-76555064D01*
X128056807Y-76552915D01*
X128074871Y-76547461D01*
X128092809Y-76541770D01*
X128303942Y-76485987D01*
X128310027Y-76484424D01*
X128321584Y-76482135D01*
X128333032Y-76479323D01*
X128409617Y-76464437D01*
X128415793Y-76463282D01*
X128459392Y-76457619D01*
X128503335Y-76456239D01*
X128547202Y-76459152D01*
X128590577Y-76466333D01*
X128633044Y-76477713D01*
X128674197Y-76493182D01*
G37*
D16*
X128883616Y-79107412D03*
D15*
G36*
X130038125Y-76683571D02*
G01*
X130231299Y-76785419D01*
X130236836Y-76788389D01*
X130252916Y-76798204D01*
X130269143Y-76807801D01*
X130451454Y-76928013D01*
X130456675Y-76931509D01*
X130471734Y-76942857D01*
X130486930Y-76953979D01*
X130656639Y-77091406D01*
X130656644Y-77091410D01*
X130656650Y-77091415D01*
X130661498Y-77095397D01*
X130675360Y-77108143D01*
X130689418Y-77120713D01*
X130844909Y-77274048D01*
X130849352Y-77278492D01*
X130861908Y-77292535D01*
X130874667Y-77306410D01*
X131014453Y-77474185D01*
X131018440Y-77479041D01*
X131029581Y-77494263D01*
X131040911Y-77509297D01*
X131163658Y-77689914D01*
X131167153Y-77695135D01*
X131176753Y-77711368D01*
X131186564Y-77727440D01*
X131291100Y-77919172D01*
X131294069Y-77924710D01*
X131302044Y-77941812D01*
X131310236Y-77958756D01*
X131395562Y-78159775D01*
X131397977Y-78165575D01*
X131404236Y-78183348D01*
X131410743Y-78201034D01*
X131476046Y-78409418D01*
X131477883Y-78415427D01*
X131482392Y-78433779D01*
X131487128Y-78451962D01*
X131531786Y-78665726D01*
X131533028Y-78671885D01*
X131535720Y-78690560D01*
X131538664Y-78709151D01*
X131562248Y-78926252D01*
X131562883Y-78932503D01*
X131563740Y-78951356D01*
X131564856Y-78970139D01*
X131567143Y-79188504D01*
X131567164Y-79194787D01*
X131566177Y-79213633D01*
X131565455Y-79232435D01*
X131546422Y-79449982D01*
X131545831Y-79456237D01*
X131543005Y-79474925D01*
X131540455Y-79493541D01*
X131500284Y-79708193D01*
X131499086Y-79714360D01*
X131494457Y-79732655D01*
X131490096Y-79750963D01*
X131429170Y-79960669D01*
X131427374Y-79966690D01*
X131420987Y-79984432D01*
X131414857Y-80002237D01*
X131333758Y-80204998D01*
X131331384Y-80210816D01*
X131323290Y-80227862D01*
X131315456Y-80244973D01*
X131214959Y-80438852D01*
X131212028Y-80444410D01*
X131202303Y-80460596D01*
X131192843Y-80476850D01*
X131073905Y-80659997D01*
X131070447Y-80665243D01*
X131059214Y-80680368D01*
X131048189Y-80695655D01*
X130911947Y-80866322D01*
X130907992Y-80871205D01*
X130895293Y-80885211D01*
X130882872Y-80899300D01*
X130730627Y-81055858D01*
X130726216Y-81060332D01*
X130712256Y-81072989D01*
X130698474Y-81085842D01*
X130531678Y-81226796D01*
X130526850Y-81230817D01*
X130511712Y-81242061D01*
X130496751Y-81253499D01*
X130316997Y-81377503D01*
X130311799Y-81381035D01*
X130295655Y-81390736D01*
X130279630Y-81400671D01*
X130088632Y-81506543D01*
X130083116Y-81509551D01*
X130066068Y-81517645D01*
X130049185Y-81525954D01*
X129848766Y-81612681D01*
X129842983Y-81615136D01*
X129825244Y-81621523D01*
X129807615Y-81628149D01*
X129599689Y-81694908D01*
X129593694Y-81696786D01*
X129575385Y-81701419D01*
X129557222Y-81706286D01*
X129343776Y-81752434D01*
X129337626Y-81753719D01*
X129318980Y-81756540D01*
X129300404Y-81759615D01*
X129083473Y-81784715D01*
X129077227Y-81785394D01*
X129058382Y-81786381D01*
X129039602Y-81787629D01*
X128821257Y-81791440D01*
X128814975Y-81791505D01*
X128796156Y-81790651D01*
X128777316Y-81790059D01*
X128559642Y-81772546D01*
X128553383Y-81771998D01*
X128534697Y-81769305D01*
X128516043Y-81766882D01*
X128301116Y-81728212D01*
X128294941Y-81727056D01*
X128276639Y-81722560D01*
X128258276Y-81718321D01*
X128048149Y-81658861D01*
X128042116Y-81657108D01*
X128024319Y-81650841D01*
X128006483Y-81644838D01*
X127803160Y-81565158D01*
X127797327Y-81562824D01*
X127780243Y-81554857D01*
X127763058Y-81547135D01*
X127568482Y-81447993D01*
X127562904Y-81445101D01*
X127546691Y-81435512D01*
X127530332Y-81426144D01*
X127346360Y-81308490D01*
X127341090Y-81305067D01*
X127325892Y-81293944D01*
X127310520Y-81283020D01*
X127138908Y-81147972D01*
X127133997Y-81144053D01*
X127119922Y-81131468D01*
X127105728Y-81119130D01*
X126948112Y-80967982D01*
X126943607Y-80963601D01*
X126930857Y-80949735D01*
X126917903Y-80936037D01*
X126775789Y-80770229D01*
X126771733Y-80765429D01*
X126760361Y-80750339D01*
X126748844Y-80735491D01*
X126623586Y-80556606D01*
X126620019Y-80551434D01*
X126610205Y-80535358D01*
X126600158Y-80519403D01*
X126492955Y-80329149D01*
X126489909Y-80323652D01*
X126481697Y-80306665D01*
X126473271Y-80289838D01*
X126385145Y-80090032D01*
X126382650Y-80084266D01*
X126376150Y-80066598D01*
X126369388Y-80048986D01*
X126301181Y-79841533D01*
X126299261Y-79835551D01*
X126294508Y-79817305D01*
X126289506Y-79799146D01*
X126241869Y-79586027D01*
X126240542Y-79579886D01*
X126237593Y-79561271D01*
X126234386Y-79542705D01*
X126207772Y-79325954D01*
X126207050Y-79319713D01*
X126205932Y-79300892D01*
X126204552Y-79282108D01*
X126199217Y-79063795D01*
X126199107Y-79057513D01*
X126199832Y-79038642D01*
X126200291Y-79019843D01*
X126216285Y-78802052D01*
X126216789Y-78795789D01*
X126219349Y-78777100D01*
X126221643Y-78758413D01*
X126258814Y-78543222D01*
X126259927Y-78537039D01*
X126262837Y-78524821D01*
X126265236Y-78512477D01*
X126287568Y-78421559D01*
X126289109Y-78415468D01*
X126302256Y-78373514D01*
X126319435Y-78333045D01*
X126340480Y-78294445D01*
X126365192Y-78258083D01*
X126393334Y-78224305D01*
X126424638Y-78193435D01*
X126458805Y-78165768D01*
X126495509Y-78141565D01*
X126534400Y-78121061D01*
X126575107Y-78104449D01*
X126617238Y-78091889D01*
X126660395Y-78083499D01*
X126704165Y-78079363D01*
X126748129Y-78079516D01*
X126791869Y-78083959D01*
X126834967Y-78092649D01*
X126877010Y-78105503D01*
X126917599Y-78122398D01*
X126956345Y-78143174D01*
X126992880Y-78167631D01*
X127026852Y-78195537D01*
X127057941Y-78226624D01*
X127085846Y-78260597D01*
X127110303Y-78297133D01*
X127131079Y-78335878D01*
X127147975Y-78376467D01*
X127160828Y-78418511D01*
X127169520Y-78461608D01*
X127173961Y-78505348D01*
X127174115Y-78549313D01*
X127169977Y-78593082D01*
X127161589Y-78636239D01*
X127143004Y-78711901D01*
X127112256Y-78889914D01*
X127099486Y-79063806D01*
X127103746Y-79238112D01*
X127124996Y-79411181D01*
X127163030Y-79581335D01*
X127217489Y-79746978D01*
X127287852Y-79906509D01*
X127373447Y-80058415D01*
X127473457Y-80201245D01*
X127586925Y-80333631D01*
X127712772Y-80454313D01*
X127849793Y-80562139D01*
X127996683Y-80656078D01*
X128152041Y-80735237D01*
X128314380Y-80798856D01*
X128482154Y-80846333D01*
X128653759Y-80877209D01*
X128827558Y-80891192D01*
X129001891Y-80888150D01*
X129175097Y-80868109D01*
X129345513Y-80831265D01*
X129511540Y-80777959D01*
X129671554Y-80708715D01*
X129824052Y-80624184D01*
X129967573Y-80525176D01*
X130100754Y-80412628D01*
X130222305Y-80287634D01*
X130331093Y-80151358D01*
X130426052Y-80005135D01*
X130506294Y-79850333D01*
X130571045Y-79688443D01*
X130619693Y-79520997D01*
X130651765Y-79349621D01*
X130666961Y-79175923D01*
X130665135Y-79001575D01*
X130646304Y-78828227D01*
X130610650Y-78657557D01*
X130558506Y-78491167D01*
X130490381Y-78330672D01*
X130406918Y-78177591D01*
X130308910Y-78033377D01*
X130197298Y-77899416D01*
X130073153Y-77776991D01*
X129937652Y-77667264D01*
X129792085Y-77571280D01*
X129618379Y-77479695D01*
X129612842Y-77476725D01*
X129575314Y-77453820D01*
X129540204Y-77427361D01*
X129507841Y-77397602D01*
X129478536Y-77364828D01*
X129452571Y-77329350D01*
X129430190Y-77291508D01*
X129411611Y-77251663D01*
X129397006Y-77210194D01*
X129386520Y-77167498D01*
X129380249Y-77123982D01*
X129378255Y-77080062D01*
X129380556Y-77036159D01*
X129387130Y-76992688D01*
X129397915Y-76950067D01*
X129412807Y-76908701D01*
X129431666Y-76868985D01*
X129454308Y-76831300D01*
X129480521Y-76796005D01*
X129510053Y-76763435D01*
X129542623Y-76733904D01*
X129577918Y-76707690D01*
X129615603Y-76685047D01*
X129655318Y-76666189D01*
X129696684Y-76651296D01*
X129739305Y-76640512D01*
X129782777Y-76633936D01*
X129826680Y-76631636D01*
X129870600Y-76633630D01*
X129914116Y-76639900D01*
X129956812Y-76650388D01*
X129998280Y-76664991D01*
X130038125Y-76683571D01*
G37*
G36*
G01*
X121465000Y-109380000D02*
X121465000Y-110330000D01*
G75*
G02*
X121215000Y-110580000I-250000J0D01*
G01*
X120715000Y-110580000D01*
G75*
G02*
X120465000Y-110330000I0J250000D01*
G01*
X120465000Y-109380000D01*
G75*
G02*
X120715000Y-109130000I250000J0D01*
G01*
X121215000Y-109130000D01*
G75*
G02*
X121465000Y-109380000I0J-250000D01*
G01*
G37*
G36*
G01*
X119565000Y-109380000D02*
X119565000Y-110330000D01*
G75*
G02*
X119315000Y-110580000I-250000J0D01*
G01*
X118815000Y-110580000D01*
G75*
G02*
X118565000Y-110330000I0J250000D01*
G01*
X118565000Y-109380000D01*
G75*
G02*
X118815000Y-109130000I250000J0D01*
G01*
X119315000Y-109130000D01*
G75*
G02*
X119565000Y-109380000I0J-250000D01*
G01*
G37*
G36*
G01*
X135532332Y-114258287D02*
X135382264Y-113970008D01*
G75*
G02*
X135451369Y-113750835I144139J75034D01*
G01*
X136914937Y-112988950D01*
G75*
G02*
X137134110Y-113058055I75034J-144139D01*
G01*
X137284178Y-113346334D01*
G75*
G02*
X137215073Y-113565507I-144139J-75034D01*
G01*
X135751505Y-114327392D01*
G75*
G02*
X135532332Y-114258287I-75034J144139D01*
G01*
G37*
G36*
G01*
X136118753Y-115384791D02*
X135968685Y-115096512D01*
G75*
G02*
X136037790Y-114877339I144139J75034D01*
G01*
X137501358Y-114115454D01*
G75*
G02*
X137720531Y-114184559I75034J-144139D01*
G01*
X137870599Y-114472838D01*
G75*
G02*
X137801494Y-114692011I-144139J-75034D01*
G01*
X136337926Y-115453896D01*
G75*
G02*
X136118753Y-115384791I-75034J144139D01*
G01*
G37*
G36*
G01*
X136705173Y-116511295D02*
X136555105Y-116223016D01*
G75*
G02*
X136624210Y-116003843I144139J75034D01*
G01*
X138087778Y-115241958D01*
G75*
G02*
X138306951Y-115311063I75034J-144139D01*
G01*
X138457019Y-115599342D01*
G75*
G02*
X138387914Y-115818515I-144139J-75034D01*
G01*
X136924346Y-116580400D01*
G75*
G02*
X136705173Y-116511295I-75034J144139D01*
G01*
G37*
G36*
G01*
X137291594Y-117637799D02*
X137141526Y-117349520D01*
G75*
G02*
X137210631Y-117130347I144139J75034D01*
G01*
X138674199Y-116368462D01*
G75*
G02*
X138893372Y-116437567I75034J-144139D01*
G01*
X139043440Y-116725846D01*
G75*
G02*
X138974335Y-116945019I-144139J-75034D01*
G01*
X137510767Y-117706904D01*
G75*
G02*
X137291594Y-117637799I-75034J144139D01*
G01*
G37*
G36*
G01*
X141793174Y-115294425D02*
X141643106Y-115006146D01*
G75*
G02*
X141712211Y-114786973I144139J75034D01*
G01*
X143175779Y-114025088D01*
G75*
G02*
X143394952Y-114094193I75034J-144139D01*
G01*
X143545020Y-114382472D01*
G75*
G02*
X143475915Y-114601645I-144139J-75034D01*
G01*
X142012347Y-115363530D01*
G75*
G02*
X141793174Y-115294425I-75034J144139D01*
G01*
G37*
G36*
G01*
X141206753Y-114167921D02*
X141056685Y-113879642D01*
G75*
G02*
X141125790Y-113660469I144139J75034D01*
G01*
X142589358Y-112898584D01*
G75*
G02*
X142808531Y-112967689I75034J-144139D01*
G01*
X142958599Y-113255968D01*
G75*
G02*
X142889494Y-113475141I-144139J-75034D01*
G01*
X141425926Y-114237026D01*
G75*
G02*
X141206753Y-114167921I-75034J144139D01*
G01*
G37*
G36*
G01*
X140620333Y-113041417D02*
X140470265Y-112753138D01*
G75*
G02*
X140539370Y-112533965I144139J75034D01*
G01*
X142002938Y-111772080D01*
G75*
G02*
X142222111Y-111841185I75034J-144139D01*
G01*
X142372179Y-112129464D01*
G75*
G02*
X142303074Y-112348637I-144139J-75034D01*
G01*
X140839506Y-113110522D01*
G75*
G02*
X140620333Y-113041417I-75034J144139D01*
G01*
G37*
G36*
G01*
X140033912Y-111914913D02*
X139883844Y-111626634D01*
G75*
G02*
X139952949Y-111407461I144139J75034D01*
G01*
X141416517Y-110645576D01*
G75*
G02*
X141635690Y-110714681I75034J-144139D01*
G01*
X141785758Y-111002960D01*
G75*
G02*
X141716653Y-111222133I-144139J-75034D01*
G01*
X140253085Y-111984018D01*
G75*
G02*
X140033912Y-111914913I-75034J144139D01*
G01*
G37*
G36*
G01*
X129434164Y-116268251D02*
X128094887Y-114522872D01*
G75*
G02*
X128141035Y-114172344I198338J152190D01*
G01*
X128656716Y-113776647D01*
G75*
G02*
X129007244Y-113822795I152190J-198338D01*
G01*
X130346521Y-115568174D01*
G75*
G02*
X130300373Y-115918702I-198338J-152190D01*
G01*
X129784692Y-116314399D01*
G75*
G02*
X129434164Y-116268251I-152190J198338D01*
G01*
G37*
G36*
G01*
X131774556Y-114472405D02*
X130435279Y-112727026D01*
G75*
G02*
X130481427Y-112376498I198338J152190D01*
G01*
X130997108Y-111980801D01*
G75*
G02*
X131347636Y-112026949I152190J-198338D01*
G01*
X132686913Y-113772328D01*
G75*
G02*
X132640765Y-114122856I-198338J-152190D01*
G01*
X132125084Y-114518553D01*
G75*
G02*
X131774556Y-114472405I-152190J198338D01*
G01*
G37*
G36*
G01*
X136268413Y-112059864D02*
X135943494Y-111167156D01*
G75*
G02*
X136092912Y-110846728I234923J85505D01*
G01*
X136562759Y-110675718D01*
G75*
G02*
X136883187Y-110825136I85505J-234923D01*
G01*
X137208106Y-111717844D01*
G75*
G02*
X137058688Y-112038272I-234923J-85505D01*
G01*
X136588841Y-112209282D01*
G75*
G02*
X136268413Y-112059864I-85505J234923D01*
G01*
G37*
G36*
G01*
X138053829Y-111410026D02*
X137728910Y-110517318D01*
G75*
G02*
X137878328Y-110196890I234923J85505D01*
G01*
X138348175Y-110025880D01*
G75*
G02*
X138668603Y-110175298I85505J-234923D01*
G01*
X138993522Y-111068006D01*
G75*
G02*
X138844104Y-111388434I-234923J-85505D01*
G01*
X138374257Y-111559444D01*
G75*
G02*
X138053829Y-111410026I-85505J234923D01*
G01*
G37*
G36*
G01*
X126007926Y-113947181D02*
X125912162Y-114304574D01*
G75*
G02*
X125746821Y-114400033I-130400J34941D01*
G01*
X125486021Y-114330152D01*
G75*
G02*
X125390562Y-114164811I34941J130400D01*
G01*
X125486326Y-113807418D01*
G75*
G02*
X125651667Y-113711959I130400J-34941D01*
G01*
X125912467Y-113781840D01*
G75*
G02*
X126007926Y-113947181I-34941J-130400D01*
G01*
G37*
G36*
G01*
X125022682Y-113683185D02*
X124926918Y-114040578D01*
G75*
G02*
X124761577Y-114136037I-130400J34941D01*
G01*
X124500777Y-114066156D01*
G75*
G02*
X124405318Y-113900815I34941J130400D01*
G01*
X124501082Y-113543422D01*
G75*
G02*
X124666423Y-113447963I130400J-34941D01*
G01*
X124927223Y-113517844D01*
G75*
G02*
X125022682Y-113683185I-34941J-130400D01*
G01*
G37*
G36*
G01*
X125753926Y-114937781D02*
X125658162Y-115295174D01*
G75*
G02*
X125492821Y-115390633I-130400J34941D01*
G01*
X125232021Y-115320752D01*
G75*
G02*
X125136562Y-115155411I34941J130400D01*
G01*
X125232326Y-114798018D01*
G75*
G02*
X125397667Y-114702559I130400J-34941D01*
G01*
X125658467Y-114772440D01*
G75*
G02*
X125753926Y-114937781I-34941J-130400D01*
G01*
G37*
G36*
G01*
X124768682Y-114673785D02*
X124672918Y-115031178D01*
G75*
G02*
X124507577Y-115126637I-130400J34941D01*
G01*
X124246777Y-115056756D01*
G75*
G02*
X124151318Y-114891415I34941J130400D01*
G01*
X124247082Y-114534022D01*
G75*
G02*
X124412423Y-114438563I130400J-34941D01*
G01*
X124673223Y-114508444D01*
G75*
G02*
X124768682Y-114673785I-34941J-130400D01*
G01*
G37*
G36*
G01*
X115734584Y-76465028D02*
X115996213Y-76726657D01*
G75*
G02*
X115996213Y-76917575I-95459J-95459D01*
G01*
X115805294Y-77108494D01*
G75*
G02*
X115614376Y-77108494I-95459J95459D01*
G01*
X115352747Y-76846865D01*
G75*
G02*
X115352747Y-76655947I95459J95459D01*
G01*
X115543666Y-76465028D01*
G75*
G02*
X115734584Y-76465028I95459J-95459D01*
G01*
G37*
G36*
G01*
X115013336Y-77186276D02*
X115274965Y-77447905D01*
G75*
G02*
X115274965Y-77638823I-95459J-95459D01*
G01*
X115084046Y-77829742D01*
G75*
G02*
X114893128Y-77829742I-95459J95459D01*
G01*
X114631499Y-77568113D01*
G75*
G02*
X114631499Y-77377195I95459J95459D01*
G01*
X114822418Y-77186276D01*
G75*
G02*
X115013336Y-77186276I95459J-95459D01*
G01*
G37*
D11*
X147828000Y-108153200D03*
X143560800Y-80162400D03*
X123190000Y-80314800D03*
D15*
G36*
X134184632Y-81819972D02*
G01*
X134254356Y-81023016D01*
X134652834Y-81057878D01*
X134583110Y-81854834D01*
X134184632Y-81819972D01*
G37*
G36*
X134690699Y-81864247D02*
G01*
X134760423Y-81067291D01*
X135158901Y-81102153D01*
X135089177Y-81899109D01*
X134690699Y-81864247D01*
G37*
G36*
X135196766Y-81908522D02*
G01*
X135266490Y-81111566D01*
X135664968Y-81146428D01*
X135595244Y-81943384D01*
X135196766Y-81908522D01*
G37*
G36*
X135911832Y-81972372D02*
G01*
X135981556Y-81175416D01*
X136380034Y-81210278D01*
X136310310Y-82007234D01*
X135911832Y-81972372D01*
G37*
G36*
X136417899Y-82016647D02*
G01*
X136487623Y-81219691D01*
X136886101Y-81254553D01*
X136816377Y-82051509D01*
X136417899Y-82016647D01*
G37*
G36*
X136923966Y-82060922D02*
G01*
X136993690Y-81263966D01*
X137392168Y-81298828D01*
X137322444Y-82095784D01*
X136923966Y-82060922D01*
G37*
G36*
G01*
X109752976Y-109519140D02*
X109395583Y-109614904D01*
G75*
G02*
X109230242Y-109519445I-34941J130400D01*
G01*
X109160361Y-109258645D01*
G75*
G02*
X109255820Y-109093304I130400J34941D01*
G01*
X109613213Y-108997540D01*
G75*
G02*
X109778554Y-109092999I34941J-130400D01*
G01*
X109848435Y-109353799D01*
G75*
G02*
X109752976Y-109519140I-130400J-34941D01*
G01*
G37*
G36*
G01*
X109488980Y-108533896D02*
X109131587Y-108629660D01*
G75*
G02*
X108966246Y-108534201I-34941J130400D01*
G01*
X108896365Y-108273401D01*
G75*
G02*
X108991824Y-108108060I130400J34941D01*
G01*
X109349217Y-108012296D01*
G75*
G02*
X109514558Y-108107755I34941J-130400D01*
G01*
X109584439Y-108368555D01*
G75*
G02*
X109488980Y-108533896I-130400J-34941D01*
G01*
G37*
G36*
G01*
X115145400Y-103398000D02*
X114775400Y-103398000D01*
G75*
G02*
X114640400Y-103263000I0J135000D01*
G01*
X114640400Y-102993000D01*
G75*
G02*
X114775400Y-102858000I135000J0D01*
G01*
X115145400Y-102858000D01*
G75*
G02*
X115280400Y-102993000I0J-135000D01*
G01*
X115280400Y-103263000D01*
G75*
G02*
X115145400Y-103398000I-135000J0D01*
G01*
G37*
G36*
G01*
X115145400Y-102378000D02*
X114775400Y-102378000D01*
G75*
G02*
X114640400Y-102243000I0J135000D01*
G01*
X114640400Y-101973000D01*
G75*
G02*
X114775400Y-101838000I135000J0D01*
G01*
X115145400Y-101838000D01*
G75*
G02*
X115280400Y-101973000I0J-135000D01*
G01*
X115280400Y-102243000D01*
G75*
G02*
X115145400Y-102378000I-135000J0D01*
G01*
G37*
G36*
G01*
X135564128Y-73586653D02*
X135892543Y-73674652D01*
G75*
G02*
X135991538Y-73846117I-36235J-135230D01*
G01*
X135919069Y-74116576D01*
G75*
G02*
X135747604Y-74215571I-135230J36235D01*
G01*
X135419189Y-74127572D01*
G75*
G02*
X135320194Y-73956107I36235J135230D01*
G01*
X135392663Y-73685648D01*
G75*
G02*
X135564128Y-73586653I135230J-36235D01*
G01*
G37*
G36*
G01*
X135315662Y-74513941D02*
X135644077Y-74601940D01*
G75*
G02*
X135743072Y-74773405I-36235J-135230D01*
G01*
X135670603Y-75043864D01*
G75*
G02*
X135499138Y-75142859I-135230J36235D01*
G01*
X135170723Y-75054860D01*
G75*
G02*
X135071728Y-74883395I36235J135230D01*
G01*
X135144197Y-74612936D01*
G75*
G02*
X135315662Y-74513941I135230J-36235D01*
G01*
G37*
G36*
X143126864Y-75886712D02*
G01*
X142553288Y-76705864D01*
X141734136Y-76132288D01*
X142307712Y-75313136D01*
X143126864Y-75886712D01*
G37*
G36*
X135685402Y-75677064D02*
G01*
X135219528Y-77415731D01*
X134253602Y-77156912D01*
X134719476Y-75418245D01*
X135685402Y-75677064D01*
G37*
G36*
X133270588Y-75030016D02*
G01*
X132804714Y-76768683D01*
X131838788Y-76509864D01*
X132304662Y-74771197D01*
X133270588Y-75030016D01*
G37*
G36*
G01*
X131432345Y-74472361D02*
X131760760Y-74560360D01*
G75*
G02*
X131859755Y-74731825I-36235J-135230D01*
G01*
X131787286Y-75002284D01*
G75*
G02*
X131615821Y-75101279I-135230J36235D01*
G01*
X131287406Y-75013280D01*
G75*
G02*
X131188411Y-74841815I36235J135230D01*
G01*
X131260880Y-74571356D01*
G75*
G02*
X131432345Y-74472361I135230J-36235D01*
G01*
G37*
G36*
G01*
X131183879Y-75399649D02*
X131512294Y-75487648D01*
G75*
G02*
X131611289Y-75659113I-36235J-135230D01*
G01*
X131538820Y-75929572D01*
G75*
G02*
X131367355Y-76028567I-135230J36235D01*
G01*
X131038940Y-75940568D01*
G75*
G02*
X130939945Y-75769103I36235J135230D01*
G01*
X131012414Y-75498644D01*
G75*
G02*
X131183879Y-75399649I135230J-36235D01*
G01*
G37*
G36*
X128669032Y-110845071D02*
G01*
X129065709Y-110540690D01*
X129066075Y-110541168D01*
X129085540Y-110526232D01*
X129127208Y-110500322D01*
X129171215Y-110478619D01*
X129217138Y-110461335D01*
X129264534Y-110448635D01*
X129312946Y-110440643D01*
X129361909Y-110437433D01*
X129410950Y-110439039D01*
X129459599Y-110445444D01*
X129507384Y-110456585D01*
X129553848Y-110472359D01*
X129598542Y-110492608D01*
X129641035Y-110517142D01*
X129680920Y-110545723D01*
X129717811Y-110578076D01*
X129751353Y-110613888D01*
X129766289Y-110633352D01*
X129766766Y-110632986D01*
X130071147Y-111029663D01*
X130070669Y-111030029D01*
X130085605Y-111049493D01*
X130111515Y-111091162D01*
X130133218Y-111135169D01*
X130150502Y-111181092D01*
X130163202Y-111228488D01*
X130171194Y-111276900D01*
X130174404Y-111325863D01*
X130172798Y-111374903D01*
X130166393Y-111423552D01*
X130155252Y-111471338D01*
X130139478Y-111517801D01*
X130119229Y-111562495D01*
X130094695Y-111604989D01*
X130066114Y-111644874D01*
X130033761Y-111681765D01*
X129997949Y-111715307D01*
X129978485Y-111730242D01*
X129978851Y-111730720D01*
X129582174Y-112035101D01*
X128669032Y-110845071D01*
G37*
G36*
X128947125Y-112521632D02*
G01*
X128927660Y-112536568D01*
X128885992Y-112562478D01*
X128841985Y-112584181D01*
X128796062Y-112601465D01*
X128748666Y-112614165D01*
X128700254Y-112622157D01*
X128651291Y-112625367D01*
X128602250Y-112623761D01*
X128553601Y-112617356D01*
X128505816Y-112606215D01*
X128459352Y-112590441D01*
X128414658Y-112570192D01*
X128372165Y-112545658D01*
X128332280Y-112517077D01*
X128295389Y-112484724D01*
X128261847Y-112448912D01*
X128246911Y-112429448D01*
X128246434Y-112429814D01*
X127942053Y-112033137D01*
X127942531Y-112032771D01*
X127927595Y-112013307D01*
X127901685Y-111971638D01*
X127879982Y-111927631D01*
X127862698Y-111881708D01*
X127849998Y-111834312D01*
X127842006Y-111785900D01*
X127838796Y-111736937D01*
X127840402Y-111687897D01*
X127846807Y-111639248D01*
X127857948Y-111591462D01*
X127873722Y-111544999D01*
X127893971Y-111500305D01*
X127918505Y-111457811D01*
X127947086Y-111417926D01*
X127979439Y-111381035D01*
X128015251Y-111347493D01*
X128034715Y-111332558D01*
X128034349Y-111332080D01*
X128431026Y-111027699D01*
X129344168Y-112217729D01*
X128947491Y-112522110D01*
X128947125Y-112521632D01*
G37*
G36*
G01*
X145102875Y-78989369D02*
X145364504Y-78727740D01*
G75*
G02*
X145555422Y-78727740I95459J-95459D01*
G01*
X145746341Y-78918659D01*
G75*
G02*
X145746341Y-79109577I-95459J-95459D01*
G01*
X145484712Y-79371206D01*
G75*
G02*
X145293794Y-79371206I-95459J95459D01*
G01*
X145102875Y-79180287D01*
G75*
G02*
X145102875Y-78989369I95459J95459D01*
G01*
G37*
G36*
G01*
X145824123Y-79710617D02*
X146085752Y-79448988D01*
G75*
G02*
X146276670Y-79448988I95459J-95459D01*
G01*
X146467589Y-79639907D01*
G75*
G02*
X146467589Y-79830825I-95459J-95459D01*
G01*
X146205960Y-80092454D01*
G75*
G02*
X146015042Y-80092454I-95459J95459D01*
G01*
X145824123Y-79901535D01*
G75*
G02*
X145824123Y-79710617I95459J95459D01*
G01*
G37*
G36*
G01*
X143593218Y-112603915D02*
X143355386Y-112320478D01*
G75*
G02*
X143372026Y-112130286I103416J86776D01*
G01*
X143578858Y-111956733D01*
G75*
G02*
X143769050Y-111973373I86776J-103416D01*
G01*
X144006882Y-112256810D01*
G75*
G02*
X143990242Y-112447002I-103416J-86776D01*
G01*
X143783410Y-112620555D01*
G75*
G02*
X143593218Y-112603915I-86776J103416D01*
G01*
G37*
G36*
G01*
X144374584Y-111948271D02*
X144136752Y-111664834D01*
G75*
G02*
X144153392Y-111474642I103416J86776D01*
G01*
X144360224Y-111301089D01*
G75*
G02*
X144550416Y-111317729I86776J-103416D01*
G01*
X144788248Y-111601166D01*
G75*
G02*
X144771608Y-111791358I-103416J-86776D01*
G01*
X144564776Y-111964911D01*
G75*
G02*
X144374584Y-111948271I-86776J103416D01*
G01*
G37*
G36*
G01*
X115701233Y-112899604D02*
X115439604Y-113161233D01*
G75*
G02*
X115248686Y-113161233I-95459J95459D01*
G01*
X115057767Y-112970314D01*
G75*
G02*
X115057767Y-112779396I95459J95459D01*
G01*
X115319396Y-112517767D01*
G75*
G02*
X115510314Y-112517767I95459J-95459D01*
G01*
X115701233Y-112708686D01*
G75*
G02*
X115701233Y-112899604I-95459J-95459D01*
G01*
G37*
G36*
G01*
X114979985Y-112178356D02*
X114718356Y-112439985D01*
G75*
G02*
X114527438Y-112439985I-95459J95459D01*
G01*
X114336519Y-112249066D01*
G75*
G02*
X114336519Y-112058148I95459J95459D01*
G01*
X114598148Y-111796519D01*
G75*
G02*
X114789066Y-111796519I95459J-95459D01*
G01*
X114979985Y-111987438D01*
G75*
G02*
X114979985Y-112178356I-95459J-95459D01*
G01*
G37*
G36*
G01*
X113563824Y-107676260D02*
X113921217Y-107580496D01*
G75*
G02*
X114086558Y-107675955I34941J-130400D01*
G01*
X114156439Y-107936755D01*
G75*
G02*
X114060980Y-108102096I-130400J-34941D01*
G01*
X113703587Y-108197860D01*
G75*
G02*
X113538246Y-108102401I-34941J130400D01*
G01*
X113468365Y-107841601D01*
G75*
G02*
X113563824Y-107676260I130400J34941D01*
G01*
G37*
G36*
G01*
X113827820Y-108661504D02*
X114185213Y-108565740D01*
G75*
G02*
X114350554Y-108661199I34941J-130400D01*
G01*
X114420435Y-108921999D01*
G75*
G02*
X114324976Y-109087340I-130400J-34941D01*
G01*
X113967583Y-109183104D01*
G75*
G02*
X113802242Y-109087645I-34941J130400D01*
G01*
X113732361Y-108826845D01*
G75*
G02*
X113827820Y-108661504I130400J34941D01*
G01*
G37*
G36*
X113494571Y-105071165D02*
G01*
X112721830Y-105278220D01*
X112488893Y-104408887D01*
X113261634Y-104201832D01*
X113494571Y-105071165D01*
G37*
G36*
X114929839Y-106757139D02*
G01*
X114157098Y-106964194D01*
X113924161Y-106094861D01*
X114696902Y-105887806D01*
X114929839Y-106757139D01*
G37*
G36*
X113094580Y-107248895D02*
G01*
X112321839Y-107455950D01*
X112088902Y-106586617D01*
X112861643Y-106379562D01*
X113094580Y-107248895D01*
G37*
G36*
X111329139Y-109479161D02*
G01*
X111536194Y-110251902D01*
X110666861Y-110484839D01*
X110459806Y-109712098D01*
X111329139Y-109479161D01*
G37*
G36*
X113015113Y-108043893D02*
G01*
X113222168Y-108816634D01*
X112352835Y-109049571D01*
X112145780Y-108276830D01*
X113015113Y-108043893D01*
G37*
G36*
X113506869Y-109879152D02*
G01*
X113713924Y-110651893D01*
X112844591Y-110884830D01*
X112637536Y-110112089D01*
X113506869Y-109879152D01*
G37*
G36*
G01*
X118877100Y-114673000D02*
X117927100Y-114673000D01*
G75*
G02*
X117677100Y-114423000I0J250000D01*
G01*
X117677100Y-113923000D01*
G75*
G02*
X117927100Y-113673000I250000J0D01*
G01*
X118877100Y-113673000D01*
G75*
G02*
X119127100Y-113923000I0J-250000D01*
G01*
X119127100Y-114423000D01*
G75*
G02*
X118877100Y-114673000I-250000J0D01*
G01*
G37*
G36*
G01*
X118877100Y-112773000D02*
X117927100Y-112773000D01*
G75*
G02*
X117677100Y-112523000I0J250000D01*
G01*
X117677100Y-112023000D01*
G75*
G02*
X117927100Y-111773000I250000J0D01*
G01*
X118877100Y-111773000D01*
G75*
G02*
X119127100Y-112023000I0J-250000D01*
G01*
X119127100Y-112523000D01*
G75*
G02*
X118877100Y-112773000I-250000J0D01*
G01*
G37*
G36*
G01*
X116425500Y-110914000D02*
X116425500Y-110574000D01*
G75*
G02*
X116565500Y-110434000I140000J0D01*
G01*
X116845500Y-110434000D01*
G75*
G02*
X116985500Y-110574000I0J-140000D01*
G01*
X116985500Y-110914000D01*
G75*
G02*
X116845500Y-111054000I-140000J0D01*
G01*
X116565500Y-111054000D01*
G75*
G02*
X116425500Y-110914000I0J140000D01*
G01*
G37*
G36*
G01*
X117385500Y-110914000D02*
X117385500Y-110574000D01*
G75*
G02*
X117525500Y-110434000I140000J0D01*
G01*
X117805500Y-110434000D01*
G75*
G02*
X117945500Y-110574000I0J-140000D01*
G01*
X117945500Y-110914000D01*
G75*
G02*
X117805500Y-111054000I-140000J0D01*
G01*
X117525500Y-111054000D01*
G75*
G02*
X117385500Y-110914000I0J140000D01*
G01*
G37*
G36*
G01*
X121162158Y-113896670D02*
X120773930Y-115345558D01*
G75*
G02*
X119855372Y-115875888I-724444J194114D01*
G01*
X119855372Y-115875888D01*
G75*
G02*
X119325042Y-114957330I194114J724444D01*
G01*
X119713270Y-113508442D01*
G75*
G02*
X120631828Y-112978112I724444J-194114D01*
G01*
X120631828Y-112978112D01*
G75*
G02*
X121162158Y-113896670I-194114J-724444D01*
G01*
G37*
G36*
G01*
X128255920Y-115784289D02*
X127867692Y-117233177D01*
G75*
G02*
X126949134Y-117763507I-724444J194114D01*
G01*
X126949134Y-117763507D01*
G75*
G02*
X126418804Y-116844949I194114J724444D01*
G01*
X126807032Y-115396061D01*
G75*
G02*
X127725590Y-114865731I724444J-194114D01*
G01*
X127725590Y-114865731D01*
G75*
G02*
X128255920Y-115784289I-194114J-724444D01*
G01*
G37*
D12*
X150749000Y-99072700D03*
X150749000Y-103898700D03*
D13*
X150144480Y-100622100D03*
X150144480Y-102336600D03*
D14*
X148747480Y-99748340D03*
X148747480Y-103202740D03*
D17*
X152079000Y-96530000D03*
X152079000Y-95480000D03*
X149419000Y-96530000D03*
X149419000Y-95480000D03*
D18*
X150749000Y-96540000D03*
D17*
X152079000Y-94430000D03*
X152079000Y-93380000D03*
X149419000Y-94430000D03*
X149419000Y-93380000D03*
M02*
