G04 #@! TF.GenerationSoftware,KiCad,Pcbnew,5.1.7-a382d34a8~88~ubuntu18.04.1*
G04 #@! TF.CreationDate,2021-05-20T00:29:44+02:00*
G04 #@! TF.ProjectId,Emersense_V1,456d6572-7365-46e7-9365-5f56312e6b69,rev?*
G04 #@! TF.SameCoordinates,Original*
G04 #@! TF.FileFunction,Copper,L2,Inr*
G04 #@! TF.FilePolarity,Positive*
%FSLAX46Y46*%
G04 Gerber Fmt 4.6, Leading zero omitted, Abs format (unit mm)*
G04 Created by KiCad (PCBNEW 5.1.7-a382d34a8~88~ubuntu18.04.1) date 2021-05-20 00:29:44*
%MOMM*%
%LPD*%
G01*
G04 APERTURE LIST*
G04 #@! TA.AperFunction,ComponentPad*
%ADD10C,0.100000*%
G04 #@! TD*
G04 #@! TA.AperFunction,ViaPad*
%ADD11C,0.450000*%
G04 #@! TD*
G04 #@! TA.AperFunction,ViaPad*
%ADD12C,0.800000*%
G04 #@! TD*
G04 #@! TA.AperFunction,Conductor*
%ADD13C,0.200000*%
G04 #@! TD*
G04 #@! TA.AperFunction,Conductor*
%ADD14C,0.250000*%
G04 #@! TD*
G04 #@! TA.AperFunction,Conductor*
%ADD15C,0.300000*%
G04 #@! TD*
G04 #@! TA.AperFunction,Conductor*
%ADD16C,0.150000*%
G04 #@! TD*
G04 #@! TA.AperFunction,Conductor*
%ADD17C,0.178000*%
G04 #@! TD*
G04 #@! TA.AperFunction,Conductor*
%ADD18C,0.100000*%
G04 #@! TD*
G04 APERTURE END LIST*
G04 #@! TA.AperFunction,ComponentPad*
D10*
G36*
X143126864Y-75886712D02*
G01*
X142553288Y-76705864D01*
X141734136Y-76132288D01*
X142307712Y-75313136D01*
X143126864Y-75886712D01*
G37*
G04 #@! TD.AperFunction*
G04 #@! TA.AperFunction,ComponentPad*
G36*
G01*
X121162158Y-113896670D02*
X120773930Y-115345558D01*
G75*
G02*
X119855372Y-115875888I-724444J194114D01*
G01*
X119855372Y-115875888D01*
G75*
G02*
X119325042Y-114957330I194114J724444D01*
G01*
X119713270Y-113508442D01*
G75*
G02*
X120631828Y-112978112I724444J-194114D01*
G01*
X120631828Y-112978112D01*
G75*
G02*
X121162158Y-113896670I-194114J-724444D01*
G01*
G37*
G04 #@! TD.AperFunction*
G04 #@! TA.AperFunction,ComponentPad*
G36*
G01*
X128255920Y-115784289D02*
X127867692Y-117233177D01*
G75*
G02*
X126949134Y-117763507I-724444J194114D01*
G01*
X126949134Y-117763507D01*
G75*
G02*
X126418804Y-116844949I194114J724444D01*
G01*
X126807032Y-115396061D01*
G75*
G02*
X127725590Y-114865731I724444J-194114D01*
G01*
X127725590Y-114865731D01*
G75*
G02*
X128255920Y-115784289I-194114J-724444D01*
G01*
G37*
G04 #@! TD.AperFunction*
D11*
X115531900Y-85051900D03*
X112903000Y-99568000D03*
X113538000Y-99695000D03*
X113347500Y-100330000D03*
X112712500Y-103124000D03*
X134239000Y-87312500D03*
X135191500Y-86931500D03*
X120015000Y-94805500D03*
X120904000Y-94869000D03*
X122110500Y-95059500D03*
X123253500Y-95377000D03*
X123571000Y-94170500D03*
X122555000Y-94043500D03*
X121412000Y-93726000D03*
X120142000Y-93853000D03*
X120332500Y-92710000D03*
X121285000Y-92837000D03*
X122428000Y-93154500D03*
X123571000Y-93345000D03*
X123888500Y-92202000D03*
X122872500Y-92011500D03*
X121475500Y-91821000D03*
X120396000Y-91694000D03*
X116014500Y-112268000D03*
X113792000Y-112014000D03*
X113347500Y-111696500D03*
X113792000Y-111315500D03*
X114236500Y-110871000D03*
X114490500Y-110172500D03*
X115760500Y-110236000D03*
X115633500Y-111125000D03*
X116141500Y-111569500D03*
X116713000Y-111569500D03*
X151739600Y-91363800D03*
X150850600Y-92659200D03*
X152844500Y-93980000D03*
X152717500Y-96075500D03*
X152590500Y-97282000D03*
X151612600Y-92913200D03*
X115570000Y-84137500D03*
X116332000Y-83058000D03*
X115570000Y-82359500D03*
X115189000Y-82804000D03*
X112712500Y-100203000D03*
X116141500Y-82296000D03*
X115824000Y-81724500D03*
X138430000Y-103441500D03*
X137223500Y-103124000D03*
X137795000Y-103124000D03*
X142748000Y-111823500D03*
X142113000Y-110744000D03*
X142176500Y-112712500D03*
X142240000Y-115633500D03*
X142875000Y-115316000D03*
X143510000Y-114998500D03*
X142240000Y-114173000D03*
X140779500Y-114236500D03*
X143192500Y-112839500D03*
X142938500Y-113792000D03*
X141605000Y-114490500D03*
X140843000Y-113474500D03*
X141224000Y-110363000D03*
X141478000Y-113093500D03*
X141541500Y-111633000D03*
X142240000Y-111379000D03*
X141414500Y-115443000D03*
X139509500Y-116522500D03*
X139065000Y-115951000D03*
X141033500Y-114808000D03*
X128714500Y-116420900D03*
X130733800Y-115455700D03*
X129908300Y-114173000D03*
X129438400Y-113779300D03*
X129133600Y-118491000D03*
X127927100Y-113982500D03*
X128295400Y-117208300D03*
X129349500Y-117297200D03*
X129578100Y-116687600D03*
X127508000Y-118541800D03*
X130289300Y-114693700D03*
X127508000Y-114490500D03*
X138747500Y-109118400D03*
X138023600Y-109029500D03*
X139166600Y-112306100D03*
X138544300Y-112433100D03*
X137083800Y-110248700D03*
X139077700Y-109766100D03*
X139382500Y-110401100D03*
X139674600Y-112077500D03*
X137731500Y-111518700D03*
X137452100Y-110896400D03*
X137998200Y-112026700D03*
X139712700Y-110972600D03*
X137363200Y-109359700D03*
X115570000Y-83616800D03*
X115138200Y-86258400D03*
X115646200Y-86918800D03*
X115671600Y-86385400D03*
X115087400Y-86741000D03*
X115722400Y-83083400D03*
X116230400Y-83616800D03*
X132918200Y-78638400D03*
X132715000Y-77470000D03*
X132207000Y-77139800D03*
X132359400Y-78206600D03*
X134010400Y-75666600D03*
X133400800Y-75971400D03*
X111950500Y-102997000D03*
X118186200Y-101142800D03*
X119964200Y-101244400D03*
X126174500Y-81407000D03*
X126174500Y-82105500D03*
X129946400Y-85852000D03*
X123393200Y-87884000D03*
X131114800Y-86055200D03*
X129006600Y-101803200D03*
X134112000Y-88341200D03*
X130149600Y-90119200D03*
X133248400Y-88036400D03*
X120599200Y-108254800D03*
X121666000Y-108407200D03*
X122072400Y-109778800D03*
X120294400Y-110693200D03*
X120142000Y-109220000D03*
X121564400Y-110947200D03*
X122224800Y-109169200D03*
X120853200Y-110947200D03*
X121970800Y-110439200D03*
X129235200Y-89712800D03*
X127863600Y-88696800D03*
X139141200Y-84328000D03*
X126593600Y-88493600D03*
X135229600Y-88544400D03*
X131064000Y-90932000D03*
X131216400Y-90170000D03*
X149809200Y-103174800D03*
X148742400Y-104241600D03*
X149860000Y-91033600D03*
X148742400Y-90068400D03*
X148691600Y-91897200D03*
X137261600Y-85598000D03*
X137477500Y-86296500D03*
X138366500Y-86360000D03*
X137312400Y-84886800D03*
X142595600Y-85191600D03*
X143002000Y-84277200D03*
X141579600Y-85242400D03*
X140462000Y-80111600D03*
X141046200Y-80518000D03*
X143052800Y-83718400D03*
X139700000Y-80060800D03*
X130403600Y-77571600D03*
X131013200Y-78435200D03*
X126746000Y-79959200D03*
X126644400Y-78943200D03*
X136271000Y-79451200D03*
X136169400Y-80492600D03*
X132029200Y-79756000D03*
X130505200Y-84328000D03*
X131114800Y-82397600D03*
X131368800Y-81330800D03*
X136144000Y-79933800D03*
X132334000Y-79146400D03*
X129336800Y-76962000D03*
X126847600Y-78079600D03*
X131368800Y-84378800D03*
X129133600Y-81381600D03*
X140262352Y-73965155D03*
X137061467Y-75265077D03*
X136174589Y-75036705D03*
X137317357Y-74401288D03*
X136402961Y-74149826D03*
X134734202Y-74601788D03*
X134820871Y-74135259D03*
X138951315Y-74717281D03*
X139074999Y-73508100D03*
X139635148Y-73790555D03*
X139185377Y-74186863D03*
X131168311Y-76392590D03*
X130340100Y-74879200D03*
X129781300Y-74764900D03*
X129616200Y-74256900D03*
X122911027Y-75334660D03*
X116789200Y-80467200D03*
X116535200Y-79959200D03*
X118957970Y-79403074D03*
X118927930Y-78768276D03*
X119660775Y-78984628D03*
X123959556Y-73330649D03*
X124492188Y-73590014D03*
X124336250Y-74139095D03*
X124901779Y-74191605D03*
X117526484Y-74989842D03*
X117061217Y-75209027D03*
X116865122Y-74716242D03*
X117328176Y-74471754D03*
X117792181Y-73946716D03*
X127685800Y-72072500D03*
X127355600Y-71208900D03*
X126923800Y-71831200D03*
X140157200Y-91287600D03*
X140157200Y-91948000D03*
X140258800Y-88493600D03*
X140157200Y-96215200D03*
X140157200Y-93370400D03*
X123126500Y-111569500D03*
X134937500Y-97409000D03*
X133985000Y-96329500D03*
X135636000Y-97218500D03*
X135636000Y-96647000D03*
X150164800Y-92862400D03*
X144843500Y-101917500D03*
X145415000Y-102108000D03*
X145415000Y-102679500D03*
X145288000Y-103251000D03*
X144589500Y-103378000D03*
X144843500Y-102679500D03*
X118872000Y-113347500D03*
X118364000Y-113347500D03*
X117792500Y-113347500D03*
X117284500Y-114109500D03*
X117284500Y-114681000D03*
X117856000Y-115125500D03*
X118618000Y-115125500D03*
X118554500Y-115887500D03*
X117221000Y-115697000D03*
X117157500Y-81216500D03*
X117348000Y-81788000D03*
X119253000Y-80391000D03*
X118681500Y-80581500D03*
X120523000Y-81470500D03*
X120904000Y-80962500D03*
X139446000Y-80581500D03*
X142303500Y-83248500D03*
X128168400Y-110083600D03*
X128016000Y-110591600D03*
X128778000Y-110185200D03*
X130619500Y-110617000D03*
X131381500Y-110807500D03*
X130937000Y-111125000D03*
X131572000Y-111379000D03*
X131013200Y-81762600D03*
X137566400Y-83058000D03*
X137236200Y-83794600D03*
X136956800Y-83134200D03*
X126466600Y-115150900D03*
X126034800Y-116052600D03*
X124688600Y-116547900D03*
X119735600Y-116789200D03*
X123710700Y-118414800D03*
X125539500Y-118618000D03*
X115824000Y-75399900D03*
X113284000Y-77635100D03*
X113665000Y-78486000D03*
X115697000Y-80264000D03*
X113398300Y-96672400D03*
X113868200Y-94272100D03*
X114350800Y-91782900D03*
X114693700Y-89839800D03*
X114808000Y-88595200D03*
X111099600Y-103720900D03*
X110820200Y-105295700D03*
X131482235Y-116926570D03*
X132150247Y-116941101D03*
X132710897Y-116918530D03*
X133281493Y-116971505D03*
X133974689Y-116982720D03*
X134674513Y-117044302D03*
X134359694Y-116598985D03*
X130924300Y-117919500D03*
X131343400Y-118300500D03*
X130947227Y-118700681D03*
X131080476Y-119323618D03*
X131961553Y-119399766D03*
X131497296Y-118986931D03*
X132346559Y-119016028D03*
X132824396Y-119337408D03*
X133427440Y-119053062D03*
X134070269Y-119070910D03*
X136017000Y-117284500D03*
X136359900Y-117856000D03*
X136410700Y-118376700D03*
X134670800Y-119037100D03*
X131368800Y-117614700D03*
X131076700Y-117195600D03*
X149453600Y-96977200D03*
X110591600Y-108686600D03*
X114681000Y-108077000D03*
X111709200Y-112115600D03*
X117233700Y-107784900D03*
X111201200Y-107467400D03*
X112318800Y-105359200D03*
X117957600Y-86969600D03*
X124282200Y-113665000D03*
X135945199Y-76534599D03*
X136296391Y-72348861D03*
X133321948Y-74825748D03*
X121686373Y-72994089D03*
X126020483Y-75904020D03*
X125596015Y-76298115D03*
X125057051Y-76549244D03*
X139379921Y-81915130D03*
D12*
X134556500Y-99936300D03*
X134213600Y-100812600D03*
X134023100Y-101714300D03*
X135229600Y-100723700D03*
X134975600Y-101561900D03*
X134785100Y-102438200D03*
X135686800Y-102158800D03*
X135953500Y-101320600D03*
X136131300Y-100266500D03*
X135407400Y-99796600D03*
D11*
X140017500Y-112903000D03*
X119380000Y-83820000D03*
X119951500Y-83883500D03*
X120523000Y-84010500D03*
X121031000Y-84074000D03*
X121602500Y-84137500D03*
X122174000Y-84201000D03*
X122745500Y-84264500D03*
X123126500Y-84645500D03*
X118808500Y-83820000D03*
D12*
X132588000Y-108394500D03*
X133540500Y-108458000D03*
X134493000Y-108521500D03*
X135382000Y-108585000D03*
X136271000Y-108775500D03*
X135636000Y-109410500D03*
X134810500Y-109347000D03*
X133921500Y-109283500D03*
X133032500Y-109220000D03*
X132207000Y-109156500D03*
X132588000Y-109982000D03*
X133477000Y-110045500D03*
X134366000Y-110109000D03*
X135191500Y-110172500D03*
X133921500Y-110807500D03*
X132969000Y-110744000D03*
D11*
X119380000Y-106108500D03*
X118935500Y-106362500D03*
X118554500Y-106680000D03*
X119062500Y-106997500D03*
X119507000Y-106616500D03*
X119824500Y-106997500D03*
X120332500Y-106934000D03*
X120015000Y-106426000D03*
X119888000Y-105981500D03*
X120459500Y-106108500D03*
X120650000Y-106553000D03*
X120967500Y-106934000D03*
X118237000Y-111252000D03*
X118059200Y-109880400D03*
X152079000Y-94954400D03*
X139191871Y-83117194D03*
X122885200Y-77050900D03*
X116636800Y-76606400D03*
X124486234Y-83389034D03*
X137287000Y-77597000D03*
X117297200Y-76809600D03*
X125313831Y-82794231D03*
X136880600Y-77012800D03*
X121305244Y-100131956D03*
X122357715Y-100908285D03*
X110744000Y-111099600D03*
X123221618Y-75970410D03*
X148793200Y-93370400D03*
X131572000Y-103073200D03*
X148793200Y-94437200D03*
X131368800Y-103784400D03*
X149961600Y-95554800D03*
X130422705Y-103853231D03*
X134645400Y-84099400D03*
X134721600Y-82753200D03*
X130251200Y-79248000D03*
X128117600Y-89509600D03*
X139242800Y-83718400D03*
X137588702Y-107115863D03*
X123596400Y-102298500D03*
X128066800Y-101727000D03*
X132734270Y-101098130D03*
D12*
X125933200Y-113334800D03*
D11*
X115942767Y-107878267D03*
X116916200Y-100850700D03*
X143738600Y-110832900D03*
X121627900Y-101879400D03*
X124434600Y-102412800D03*
X144272000Y-78917800D03*
X114935000Y-78320900D03*
X118770400Y-104444800D03*
X149047200Y-86360000D03*
X130276600Y-91516200D03*
X145516600Y-81661000D03*
X148386800Y-98653600D03*
X129743200Y-92202000D03*
X145846800Y-82410300D03*
X116840000Y-98450400D03*
X121920000Y-115836700D03*
D13*
X112210422Y-110989796D02*
X117233700Y-107784900D01*
X112210422Y-110989796D02*
X112146073Y-111034095D01*
X112146073Y-111034095D02*
X112084983Y-111082792D01*
X112084983Y-111082792D02*
X112027453Y-111135646D01*
X112027453Y-111135646D02*
X111973764Y-111192397D01*
X111973764Y-111192397D02*
X111924179Y-111252768D01*
X111924179Y-111252768D02*
X111878942Y-111316461D01*
X111878942Y-111316461D02*
X111838275Y-111383165D01*
X111838275Y-111383165D02*
X111802377Y-111452553D01*
X111802377Y-111452553D02*
X111771425Y-111524283D01*
X111771425Y-111524283D02*
X111745570Y-111598004D01*
X111745570Y-111598004D02*
X111724939Y-111673354D01*
X111724939Y-111673354D02*
X111709634Y-111749964D01*
X111709634Y-111749964D02*
X111699729Y-111827457D01*
X111699729Y-111827457D02*
X111695274Y-111905453D01*
X111695274Y-111905453D02*
X111696289Y-111983570D01*
X111696289Y-111983570D02*
X111702772Y-112061424D01*
X111702772Y-112061424D02*
X111709200Y-112115600D01*
D14*
X112318800Y-105359200D02*
X113233200Y-104394000D01*
X113233200Y-104394000D02*
X114554000Y-99415600D01*
X114554000Y-99415600D02*
X117957600Y-86969600D01*
D15*
X135842008Y-72608219D02*
X136296391Y-72348861D01*
X135842008Y-72608219D02*
X135533291Y-72793366D01*
X135533291Y-72793366D02*
X135232844Y-72991649D01*
X135232844Y-72991649D02*
X134941221Y-73202699D01*
X134941221Y-73202699D02*
X134658967Y-73426122D01*
X134658967Y-73426122D02*
X134386606Y-73661505D01*
X134386606Y-73661505D02*
X134124643Y-73908408D01*
X134124643Y-73908408D02*
X133873567Y-74166373D01*
X133873567Y-74166373D02*
X133633844Y-74434922D01*
X133633844Y-74434922D02*
X133405919Y-74713553D01*
X133405919Y-74713553D02*
X133321948Y-74825748D01*
D13*
X139191871Y-83117194D02*
X139379921Y-81915130D01*
D14*
X121744833Y-74533632D02*
X121686373Y-72994089D01*
X121744833Y-74533632D02*
X121748744Y-74607020D01*
X121748744Y-74607020D02*
X121754900Y-74680253D01*
X121754900Y-74680253D02*
X121763295Y-74753265D01*
X121763295Y-74753265D02*
X121773920Y-74825985D01*
X121773920Y-74825985D02*
X121786765Y-74898346D01*
X121786765Y-74898346D02*
X121801818Y-74970280D01*
X121801818Y-74970280D02*
X121819066Y-75041719D01*
X121819066Y-75041719D02*
X121838492Y-75112598D01*
X121838492Y-75112598D02*
X121860078Y-75182848D01*
X121860078Y-75182848D02*
X121883804Y-75252406D01*
X121883804Y-75252406D02*
X121909647Y-75321204D01*
X121909647Y-75321204D02*
X121937583Y-75389180D01*
X121937583Y-75389180D02*
X121967586Y-75456268D01*
X121967586Y-75456268D02*
X121999629Y-75522408D01*
X121999629Y-75522408D02*
X122033680Y-75587535D01*
X122033680Y-75587535D02*
X122069709Y-75651591D01*
X122069709Y-75651591D02*
X122885200Y-77050900D01*
D16*
X118072945Y-82182028D02*
X116636800Y-76606400D01*
X118072945Y-82182028D02*
X118103877Y-82284897D01*
X118103877Y-82284897D02*
X118142931Y-82384965D01*
X118142931Y-82384965D02*
X118189858Y-82481592D01*
X118189858Y-82481592D02*
X118244357Y-82574161D01*
X118244357Y-82574161D02*
X118306078Y-82662077D01*
X118306078Y-82662077D02*
X118374629Y-82744780D01*
X118374629Y-82744780D02*
X118449569Y-82821741D01*
X118449569Y-82821741D02*
X118530420Y-82892466D01*
X118530420Y-82892466D02*
X118616664Y-82956504D01*
X118616664Y-82956504D02*
X118707750Y-83013445D01*
X118707750Y-83013445D02*
X118803095Y-83062924D01*
X118803095Y-83062924D02*
X118902090Y-83104626D01*
X118902090Y-83104626D02*
X119004100Y-83138283D01*
X119004100Y-83138283D02*
X119108474Y-83163681D01*
X119108474Y-83163681D02*
X119214544Y-83180656D01*
X119214544Y-83180656D02*
X119321631Y-83189102D01*
X119321631Y-83189102D02*
X124486234Y-83389034D01*
X132656514Y-83481805D02*
X132735371Y-83419678D01*
X133427220Y-79844114D02*
X133459259Y-79764088D01*
X136959847Y-78294877D02*
X137015673Y-78224032D01*
X132293854Y-83648990D02*
X132390030Y-83620209D01*
X133497534Y-79686850D02*
X133541805Y-79612886D01*
X133591793Y-79542658D02*
X133647185Y-79476609D01*
X133915369Y-79262046D02*
X133991964Y-79222499D01*
X136537992Y-78628190D02*
X136617104Y-78584867D01*
X132982788Y-83106216D02*
X133024899Y-83015085D01*
X132095534Y-83678875D02*
X132195398Y-83668603D01*
X124486234Y-83389034D02*
X131995148Y-83679717D01*
X132572167Y-83536245D02*
X132656514Y-83481805D01*
X133647185Y-79476609D02*
X133707632Y-79415154D01*
X132483076Y-83582517D02*
X132572167Y-83536245D01*
X133459259Y-79764088D02*
X133497534Y-79686850D01*
X133024899Y-83015085D02*
X133058258Y-82920399D01*
X131995148Y-83679717D02*
X132095534Y-83678875D01*
X133082569Y-82822996D02*
X133097619Y-82723741D01*
X133058258Y-82920399D02*
X133082569Y-82822996D01*
X137015673Y-78224032D02*
X137066625Y-78149604D01*
X133382612Y-80010506D02*
X133401617Y-79926426D01*
X133370326Y-80095828D02*
X133382612Y-80010506D01*
X133991964Y-79222499D02*
X134071449Y-79189140D01*
X133401617Y-79926426D02*
X133427220Y-79844114D01*
X133541805Y-79612886D02*
X133591793Y-79542658D01*
X134071449Y-79189140D02*
X134153326Y-79162180D01*
X132735371Y-83419678D02*
X132808040Y-83350414D01*
X134153326Y-79162180D02*
X134237081Y-79141789D01*
X133370326Y-80095828D02*
X133097619Y-82723741D01*
X132873877Y-83274626D02*
X132932299Y-83192986D01*
X136693135Y-78536339D02*
X136765743Y-78482825D01*
X136285785Y-78725106D02*
X136371959Y-78698468D01*
X137217468Y-77822976D02*
X137287000Y-77597000D01*
X136371959Y-78698468D02*
X136456154Y-78666114D01*
X132932299Y-83192986D02*
X132982788Y-83106216D01*
X136765743Y-78482825D02*
X136834601Y-78424566D01*
X133842147Y-79307534D02*
X133915369Y-79262046D01*
X137188066Y-77908246D02*
X137217468Y-77822976D01*
X133707632Y-79415154D02*
X133772756Y-79358677D01*
X137112475Y-78071929D02*
X137153016Y-77991356D01*
X132390030Y-83620209D02*
X132483076Y-83582517D01*
X137066625Y-78149604D02*
X137112475Y-78071929D01*
X134237081Y-79141789D02*
X136198020Y-78745911D01*
X137153016Y-77991356D02*
X137188066Y-77908246D01*
X136899399Y-78361822D02*
X136959847Y-78294877D01*
X136834601Y-78424566D02*
X136899399Y-78361822D01*
X136617104Y-78584867D02*
X136693135Y-78536339D01*
X133772756Y-79358677D02*
X133842147Y-79307534D01*
X132195398Y-83668603D02*
X132293854Y-83648990D01*
X136456154Y-78666114D02*
X136537992Y-78628190D01*
X132808040Y-83350414D02*
X132873877Y-83274626D01*
X136198020Y-78745911D02*
X136285785Y-78725106D01*
X132563941Y-82066269D02*
X132546311Y-82166020D01*
X132546311Y-82166020D02*
X132519549Y-82263719D01*
X132519549Y-82263719D02*
X132483883Y-82358530D01*
X132483883Y-82358530D02*
X132439617Y-82449643D01*
X132439617Y-82449643D02*
X132387128Y-82536281D01*
X132387128Y-82536281D02*
X132326866Y-82617704D01*
X132326866Y-82617704D02*
X132259345Y-82693216D01*
X132259345Y-82693216D02*
X132185141Y-82762173D01*
X132185141Y-82762173D02*
X132104889Y-82823985D01*
X132104889Y-82823985D02*
X132019273Y-82878125D01*
X132019273Y-82878125D02*
X131929025Y-82924130D01*
X131929025Y-82924130D02*
X131834915Y-82961608D01*
X131834915Y-82961608D02*
X131737748Y-82990238D01*
X131737748Y-82990238D02*
X131638352Y-83009776D01*
X131638352Y-83009776D02*
X131537578Y-83020055D01*
X131537578Y-83020055D02*
X131436285Y-83020988D01*
X118479086Y-81579354D02*
X117297200Y-76809600D01*
X118479086Y-81579354D02*
X118509019Y-81682197D01*
X118509019Y-81682197D02*
X118547144Y-81782293D01*
X118547144Y-81782293D02*
X118593211Y-81878991D01*
X118593211Y-81878991D02*
X118646922Y-81971661D01*
X118646922Y-81971661D02*
X118707927Y-82059702D01*
X118707927Y-82059702D02*
X118775829Y-82142539D01*
X118775829Y-82142539D02*
X118850185Y-82219635D01*
X118850185Y-82219635D02*
X118930514Y-82290488D01*
X118930514Y-82290488D02*
X119016291Y-82354636D01*
X119016291Y-82354636D02*
X119106959Y-82411662D01*
X119106959Y-82411662D02*
X119201928Y-82461196D01*
X119201928Y-82461196D02*
X119300580Y-82502914D01*
X119300580Y-82502914D02*
X119402274Y-82536547D01*
X119402274Y-82536547D02*
X119506347Y-82561874D01*
X119506347Y-82561874D02*
X119612123Y-82578731D01*
X119612123Y-82578731D02*
X119718914Y-82587011D01*
X119718914Y-82587011D02*
X125313831Y-82794231D01*
X125313831Y-82794231D02*
X131436285Y-83020988D01*
X135635082Y-78393621D02*
X135723870Y-78375266D01*
X135723870Y-78375266D02*
X135811267Y-78351141D01*
X135811267Y-78351141D02*
X135896898Y-78321350D01*
X135896898Y-78321350D02*
X135980397Y-78286020D01*
X135980397Y-78286020D02*
X136061405Y-78245301D01*
X136061405Y-78245301D02*
X136139575Y-78199370D01*
X136139575Y-78199370D02*
X136214573Y-78148422D01*
X136214573Y-78148422D02*
X136286076Y-78092677D01*
X136286076Y-78092677D02*
X136353778Y-78032372D01*
X136353778Y-78032372D02*
X136417390Y-77967767D01*
X136417390Y-77967767D02*
X136476638Y-77899138D01*
X136476638Y-77899138D02*
X136531268Y-77826779D01*
X136531268Y-77826779D02*
X136581047Y-77751001D01*
X136581047Y-77751001D02*
X136625761Y-77672129D01*
X136625761Y-77672129D02*
X136665219Y-77590499D01*
X136665219Y-77590499D02*
X136699253Y-77506464D01*
X136699253Y-77506464D02*
X136880600Y-77012800D01*
X132877173Y-79645831D02*
X132563941Y-82066269D01*
X132877173Y-79645831D02*
X132891611Y-79560911D01*
X132891611Y-79560911D02*
X132912742Y-79477404D01*
X132912742Y-79477404D02*
X132940434Y-79395838D01*
X132940434Y-79395838D02*
X132974511Y-79316726D01*
X132974511Y-79316726D02*
X133014758Y-79240568D01*
X133014758Y-79240568D02*
X133060921Y-79167844D01*
X133060921Y-79167844D02*
X133112710Y-79099013D01*
X133112710Y-79099013D02*
X133169798Y-79034508D01*
X133169798Y-79034508D02*
X133231824Y-78974737D01*
X133231824Y-78974737D02*
X133298398Y-78920076D01*
X133298398Y-78920076D02*
X133369099Y-78870870D01*
X133369099Y-78870870D02*
X133443482Y-78827430D01*
X133443482Y-78827430D02*
X133521077Y-78790029D01*
X133521077Y-78790029D02*
X133601396Y-78758904D01*
X133601396Y-78758904D02*
X133683931Y-78734251D01*
X133683931Y-78734251D02*
X133768163Y-78716225D01*
X133768163Y-78716225D02*
X135635082Y-78393621D01*
X131436285Y-83020988D02*
X131436285Y-83020988D01*
D13*
X145495336Y-104970895D02*
X145407501Y-104964198D01*
X145671291Y-104964812D02*
X145583426Y-104971100D01*
X145758454Y-104952065D02*
X145671291Y-104964812D01*
X145928782Y-104907504D02*
X145844440Y-104932927D01*
X146240714Y-104746217D02*
X146167412Y-104795070D01*
X146310216Y-104692093D02*
X146240714Y-104746217D01*
X146375539Y-104632994D02*
X146310216Y-104692093D01*
X146492255Y-104501180D02*
X146436329Y-104569241D01*
X146543011Y-104429183D02*
X146492255Y-104501180D01*
X146588324Y-104353641D02*
X146543011Y-104429183D01*
X147984326Y-101812413D02*
X147962767Y-101856346D01*
X148023247Y-101722622D02*
X148004493Y-101767824D01*
X148070854Y-101583794D02*
X148056444Y-101630562D01*
X148083786Y-101536596D02*
X148070854Y-101583794D01*
X145583426Y-104971100D02*
X145495336Y-104970895D01*
X148095227Y-101489014D02*
X148083786Y-101536596D01*
X146167412Y-104795070D02*
X146090708Y-104838388D01*
X146436329Y-104569241D02*
X146375539Y-104632994D01*
X148113592Y-101392890D02*
X148105166Y-101441096D01*
X148120497Y-101344442D02*
X148113592Y-101392890D01*
X148125875Y-101295800D02*
X148120497Y-101344442D01*
X148129721Y-101247014D02*
X148125875Y-101295800D01*
X148132029Y-101198131D02*
X148129721Y-101247014D01*
X148132800Y-101149200D02*
X148132029Y-101198131D01*
X148134659Y-100453140D02*
X148132800Y-100523600D01*
X148162442Y-100243718D02*
X148149501Y-100313004D01*
X148199187Y-100107673D02*
X148179020Y-100175211D01*
X148222888Y-100041293D02*
X148199187Y-100107673D01*
X148040570Y-101676853D02*
X148023247Y-101722622D01*
X148179020Y-100175211D02*
X148162442Y-100243718D01*
X148401519Y-97650841D02*
X148439028Y-97687716D01*
X148247112Y-97438919D02*
X148273254Y-97484561D01*
X148959256Y-99071307D02*
X148936336Y-99118943D01*
X148168579Y-97244154D02*
X148184181Y-97294386D01*
X148242344Y-93659279D02*
X148209551Y-93713992D01*
X148138554Y-97089400D02*
X148145732Y-97141507D01*
X148878142Y-98102094D02*
X148906744Y-98146238D01*
X148004493Y-101767824D02*
X147984326Y-101812413D01*
X148132800Y-96984400D02*
X148134239Y-97036979D01*
X147939837Y-101899579D02*
X146588324Y-104353641D01*
X149047200Y-98646400D02*
X149047200Y-98660800D01*
X148132800Y-94020400D02*
X148132800Y-96984400D01*
X148478499Y-97722483D02*
X148701500Y-97908317D01*
X148719088Y-93373529D02*
X148655991Y-93382889D01*
X148273254Y-97484561D02*
X148301856Y-97528705D01*
X148906744Y-98146238D02*
X148932886Y-98191880D01*
X148701500Y-97908317D02*
X148740970Y-97943083D01*
X148793200Y-93370400D02*
X148782800Y-93370400D01*
X148223506Y-97391915D02*
X148247112Y-97438919D01*
X148534055Y-93419878D02*
X148476392Y-93447151D01*
X148782800Y-93370400D02*
X148719088Y-93373529D01*
X148351563Y-99790983D02*
X148314483Y-99850926D01*
X148476392Y-93447151D02*
X148421679Y-93479944D01*
X148594114Y-93398388D02*
X148534055Y-93419878D01*
X148149501Y-100313004D02*
X148140231Y-100382876D01*
X148786045Y-99335478D02*
X148749435Y-99373612D01*
X148132800Y-100523600D02*
X148132800Y-101149200D01*
X148370444Y-93517943D02*
X148323180Y-93560780D01*
X148323180Y-93560780D02*
X148280343Y-93608044D01*
X148155750Y-97193144D02*
X148168579Y-97244154D01*
X148301856Y-97528705D02*
X148332830Y-97571216D01*
X148977490Y-98287110D02*
X148995817Y-98336413D01*
X148105166Y-101441096D02*
X148095227Y-101489014D01*
X148184181Y-97294386D02*
X148202508Y-97343689D01*
X148250056Y-99976255D02*
X148222888Y-100041293D01*
X148134239Y-97036979D02*
X148138554Y-97089400D01*
X148280343Y-93608044D02*
X148242344Y-93659279D01*
X145844440Y-104932927D02*
X145758454Y-104952065D01*
X148314483Y-99850926D02*
X148280616Y-99912741D01*
X148182278Y-93771655D02*
X148160788Y-93831714D01*
X148209551Y-93713992D02*
X148182278Y-93771655D01*
X146011020Y-104875934D02*
X145928782Y-104907504D01*
X148439028Y-97687716D02*
X148478499Y-97722483D01*
X148421679Y-93479944D02*
X148370444Y-93517943D01*
X148145289Y-93893591D02*
X148135929Y-93956688D01*
X148740970Y-97943083D02*
X148778479Y-97979958D01*
X149011419Y-98386645D02*
X149024248Y-98437655D01*
X148778479Y-97979958D02*
X148813914Y-98018830D01*
X148391752Y-99733079D02*
X148351563Y-99790983D01*
X148813914Y-98018830D02*
X148847168Y-98059583D01*
X148847168Y-98059583D02*
X148878142Y-98102094D01*
X148710865Y-99409763D02*
X148581245Y-99524981D01*
X148932886Y-98191880D02*
X148956492Y-98238884D01*
X148956492Y-98238884D02*
X148977490Y-98287110D01*
X148995817Y-98336413D02*
X149011419Y-98386645D01*
X149024248Y-98437655D02*
X149034266Y-98489292D01*
X149034266Y-98489292D02*
X149041444Y-98541399D01*
X149041444Y-98541399D02*
X149045759Y-98593820D01*
X149024967Y-98870710D02*
X149012534Y-98922091D01*
X149045759Y-98593820D02*
X149047200Y-98646400D01*
X148145732Y-97141507D02*
X148155750Y-97193144D01*
X149047200Y-98660800D02*
X149045805Y-98713644D01*
X149045805Y-98713644D02*
X149041626Y-98766342D01*
X148202508Y-97343689D02*
X148223506Y-97391915D01*
X148160788Y-93831714D02*
X148145289Y-93893591D01*
X148936336Y-99118943D02*
X148910936Y-99165304D01*
X148056444Y-101630562D02*
X148040570Y-101676853D01*
X148366084Y-97611969D02*
X148401519Y-97650841D01*
X148332830Y-97571216D02*
X148366084Y-97611969D01*
X148852984Y-99253689D02*
X148820594Y-99295467D01*
X148140231Y-100382876D02*
X148134659Y-100453140D01*
X149041626Y-98766342D02*
X149034673Y-98818746D01*
X149012534Y-98922091D02*
X148997408Y-98972744D01*
X149034673Y-98818746D02*
X149024967Y-98870710D01*
X148997408Y-98972744D02*
X148979633Y-99022529D01*
X146090708Y-104838388D02*
X146011020Y-104875934D01*
X148979633Y-99022529D02*
X148959256Y-99071307D01*
X147962767Y-101856346D02*
X147939837Y-101899579D01*
X148135929Y-93956688D02*
X148132800Y-94020400D01*
X148280616Y-99912741D02*
X148250056Y-99976255D01*
X148481004Y-99624027D02*
X148434939Y-99677375D01*
X148910936Y-99165304D02*
X148883126Y-99210261D01*
X148883126Y-99210261D02*
X148852984Y-99253689D01*
X148820594Y-99295467D02*
X148786045Y-99335478D01*
X148749435Y-99373612D02*
X148710865Y-99409763D01*
X148655991Y-93382889D02*
X148594114Y-93398388D01*
X148581245Y-99524981D02*
X148529817Y-99573181D01*
X148529817Y-99573181D02*
X148481004Y-99624027D01*
X148434939Y-99677375D02*
X148391752Y-99733079D01*
X132333866Y-103480665D02*
X145407501Y-104964198D01*
X132333866Y-103480665D02*
X132279594Y-103473216D01*
X132279594Y-103473216D02*
X132225731Y-103463234D01*
X132225731Y-103463234D02*
X132172394Y-103450743D01*
X132172394Y-103450743D02*
X132119700Y-103435769D01*
X132119700Y-103435769D02*
X132067765Y-103418345D01*
X132067765Y-103418345D02*
X132016702Y-103398509D01*
X132016702Y-103398509D02*
X131966624Y-103376305D01*
X131966624Y-103376305D02*
X131917640Y-103351781D01*
X131917640Y-103351781D02*
X131869857Y-103324991D01*
X131869857Y-103324991D02*
X131823381Y-103295994D01*
X131823381Y-103295994D02*
X131778313Y-103264853D01*
X131778313Y-103264853D02*
X131734752Y-103231637D01*
X131734752Y-103231637D02*
X131692794Y-103196419D01*
X131692794Y-103196419D02*
X131652530Y-103159275D01*
X131652530Y-103159275D02*
X131614048Y-103120287D01*
X131614048Y-103120287D02*
X131577435Y-103079541D01*
X131577435Y-103079541D02*
X131572000Y-103073200D01*
X145942426Y-105799235D02*
X145833714Y-105806855D01*
X146156523Y-105759241D02*
X146050239Y-105783333D01*
X146260655Y-105727101D02*
X146156523Y-105759241D01*
X145724736Y-105806149D02*
X145616132Y-105797121D01*
X146554146Y-105584498D02*
X146460050Y-105639474D01*
X146643769Y-105522495D02*
X146554146Y-105584498D01*
X146880701Y-105298139D02*
X146807525Y-105378896D01*
X146362028Y-105687101D02*
X146260655Y-105727101D01*
X146947495Y-105212028D02*
X146880701Y-105298139D01*
X147007516Y-105121066D02*
X146947495Y-105212028D01*
X146460050Y-105639474D02*
X146362028Y-105687101D01*
X148510954Y-102160085D02*
X147060414Y-105025786D01*
X148552695Y-102071254D02*
X148532475Y-102115974D01*
X148571598Y-102025960D02*
X148552695Y-102071254D01*
X148620241Y-101887031D02*
X148605385Y-101933809D01*
X148633720Y-101839838D02*
X148620241Y-101887031D01*
X149809200Y-98702400D02*
X149807716Y-98762814D01*
X149529719Y-97874503D02*
X149566899Y-97922145D01*
X148707277Y-100717456D02*
X148698574Y-100788019D01*
X149809200Y-98655600D02*
X149809200Y-98702400D01*
X148801337Y-96595243D02*
X148811491Y-96677566D01*
X148935719Y-100125240D02*
X148897682Y-100185306D01*
X149601696Y-97971554D02*
X149634028Y-98022610D01*
X149795873Y-98883061D02*
X149785541Y-98942604D01*
X148811491Y-96677566D02*
X148825671Y-96759292D01*
X148665792Y-101696177D02*
X148656505Y-101744370D01*
X146807525Y-105378896D02*
X146728393Y-105453827D01*
X149772300Y-98356430D02*
X149785541Y-98415395D01*
X149288174Y-97624574D02*
X149448575Y-97784975D01*
X149803270Y-98823083D02*
X149795873Y-98883061D01*
X149737225Y-99117195D02*
X149715476Y-99173578D01*
X149448575Y-97784975D02*
X149490246Y-97828743D01*
X149230979Y-97564499D02*
X149288174Y-97624574D01*
X149566899Y-97922145D02*
X149601696Y-97971554D01*
X149807716Y-98595185D02*
X149809200Y-98655600D01*
X149756182Y-98298186D02*
X149772300Y-98356430D01*
X148795235Y-96512521D02*
X148801337Y-96595243D01*
X147060414Y-105025786D02*
X147007516Y-105121066D01*
X148865968Y-96920166D02*
X148891987Y-96998926D01*
X148843845Y-96840223D02*
X148865968Y-96920166D01*
X148793200Y-94437200D02*
X148793200Y-96429600D01*
X148825671Y-96759292D02*
X148843845Y-96840223D01*
X148793200Y-96429600D02*
X148795235Y-96512521D01*
X149490246Y-97828743D02*
X149529719Y-97874503D01*
X148992746Y-97226235D02*
X149033631Y-97298406D01*
X148891987Y-96998926D02*
X148921839Y-97076315D01*
X149566898Y-99435853D02*
X149529718Y-99483495D01*
X149737226Y-98240804D02*
X149756182Y-98298186D01*
X148719432Y-100647405D02*
X148707277Y-100717456D01*
X148688725Y-101501307D02*
X148685135Y-101550255D01*
X146050239Y-105783333D02*
X145942426Y-105799235D01*
X148693343Y-100858924D02*
X148691600Y-100930000D01*
X149715476Y-98184421D02*
X149737226Y-98240804D01*
X148830673Y-100310673D02*
X148801861Y-100375671D01*
X148589166Y-101980132D02*
X148571598Y-102025960D01*
X149634028Y-98022610D02*
X149663815Y-98075192D01*
X149033631Y-97298406D02*
X149078007Y-97368484D01*
X148921839Y-97076315D02*
X148955453Y-97152145D01*
X149125769Y-97436300D02*
X149176800Y-97501691D01*
X149785541Y-98942604D02*
X149772300Y-99001568D01*
X149529718Y-99483495D02*
X149490245Y-99529255D01*
X148605385Y-101933809D02*
X148589166Y-101980132D01*
X149803271Y-98534916D02*
X149807716Y-98595185D01*
X148897682Y-100185306D02*
X148862639Y-100247167D01*
X149795873Y-98474938D02*
X149803271Y-98534916D01*
X149785541Y-98415395D02*
X149795873Y-98474938D01*
X149663815Y-98075192D02*
X149690986Y-98129172D01*
X149078007Y-97368484D02*
X149125769Y-97436300D01*
X149176800Y-97501691D02*
X149230979Y-97564499D01*
X149807716Y-98762814D02*
X149803270Y-98823083D01*
X148698574Y-100788019D02*
X148693343Y-100858924D01*
X149772300Y-99001568D02*
X149756182Y-99059812D01*
X149756182Y-99059812D02*
X149737225Y-99117195D01*
X149715476Y-99173578D02*
X149690986Y-99228826D01*
X149066838Y-99957226D02*
X149020399Y-100011062D01*
X145833714Y-105806855D02*
X145724736Y-105806149D01*
X148690880Y-101452274D02*
X148688725Y-101501307D01*
X149634027Y-99335388D02*
X149601696Y-99386444D01*
X149115863Y-99905735D02*
X149066838Y-99957226D01*
X149601696Y-99386444D02*
X149566898Y-99435853D01*
X149663815Y-99282806D02*
X149634027Y-99335388D01*
X149490245Y-99529255D02*
X149448575Y-99573024D01*
X148801861Y-100375671D02*
X148776274Y-100442005D01*
X146728393Y-105453827D02*
X146643769Y-105522495D01*
X149448575Y-99573024D02*
X149115863Y-99905735D01*
X149020399Y-100011062D02*
X148976658Y-100067111D01*
X148976658Y-100067111D02*
X148935719Y-100125240D01*
X148680113Y-101599078D02*
X148673663Y-101647732D01*
X148955453Y-97152145D02*
X148992746Y-97226235D01*
X148862639Y-100247167D02*
X148830673Y-100310673D01*
X149690986Y-98129172D02*
X149715476Y-98184421D01*
X148776274Y-100442005D02*
X148753972Y-100509514D01*
X148735009Y-100578036D02*
X148719432Y-100647405D01*
X149690986Y-99228826D02*
X149663815Y-99282806D01*
X148673663Y-101647732D02*
X148665792Y-101696177D01*
X148753972Y-100509514D02*
X148735009Y-100578036D01*
X148691600Y-100930000D02*
X148691600Y-101403200D01*
X148691600Y-101403200D02*
X148690880Y-101452274D01*
X148656505Y-101744370D02*
X148645812Y-101792271D01*
X148532475Y-102115974D02*
X148510954Y-102160085D01*
X148685135Y-101550255D02*
X148680113Y-101599078D01*
X148645812Y-101792271D02*
X148633720Y-101839838D01*
X133834667Y-104362478D02*
X145616132Y-105797121D01*
X133834667Y-104362478D02*
X133711005Y-104346714D01*
X133711005Y-104346714D02*
X133587527Y-104329562D01*
X133587527Y-104329562D02*
X133464251Y-104311024D01*
X133464251Y-104311024D02*
X133341190Y-104291102D01*
X133341190Y-104291102D02*
X133218361Y-104269799D01*
X133218361Y-104269799D02*
X133095779Y-104247117D01*
X133095779Y-104247117D02*
X132973460Y-104223060D01*
X132973460Y-104223060D02*
X132851419Y-104197630D01*
X132851419Y-104197630D02*
X132729671Y-104170831D01*
X132729671Y-104170831D02*
X132608231Y-104142666D01*
X132608231Y-104142666D02*
X132487116Y-104113138D01*
X132487116Y-104113138D02*
X132366340Y-104082252D01*
X132366340Y-104082252D02*
X132245919Y-104050011D01*
X132245919Y-104050011D02*
X132125867Y-104016419D01*
X132125867Y-104016419D02*
X132006201Y-103981480D01*
X132006201Y-103981480D02*
X131886935Y-103945200D01*
X131886935Y-103945200D02*
X131368800Y-103784400D01*
X146042918Y-106653830D02*
X145923913Y-106643417D01*
X146162373Y-106655018D02*
X146042918Y-106653830D01*
X146281563Y-106646974D02*
X146162373Y-106655018D01*
X146399774Y-106629744D02*
X146281563Y-106646974D01*
X146516301Y-106603433D02*
X146399774Y-106629744D01*
X146630447Y-106568198D02*
X146516301Y-106603433D01*
X146741530Y-106524249D02*
X146630447Y-106568198D01*
X146848885Y-106471849D02*
X146741530Y-106524249D01*
X150175394Y-97529965D02*
X150208200Y-97572002D01*
X150517693Y-97978705D02*
X150539302Y-98027453D01*
X150493719Y-97931075D02*
X150517693Y-97978705D01*
X150616768Y-98336714D02*
X150620690Y-98389893D01*
X150438908Y-97839629D02*
X150467436Y-97884680D01*
X149961600Y-96882800D02*
X149962908Y-96936106D01*
X150340569Y-97713620D02*
X150375398Y-97753996D01*
X150467436Y-97884680D02*
X150493719Y-97931075D01*
X149462262Y-100375671D02*
X149436674Y-100442005D01*
X150279798Y-97650998D02*
X150303801Y-97675001D01*
X150551436Y-98966661D02*
X150530113Y-99021939D01*
X150243029Y-97612378D02*
X150279798Y-97650998D01*
X149962908Y-96936106D02*
X149966831Y-96989285D01*
X149436674Y-100442005D02*
X149414372Y-100509514D01*
X147308273Y-106095702D02*
X147228606Y-106184720D01*
X150144690Y-97486369D02*
X150175394Y-97529965D01*
X150418565Y-99230632D02*
X150384449Y-99279072D01*
X150303801Y-97675001D02*
X150340569Y-97713620D01*
X150065905Y-97347294D02*
X150089880Y-97394923D01*
X149961600Y-95554800D02*
X149961600Y-96882800D01*
X150601124Y-98231254D02*
X150610240Y-98283792D01*
X147502889Y-105795618D02*
X147445825Y-105900568D01*
X150575219Y-98127835D02*
X150589441Y-98179226D01*
X150025106Y-97248795D02*
X150044296Y-97298545D01*
X150089880Y-97394923D02*
X150116163Y-97441319D01*
X150558493Y-98077203D02*
X150575219Y-98127835D01*
X150539302Y-98027453D02*
X150558493Y-98077203D01*
X149994157Y-97146772D02*
X150008379Y-97198164D01*
X150622000Y-98443200D02*
X150622000Y-98560000D01*
X150375398Y-97753996D02*
X150408204Y-97796033D01*
X149680800Y-100011062D02*
X149637059Y-100067111D01*
X147380823Y-106000796D02*
X147308273Y-106095702D01*
X150008379Y-97198164D02*
X150025106Y-97248795D01*
X150408204Y-97796033D02*
X150438908Y-97839629D01*
X150116163Y-97441319D02*
X150144690Y-97486369D01*
X150589441Y-98179226D02*
X150601124Y-98231254D01*
X149966831Y-96989285D02*
X149973358Y-97042207D01*
X150044296Y-97298545D02*
X150065905Y-97347294D01*
X150208200Y-97572002D02*
X150243029Y-97612378D01*
X150598805Y-98795494D02*
X150585824Y-98853302D01*
X150610240Y-98283792D02*
X150616768Y-98336714D01*
X150450262Y-99180576D02*
X150418565Y-99230632D01*
X150620690Y-98389893D02*
X150622000Y-98443200D01*
X150620545Y-98619229D02*
X150616187Y-98678317D01*
X149973358Y-97042207D02*
X149982474Y-97094745D01*
X149637059Y-100067111D02*
X149596120Y-100125240D01*
X150616187Y-98678317D02*
X150608934Y-98737119D01*
X150608934Y-98737119D02*
X150598805Y-98795494D01*
X150585824Y-98853302D02*
X150570021Y-98910404D01*
X149395410Y-100578036D02*
X149379832Y-100647405D01*
X150309299Y-99370642D02*
X150268446Y-99413553D01*
X150570021Y-98910404D02*
X150551436Y-98966661D01*
X150530113Y-99021939D02*
X150506104Y-99076104D01*
X150506104Y-99076104D02*
X150479465Y-99129025D01*
X150479465Y-99129025D02*
X150450262Y-99180576D01*
X150384449Y-99279072D02*
X150347998Y-99325779D01*
X149727239Y-99957226D02*
X149680800Y-100011062D01*
X150347998Y-99325779D02*
X150309299Y-99370642D01*
X149982474Y-97094745D02*
X149994157Y-97146772D01*
X150268446Y-99413553D02*
X149776264Y-99905735D01*
X149596120Y-100125240D02*
X149558083Y-100185306D01*
X147049871Y-106342997D02*
X146951870Y-106411311D01*
X149558083Y-100185306D02*
X149523040Y-100247167D01*
X149523040Y-100247167D02*
X149491073Y-100310673D01*
X149379832Y-100647405D02*
X149367677Y-100717456D01*
X149352000Y-102057200D02*
X147502889Y-105795618D01*
X149491073Y-100310673D02*
X149462262Y-100375671D01*
X150622000Y-98560000D02*
X150620545Y-98619229D01*
X149414372Y-100509514D02*
X149395410Y-100578036D01*
X149776264Y-99905735D02*
X149727239Y-99957226D01*
X149353744Y-100858924D02*
X149352000Y-100930000D01*
X146951870Y-106411311D02*
X146848885Y-106471849D01*
X149367677Y-100717456D02*
X149358974Y-100788019D01*
X149358974Y-100788019D02*
X149353744Y-100858924D01*
X149352000Y-100930000D02*
X149352000Y-102057200D01*
X147445825Y-105900568D02*
X147380823Y-106000796D01*
X147228606Y-106184720D02*
X147142300Y-106267316D01*
X147142300Y-106267316D02*
X147049871Y-106342997D01*
X130520753Y-103951390D02*
X130422705Y-103853231D01*
X130520753Y-103951390D02*
X130624962Y-104051499D01*
X130624962Y-104051499D02*
X130733211Y-104147227D01*
X130733211Y-104147227D02*
X130845315Y-104238409D01*
X130845315Y-104238409D02*
X130961084Y-104324890D01*
X130961084Y-104324890D02*
X131080322Y-104406524D01*
X131080322Y-104406524D02*
X131202824Y-104483171D01*
X131202824Y-104483171D02*
X131328383Y-104554701D01*
X131328383Y-104554701D02*
X131456785Y-104620992D01*
X131456785Y-104620992D02*
X131587812Y-104681931D01*
X131587812Y-104681931D02*
X131721240Y-104737415D01*
X131721240Y-104737415D02*
X131856843Y-104787350D01*
X131856843Y-104787350D02*
X131994389Y-104831650D01*
X131994389Y-104831650D02*
X132133646Y-104870240D01*
X132133646Y-104870240D02*
X132274376Y-104903054D01*
X132274376Y-104903054D02*
X132416339Y-104930037D01*
X132416339Y-104930037D02*
X132559294Y-104951144D01*
X132559294Y-104951144D02*
X145923913Y-106643417D01*
X134297866Y-85330897D02*
X128117600Y-89509600D01*
X134297866Y-85330897D02*
X134401130Y-85262682D01*
X134401130Y-85262682D02*
X134505838Y-85196705D01*
X134505838Y-85196705D02*
X134611941Y-85132997D01*
X134611941Y-85132997D02*
X134719391Y-85071586D01*
X134719391Y-85071586D02*
X134828137Y-85012500D01*
X134828137Y-85012500D02*
X134938128Y-84955768D01*
X134938128Y-84955768D02*
X135049315Y-84901415D01*
X135049315Y-84901415D02*
X135161646Y-84849467D01*
X135161646Y-84849467D02*
X135275068Y-84799948D01*
X135275068Y-84799948D02*
X135389529Y-84752880D01*
X135389529Y-84752880D02*
X135504976Y-84708285D01*
X135504976Y-84708285D02*
X135621356Y-84666185D01*
X135621356Y-84666185D02*
X135738614Y-84626598D01*
X135738614Y-84626598D02*
X135856697Y-84589542D01*
X135856697Y-84589542D02*
X135975550Y-84555036D01*
X135975550Y-84555036D02*
X136095119Y-84523096D01*
X136095119Y-84523096D02*
X139242800Y-83718400D01*
X131276702Y-106194935D02*
X131524934Y-106214998D01*
X131524934Y-106214998D02*
X131772875Y-106238382D01*
X131772875Y-106238382D02*
X132020481Y-106265083D01*
X132020481Y-106265083D02*
X132267707Y-106295097D01*
X132267707Y-106295097D02*
X132514510Y-106328419D01*
X132514510Y-106328419D02*
X132760844Y-106365042D01*
X132760844Y-106365042D02*
X137588702Y-107115863D01*
X137588702Y-107115863D02*
X137588702Y-107115863D01*
X123844850Y-103456953D02*
X123772757Y-103419385D01*
X123772757Y-103419385D02*
X123705264Y-103374073D01*
X123705264Y-103374073D02*
X123643197Y-103321572D01*
X123643197Y-103321572D02*
X123587319Y-103262527D01*
X123587319Y-103262527D02*
X123538316Y-103197664D01*
X123538316Y-103197664D02*
X123496790Y-103127777D01*
X123496790Y-103127777D02*
X123463250Y-103053725D01*
X123463250Y-103053725D02*
X123438108Y-102976417D01*
X123438108Y-102976417D02*
X123421673Y-102896803D01*
X123421673Y-102896803D02*
X123414146Y-102815859D01*
X123414146Y-102815859D02*
X123415620Y-102734579D01*
X123415620Y-102734579D02*
X123426077Y-102653961D01*
X123426077Y-102653961D02*
X123445388Y-102574995D01*
X123445388Y-102574995D02*
X123473317Y-102498649D01*
X123473317Y-102498649D02*
X123509520Y-102425862D01*
X123509520Y-102425862D02*
X123553555Y-102357529D01*
X123553555Y-102357529D02*
X123596400Y-102298500D01*
X128690428Y-105649729D02*
X123844850Y-103456953D01*
X128690428Y-105649729D02*
X128826072Y-105709125D01*
X128826072Y-105709125D02*
X128963127Y-105765188D01*
X128963127Y-105765188D02*
X129101513Y-105817884D01*
X129101513Y-105817884D02*
X129241145Y-105867181D01*
X129241145Y-105867181D02*
X129381940Y-105913050D01*
X129381940Y-105913050D02*
X129523815Y-105955464D01*
X129523815Y-105955464D02*
X129666684Y-105994396D01*
X129666684Y-105994396D02*
X129810462Y-106029825D01*
X129810462Y-106029825D02*
X129955063Y-106061728D01*
X129955063Y-106061728D02*
X130100401Y-106090086D01*
X130100401Y-106090086D02*
X130246389Y-106114884D01*
X130246389Y-106114884D02*
X130392939Y-106136105D01*
X130392939Y-106136105D02*
X130539965Y-106153737D01*
X130539965Y-106153737D02*
X130687377Y-106167770D01*
X130687377Y-106167770D02*
X130835088Y-106178195D01*
X130835088Y-106178195D02*
X130983011Y-106185007D01*
X130983011Y-106185007D02*
X131276702Y-106194935D01*
X131651715Y-102291719D02*
X131557519Y-102279721D01*
X131557519Y-102279721D02*
X131462855Y-102272290D01*
X131462855Y-102272290D02*
X131367941Y-102269441D01*
X131367941Y-102269441D02*
X131273001Y-102271182D01*
X131273001Y-102271182D02*
X131178256Y-102277508D01*
X131178256Y-102277508D02*
X131083927Y-102288404D01*
X131083927Y-102288404D02*
X130990235Y-102303845D01*
X130990235Y-102303845D02*
X130897398Y-102323795D01*
X130897398Y-102323795D02*
X130805634Y-102348208D01*
X130805634Y-102348208D02*
X130715157Y-102377025D01*
X130715157Y-102377025D02*
X130626177Y-102410181D01*
X130626177Y-102410181D02*
X130538903Y-102447597D01*
X130538903Y-102447597D02*
X130453540Y-102489187D01*
X130453540Y-102489187D02*
X130370285Y-102534852D01*
X130370285Y-102534852D02*
X130289334Y-102584487D01*
X130289334Y-102584487D02*
X130210877Y-102637976D01*
X128612609Y-102432003D02*
X128066800Y-101727000D01*
X128612609Y-102432003D02*
X128683620Y-102515163D01*
X128683620Y-102515163D02*
X128762269Y-102591141D01*
X128762269Y-102591141D02*
X128847833Y-102659239D01*
X128847833Y-102659239D02*
X128939524Y-102718830D01*
X128939524Y-102718830D02*
X129036500Y-102769367D01*
X129036500Y-102769367D02*
X129137870Y-102810385D01*
X129137870Y-102810385D02*
X129242702Y-102841507D01*
X129242702Y-102841507D02*
X129350033Y-102862447D01*
X129350033Y-102862447D02*
X129458876Y-102873013D01*
X129458876Y-102873013D02*
X129568230Y-102873108D01*
X129568230Y-102873108D02*
X129677091Y-102862730D01*
X129677091Y-102862730D02*
X129784457Y-102841976D01*
X129784457Y-102841976D02*
X129889343Y-102811035D01*
X129889343Y-102811035D02*
X129990784Y-102770193D01*
X129990784Y-102770193D02*
X130087848Y-102719824D01*
X130087848Y-102719824D02*
X130179643Y-102660393D01*
X130179643Y-102660393D02*
X130210877Y-102637976D01*
X131657384Y-102292580D02*
X131651715Y-102291719D01*
X131657384Y-102292580D02*
X131737227Y-102300892D01*
X131737227Y-102300892D02*
X131817498Y-102301656D01*
X131817498Y-102301656D02*
X131897486Y-102294865D01*
X131897486Y-102294865D02*
X131976479Y-102280580D01*
X131976479Y-102280580D02*
X132053779Y-102258926D01*
X132053779Y-102258926D02*
X132128698Y-102230096D01*
X132128698Y-102230096D02*
X132200573Y-102194346D01*
X132200573Y-102194346D02*
X132268766Y-102151993D01*
X132268766Y-102151993D02*
X132332672Y-102103413D01*
X132332672Y-102103413D02*
X132391725Y-102049035D01*
X132391725Y-102049035D02*
X132445399Y-101989344D01*
X132445399Y-101989344D02*
X132493221Y-101924867D01*
X132493221Y-101924867D02*
X132534764Y-101856178D01*
X132534764Y-101856178D02*
X132569661Y-101783885D01*
X132569661Y-101783885D02*
X132597602Y-101708629D01*
X132597602Y-101708629D02*
X132618341Y-101631080D01*
X132618341Y-101631080D02*
X132734270Y-101098130D01*
D14*
X116916200Y-100850700D02*
X115942767Y-107878267D01*
D13*
X123741823Y-104084882D02*
X123570247Y-104001119D01*
X123570247Y-104001119D02*
X123402691Y-103909580D01*
X123402691Y-103909580D02*
X123239507Y-103810456D01*
X123239507Y-103810456D02*
X123081038Y-103703957D01*
X123081038Y-103703957D02*
X122927618Y-103590306D01*
X122927618Y-103590306D02*
X122779569Y-103469741D01*
X122779569Y-103469741D02*
X122637202Y-103342517D01*
X122637202Y-103342517D02*
X122500816Y-103208901D01*
X122500816Y-103208901D02*
X122370698Y-103069173D01*
X122370698Y-103069173D02*
X122247122Y-102923628D01*
X122247122Y-102923628D02*
X122130348Y-102772572D01*
X122130348Y-102772572D02*
X122020621Y-102616321D01*
X122020621Y-102616321D02*
X121918171Y-102455205D01*
X121918171Y-102455205D02*
X121823214Y-102289561D01*
X121823214Y-102289561D02*
X121735950Y-102119740D01*
X121735950Y-102119740D02*
X121656563Y-101946097D01*
X121656563Y-101946097D02*
X121627900Y-101879400D01*
X129829424Y-106642044D02*
X129743299Y-106631716D01*
X129743299Y-106631716D02*
X129657400Y-106619658D01*
X129657400Y-106619658D02*
X129571761Y-106605874D01*
X129571761Y-106605874D02*
X129486416Y-106590370D01*
X129486416Y-106590370D02*
X129401401Y-106573151D01*
X129401401Y-106573151D02*
X129316749Y-106554226D01*
X129316749Y-106554226D02*
X129232495Y-106533601D01*
X129232495Y-106533601D02*
X129148673Y-106511285D01*
X129148673Y-106511285D02*
X129065318Y-106487287D01*
X129065318Y-106487287D02*
X128982462Y-106461617D01*
X128982462Y-106461617D02*
X128900139Y-106434285D01*
X128900139Y-106434285D02*
X128818383Y-106405302D01*
X128818383Y-106405302D02*
X128737226Y-106374680D01*
X128737226Y-106374680D02*
X128656702Y-106342431D01*
X128656702Y-106342431D02*
X128576844Y-106308569D01*
X128576844Y-106308569D02*
X128497683Y-106273107D01*
X128497683Y-106273107D02*
X123741823Y-104084882D01*
X134068492Y-107181268D02*
X133958050Y-107160179D01*
X133958050Y-107160179D02*
X133847502Y-107139656D01*
X133847502Y-107139656D02*
X133736850Y-107119700D01*
X133736850Y-107119700D02*
X133626098Y-107100311D01*
X133626098Y-107100311D02*
X133515247Y-107081489D01*
X133515247Y-107081489D02*
X133404302Y-107063235D01*
X133404302Y-107063235D02*
X133293265Y-107045550D01*
X133293265Y-107045550D02*
X133182138Y-107028434D01*
X133182138Y-107028434D02*
X133070925Y-107011888D01*
X133070925Y-107011888D02*
X132959629Y-106995911D01*
X132959629Y-106995911D02*
X132848253Y-106980505D01*
X132848253Y-106980505D02*
X132736799Y-106965669D01*
X132736799Y-106965669D02*
X132625271Y-106951405D01*
X132625271Y-106951405D02*
X132513671Y-106937712D01*
X132513671Y-106937712D02*
X132402002Y-106924590D01*
X132402002Y-106924590D02*
X132290268Y-106912042D01*
X132290268Y-106912042D02*
X129829424Y-106642044D01*
X141310495Y-109093362D02*
X143738600Y-110832900D01*
X141310495Y-109093362D02*
X141189304Y-109008982D01*
X141189304Y-109008982D02*
X141065887Y-108927892D01*
X141065887Y-108927892D02*
X140940334Y-108850151D01*
X140940334Y-108850151D02*
X140812735Y-108775816D01*
X140812735Y-108775816D02*
X140683183Y-108704940D01*
X140683183Y-108704940D02*
X140551771Y-108637574D01*
X140551771Y-108637574D02*
X140418595Y-108573767D01*
X140418595Y-108573767D02*
X140283751Y-108513565D01*
X140283751Y-108513565D02*
X140147336Y-108457012D01*
X140147336Y-108457012D02*
X140009450Y-108404149D01*
X140009450Y-108404149D02*
X139870191Y-108355014D01*
X139870191Y-108355014D02*
X139729661Y-108309642D01*
X139729661Y-108309642D02*
X139587962Y-108268067D01*
X139587962Y-108268067D02*
X139445195Y-108230319D01*
X139445195Y-108230319D02*
X139301465Y-108196424D01*
X139301465Y-108196424D02*
X139156876Y-108166408D01*
X139156876Y-108166408D02*
X134068492Y-107181268D01*
X147333493Y-80408495D02*
X147426479Y-80414979D01*
X147426479Y-80414979D02*
X147518956Y-80426657D01*
X147518956Y-80426657D02*
X147610636Y-80443490D01*
X147610636Y-80443490D02*
X147701230Y-80465426D01*
X147701230Y-80465426D02*
X147790455Y-80492397D01*
X147790455Y-80492397D02*
X147878031Y-80524317D01*
X147878031Y-80524317D02*
X147963684Y-80561087D01*
X147963684Y-80561087D02*
X148047146Y-80602591D01*
X148047146Y-80602591D02*
X148128155Y-80648700D01*
X148128155Y-80648700D02*
X148206457Y-80699269D01*
X148206457Y-80699269D02*
X148281807Y-80754139D01*
X148281807Y-80754139D02*
X148353970Y-80813140D01*
X148353970Y-80813140D02*
X148422718Y-80876085D01*
X148422718Y-80876085D02*
X148487838Y-80942778D01*
X148487838Y-80942778D02*
X148549123Y-81013010D01*
X148549123Y-81013010D02*
X148606385Y-81086561D01*
X150662111Y-84219008D02*
X150608944Y-84106334D01*
X150608944Y-84106334D02*
X150554382Y-83994330D01*
X150554382Y-83994330D02*
X150498432Y-83883013D01*
X150498432Y-83883013D02*
X150441102Y-83772400D01*
X150441102Y-83772400D02*
X150382403Y-83662507D01*
X150382403Y-83662507D02*
X150322342Y-83553353D01*
X150322342Y-83553353D02*
X150260930Y-83444954D01*
X150260930Y-83444954D02*
X150198175Y-83337326D01*
X150198175Y-83337326D02*
X150134088Y-83230486D01*
X150134088Y-83230486D02*
X150068677Y-83124451D01*
X150068677Y-83124451D02*
X150001954Y-83019237D01*
X150001954Y-83019237D02*
X149933929Y-82914860D01*
X149933929Y-82914860D02*
X149864612Y-82811337D01*
X149864612Y-82811337D02*
X149794013Y-82708683D01*
X149794013Y-82708683D02*
X149722144Y-82606915D01*
X149722144Y-82606915D02*
X149649017Y-82506048D01*
X149649017Y-82506048D02*
X148606385Y-81086561D01*
X151049777Y-85053982D02*
X150662111Y-84219008D01*
X151049777Y-85053982D02*
X151153505Y-85280710D01*
X151153505Y-85280710D02*
X151254689Y-85508586D01*
X151254689Y-85508586D02*
X151353317Y-85737580D01*
X151353317Y-85737580D02*
X151449376Y-85967663D01*
X151449376Y-85967663D02*
X151542853Y-86198807D01*
X151542853Y-86198807D02*
X151633738Y-86430982D01*
X151633738Y-86430982D02*
X151722018Y-86664161D01*
X151722018Y-86664161D02*
X151807683Y-86898312D01*
X151807683Y-86898312D02*
X151890722Y-87133408D01*
X151890722Y-87133408D02*
X151971125Y-87369419D01*
X151971125Y-87369419D02*
X152048881Y-87606314D01*
X152048881Y-87606314D02*
X152123981Y-87844065D01*
X152123981Y-87844065D02*
X152196415Y-88082642D01*
X152196415Y-88082642D02*
X152266174Y-88322015D01*
X152266174Y-88322015D02*
X152333250Y-88562153D01*
X152333250Y-88562153D02*
X152397635Y-88803027D01*
X153222900Y-93922574D02*
X153219696Y-93673906D01*
X153219696Y-93673906D02*
X153212600Y-93425319D01*
X153212600Y-93425319D02*
X153201612Y-93176873D01*
X153201612Y-93176873D02*
X153186736Y-92928630D01*
X153186736Y-92928630D02*
X153167974Y-92680651D01*
X153167974Y-92680651D02*
X153145331Y-92432995D01*
X153145331Y-92432995D02*
X153118814Y-92185725D01*
X153118814Y-92185725D02*
X153088428Y-91938900D01*
X153088428Y-91938900D02*
X153054181Y-91692581D01*
X153054181Y-91692581D02*
X153016081Y-91446828D01*
X153016081Y-91446828D02*
X152974138Y-91201702D01*
X152974138Y-91201702D02*
X152928361Y-90957264D01*
X152928361Y-90957264D02*
X152878763Y-90713571D01*
X152878763Y-90713571D02*
X152825355Y-90470686D01*
X152825355Y-90470686D02*
X152768150Y-90228666D01*
X152768150Y-90228666D02*
X152707164Y-89987572D01*
X152707164Y-89987572D02*
X152397635Y-88803027D01*
X153083371Y-98443787D02*
X153102073Y-98257407D01*
X153102073Y-98257407D02*
X153119513Y-98070905D01*
X153119513Y-98070905D02*
X153135687Y-97884288D01*
X153135687Y-97884288D02*
X153150597Y-97697567D01*
X153150597Y-97697567D02*
X153164240Y-97510749D01*
X153164240Y-97510749D02*
X153176617Y-97323842D01*
X153176617Y-97323842D02*
X153187726Y-97136856D01*
X153187726Y-97136856D02*
X153197568Y-96949799D01*
X153197568Y-96949799D02*
X153206142Y-96762680D01*
X153206142Y-96762680D02*
X153213447Y-96575507D01*
X153213447Y-96575507D02*
X153219483Y-96388288D01*
X153219483Y-96388288D02*
X153224250Y-96201033D01*
X153224250Y-96201033D02*
X153227747Y-96013750D01*
X153227747Y-96013750D02*
X153229975Y-95826447D01*
X153229975Y-95826447D02*
X153230934Y-95639134D01*
X153230934Y-95639134D02*
X153230623Y-95451819D01*
X153230623Y-95451819D02*
X153222900Y-93922574D01*
X152199124Y-99802259D02*
X152288353Y-99749548D01*
X152288353Y-99749548D02*
X152374247Y-99691561D01*
X152374247Y-99691561D02*
X152456493Y-99628508D01*
X152456493Y-99628508D02*
X152534794Y-99560617D01*
X152534794Y-99560617D02*
X152608866Y-99488134D01*
X152608866Y-99488134D02*
X152678438Y-99411324D01*
X152678438Y-99411324D02*
X152743260Y-99330463D01*
X152743260Y-99330463D02*
X152803096Y-99245847D01*
X152803096Y-99245847D02*
X152857728Y-99157781D01*
X152857728Y-99157781D02*
X152906958Y-99066586D01*
X152906958Y-99066586D02*
X152950609Y-98972591D01*
X152950609Y-98972591D02*
X152988520Y-98876140D01*
X152988520Y-98876140D02*
X153020556Y-98777580D01*
X153020556Y-98777580D02*
X153046599Y-98677271D01*
X153046599Y-98677271D02*
X153066556Y-98575575D01*
X153066556Y-98575575D02*
X153080353Y-98472863D01*
X153080353Y-98472863D02*
X153083371Y-98443787D01*
X151217640Y-101222145D02*
X151234202Y-101113647D01*
X151234202Y-101113647D02*
X151257143Y-101006316D01*
X151257143Y-101006316D02*
X151286382Y-100900528D01*
X151286382Y-100900528D02*
X151321818Y-100796651D01*
X151321818Y-100796651D02*
X151363326Y-100695048D01*
X151363326Y-100695048D02*
X151410761Y-100596074D01*
X151410761Y-100596074D02*
X151463959Y-100500073D01*
X151463959Y-100500073D02*
X151522733Y-100407382D01*
X151522733Y-100407382D02*
X151586878Y-100318323D01*
X151586878Y-100318323D02*
X151656170Y-100233207D01*
X151656170Y-100233207D02*
X151730368Y-100152332D01*
X151730368Y-100152332D02*
X151809212Y-100075980D01*
X151809212Y-100075980D02*
X151892427Y-100004417D01*
X151892427Y-100004417D02*
X151979723Y-99937893D01*
X151979723Y-99937893D02*
X152070796Y-99876640D01*
X152070796Y-99876640D02*
X152165327Y-99820873D01*
X152165327Y-99820873D02*
X152199124Y-99802259D01*
X151212963Y-101260305D02*
X151217640Y-101222145D01*
X151212963Y-101260305D02*
X151192712Y-101405214D01*
X151192712Y-101405214D02*
X151167575Y-101549357D01*
X151167575Y-101549357D02*
X151137581Y-101692568D01*
X151137581Y-101692568D02*
X151102763Y-101834683D01*
X151102763Y-101834683D02*
X151063162Y-101975540D01*
X151063162Y-101975540D02*
X151018823Y-102114978D01*
X151018823Y-102114978D02*
X150969796Y-102252837D01*
X150969796Y-102252837D02*
X150916137Y-102388961D01*
X150916137Y-102388961D02*
X150857908Y-102523193D01*
X150857908Y-102523193D02*
X150795176Y-102655381D01*
X150795176Y-102655381D02*
X150728011Y-102785373D01*
X150728011Y-102785373D02*
X150656491Y-102913020D01*
X150656491Y-102913020D02*
X150580697Y-103038177D01*
X150580697Y-103038177D02*
X150500717Y-103160701D01*
X150500717Y-103160701D02*
X150416641Y-103280451D01*
X150416641Y-103280451D02*
X150328566Y-103397292D01*
X130391209Y-105055288D02*
X124434600Y-102412800D01*
X130391209Y-105055288D02*
X130505161Y-105104656D01*
X130505161Y-105104656D02*
X130619957Y-105152031D01*
X130619957Y-105152031D02*
X130735562Y-105197397D01*
X130735562Y-105197397D02*
X130851939Y-105240743D01*
X130851939Y-105240743D02*
X130969054Y-105282053D01*
X130969054Y-105282053D02*
X131086871Y-105321316D01*
X131086871Y-105321316D02*
X131205355Y-105358520D01*
X131205355Y-105358520D02*
X131324469Y-105393654D01*
X131324469Y-105393654D02*
X131444177Y-105426706D01*
X131444177Y-105426706D02*
X131564443Y-105457666D01*
X131564443Y-105457666D02*
X131685231Y-105486526D01*
X131685231Y-105486526D02*
X131806503Y-105513277D01*
X131806503Y-105513277D02*
X131928223Y-105537910D01*
X131928223Y-105537910D02*
X132050353Y-105560418D01*
X132050353Y-105560418D02*
X132172858Y-105580794D01*
X132172858Y-105580794D02*
X132295699Y-105599033D01*
X147246291Y-107103228D02*
X147190167Y-107160986D01*
X147190167Y-107160986D02*
X147130652Y-107215244D01*
X147130652Y-107215244D02*
X147067963Y-107265802D01*
X147067963Y-107265802D02*
X147002329Y-107312474D01*
X147002329Y-107312474D02*
X146933992Y-107355088D01*
X146933992Y-107355088D02*
X146863202Y-107393490D01*
X146863202Y-107393490D02*
X146790218Y-107427538D01*
X146790218Y-107427538D02*
X146715307Y-107457108D01*
X146715307Y-107457108D02*
X146638744Y-107482090D01*
X146638744Y-107482090D02*
X146560810Y-107502395D01*
X146560810Y-107502395D02*
X146481790Y-107517946D01*
X146481790Y-107517946D02*
X146401974Y-107528687D01*
X146401974Y-107528687D02*
X146321655Y-107534580D01*
X146321655Y-107534580D02*
X146241126Y-107535601D01*
X146241126Y-107535601D02*
X146160682Y-107531748D01*
X146160682Y-107531748D02*
X146080620Y-107523036D01*
X146080620Y-107523036D02*
X132295699Y-105599033D01*
X149154557Y-104901151D02*
X150328566Y-103397292D01*
X149154557Y-104901151D02*
X149077436Y-104999444D01*
X149077436Y-104999444D02*
X148999838Y-105097360D01*
X148999838Y-105097360D02*
X148921764Y-105194898D01*
X148921764Y-105194898D02*
X148843216Y-105292055D01*
X148843216Y-105292055D02*
X148764196Y-105388828D01*
X148764196Y-105388828D02*
X148684705Y-105485215D01*
X148684705Y-105485215D02*
X148604747Y-105581213D01*
X148604747Y-105581213D02*
X148524321Y-105676821D01*
X148524321Y-105676821D02*
X148443431Y-105772037D01*
X148443431Y-105772037D02*
X148362078Y-105866857D01*
X148362078Y-105866857D02*
X148280265Y-105961280D01*
X148280265Y-105961280D02*
X148197993Y-106055304D01*
X148197993Y-106055304D02*
X148115263Y-106148925D01*
X148115263Y-106148925D02*
X148032079Y-106242143D01*
X148032079Y-106242143D02*
X147948442Y-106334955D01*
X147948442Y-106334955D02*
X147864355Y-106427359D01*
X147864355Y-106427359D02*
X147246291Y-107103228D01*
X146693533Y-80381830D02*
X147333493Y-80408495D01*
X146693533Y-80381830D02*
X146574610Y-80374102D01*
X146574610Y-80374102D02*
X146456175Y-80360857D01*
X146456175Y-80360857D02*
X146338484Y-80342124D01*
X146338484Y-80342124D02*
X146221790Y-80317941D01*
X146221790Y-80317941D02*
X146106346Y-80288362D01*
X146106346Y-80288362D02*
X145992401Y-80253450D01*
X145992401Y-80253450D02*
X145880201Y-80213282D01*
X145880201Y-80213282D02*
X145769989Y-80167943D01*
X145769989Y-80167943D02*
X145662003Y-80117532D01*
X145662003Y-80117532D02*
X145556476Y-80062157D01*
X145556476Y-80062157D02*
X145453637Y-80001939D01*
X145453637Y-80001939D02*
X145353706Y-79937007D01*
X145353706Y-79937007D02*
X145256901Y-79867501D01*
X145256901Y-79867501D02*
X145163431Y-79793572D01*
X145163431Y-79793572D02*
X145073496Y-79715380D01*
X145073496Y-79715380D02*
X144987293Y-79633093D01*
X144987293Y-79633093D02*
X144272000Y-78917800D01*
D14*
X115926459Y-79242994D02*
X115914440Y-79151967D01*
X115914440Y-79151967D02*
X115894193Y-79062412D01*
X115894193Y-79062412D02*
X115865884Y-78975069D01*
X115865884Y-78975069D02*
X115829748Y-78890663D01*
X115829748Y-78890663D02*
X115786085Y-78809893D01*
X115786085Y-78809893D02*
X115735256Y-78733430D01*
X115735256Y-78733430D02*
X115677684Y-78661907D01*
X115677684Y-78661907D02*
X115613844Y-78595916D01*
X115613844Y-78595916D02*
X115544267Y-78536006D01*
X115544267Y-78536006D02*
X115469529Y-78482673D01*
X115469529Y-78482673D02*
X115390250Y-78436358D01*
X115390250Y-78436358D02*
X115307088Y-78397447D01*
X115307088Y-78397447D02*
X115220730Y-78366260D01*
X115220730Y-78366260D02*
X115131894Y-78343058D01*
X115131894Y-78343058D02*
X115041316Y-78328032D01*
X115041316Y-78328032D02*
X114949747Y-78321309D01*
X114949747Y-78321309D02*
X114935000Y-78320900D01*
X116240657Y-80625137D02*
X116210136Y-80543752D01*
X116210136Y-80543752D02*
X116181054Y-80461843D01*
X116181054Y-80461843D02*
X116153420Y-80379434D01*
X116153420Y-80379434D02*
X116127241Y-80296551D01*
X116127241Y-80296551D02*
X116102527Y-80213220D01*
X116102527Y-80213220D02*
X116079284Y-80129466D01*
X116079284Y-80129466D02*
X116057521Y-80045316D01*
X116057521Y-80045316D02*
X116037243Y-79960796D01*
X116037243Y-79960796D02*
X116018457Y-79875932D01*
X116018457Y-79875932D02*
X116001169Y-79790749D01*
X116001169Y-79790749D02*
X115985384Y-79705276D01*
X115985384Y-79705276D02*
X115971107Y-79619538D01*
X115971107Y-79619538D02*
X115958343Y-79533561D01*
X115958343Y-79533561D02*
X115947095Y-79447373D01*
X115947095Y-79447373D02*
X115937367Y-79361000D01*
X115937367Y-79361000D02*
X115929164Y-79274470D01*
X115929164Y-79274470D02*
X115926459Y-79242994D01*
X117204532Y-83128103D02*
X116748252Y-81943248D01*
X117646923Y-97174520D02*
X117548993Y-97046376D01*
X117548993Y-97046376D02*
X117458937Y-96912582D01*
X117458937Y-96912582D02*
X117377079Y-96773620D01*
X117377079Y-96773620D02*
X117303715Y-96629993D01*
X117303715Y-96629993D02*
X117239110Y-96482218D01*
X117239110Y-96482218D02*
X117183498Y-96330831D01*
X117183498Y-96330831D02*
X117137078Y-96176376D01*
X117137078Y-96176376D02*
X117100019Y-96019412D01*
X117100019Y-96019412D02*
X117072455Y-95860506D01*
X117072455Y-95860506D02*
X117054484Y-95700231D01*
X117054484Y-95700231D02*
X117046172Y-95539165D01*
X117046172Y-95539165D02*
X117047549Y-95377892D01*
X117047549Y-95377892D02*
X117058611Y-95216992D01*
X117058611Y-95216992D02*
X117079316Y-95057048D01*
X117079316Y-95057048D02*
X117109590Y-94898635D01*
X117109590Y-94898635D02*
X117149326Y-94742328D01*
X120754857Y-102333442D02*
X120787369Y-102223823D01*
X120787369Y-102223823D02*
X120812957Y-102112385D01*
X120812957Y-102112385D02*
X120831518Y-101999563D01*
X120831518Y-101999563D02*
X120842981Y-101885801D01*
X120842981Y-101885801D02*
X120847299Y-101771544D01*
X120847299Y-101771544D02*
X120844457Y-101657241D01*
X120844457Y-101657241D02*
X120834465Y-101543340D01*
X120834465Y-101543340D02*
X120817362Y-101430288D01*
X120817362Y-101430288D02*
X120793216Y-101318528D01*
X120793216Y-101318528D02*
X120762121Y-101208499D01*
X120762121Y-101208499D02*
X120724199Y-101100633D01*
X120724199Y-101100633D02*
X120679600Y-100995352D01*
X120679600Y-100995352D02*
X120628497Y-100893069D01*
X120628497Y-100893069D02*
X120571091Y-100794186D01*
X120571091Y-100794186D02*
X120507609Y-100699090D01*
X120507609Y-100699090D02*
X120438297Y-100608156D01*
X120438297Y-100608156D02*
X117646923Y-97174520D01*
X118854856Y-87624646D02*
X118866683Y-87722511D01*
X118866683Y-87722511D02*
X118875986Y-87820649D01*
X118875986Y-87820649D02*
X118882759Y-87918994D01*
X118882759Y-87918994D02*
X118886996Y-88017481D01*
X118886996Y-88017481D02*
X118888696Y-88116044D01*
X118888696Y-88116044D02*
X118887856Y-88214618D01*
X118887856Y-88214618D02*
X118884478Y-88313138D01*
X118884478Y-88313138D02*
X118878563Y-88411538D01*
X118878563Y-88411538D02*
X118870116Y-88509753D01*
X118870116Y-88509753D02*
X118859142Y-88607718D01*
X118859142Y-88607718D02*
X118845649Y-88705368D01*
X118845649Y-88705368D02*
X118829645Y-88802638D01*
X118829645Y-88802638D02*
X118811142Y-88899464D01*
X118811142Y-88899464D02*
X118790150Y-88995781D01*
X118790150Y-88995781D02*
X118766685Y-89091525D01*
X118766685Y-89091525D02*
X118740763Y-89186634D01*
X118740763Y-89186634D02*
X117149326Y-94742328D01*
X118435831Y-86066655D02*
X117204532Y-83128103D01*
X118435831Y-86066655D02*
X118473495Y-86158663D01*
X118473495Y-86158663D02*
X118509639Y-86251279D01*
X118509639Y-86251279D02*
X118544252Y-86344478D01*
X118544252Y-86344478D02*
X118577325Y-86438235D01*
X118577325Y-86438235D02*
X118608848Y-86532524D01*
X118608848Y-86532524D02*
X118638813Y-86627319D01*
X118638813Y-86627319D02*
X118667212Y-86722596D01*
X118667212Y-86722596D02*
X118694038Y-86818327D01*
X118694038Y-86818327D02*
X118719283Y-86914488D01*
X118719283Y-86914488D02*
X118742940Y-87011051D01*
X118742940Y-87011051D02*
X118765002Y-87107991D01*
X118765002Y-87107991D02*
X118785465Y-87205282D01*
X118785465Y-87205282D02*
X118804321Y-87302896D01*
X118804321Y-87302896D02*
X118821567Y-87400808D01*
X118821567Y-87400808D02*
X118837197Y-87498991D01*
X118837197Y-87498991D02*
X118851208Y-87597418D01*
X118851208Y-87597418D02*
X118854856Y-87624646D01*
X116748252Y-81943248D02*
X116240657Y-80625137D01*
X119386713Y-104155844D02*
X118770400Y-104444800D01*
X119386713Y-104155844D02*
X119492273Y-104103041D01*
X119492273Y-104103041D02*
X119595016Y-104044948D01*
X119595016Y-104044948D02*
X119694677Y-103981712D01*
X119694677Y-103981712D02*
X119790999Y-103913498D01*
X119790999Y-103913498D02*
X119883734Y-103840482D01*
X119883734Y-103840482D02*
X119972641Y-103762851D01*
X119972641Y-103762851D02*
X120057492Y-103680806D01*
X120057492Y-103680806D02*
X120138069Y-103594559D01*
X120138069Y-103594559D02*
X120214162Y-103504332D01*
X120214162Y-103504332D02*
X120285575Y-103410358D01*
X120285575Y-103410358D02*
X120352126Y-103312879D01*
X120352126Y-103312879D02*
X120413641Y-103212147D01*
X120413641Y-103212147D02*
X120469962Y-103108422D01*
X120469962Y-103108422D02*
X120520945Y-103001971D01*
X120520945Y-103001971D02*
X120566456Y-102893068D01*
X120566456Y-102893068D02*
X120606381Y-102781996D01*
X120606381Y-102781996D02*
X120754857Y-102333442D01*
D13*
X134344361Y-91223337D02*
X134102406Y-91277793D01*
X134102406Y-91277793D02*
X133859445Y-91327572D01*
X133859445Y-91327572D02*
X133615570Y-91372655D01*
X133615570Y-91372655D02*
X133370870Y-91413023D01*
X133370870Y-91413023D02*
X133125437Y-91448663D01*
X133125437Y-91448663D02*
X132879362Y-91479561D01*
X132879362Y-91479561D02*
X132632736Y-91505705D01*
X132632736Y-91505705D02*
X132385652Y-91527087D01*
X132385652Y-91527087D02*
X132138201Y-91543697D01*
X132138201Y-91543697D02*
X131890477Y-91555529D01*
X131890477Y-91555529D02*
X131642569Y-91562580D01*
X131642569Y-91562580D02*
X131394572Y-91564847D01*
X131394572Y-91564847D02*
X131146578Y-91562328D01*
X131146578Y-91562328D02*
X130898678Y-91555025D01*
X130898678Y-91555025D02*
X130650965Y-91542941D01*
X130650965Y-91542941D02*
X130403532Y-91526080D01*
X130403532Y-91526080D02*
X130276600Y-91516200D01*
X144343493Y-86903742D02*
X144321792Y-87117563D01*
X144321792Y-87117563D02*
X144283092Y-87328969D01*
X144283092Y-87328969D02*
X144227641Y-87536612D01*
X144227641Y-87536612D02*
X144155791Y-87739165D01*
X144155791Y-87739165D02*
X144068001Y-87935337D01*
X144068001Y-87935337D02*
X143964832Y-88123875D01*
X143964832Y-88123875D02*
X143846941Y-88303575D01*
X143846941Y-88303575D02*
X143715082Y-88473291D01*
X143715082Y-88473291D02*
X143570096Y-88631940D01*
X143570096Y-88631940D02*
X143412909Y-88778509D01*
X143412909Y-88778509D02*
X143244523Y-88912062D01*
X143244523Y-88912062D02*
X143066013Y-89031748D01*
X143066013Y-89031748D02*
X142878519Y-89136802D01*
X142878519Y-89136802D02*
X142683237Y-89226553D01*
X142683237Y-89226553D02*
X142481414Y-89300430D01*
X142481414Y-89300430D02*
X142274338Y-89357961D01*
X142274338Y-89357961D02*
X134344361Y-91223337D01*
X145434219Y-81679172D02*
X145516600Y-81661000D01*
X145434219Y-81679172D02*
X145351390Y-81700983D01*
X145351390Y-81700983D02*
X145270593Y-81729408D01*
X145270593Y-81729408D02*
X145192352Y-81764260D01*
X145192352Y-81764260D02*
X145117180Y-81805312D01*
X145117180Y-81805312D02*
X145045564Y-81852297D01*
X145045564Y-81852297D02*
X144977974Y-81904906D01*
X144977974Y-81904906D02*
X144914850Y-81962799D01*
X144914850Y-81962799D02*
X144856602Y-82025596D01*
X144856602Y-82025596D02*
X144803612Y-82092889D01*
X144803612Y-82092889D02*
X144756225Y-82164238D01*
X144756225Y-82164238D02*
X144714750Y-82239178D01*
X144714750Y-82239178D02*
X144679458Y-82317221D01*
X144679458Y-82317221D02*
X144650578Y-82397857D01*
X144650578Y-82397857D02*
X144628299Y-82480560D01*
X144628299Y-82480560D02*
X144612766Y-82564792D01*
X144612766Y-82564792D02*
X144604082Y-82650003D01*
X144604082Y-82650003D02*
X144343493Y-86903742D01*
X133879777Y-92030123D02*
X133698866Y-92073144D01*
X133698866Y-92073144D02*
X133517146Y-92112609D01*
X133517146Y-92112609D02*
X133334688Y-92148503D01*
X133334688Y-92148503D02*
X133151560Y-92180811D01*
X133151560Y-92180811D02*
X132967835Y-92209522D01*
X132967835Y-92209522D02*
X132783581Y-92234623D01*
X132783581Y-92234623D02*
X132598870Y-92256106D01*
X132598870Y-92256106D02*
X132413774Y-92273961D01*
X132413774Y-92273961D02*
X132228363Y-92288183D01*
X132228363Y-92288183D02*
X132042709Y-92298766D01*
X132042709Y-92298766D02*
X131856883Y-92305705D01*
X131856883Y-92305705D02*
X131670956Y-92308999D01*
X131670956Y-92308999D02*
X131485001Y-92308645D01*
X131485001Y-92308645D02*
X131299088Y-92304644D01*
X131299088Y-92304644D02*
X131113290Y-92296997D01*
X131113290Y-92296997D02*
X130927678Y-92285709D01*
X130927678Y-92285709D02*
X129743200Y-92202000D01*
X145022318Y-88282798D02*
X145011079Y-88390117D01*
X145011079Y-88390117D02*
X144991417Y-88496216D01*
X144991417Y-88496216D02*
X144963451Y-88600436D01*
X144963451Y-88600436D02*
X144927357Y-88702126D01*
X144927357Y-88702126D02*
X144883358Y-88800654D01*
X144883358Y-88800654D02*
X144831729Y-88895407D01*
X144831729Y-88895407D02*
X144772791Y-88985795D01*
X144772791Y-88985795D02*
X144706910Y-89071256D01*
X144706910Y-89071256D02*
X144634498Y-89151257D01*
X144634498Y-89151257D02*
X144556004Y-89225300D01*
X144556004Y-89225300D02*
X144471917Y-89292925D01*
X144471917Y-89292925D02*
X144382761Y-89353711D01*
X144382761Y-89353711D02*
X144289090Y-89407279D01*
X144289090Y-89407279D02*
X144191488Y-89453295D01*
X144191488Y-89453295D02*
X144090562Y-89491475D01*
X144090562Y-89491475D02*
X143986941Y-89521580D01*
X143986941Y-89521580D02*
X133879777Y-92030123D01*
X145842141Y-82416184D02*
X145846800Y-82410300D01*
X145842141Y-82416184D02*
X145785625Y-82490410D01*
X145785625Y-82490410D02*
X145731956Y-82566720D01*
X145731956Y-82566720D02*
X145681209Y-82645003D01*
X145681209Y-82645003D02*
X145633457Y-82725148D01*
X145633457Y-82725148D02*
X145588767Y-82807041D01*
X145588767Y-82807041D02*
X145547203Y-82890564D01*
X145547203Y-82890564D02*
X145508826Y-82975597D01*
X145508826Y-82975597D02*
X145473689Y-83062021D01*
X145473689Y-83062021D02*
X145441844Y-83149710D01*
X145441844Y-83149710D02*
X145413334Y-83238540D01*
X145413334Y-83238540D02*
X145388202Y-83328384D01*
X145388202Y-83328384D02*
X145366483Y-83419113D01*
X145366483Y-83419113D02*
X145348208Y-83510599D01*
X145348208Y-83510599D02*
X145333403Y-83602709D01*
X145333403Y-83602709D02*
X145322090Y-83695314D01*
X145322090Y-83695314D02*
X145314285Y-83788280D01*
X145314285Y-83788280D02*
X145022318Y-88282798D01*
D14*
X121843754Y-113567766D02*
X121920000Y-115836700D01*
X121843754Y-113567766D02*
X121835767Y-113462931D01*
X121835767Y-113462931D02*
X121818922Y-113359150D01*
X121818922Y-113359150D02*
X121793339Y-113257172D01*
X121793339Y-113257172D02*
X121759203Y-113157729D01*
X121759203Y-113157729D02*
X121716760Y-113061538D01*
X121716760Y-113061538D02*
X121666314Y-112969292D01*
X121666314Y-112969292D02*
X121608229Y-112881655D01*
X121608229Y-112881655D02*
X121542924Y-112799257D01*
X121542924Y-112799257D02*
X121470869Y-112722693D01*
X121470869Y-112722693D02*
X121392582Y-112652513D01*
X121392582Y-112652513D02*
X121308627Y-112589222D01*
X121308627Y-112589222D02*
X121219608Y-112533277D01*
X121219608Y-112533277D02*
X121126168Y-112485080D01*
X121126168Y-112485080D02*
X121028977Y-112444979D01*
X121028977Y-112444979D02*
X120928737Y-112413261D01*
X120928737Y-112413261D02*
X120826169Y-112390158D01*
X119273861Y-111133948D02*
X119289519Y-111240067D01*
X119289519Y-111240067D02*
X119313644Y-111344588D01*
X119313644Y-111344588D02*
X119346078Y-111446836D01*
X119346078Y-111446836D02*
X119386613Y-111546151D01*
X119386613Y-111546151D02*
X119434987Y-111641893D01*
X119434987Y-111641893D02*
X119490887Y-111733445D01*
X119490887Y-111733445D02*
X119553955Y-111820216D01*
X119553955Y-111820216D02*
X119623781Y-111901645D01*
X119623781Y-111901645D02*
X119699918Y-111977209D01*
X119699918Y-111977209D02*
X119781872Y-112046420D01*
X119781872Y-112046420D02*
X119869116Y-112108830D01*
X119869116Y-112108830D02*
X119961086Y-112164039D01*
X119961086Y-112164039D02*
X120057191Y-112211689D01*
X120057191Y-112211689D02*
X120156809Y-112251473D01*
X120156809Y-112251473D02*
X120259299Y-112283135D01*
X120259299Y-112283135D02*
X120363999Y-112306472D01*
X120363999Y-112306472D02*
X120826169Y-112390158D01*
X118700385Y-108968878D02*
X118753410Y-109080678D01*
X118753410Y-109080678D02*
X118803996Y-109193603D01*
X118803996Y-109193603D02*
X118852119Y-109307600D01*
X118852119Y-109307600D02*
X118897755Y-109422615D01*
X118897755Y-109422615D02*
X118940883Y-109538594D01*
X118940883Y-109538594D02*
X118981484Y-109655481D01*
X118981484Y-109655481D02*
X119019537Y-109773223D01*
X119019537Y-109773223D02*
X119055026Y-109891763D01*
X119055026Y-109891763D02*
X119087932Y-110011045D01*
X119087932Y-110011045D02*
X119118241Y-110131013D01*
X119118241Y-110131013D02*
X119145938Y-110251612D01*
X119145938Y-110251612D02*
X119171011Y-110372783D01*
X119171011Y-110372783D02*
X119193447Y-110494470D01*
X119193447Y-110494470D02*
X119213236Y-110616615D01*
X119213236Y-110616615D02*
X119230369Y-110739161D01*
X119230369Y-110739161D02*
X119244838Y-110862051D01*
X119244838Y-110862051D02*
X119273861Y-111133948D01*
X117850440Y-107282286D02*
X117885969Y-107348324D01*
X117885969Y-107348324D02*
X117921329Y-107414453D01*
X117921329Y-107414453D02*
X117956519Y-107480673D01*
X117956519Y-107480673D02*
X117991538Y-107546984D01*
X117991538Y-107546984D02*
X118026386Y-107613384D01*
X118026386Y-107613384D02*
X118061064Y-107679874D01*
X118061064Y-107679874D02*
X118095570Y-107746452D01*
X118095570Y-107746452D02*
X118129905Y-107813120D01*
X118129905Y-107813120D02*
X118164069Y-107879875D01*
X118164069Y-107879875D02*
X118198060Y-107946718D01*
X118198060Y-107946718D02*
X118231879Y-108013648D01*
X118231879Y-108013648D02*
X118265526Y-108080665D01*
X118265526Y-108080665D02*
X118299001Y-108147769D01*
X118299001Y-108147769D02*
X118332303Y-108214958D01*
X118332303Y-108214958D02*
X118365431Y-108282233D01*
X118365431Y-108282233D02*
X118398388Y-108349593D01*
X118398388Y-108349593D02*
X118700385Y-108968878D01*
X117387680Y-105216836D02*
X117375948Y-105337345D01*
X117375948Y-105337345D02*
X117368825Y-105458214D01*
X117368825Y-105458214D02*
X117366323Y-105579268D01*
X117366323Y-105579268D02*
X117368444Y-105700328D01*
X117368444Y-105700328D02*
X117375186Y-105821219D01*
X117375186Y-105821219D02*
X117386539Y-105941765D01*
X117386539Y-105941765D02*
X117402486Y-106061790D01*
X117402486Y-106061790D02*
X117423003Y-106181118D01*
X117423003Y-106181118D02*
X117448062Y-106299575D01*
X117448062Y-106299575D02*
X117477625Y-106416990D01*
X117477625Y-106416990D02*
X117511650Y-106533190D01*
X117511650Y-106533190D02*
X117550086Y-106648007D01*
X117550086Y-106648007D02*
X117592878Y-106761272D01*
X117592878Y-106761272D02*
X117639963Y-106872821D01*
X117639963Y-106872821D02*
X117691272Y-106982490D01*
X117691272Y-106982490D02*
X117746732Y-107090122D01*
X117746732Y-107090122D02*
X117850440Y-107282286D01*
X118192817Y-103167880D02*
X118115200Y-103261040D01*
X118115200Y-103261040D02*
X118041115Y-103357032D01*
X118041115Y-103357032D02*
X117970663Y-103455722D01*
X117970663Y-103455722D02*
X117903943Y-103556971D01*
X117903943Y-103556971D02*
X117841046Y-103660640D01*
X117841046Y-103660640D02*
X117782062Y-103766583D01*
X117782062Y-103766583D02*
X117727072Y-103874654D01*
X117727072Y-103874654D02*
X117676152Y-103984700D01*
X117676152Y-103984700D02*
X117629374Y-104096571D01*
X117629374Y-104096571D02*
X117586803Y-104210108D01*
X117586803Y-104210108D02*
X117548498Y-104325155D01*
X117548498Y-104325155D02*
X117514512Y-104441552D01*
X117514512Y-104441552D02*
X117484892Y-104559135D01*
X117484892Y-104559135D02*
X117459681Y-104677741D01*
X117459681Y-104677741D02*
X117438913Y-104797206D01*
X117438913Y-104797206D02*
X117422618Y-104917363D01*
X117422618Y-104917363D02*
X117387680Y-105216836D01*
X119056419Y-101133895D02*
X119057397Y-101253048D01*
X119057397Y-101253048D02*
X119052830Y-101372117D01*
X119052830Y-101372117D02*
X119042727Y-101490846D01*
X119042727Y-101490846D02*
X119027111Y-101608975D01*
X119027111Y-101608975D02*
X119006015Y-101726250D01*
X119006015Y-101726250D02*
X118979485Y-101842416D01*
X118979485Y-101842416D02*
X118947579Y-101957222D01*
X118947579Y-101957222D02*
X118910365Y-102070419D01*
X118910365Y-102070419D02*
X118867924Y-102181762D01*
X118867924Y-102181762D02*
X118820348Y-102291009D01*
X118820348Y-102291009D02*
X118767740Y-102397925D01*
X118767740Y-102397925D02*
X118710215Y-102502276D01*
X118710215Y-102502276D02*
X118647896Y-102603838D01*
X118647896Y-102603838D02*
X118580919Y-102702390D01*
X118580919Y-102702390D02*
X118509428Y-102797719D01*
X118509428Y-102797719D02*
X118433581Y-102889619D01*
X118433581Y-102889619D02*
X118192817Y-103167880D01*
X118600402Y-100109045D02*
X116840000Y-98450400D01*
X118600402Y-100109045D02*
X118650951Y-100159065D01*
X118650951Y-100159065D02*
X118698991Y-100211500D01*
X118698991Y-100211500D02*
X118744406Y-100266224D01*
X118744406Y-100266224D02*
X118787088Y-100323106D01*
X118787088Y-100323106D02*
X118826933Y-100382010D01*
X118826933Y-100382010D02*
X118863847Y-100442794D01*
X118863847Y-100442794D02*
X118897740Y-100505312D01*
X118897740Y-100505312D02*
X118928532Y-100569415D01*
X118928532Y-100569415D02*
X118956149Y-100634948D01*
X118956149Y-100634948D02*
X118980524Y-100701755D01*
X118980524Y-100701755D02*
X119001598Y-100769675D01*
X119001598Y-100769675D02*
X119019323Y-100838546D01*
X119019323Y-100838546D02*
X119033654Y-100908201D01*
X119033654Y-100908201D02*
X119044557Y-100978475D01*
X119044557Y-100978475D02*
X119052007Y-101049198D01*
X119052007Y-101049198D02*
X119055987Y-101120202D01*
X119055987Y-101120202D02*
X119056419Y-101133895D01*
D17*
X119370172Y-83590956D02*
X119380000Y-83591500D01*
X119818957Y-83591500D01*
X120829461Y-83717813D01*
X120840500Y-83718500D01*
X121215957Y-83718500D01*
X121718461Y-83781313D01*
X121729500Y-83782000D01*
X122230134Y-83782000D01*
X122596980Y-83843141D01*
X122780856Y-83904433D01*
X122791546Y-83907272D01*
X123403263Y-84029615D01*
X123687953Y-84278719D01*
X123998993Y-84589759D01*
X124245842Y-84916833D01*
X124497026Y-85356406D01*
X124507126Y-85370633D01*
X124518468Y-85381559D01*
X124743716Y-85563009D01*
X125326875Y-86133760D01*
X125548796Y-86577602D01*
X125557459Y-86591543D01*
X125869035Y-87002823D01*
X126065428Y-87432433D01*
X126281710Y-88180407D01*
X126250276Y-88211841D01*
X126201904Y-88284234D01*
X126168585Y-88364673D01*
X126151600Y-88450067D01*
X126151600Y-88537133D01*
X126168585Y-88622527D01*
X126201904Y-88702966D01*
X126250276Y-88775359D01*
X126311841Y-88836924D01*
X126384234Y-88885296D01*
X126464673Y-88918615D01*
X126550067Y-88935600D01*
X126637133Y-88935600D01*
X126670200Y-88929023D01*
X127028160Y-89451925D01*
X127039499Y-89465404D01*
X128735700Y-91117630D01*
X128996340Y-92185012D01*
X128996817Y-92186878D01*
X129389022Y-93654483D01*
X129539969Y-94799162D01*
X129552606Y-95873347D01*
X129554386Y-95890039D01*
X129706786Y-96639339D01*
X129711922Y-96656012D01*
X129720213Y-96671364D01*
X129731339Y-96684803D01*
X129744873Y-96695813D01*
X129760295Y-96703971D01*
X129777013Y-96708964D01*
X129802856Y-96710158D01*
X130285003Y-96661943D01*
X131058744Y-97053438D01*
X131073471Y-97059308D01*
X133131799Y-97673640D01*
X134380749Y-98226972D01*
X134397317Y-98232441D01*
X134406598Y-98234013D01*
X135709833Y-98384386D01*
X136136254Y-98621287D01*
X136836503Y-99496598D01*
X136848685Y-99509088D01*
X136866198Y-99520604D01*
X136960225Y-99567617D01*
X137007500Y-99709443D01*
X137007500Y-100323671D01*
X136881394Y-101206413D01*
X136880726Y-101212659D01*
X136817818Y-102093377D01*
X136520766Y-103222174D01*
X135261549Y-103162211D01*
X134004946Y-103036551D01*
X133335472Y-102793106D01*
X133186885Y-102644519D01*
X133235686Y-101680701D01*
X133235694Y-101671864D01*
X133184894Y-100630464D01*
X133182340Y-100613205D01*
X133176468Y-100596775D01*
X133167504Y-100581807D01*
X133155792Y-100568876D01*
X133141782Y-100558478D01*
X133124144Y-100550367D01*
X132819344Y-100448767D01*
X132812535Y-100446795D01*
X132298185Y-100319795D01*
X132280918Y-100317293D01*
X132263495Y-100318208D01*
X132244860Y-100323148D01*
X130544259Y-100978194D01*
X129863273Y-101002734D01*
X129116188Y-100878220D01*
X128113625Y-100564920D01*
X126677792Y-99815789D01*
X124488825Y-96938861D01*
X124865975Y-93481652D01*
X124866158Y-93464206D01*
X124861468Y-93442498D01*
X124035968Y-91092998D01*
X124027472Y-91075330D01*
X123709972Y-90567330D01*
X123706196Y-90561768D01*
X122982296Y-89577518D01*
X122970631Y-89564544D01*
X122956659Y-89554095D01*
X122940534Y-89546435D01*
X122063990Y-89233384D01*
X121514742Y-88826076D01*
X120948299Y-88259633D01*
X120541283Y-87840467D01*
X122951200Y-87840467D01*
X122951200Y-87927533D01*
X122968185Y-88012927D01*
X123001504Y-88093366D01*
X123049876Y-88165759D01*
X123111441Y-88227324D01*
X123183834Y-88275696D01*
X123264273Y-88309015D01*
X123349667Y-88326000D01*
X123436733Y-88326000D01*
X123522127Y-88309015D01*
X123602566Y-88275696D01*
X123674959Y-88227324D01*
X123736524Y-88165759D01*
X123784896Y-88093366D01*
X123818215Y-88012927D01*
X123835200Y-87927533D01*
X123835200Y-87840467D01*
X123818215Y-87755073D01*
X123784896Y-87674634D01*
X123736524Y-87602241D01*
X123674959Y-87540676D01*
X123602566Y-87492304D01*
X123522127Y-87458985D01*
X123436733Y-87442000D01*
X123349667Y-87442000D01*
X123264273Y-87458985D01*
X123183834Y-87492304D01*
X123111441Y-87540676D01*
X123049876Y-87602241D01*
X123001504Y-87674634D01*
X122968185Y-87755073D01*
X122951200Y-87840467D01*
X120541283Y-87840467D01*
X120540035Y-87839182D01*
X120483204Y-87611858D01*
X120421500Y-87241634D01*
X120421500Y-86804500D01*
X120419790Y-86787137D01*
X120416933Y-86776356D01*
X120289933Y-86395356D01*
X120281817Y-86377710D01*
X120096344Y-86068588D01*
X119972433Y-85696856D01*
X119965320Y-85680924D01*
X119958252Y-85670359D01*
X119517053Y-85103103D01*
X119329317Y-84790210D01*
X119315933Y-84773067D01*
X118698364Y-84155498D01*
X118591194Y-83726820D01*
X118835311Y-83531527D01*
X119370172Y-83590956D01*
G04 #@! TA.AperFunction,Conductor*
D18*
G36*
X119370172Y-83590956D02*
G01*
X119380000Y-83591500D01*
X119818957Y-83591500D01*
X120829461Y-83717813D01*
X120840500Y-83718500D01*
X121215957Y-83718500D01*
X121718461Y-83781313D01*
X121729500Y-83782000D01*
X122230134Y-83782000D01*
X122596980Y-83843141D01*
X122780856Y-83904433D01*
X122791546Y-83907272D01*
X123403263Y-84029615D01*
X123687953Y-84278719D01*
X123998993Y-84589759D01*
X124245842Y-84916833D01*
X124497026Y-85356406D01*
X124507126Y-85370633D01*
X124518468Y-85381559D01*
X124743716Y-85563009D01*
X125326875Y-86133760D01*
X125548796Y-86577602D01*
X125557459Y-86591543D01*
X125869035Y-87002823D01*
X126065428Y-87432433D01*
X126281710Y-88180407D01*
X126250276Y-88211841D01*
X126201904Y-88284234D01*
X126168585Y-88364673D01*
X126151600Y-88450067D01*
X126151600Y-88537133D01*
X126168585Y-88622527D01*
X126201904Y-88702966D01*
X126250276Y-88775359D01*
X126311841Y-88836924D01*
X126384234Y-88885296D01*
X126464673Y-88918615D01*
X126550067Y-88935600D01*
X126637133Y-88935600D01*
X126670200Y-88929023D01*
X127028160Y-89451925D01*
X127039499Y-89465404D01*
X128735700Y-91117630D01*
X128996340Y-92185012D01*
X128996817Y-92186878D01*
X129389022Y-93654483D01*
X129539969Y-94799162D01*
X129552606Y-95873347D01*
X129554386Y-95890039D01*
X129706786Y-96639339D01*
X129711922Y-96656012D01*
X129720213Y-96671364D01*
X129731339Y-96684803D01*
X129744873Y-96695813D01*
X129760295Y-96703971D01*
X129777013Y-96708964D01*
X129802856Y-96710158D01*
X130285003Y-96661943D01*
X131058744Y-97053438D01*
X131073471Y-97059308D01*
X133131799Y-97673640D01*
X134380749Y-98226972D01*
X134397317Y-98232441D01*
X134406598Y-98234013D01*
X135709833Y-98384386D01*
X136136254Y-98621287D01*
X136836503Y-99496598D01*
X136848685Y-99509088D01*
X136866198Y-99520604D01*
X136960225Y-99567617D01*
X137007500Y-99709443D01*
X137007500Y-100323671D01*
X136881394Y-101206413D01*
X136880726Y-101212659D01*
X136817818Y-102093377D01*
X136520766Y-103222174D01*
X135261549Y-103162211D01*
X134004946Y-103036551D01*
X133335472Y-102793106D01*
X133186885Y-102644519D01*
X133235686Y-101680701D01*
X133235694Y-101671864D01*
X133184894Y-100630464D01*
X133182340Y-100613205D01*
X133176468Y-100596775D01*
X133167504Y-100581807D01*
X133155792Y-100568876D01*
X133141782Y-100558478D01*
X133124144Y-100550367D01*
X132819344Y-100448767D01*
X132812535Y-100446795D01*
X132298185Y-100319795D01*
X132280918Y-100317293D01*
X132263495Y-100318208D01*
X132244860Y-100323148D01*
X130544259Y-100978194D01*
X129863273Y-101002734D01*
X129116188Y-100878220D01*
X128113625Y-100564920D01*
X126677792Y-99815789D01*
X124488825Y-96938861D01*
X124865975Y-93481652D01*
X124866158Y-93464206D01*
X124861468Y-93442498D01*
X124035968Y-91092998D01*
X124027472Y-91075330D01*
X123709972Y-90567330D01*
X123706196Y-90561768D01*
X122982296Y-89577518D01*
X122970631Y-89564544D01*
X122956659Y-89554095D01*
X122940534Y-89546435D01*
X122063990Y-89233384D01*
X121514742Y-88826076D01*
X120948299Y-88259633D01*
X120541283Y-87840467D01*
X122951200Y-87840467D01*
X122951200Y-87927533D01*
X122968185Y-88012927D01*
X123001504Y-88093366D01*
X123049876Y-88165759D01*
X123111441Y-88227324D01*
X123183834Y-88275696D01*
X123264273Y-88309015D01*
X123349667Y-88326000D01*
X123436733Y-88326000D01*
X123522127Y-88309015D01*
X123602566Y-88275696D01*
X123674959Y-88227324D01*
X123736524Y-88165759D01*
X123784896Y-88093366D01*
X123818215Y-88012927D01*
X123835200Y-87927533D01*
X123835200Y-87840467D01*
X123818215Y-87755073D01*
X123784896Y-87674634D01*
X123736524Y-87602241D01*
X123674959Y-87540676D01*
X123602566Y-87492304D01*
X123522127Y-87458985D01*
X123436733Y-87442000D01*
X123349667Y-87442000D01*
X123264273Y-87458985D01*
X123183834Y-87492304D01*
X123111441Y-87540676D01*
X123049876Y-87602241D01*
X123001504Y-87674634D01*
X122968185Y-87755073D01*
X122951200Y-87840467D01*
X120541283Y-87840467D01*
X120540035Y-87839182D01*
X120483204Y-87611858D01*
X120421500Y-87241634D01*
X120421500Y-86804500D01*
X120419790Y-86787137D01*
X120416933Y-86776356D01*
X120289933Y-86395356D01*
X120281817Y-86377710D01*
X120096344Y-86068588D01*
X119972433Y-85696856D01*
X119965320Y-85680924D01*
X119958252Y-85670359D01*
X119517053Y-85103103D01*
X119329317Y-84790210D01*
X119315933Y-84773067D01*
X118698364Y-84155498D01*
X118591194Y-83726820D01*
X118835311Y-83531527D01*
X119370172Y-83590956D01*
G37*
G04 #@! TD.AperFunction*
D17*
X123775691Y-105356059D02*
X124611694Y-105612560D01*
X124624598Y-105615490D01*
X125190718Y-105700408D01*
X125871280Y-105889453D01*
X125876118Y-105890652D01*
X127679518Y-106284352D01*
X127686106Y-106285533D01*
X127801595Y-106301774D01*
X128352493Y-106555248D01*
X128353882Y-106556042D01*
X128366639Y-106561757D01*
X128379319Y-106567591D01*
X128380827Y-106568113D01*
X128435958Y-106592810D01*
X128438764Y-106594340D01*
X128450171Y-106599177D01*
X128461451Y-106604230D01*
X128464475Y-106605242D01*
X128521565Y-106629450D01*
X128524399Y-106630922D01*
X128535890Y-106635524D01*
X128547281Y-106640354D01*
X128550328Y-106641306D01*
X128607889Y-106664358D01*
X128610756Y-106665775D01*
X128622356Y-106670152D01*
X128633820Y-106674743D01*
X128636881Y-106675632D01*
X128694905Y-106697526D01*
X128697794Y-106698882D01*
X128709455Y-106703016D01*
X128721037Y-106707386D01*
X128724121Y-106708215D01*
X128782572Y-106728936D01*
X128785483Y-106730232D01*
X128797203Y-106734123D01*
X128808889Y-106738266D01*
X128811994Y-106739034D01*
X128870849Y-106758575D01*
X128873784Y-106759811D01*
X128885571Y-106763463D01*
X128897348Y-106767373D01*
X128900471Y-106768079D01*
X128959696Y-106786428D01*
X128962660Y-106787607D01*
X128974544Y-106791028D01*
X128986372Y-106794693D01*
X128989501Y-106795335D01*
X129049091Y-106812491D01*
X129052079Y-106813610D01*
X129064026Y-106816791D01*
X129075927Y-106820217D01*
X129079071Y-106820796D01*
X129138993Y-106836749D01*
X129142003Y-106837808D01*
X129154015Y-106840749D01*
X129165980Y-106843934D01*
X129169132Y-106844449D01*
X129229366Y-106859195D01*
X129232398Y-106860193D01*
X129244466Y-106862891D01*
X129256492Y-106865835D01*
X129259656Y-106866287D01*
X129320180Y-106879818D01*
X129323220Y-106880752D01*
X129335306Y-106883200D01*
X129347428Y-106885910D01*
X129350606Y-106886299D01*
X129411366Y-106898605D01*
X129414443Y-106899483D01*
X129426637Y-106901698D01*
X129438742Y-106904150D01*
X129441914Y-106904474D01*
X129502942Y-106915560D01*
X129506021Y-106916372D01*
X129518210Y-106918334D01*
X129530414Y-106920551D01*
X129533602Y-106920811D01*
X129594823Y-106930666D01*
X129597921Y-106931416D01*
X129610148Y-106933132D01*
X129622391Y-106935103D01*
X129625586Y-106935299D01*
X129686987Y-106943919D01*
X129690102Y-106944607D01*
X129702386Y-106946080D01*
X129714645Y-106947801D01*
X129717834Y-106947933D01*
X129777820Y-106955127D01*
X129779380Y-106955455D01*
X129793222Y-106956974D01*
X129807133Y-106958642D01*
X129808736Y-106958676D01*
X131505579Y-107144850D01*
X131814276Y-107350648D01*
X132334607Y-107705996D01*
X132345523Y-107712364D01*
X133120223Y-108093364D01*
X133136558Y-108099492D01*
X133154822Y-108102377D01*
X134360695Y-108165844D01*
X135304635Y-108228773D01*
X136309602Y-108480015D01*
X136470481Y-108533641D01*
X136618883Y-108731511D01*
X136504030Y-109190920D01*
X136253171Y-109755354D01*
X136248157Y-109769914D01*
X136125255Y-110261522D01*
X135832585Y-110671260D01*
X133856704Y-111473962D01*
X132372841Y-110917514D01*
X131744790Y-110540683D01*
X131730790Y-110534670D01*
X131724824Y-110525741D01*
X131663259Y-110464176D01*
X131590866Y-110415804D01*
X131510427Y-110382485D01*
X131425033Y-110365500D01*
X131337967Y-110365500D01*
X131252573Y-110382485D01*
X131226362Y-110393342D01*
X130941911Y-110314328D01*
X130901259Y-110273676D01*
X130828866Y-110225304D01*
X130748427Y-110191985D01*
X130663033Y-110175000D01*
X130575967Y-110175000D01*
X130497313Y-110190644D01*
X128995859Y-109770237D01*
X127094139Y-109072940D01*
X127077381Y-109068589D01*
X125874344Y-108878636D01*
X124299345Y-108500636D01*
X122978448Y-107871637D01*
X121839409Y-107175558D01*
X121823702Y-107167963D01*
X121806815Y-107163579D01*
X121793000Y-107162500D01*
X120713500Y-107162500D01*
X120707580Y-107162697D01*
X119760576Y-107225831D01*
X118890877Y-107176134D01*
X118494975Y-107024759D01*
X118379545Y-106877848D01*
X118319786Y-106708533D01*
X118411223Y-106495182D01*
X118982887Y-106057312D01*
X119345641Y-105875935D01*
X119651454Y-105814772D01*
X119672693Y-105807649D01*
X120039344Y-105630645D01*
X120463103Y-105447227D01*
X120471768Y-105442902D01*
X121590056Y-104806528D01*
X123775691Y-105356059D01*
G04 #@! TA.AperFunction,Conductor*
D18*
G36*
X123775691Y-105356059D02*
G01*
X124611694Y-105612560D01*
X124624598Y-105615490D01*
X125190718Y-105700408D01*
X125871280Y-105889453D01*
X125876118Y-105890652D01*
X127679518Y-106284352D01*
X127686106Y-106285533D01*
X127801595Y-106301774D01*
X128352493Y-106555248D01*
X128353882Y-106556042D01*
X128366639Y-106561757D01*
X128379319Y-106567591D01*
X128380827Y-106568113D01*
X128435958Y-106592810D01*
X128438764Y-106594340D01*
X128450171Y-106599177D01*
X128461451Y-106604230D01*
X128464475Y-106605242D01*
X128521565Y-106629450D01*
X128524399Y-106630922D01*
X128535890Y-106635524D01*
X128547281Y-106640354D01*
X128550328Y-106641306D01*
X128607889Y-106664358D01*
X128610756Y-106665775D01*
X128622356Y-106670152D01*
X128633820Y-106674743D01*
X128636881Y-106675632D01*
X128694905Y-106697526D01*
X128697794Y-106698882D01*
X128709455Y-106703016D01*
X128721037Y-106707386D01*
X128724121Y-106708215D01*
X128782572Y-106728936D01*
X128785483Y-106730232D01*
X128797203Y-106734123D01*
X128808889Y-106738266D01*
X128811994Y-106739034D01*
X128870849Y-106758575D01*
X128873784Y-106759811D01*
X128885571Y-106763463D01*
X128897348Y-106767373D01*
X128900471Y-106768079D01*
X128959696Y-106786428D01*
X128962660Y-106787607D01*
X128974544Y-106791028D01*
X128986372Y-106794693D01*
X128989501Y-106795335D01*
X129049091Y-106812491D01*
X129052079Y-106813610D01*
X129064026Y-106816791D01*
X129075927Y-106820217D01*
X129079071Y-106820796D01*
X129138993Y-106836749D01*
X129142003Y-106837808D01*
X129154015Y-106840749D01*
X129165980Y-106843934D01*
X129169132Y-106844449D01*
X129229366Y-106859195D01*
X129232398Y-106860193D01*
X129244466Y-106862891D01*
X129256492Y-106865835D01*
X129259656Y-106866287D01*
X129320180Y-106879818D01*
X129323220Y-106880752D01*
X129335306Y-106883200D01*
X129347428Y-106885910D01*
X129350606Y-106886299D01*
X129411366Y-106898605D01*
X129414443Y-106899483D01*
X129426637Y-106901698D01*
X129438742Y-106904150D01*
X129441914Y-106904474D01*
X129502942Y-106915560D01*
X129506021Y-106916372D01*
X129518210Y-106918334D01*
X129530414Y-106920551D01*
X129533602Y-106920811D01*
X129594823Y-106930666D01*
X129597921Y-106931416D01*
X129610148Y-106933132D01*
X129622391Y-106935103D01*
X129625586Y-106935299D01*
X129686987Y-106943919D01*
X129690102Y-106944607D01*
X129702386Y-106946080D01*
X129714645Y-106947801D01*
X129717834Y-106947933D01*
X129777820Y-106955127D01*
X129779380Y-106955455D01*
X129793222Y-106956974D01*
X129807133Y-106958642D01*
X129808736Y-106958676D01*
X131505579Y-107144850D01*
X131814276Y-107350648D01*
X132334607Y-107705996D01*
X132345523Y-107712364D01*
X133120223Y-108093364D01*
X133136558Y-108099492D01*
X133154822Y-108102377D01*
X134360695Y-108165844D01*
X135304635Y-108228773D01*
X136309602Y-108480015D01*
X136470481Y-108533641D01*
X136618883Y-108731511D01*
X136504030Y-109190920D01*
X136253171Y-109755354D01*
X136248157Y-109769914D01*
X136125255Y-110261522D01*
X135832585Y-110671260D01*
X133856704Y-111473962D01*
X132372841Y-110917514D01*
X131744790Y-110540683D01*
X131730790Y-110534670D01*
X131724824Y-110525741D01*
X131663259Y-110464176D01*
X131590866Y-110415804D01*
X131510427Y-110382485D01*
X131425033Y-110365500D01*
X131337967Y-110365500D01*
X131252573Y-110382485D01*
X131226362Y-110393342D01*
X130941911Y-110314328D01*
X130901259Y-110273676D01*
X130828866Y-110225304D01*
X130748427Y-110191985D01*
X130663033Y-110175000D01*
X130575967Y-110175000D01*
X130497313Y-110190644D01*
X128995859Y-109770237D01*
X127094139Y-109072940D01*
X127077381Y-109068589D01*
X125874344Y-108878636D01*
X124299345Y-108500636D01*
X122978448Y-107871637D01*
X121839409Y-107175558D01*
X121823702Y-107167963D01*
X121806815Y-107163579D01*
X121793000Y-107162500D01*
X120713500Y-107162500D01*
X120707580Y-107162697D01*
X119760576Y-107225831D01*
X118890877Y-107176134D01*
X118494975Y-107024759D01*
X118379545Y-106877848D01*
X118319786Y-106708533D01*
X118411223Y-106495182D01*
X118982887Y-106057312D01*
X119345641Y-105875935D01*
X119651454Y-105814772D01*
X119672693Y-105807649D01*
X120039344Y-105630645D01*
X120463103Y-105447227D01*
X120471768Y-105442902D01*
X121590056Y-104806528D01*
X123775691Y-105356059D01*
G37*
G04 #@! TD.AperFunction*
M02*
