%FSLAX45Y45*%
G04 Gerber Fmt 4.5, Leading zero omitted, Abs format (unit mm)*
G04 Created by KiCad (PCBNEW 5.1.7-a382d34a8~88~ubuntu18.04.1) date 2021-05-17 19:46:49*
%MOMM*%
%LPD*%
G01*
G04 APERTURE LIST*
%TA.AperFunction,Profile*%
%ADD10C,0.050000*%
%TD*%
%ADD11C,0.200000*%
%ADD12C,0.300000*%
G04 APERTURE END LIST*
D10*
X14630400Y-10394950D02*
X14674850Y-10318750D01*
X14630400Y-8293100D02*
X14630400Y-10394950D01*
X14776450Y-8293100D02*
X14630400Y-8293100D01*
X14776450Y-10140950D02*
X14776450Y-8293100D01*
X14674850Y-10318750D02*
X14776450Y-10140950D01*
X15384335Y-9539986D02*
G75*
G03*
X15384335Y-9539986I-2466911J0D01*
G01*
D11*
X11049160Y-10858660D02*
X11069160Y-10878660D01*
X11069160Y-10858660D02*
X11049160Y-10878660D01*
X11064400Y-11099960D02*
X11084400Y-11119960D01*
X11084400Y-11099960D02*
X11064400Y-11119960D01*
X11072020Y-10519570D02*
X11092020Y-10539570D01*
X11092020Y-10519570D02*
X11072020Y-10539570D01*
X11099960Y-10362090D02*
X11119960Y-10382090D01*
X11119960Y-10362090D02*
X11099960Y-10382090D01*
X11110120Y-10736740D02*
X11130120Y-10756740D01*
X11130120Y-10736740D02*
X11110120Y-10756740D01*
X11160920Y-11201560D02*
X11180920Y-11221560D01*
X11180920Y-11201560D02*
X11160920Y-11221560D01*
X11185050Y-10289700D02*
X11205050Y-10309700D01*
X11205050Y-10289700D02*
X11185050Y-10309700D01*
X11221880Y-10525920D02*
X11241880Y-10545920D01*
X11241880Y-10525920D02*
X11221880Y-10545920D01*
X11261250Y-10010300D02*
X11281250Y-10030300D01*
X11281250Y-10010300D02*
X11261250Y-10030300D01*
X11261250Y-10302400D02*
X11281250Y-10322400D01*
X11281250Y-10302400D02*
X11261250Y-10322400D01*
X11280300Y-9946800D02*
X11300300Y-9966800D01*
X11300300Y-9946800D02*
X11280300Y-9966800D01*
X11318400Y-7753510D02*
X11338400Y-7773510D01*
X11338400Y-7753510D02*
X11318400Y-7773510D01*
X11324750Y-10023000D02*
X11344750Y-10043000D01*
X11344750Y-10023000D02*
X11324750Y-10043000D01*
X11324750Y-11159650D02*
X11344750Y-11179650D01*
X11344750Y-11159650D02*
X11324750Y-11179650D01*
X11329830Y-9657240D02*
X11349830Y-9677240D01*
X11349830Y-9657240D02*
X11329830Y-9677240D01*
X11343800Y-9959500D02*
X11363800Y-9979500D01*
X11363800Y-9959500D02*
X11343800Y-9979500D01*
X11356500Y-7838600D02*
X11376500Y-7858600D01*
X11376500Y-7838600D02*
X11356500Y-7858600D01*
X11369200Y-11121550D02*
X11389200Y-11141550D01*
X11389200Y-11121550D02*
X11369200Y-11141550D01*
X11369200Y-11191400D02*
X11389200Y-11211400D01*
X11389200Y-11191400D02*
X11369200Y-11211400D01*
X11376820Y-9417210D02*
X11396820Y-9437210D01*
X11396820Y-9417210D02*
X11376820Y-9437210D01*
X11413650Y-11077100D02*
X11433650Y-11097100D01*
X11433650Y-11077100D02*
X11413650Y-11097100D01*
X11425080Y-9168290D02*
X11445080Y-9188290D01*
X11445080Y-9168290D02*
X11425080Y-9188290D01*
X11439050Y-11007250D02*
X11459050Y-11027250D01*
X11459050Y-11007250D02*
X11439050Y-11027250D01*
X11458100Y-10797700D02*
X11478100Y-10817700D01*
X11478100Y-10797700D02*
X11458100Y-10817700D01*
X11459370Y-8973980D02*
X11479370Y-8993980D01*
X11479370Y-8973980D02*
X11459370Y-8993980D01*
X11470800Y-8849520D02*
X11490800Y-8869520D01*
X11490800Y-8849520D02*
X11470800Y-8869520D01*
X11483500Y-7822090D02*
X11503500Y-7842090D01*
X11503500Y-7822090D02*
X11483500Y-7842090D01*
X11498740Y-8664100D02*
X11518740Y-8684100D01*
X11518740Y-8664100D02*
X11498740Y-8684100D01*
X11503820Y-8615840D02*
X11523820Y-8635840D01*
X11523820Y-8615840D02*
X11503820Y-8635840D01*
X11508900Y-8270400D02*
X11528900Y-8290400D01*
X11528900Y-8270400D02*
X11508900Y-8290400D01*
X11543190Y-8495190D02*
X11563190Y-8515190D01*
X11563190Y-8495190D02*
X11543190Y-8515190D01*
X11547000Y-8225950D02*
X11567000Y-8245950D01*
X11567000Y-8225950D02*
X11547000Y-8245950D01*
X11547000Y-8351680D02*
X11567000Y-8371680D01*
X11567000Y-8351680D02*
X11547000Y-8371680D01*
X11547000Y-8403750D02*
X11567000Y-8423750D01*
X11567000Y-8403750D02*
X11547000Y-8423750D01*
X11553350Y-11102500D02*
X11573350Y-11122500D01*
X11573350Y-11102500D02*
X11553350Y-11122500D01*
X11554620Y-8681880D02*
X11574620Y-8701880D01*
X11574620Y-8681880D02*
X11554620Y-8701880D01*
X11557160Y-8628540D02*
X11577160Y-8648540D01*
X11577160Y-8628540D02*
X11557160Y-8648540D01*
X11559700Y-8016400D02*
X11579700Y-8036400D01*
X11579700Y-8016400D02*
X11559700Y-8036400D01*
X11562240Y-8298340D02*
X11582240Y-8318340D01*
X11582240Y-8298340D02*
X11562240Y-8318340D01*
X11566050Y-11013600D02*
X11586050Y-11033600D01*
X11586050Y-11013600D02*
X11566050Y-11033600D01*
X11572400Y-7529990D02*
X11592400Y-7549990D01*
X11592400Y-7529990D02*
X11572400Y-7549990D01*
X11572400Y-8162450D02*
X11592400Y-8182450D01*
X11592400Y-8162450D02*
X11572400Y-8182450D01*
X11584277Y-10777827D02*
X11604277Y-10797827D01*
X11604277Y-10777827D02*
X11584277Y-10797827D01*
X11591450Y-11216800D02*
X11611450Y-11236800D01*
X11611450Y-11216800D02*
X11591450Y-11236800D01*
X11604150Y-8219600D02*
X11624150Y-8239600D01*
X11624150Y-8219600D02*
X11604150Y-8239600D01*
X11604150Y-11146950D02*
X11624150Y-11166950D01*
X11624150Y-11146950D02*
X11604150Y-11166950D01*
X11613040Y-8351680D02*
X11633040Y-8371680D01*
X11633040Y-8351680D02*
X11613040Y-8371680D01*
X11623200Y-8295800D02*
X11643200Y-8315800D01*
X11643200Y-8295800D02*
X11623200Y-8315800D01*
X11643520Y-7985920D02*
X11663520Y-8005920D01*
X11663520Y-7985920D02*
X11643520Y-8005920D01*
X11653680Y-7650640D02*
X11673680Y-7670640D01*
X11673680Y-7650640D02*
X11653680Y-7670640D01*
X11661300Y-11146950D02*
X11681300Y-11166950D01*
X11681300Y-11146950D02*
X11661300Y-11166950D01*
X11668920Y-8036720D02*
X11688920Y-8056720D01*
X11688920Y-8036720D02*
X11668920Y-8056720D01*
X11674000Y-9835040D02*
X11694000Y-9855040D01*
X11694000Y-9835040D02*
X11674000Y-9855040D01*
X11676512Y-7461624D02*
X11696512Y-7481624D01*
X11696512Y-7461624D02*
X11676512Y-7481624D01*
X11681620Y-10075070D02*
X11701620Y-10095070D01*
X11701620Y-10075070D02*
X11681620Y-10095070D01*
X11696122Y-7510903D02*
X11716122Y-7530903D01*
X11716122Y-7510903D02*
X11696122Y-7530903D01*
X11705750Y-8111650D02*
X11725750Y-8131650D01*
X11725750Y-8111650D02*
X11705750Y-8131650D01*
X11712100Y-11559700D02*
X11732100Y-11579700D01*
X11732100Y-11559700D02*
X11712100Y-11579700D01*
X11713370Y-10768490D02*
X11733370Y-10788490D01*
X11733370Y-10768490D02*
X11713370Y-10788490D01*
X11718450Y-11400950D02*
X11738450Y-11420950D01*
X11738450Y-11400950D02*
X11718450Y-11420950D01*
X11718450Y-11458100D02*
X11738450Y-11478100D01*
X11738450Y-11458100D02*
X11718450Y-11478100D01*
X11719720Y-7670960D02*
X11739720Y-7690960D01*
X11739720Y-7670960D02*
X11719720Y-7690960D01*
X11722818Y-7437175D02*
X11742818Y-7457175D01*
X11742818Y-7437175D02*
X11722818Y-7457175D01*
X11724800Y-8168800D02*
X11744800Y-8188800D01*
X11744800Y-8168800D02*
X11724800Y-8188800D01*
X11742648Y-7488984D02*
X11762648Y-7508984D01*
X11762648Y-7488984D02*
X11742648Y-7508984D01*
X11769218Y-7384672D02*
X11789218Y-7404672D01*
X11789218Y-7384672D02*
X11769218Y-7404672D01*
X11769250Y-11324750D02*
X11789250Y-11344750D01*
X11789250Y-11324750D02*
X11769250Y-11344750D01*
X11775600Y-11502550D02*
X11795600Y-11522550D01*
X11795600Y-11502550D02*
X11775600Y-11522550D01*
X11785760Y-8686960D02*
X11805760Y-8706960D01*
X11805760Y-8686960D02*
X11785760Y-8706960D01*
X11795920Y-10978040D02*
X11815920Y-10998040D01*
X11815920Y-10978040D02*
X11795920Y-10998040D01*
X11808620Y-10104280D02*
X11828620Y-10124280D01*
X11828620Y-10104280D02*
X11808620Y-10124280D01*
X11813700Y-11115200D02*
X11833700Y-11135200D01*
X11833700Y-11115200D02*
X11813700Y-11135200D01*
X11826400Y-11324750D02*
X11846400Y-11344750D01*
X11846400Y-11324750D02*
X11826400Y-11344750D01*
X11845450Y-10658000D02*
X11865450Y-10678000D01*
X11865450Y-10658000D02*
X11845450Y-10678000D01*
X11845450Y-11578750D02*
X11865450Y-11598750D01*
X11865450Y-11578750D02*
X11845450Y-11598750D01*
X11851800Y-11502550D02*
X11871800Y-11522550D01*
X11871800Y-11502550D02*
X11851800Y-11522550D01*
X11858150Y-8048150D02*
X11878150Y-8068150D01*
X11878150Y-8048150D02*
X11858150Y-8068150D01*
X11867040Y-10434480D02*
X11887040Y-10454480D01*
X11887040Y-10434480D02*
X11867040Y-10454480D01*
X11870850Y-8372000D02*
X11890850Y-8392000D01*
X11890850Y-8372000D02*
X11870850Y-8392000D01*
X11877200Y-11324750D02*
X11897200Y-11344750D01*
X11897200Y-11324750D02*
X11877200Y-11344750D01*
X11882793Y-7866828D02*
X11902793Y-7886828D01*
X11902793Y-7866828D02*
X11882793Y-7886828D01*
X11883550Y-10626250D02*
X11903550Y-10646250D01*
X11903550Y-10626250D02*
X11883550Y-10646250D01*
X11885797Y-7930307D02*
X11905797Y-7950307D01*
X11905797Y-7930307D02*
X11885797Y-7950307D01*
X11896250Y-10689750D02*
X11916250Y-10709750D01*
X11916250Y-10689750D02*
X11896250Y-10709750D01*
X11915300Y-8029100D02*
X11935300Y-8049100D01*
X11935300Y-8029100D02*
X11915300Y-8049100D01*
X11928000Y-8372000D02*
X11948000Y-8392000D01*
X11948000Y-8372000D02*
X11928000Y-8392000D01*
X11928000Y-10600850D02*
X11948000Y-10620850D01*
X11948000Y-10600850D02*
X11928000Y-10620850D01*
X11940700Y-10651650D02*
X11960700Y-10671650D01*
X11960700Y-10651650D02*
X11940700Y-10671650D01*
X11956077Y-7888463D02*
X11976077Y-7908463D01*
X11976077Y-7888463D02*
X11956077Y-7908463D01*
X11963560Y-11668920D02*
X11983560Y-11688920D01*
X11983560Y-11668920D02*
X11963560Y-11688920D01*
X11972450Y-10689750D02*
X11992450Y-10709750D01*
X11992450Y-10689750D02*
X11972450Y-10709750D01*
X11978800Y-10588150D02*
X11998800Y-10608150D01*
X11998800Y-10588150D02*
X11978800Y-10608150D01*
X11985150Y-8378350D02*
X12005150Y-8398350D01*
X12005150Y-8378350D02*
X11985150Y-8398350D01*
X11986420Y-10114440D02*
X12006420Y-10134440D01*
X12006420Y-10114440D02*
X11986420Y-10134440D01*
X11991500Y-9470550D02*
X12011500Y-9490550D01*
X12011500Y-9470550D02*
X11991500Y-9490550D01*
X11991500Y-10632600D02*
X12011500Y-10652600D01*
X12011500Y-10632600D02*
X11991500Y-10652600D01*
X12004200Y-9375300D02*
X12024200Y-9395300D01*
X12024200Y-9375300D02*
X12004200Y-9395300D01*
X12004200Y-10912000D02*
X12024200Y-10932000D01*
X12024200Y-10912000D02*
X12004200Y-10932000D01*
X12019440Y-11059320D02*
X12039440Y-11079320D01*
X12039440Y-11059320D02*
X12019440Y-11079320D01*
X12023250Y-9261000D02*
X12043250Y-9281000D01*
X12043250Y-9261000D02*
X12023250Y-9281000D01*
X12023250Y-10683400D02*
X12043250Y-10703400D01*
X12043250Y-10683400D02*
X12023250Y-10703400D01*
X12029600Y-9159400D02*
X12049600Y-9179400D01*
X12049600Y-9159400D02*
X12029600Y-9179400D01*
X12035950Y-10600850D02*
X12055950Y-10620850D01*
X12055950Y-10600850D02*
X12035950Y-10620850D01*
X12042300Y-8137050D02*
X12062300Y-8157050D01*
X12062300Y-8137050D02*
X12042300Y-8157050D01*
X12042300Y-8391050D02*
X12062300Y-8411050D01*
X12062300Y-8391050D02*
X12042300Y-8411050D01*
X12049920Y-10815480D02*
X12069920Y-10835480D01*
X12069920Y-10815480D02*
X12049920Y-10835480D01*
X12055000Y-10645300D02*
X12075000Y-10665300D01*
X12075000Y-10645300D02*
X12055000Y-10665300D01*
X12075320Y-11084720D02*
X12095320Y-11104720D01*
X12095320Y-11084720D02*
X12075320Y-11104720D01*
X12080400Y-8086250D02*
X12100400Y-8106250D01*
X12100400Y-8086250D02*
X12080400Y-8106250D01*
X12080400Y-9476900D02*
X12100400Y-9496900D01*
X12100400Y-9476900D02*
X12080400Y-9496900D01*
X12086750Y-10683400D02*
X12106750Y-10703400D01*
X12106750Y-10683400D02*
X12086750Y-10703400D01*
X12093100Y-8397400D02*
X12113100Y-8417400D01*
X12113100Y-8397400D02*
X12093100Y-8417400D01*
X12118500Y-9273700D02*
X12138500Y-9293700D01*
X12138500Y-9273700D02*
X12118500Y-9293700D01*
X12120524Y-10003196D02*
X12140524Y-10023196D01*
X12140524Y-10003196D02*
X12120524Y-10023196D01*
X12131200Y-9362600D02*
X12151200Y-9382600D01*
X12151200Y-9362600D02*
X12131200Y-9382600D01*
X12137550Y-9172100D02*
X12157550Y-9192100D01*
X12157550Y-9172100D02*
X12137550Y-9192100D01*
X12146440Y-11084720D02*
X12166440Y-11104720D01*
X12166440Y-11084720D02*
X12146440Y-11104720D01*
X12150250Y-8403750D02*
X12170250Y-8423750D01*
X12170250Y-8403750D02*
X12150250Y-8423750D01*
X12152790Y-10177940D02*
X12172790Y-10197940D01*
X12172790Y-10177940D02*
X12152790Y-10197940D01*
X12156600Y-10830720D02*
X12176600Y-10850720D01*
X12176600Y-10830720D02*
X12156600Y-10850720D01*
X12158637Y-7289409D02*
X12178637Y-7309409D01*
X12178637Y-7289409D02*
X12158637Y-7309409D01*
X12182000Y-11573670D02*
X12202000Y-11593670D01*
X12202000Y-11573670D02*
X12182000Y-11593670D01*
X12187080Y-11033920D02*
X12207080Y-11053920D01*
X12207080Y-11033920D02*
X12187080Y-11053920D01*
X12197240Y-10967880D02*
X12217240Y-10987880D01*
X12217240Y-10967880D02*
X12197240Y-10987880D01*
X12201050Y-9495950D02*
X12221050Y-9515950D01*
X12221050Y-9495950D02*
X12201050Y-9515950D01*
X12207400Y-8410100D02*
X12227400Y-8430100D01*
X12227400Y-8410100D02*
X12207400Y-8430100D01*
X12212480Y-10906920D02*
X12232480Y-10926920D01*
X12232480Y-10906920D02*
X12212480Y-10926920D01*
X12225771Y-10080829D02*
X12245771Y-10100829D01*
X12245771Y-10080829D02*
X12225771Y-10100829D01*
X12232800Y-9305450D02*
X12252800Y-9325450D01*
X12252800Y-9305450D02*
X12232800Y-9325450D01*
X12245500Y-9394350D02*
X12265500Y-9414350D01*
X12265500Y-9394350D02*
X12245500Y-9414350D01*
X12264550Y-8416450D02*
X12284550Y-8436450D01*
X12284550Y-8416450D02*
X12264550Y-8436450D01*
X12277250Y-9191150D02*
X12297250Y-9211150D01*
X12297250Y-9191150D02*
X12277250Y-9211150D01*
X12278520Y-7695090D02*
X12298520Y-7715090D01*
X12298520Y-7695090D02*
X12278520Y-7715090D01*
X12281103Y-7523466D02*
X12301103Y-7543466D01*
X12301103Y-7523466D02*
X12281103Y-7543466D01*
X12302650Y-8454550D02*
X12322650Y-8474550D01*
X12322650Y-8454550D02*
X12302650Y-8474550D01*
X12302650Y-11146950D02*
X12322650Y-11166950D01*
X12322650Y-11146950D02*
X12302650Y-11166950D01*
X12312162Y-7587041D02*
X12332162Y-7607041D01*
X12332162Y-7587041D02*
X12312162Y-7607041D01*
X12315350Y-9527700D02*
X12335350Y-9547700D01*
X12335350Y-9527700D02*
X12315350Y-9547700D01*
X12329320Y-8778400D02*
X12349320Y-8798400D01*
X12349320Y-8778400D02*
X12329320Y-8798400D01*
X12347100Y-9324500D02*
X12367100Y-9344500D01*
X12367100Y-9324500D02*
X12347100Y-9344500D01*
X12347100Y-9407050D02*
X12367100Y-9427050D01*
X12367100Y-9407050D02*
X12347100Y-9427050D01*
X12349640Y-10219850D02*
X12369640Y-10239850D01*
X12369640Y-10219850D02*
X12349640Y-10239850D01*
X12361070Y-11831480D02*
X12381070Y-11851480D01*
X12381070Y-11831480D02*
X12361070Y-11851480D01*
X12378850Y-9210200D02*
X12398850Y-9230200D01*
X12398850Y-9210200D02*
X12378850Y-9230200D01*
X12385956Y-7323065D02*
X12405956Y-7343065D01*
X12405956Y-7323065D02*
X12385956Y-7343065D01*
X12418220Y-11356500D02*
X12438220Y-11376500D01*
X12438220Y-11356500D02*
X12418220Y-11376500D01*
X12423625Y-7403909D02*
X12443625Y-7423909D01*
X12443625Y-7403909D02*
X12423625Y-7423909D01*
X12433460Y-10231280D02*
X12453460Y-10251280D01*
X12453460Y-10231280D02*
X12433460Y-10251280D01*
X12438623Y-8328903D02*
X12458623Y-8348903D01*
X12458623Y-8328903D02*
X12438623Y-8348903D01*
X12439219Y-7349001D02*
X12459219Y-7369001D01*
X12459219Y-7349001D02*
X12439219Y-7369001D01*
X12458860Y-11644790D02*
X12478860Y-11664790D01*
X12478860Y-11644790D02*
X12458860Y-11664790D01*
X12480178Y-7409160D02*
X12500178Y-7429160D01*
X12500178Y-7409160D02*
X12480178Y-7429160D01*
X12495705Y-7644924D02*
X12515705Y-7664924D01*
X12515705Y-7644924D02*
X12495705Y-7664924D01*
X12521383Y-8269423D02*
X12541383Y-8289423D01*
X12541383Y-8269423D02*
X12521383Y-8289423D01*
X12543950Y-11851800D02*
X12563950Y-11871800D01*
X12563950Y-11851800D02*
X12543950Y-11871800D01*
X12549601Y-7619811D02*
X12569601Y-7639811D01*
X12569601Y-7619811D02*
X12549601Y-7639811D01*
X12592048Y-7580402D02*
X12612048Y-7600402D01*
X12612048Y-7580402D02*
X12592048Y-7600402D01*
X12593480Y-11595260D02*
X12613480Y-11615260D01*
X12613480Y-11595260D02*
X12593480Y-11615260D01*
X12607450Y-8130700D02*
X12627450Y-8150700D01*
X12627450Y-8130700D02*
X12607450Y-8150700D01*
X12607450Y-8200550D02*
X12627450Y-8220550D01*
X12627450Y-8200550D02*
X12607450Y-8220550D01*
X12636660Y-11505090D02*
X12656660Y-11525090D01*
X12656660Y-11505090D02*
X12636660Y-11525090D01*
X12649360Y-8839360D02*
X12669360Y-8859360D01*
X12669360Y-8839360D02*
X12649360Y-8859360D01*
X12654440Y-7884320D02*
X12674440Y-7904320D01*
X12674440Y-7884320D02*
X12654440Y-7904320D01*
X12664600Y-7985920D02*
X12684600Y-8005920D01*
X12684600Y-7985920D02*
X12664600Y-8005920D01*
X12674760Y-7797960D02*
X12694760Y-7817960D01*
X12694760Y-7797960D02*
X12674760Y-7817960D01*
X12682380Y-7173120D02*
X12702380Y-7193120D01*
X12702380Y-7173120D02*
X12682380Y-7193120D01*
X12725560Y-7110890D02*
X12745560Y-7130890D01*
X12745560Y-7110890D02*
X12725560Y-7130890D01*
X12740800Y-11439050D02*
X12760800Y-11459050D01*
X12760800Y-11439050D02*
X12740800Y-11459050D01*
X12740800Y-11844180D02*
X12760800Y-11864180D01*
X12760800Y-11844180D02*
X12740800Y-11864180D01*
X12758580Y-7197250D02*
X12778580Y-7217250D01*
X12778580Y-7197250D02*
X12758580Y-7217250D01*
X12776360Y-8859680D02*
X12796360Y-8879680D01*
X12796360Y-8859680D02*
X12776360Y-8879680D01*
X12782710Y-11388250D02*
X12802710Y-11408250D01*
X12802710Y-11388250D02*
X12782710Y-11408250D01*
X12791600Y-11049160D02*
X12811600Y-11069160D01*
X12811600Y-11049160D02*
X12791600Y-11069160D01*
X12796680Y-10162700D02*
X12816680Y-10182700D01*
X12816680Y-10162700D02*
X12796680Y-10182700D01*
X12801760Y-8940960D02*
X12821760Y-8960960D01*
X12821760Y-8940960D02*
X12801760Y-8960960D01*
X12806840Y-10998360D02*
X12826840Y-11018360D01*
X12826840Y-10998360D02*
X12806840Y-11018360D01*
X12819540Y-11710830D02*
X12839540Y-11730830D01*
X12839540Y-11710830D02*
X12819540Y-11730830D01*
X12861450Y-11632090D02*
X12881450Y-11652090D01*
X12881450Y-11632090D02*
X12861450Y-11652090D01*
X12867800Y-11008520D02*
X12887800Y-11028520D01*
X12887800Y-11008520D02*
X12867800Y-11028520D01*
X12890660Y-10170320D02*
X12910660Y-10190320D01*
X12910660Y-10170320D02*
X12890660Y-10190320D01*
X12903360Y-8128160D02*
X12923360Y-8148160D01*
X12923360Y-8128160D02*
X12903360Y-8148160D01*
X12903360Y-11839100D02*
X12923360Y-11859100D01*
X12923360Y-11839100D02*
X12903360Y-11859100D01*
X12913520Y-8961280D02*
X12933520Y-8981280D01*
X12933520Y-8961280D02*
X12913520Y-8981280D01*
X12923680Y-7686200D02*
X12943680Y-7706200D01*
X12943680Y-7686200D02*
X12923680Y-7706200D01*
X12924950Y-11719720D02*
X12944950Y-11739720D01*
X12944950Y-11719720D02*
X12924950Y-11739720D01*
X12933840Y-11367930D02*
X12953840Y-11387930D01*
X12953840Y-11367930D02*
X12933840Y-11387930D01*
X12947810Y-11658760D02*
X12967810Y-11678760D01*
X12967810Y-11658760D02*
X12947810Y-11678760D01*
X12951620Y-7415690D02*
X12971620Y-7435690D01*
X12971620Y-7415690D02*
X12951620Y-7435690D01*
X12964320Y-9210200D02*
X12984320Y-9230200D01*
X12984320Y-9210200D02*
X12964320Y-9230200D01*
X12968130Y-7466490D02*
X12988130Y-7486490D01*
X12988130Y-7466490D02*
X12968130Y-7486490D01*
X12980830Y-11407300D02*
X13000830Y-11427300D01*
X13000830Y-11407300D02*
X12980830Y-11427300D01*
X12984640Y-8575200D02*
X13004640Y-8595200D01*
X13004640Y-8575200D02*
X12984640Y-8595200D01*
X13004960Y-9001920D02*
X13024960Y-9021920D01*
X13024960Y-9001920D02*
X13004960Y-9021920D01*
X13015120Y-7914800D02*
X13035120Y-7934800D01*
X13035120Y-7914800D02*
X13015120Y-7934800D01*
X13017660Y-9141620D02*
X13037660Y-9161620D01*
X13037660Y-9141620D02*
X13017660Y-9161620D01*
X13018930Y-11459370D02*
X13038930Y-11479370D01*
X13038930Y-11459370D02*
X13018930Y-11479370D01*
X13024010Y-7477920D02*
X13044010Y-7497920D01*
X13044010Y-7477920D02*
X13024010Y-7497920D01*
X13030360Y-7747160D02*
X13050360Y-7767160D01*
X13050360Y-7747160D02*
X13030360Y-7767160D01*
X13032270Y-10375323D02*
X13052270Y-10395323D01*
X13052270Y-10375323D02*
X13032270Y-10395323D01*
X13040520Y-8422800D02*
X13060520Y-8442800D01*
X13060520Y-8422800D02*
X13040520Y-8442800D01*
X13051950Y-11051700D02*
X13071950Y-11071700D01*
X13071950Y-11051700D02*
X13051950Y-11071700D01*
X13063380Y-11535570D02*
X13083380Y-11555570D01*
X13083380Y-11535570D02*
X13063380Y-11555570D01*
X13082430Y-11781950D02*
X13102430Y-11801950D01*
X13102430Y-11781950D02*
X13082430Y-11801950D01*
X13083700Y-11102500D02*
X13103700Y-11122500D01*
X13103700Y-11102500D02*
X13083700Y-11122500D01*
X13084723Y-11860068D02*
X13104723Y-11880068D01*
X13104723Y-11860068D02*
X13084723Y-11880068D01*
X13091320Y-7833520D02*
X13111320Y-7853520D01*
X13111320Y-7833520D02*
X13091320Y-7853520D01*
X13091320Y-8166260D02*
X13111320Y-8186260D01*
X13111320Y-8166260D02*
X13091320Y-8186260D01*
X13096400Y-9083200D02*
X13116400Y-9103200D01*
X13116400Y-9083200D02*
X13096400Y-9103200D01*
X13097670Y-11709560D02*
X13117670Y-11729560D01*
X13117670Y-11709560D02*
X13097670Y-11729560D01*
X13098048Y-11922362D02*
X13118048Y-11942362D01*
X13118048Y-11922362D02*
X13098048Y-11942362D01*
X13101480Y-8229760D02*
X13121480Y-8249760D01*
X13121480Y-8229760D02*
X13101480Y-8249760D01*
X13101480Y-8595520D02*
X13121480Y-8615520D01*
X13121480Y-8595520D02*
X13101480Y-8615520D01*
X13106831Y-7629259D02*
X13126831Y-7649259D01*
X13126831Y-7629259D02*
X13106831Y-7649259D01*
X13111640Y-9007000D02*
X13131640Y-9027000D01*
X13131640Y-9007000D02*
X13111640Y-9027000D01*
X13124340Y-11820050D02*
X13144340Y-11840050D01*
X13144340Y-11820050D02*
X13124340Y-11840050D01*
X13126880Y-8123080D02*
X13146880Y-8143080D01*
X13146880Y-8123080D02*
X13126880Y-8143080D01*
X13126880Y-8427880D02*
X13146880Y-8447880D01*
X13146880Y-8427880D02*
X13126880Y-8447880D01*
X13126880Y-10368440D02*
X13146880Y-10388440D01*
X13146880Y-10368440D02*
X13126880Y-10388440D01*
X13126880Y-11751470D02*
X13146880Y-11771470D01*
X13146880Y-11751470D02*
X13126880Y-11771470D01*
X13128150Y-11070750D02*
X13148150Y-11090750D01*
X13148150Y-11070750D02*
X13128150Y-11090750D01*
X13138223Y-11682657D02*
X13158223Y-11702657D01*
X13158223Y-11682657D02*
X13138223Y-11702657D01*
X13139730Y-11888693D02*
X13159730Y-11908693D01*
X13159730Y-11888693D02*
X13139730Y-11908693D01*
X13147200Y-10297320D02*
X13167200Y-10317320D01*
X13167200Y-10297320D02*
X13147200Y-10317320D01*
X13147200Y-11127900D02*
X13167200Y-11147900D01*
X13167200Y-11127900D02*
X13147200Y-11147900D01*
X13186155Y-11929977D02*
X13206155Y-11949977D01*
X13206155Y-11929977D02*
X13186155Y-11949977D01*
X13192920Y-7965600D02*
X13212920Y-7985600D01*
X13212920Y-7965600D02*
X13192920Y-7985600D01*
X13205025Y-11684110D02*
X13225025Y-11704110D01*
X13225025Y-11684110D02*
X13205025Y-11704110D01*
X13210700Y-7703980D02*
X13230700Y-7723980D01*
X13230700Y-7703980D02*
X13210700Y-7723980D01*
X13223400Y-7904640D02*
X13243400Y-7924640D01*
X13243400Y-7904640D02*
X13223400Y-7924640D01*
X13224656Y-11891603D02*
X13244656Y-11911603D01*
X13244656Y-11891603D02*
X13224656Y-11911603D01*
X13225940Y-7810660D02*
X13245940Y-7830660D01*
X13245940Y-7810660D02*
X13225940Y-7830660D01*
X13261090Y-11681853D02*
X13281090Y-11701853D01*
X13281090Y-11681853D02*
X13261090Y-11701853D01*
X13261500Y-7737000D02*
X13281500Y-7757000D01*
X13281500Y-7737000D02*
X13261500Y-7757000D01*
X13263427Y-10099813D02*
X13283427Y-10119813D01*
X13283427Y-10099813D02*
X13263427Y-10119813D01*
X13272440Y-11923741D02*
X13292440Y-11943741D01*
X13292440Y-11923741D02*
X13272440Y-11943741D01*
X13281820Y-7853840D02*
X13301820Y-7873840D01*
X13301820Y-7853840D02*
X13281820Y-7873840D01*
X13314840Y-8793640D02*
X13334840Y-8813640D01*
X13334840Y-8793640D02*
X13314840Y-8813640D01*
X13318149Y-11687150D02*
X13338149Y-11707150D01*
X13338149Y-11687150D02*
X13318149Y-11707150D01*
X13322195Y-7472575D02*
X13342195Y-7492575D01*
X13342195Y-7472575D02*
X13322195Y-7492575D01*
X13330080Y-7587140D02*
X13350080Y-7607140D01*
X13350080Y-7587140D02*
X13330080Y-7607140D01*
X13332744Y-11895306D02*
X13352744Y-11915306D01*
X13352744Y-11895306D02*
X13332744Y-11915306D01*
X13387469Y-11688272D02*
X13407469Y-11708272D01*
X13407469Y-11688272D02*
X13387469Y-11708272D01*
X13388500Y-9622950D02*
X13408500Y-9642950D01*
X13408500Y-9622950D02*
X13388500Y-9642950D01*
X13391040Y-7556660D02*
X13411040Y-7576660D01*
X13411040Y-7556660D02*
X13391040Y-7576660D01*
X13397027Y-11897091D02*
X13417027Y-11917091D01*
X13417027Y-11897091D02*
X13397027Y-11917091D01*
X13401200Y-8824120D02*
X13421200Y-8844120D01*
X13421200Y-8824120D02*
X13401200Y-8844120D01*
X13413900Y-8721250D02*
X13433900Y-8741250D01*
X13433900Y-8721250D02*
X13413900Y-8741250D01*
X13425969Y-11649898D02*
X13445969Y-11669898D01*
X13445969Y-11649898D02*
X13425969Y-11669898D01*
X13454540Y-8399940D02*
X13474540Y-8419940D01*
X13474540Y-8399940D02*
X13454540Y-8419940D01*
X13457080Y-11893710D02*
X13477080Y-11913710D01*
X13477080Y-11893710D02*
X13457080Y-11913710D01*
X13457451Y-11694430D02*
X13477451Y-11714430D01*
X13477451Y-11694430D02*
X13457451Y-11714430D01*
X13462160Y-8265320D02*
X13482160Y-8285320D01*
X13482160Y-8265320D02*
X13462160Y-8285320D01*
X13463420Y-7450179D02*
X13483420Y-7470179D01*
X13483420Y-7450179D02*
X13463420Y-7470179D01*
X13472087Y-7403526D02*
X13492087Y-7423526D01*
X13492087Y-7403526D02*
X13472087Y-7423526D01*
X13483750Y-9730900D02*
X13503750Y-9750900D01*
X13503750Y-9730900D02*
X13483750Y-9750900D01*
X13509150Y-8683150D02*
X13529150Y-8703150D01*
X13529150Y-8683150D02*
X13509150Y-8703150D01*
X13512960Y-8844440D02*
X13532960Y-8864440D01*
X13532960Y-8844440D02*
X13512960Y-8864440D01*
X13553600Y-9654700D02*
X13573600Y-9674700D01*
X13573600Y-9654700D02*
X13553600Y-9674700D01*
X13553600Y-9711850D02*
X13573600Y-9731850D01*
X13573600Y-9711850D02*
X13553600Y-9731850D01*
X13584520Y-7643460D02*
X13604520Y-7663460D01*
X13604520Y-7643460D02*
X13584520Y-7663460D01*
X13591700Y-11718450D02*
X13611700Y-11738450D01*
X13611700Y-11718450D02*
X13591700Y-11738450D01*
X13604400Y-7983380D02*
X13624400Y-8003380D01*
X13624400Y-7983380D02*
X13604400Y-8003380D01*
X13606940Y-8039260D02*
X13626940Y-8059260D01*
X13626940Y-8039260D02*
X13606940Y-8059260D01*
X13607459Y-7493670D02*
X13627459Y-7513670D01*
X13627459Y-7493670D02*
X13607459Y-7513670D01*
X13617100Y-7935120D02*
X13637100Y-7955120D01*
X13637100Y-7935120D02*
X13617100Y-7955120D01*
X13619639Y-7224886D02*
X13639639Y-7244886D01*
X13639639Y-7224886D02*
X13619639Y-7244886D01*
X13625990Y-11775600D02*
X13645990Y-11795600D01*
X13645990Y-11775600D02*
X13625990Y-11795600D01*
X13630296Y-7404983D02*
X13650296Y-7424983D01*
X13650296Y-7404983D02*
X13630296Y-7424983D01*
X13631070Y-11827670D02*
X13651070Y-11847670D01*
X13651070Y-11827670D02*
X13631070Y-11847670D01*
X13678060Y-7691280D02*
X13698060Y-7711280D01*
X13698060Y-7691280D02*
X13678060Y-7711280D01*
X13685680Y-8303420D02*
X13705680Y-8323420D01*
X13705680Y-8303420D02*
X13685680Y-8323420D01*
X13696147Y-7516508D02*
X13716147Y-7536508D01*
X13716147Y-7516508D02*
X13696147Y-7536508D01*
X13698380Y-11014870D02*
X13718380Y-11034870D01*
X13718380Y-11014870D02*
X13698380Y-11034870D01*
X13712350Y-10302400D02*
X13732350Y-10322400D01*
X13732350Y-10302400D02*
X13712350Y-10322400D01*
X13713620Y-8369460D02*
X13733620Y-8389460D01*
X13733620Y-8369460D02*
X13713620Y-8389460D01*
X13716160Y-8549800D02*
X13736160Y-8569800D01*
X13736160Y-8549800D02*
X13716160Y-8569800D01*
X13718700Y-7749700D02*
X13738700Y-7769700D01*
X13738700Y-7749700D02*
X13718700Y-7769700D01*
X13721240Y-8478680D02*
X13741240Y-8498680D01*
X13741240Y-8478680D02*
X13721240Y-8498680D01*
X13721736Y-7430129D02*
X13741736Y-7450129D01*
X13741736Y-7430129D02*
X13721736Y-7450129D01*
X13726320Y-10925970D02*
X13746320Y-10945970D01*
X13746320Y-10925970D02*
X13726320Y-10945970D01*
X13735210Y-11079640D02*
X13755210Y-11099640D01*
X13755210Y-11079640D02*
X13735210Y-11099640D01*
X13737750Y-8619650D02*
X13757750Y-8639650D01*
X13757750Y-8619650D02*
X13737750Y-8639650D01*
X13746640Y-8295800D02*
X13766640Y-8315800D01*
X13766640Y-8295800D02*
X13746640Y-8315800D01*
X13748870Y-10701586D02*
X13768870Y-10721586D01*
X13768870Y-10701586D02*
X13748870Y-10721586D01*
X13763150Y-11141870D02*
X13783150Y-11161870D01*
X13783150Y-11141870D02*
X13763150Y-11161870D01*
X13769500Y-10302400D02*
X13789500Y-10322400D01*
X13789500Y-10302400D02*
X13769500Y-10322400D01*
X13789820Y-11192670D02*
X13809820Y-11212670D01*
X13809820Y-11192670D02*
X13789820Y-11212670D01*
X13792360Y-10892950D02*
X13812360Y-10912950D01*
X13812360Y-10892950D02*
X13792360Y-10912950D01*
X13826650Y-8626000D02*
X13846650Y-8646000D01*
X13846650Y-8626000D02*
X13826650Y-8646000D01*
X13833000Y-10334150D02*
X13853000Y-10354150D01*
X13853000Y-10334150D02*
X13833000Y-10354150D01*
X13844430Y-11233310D02*
X13864430Y-11253310D01*
X13864430Y-11233310D02*
X13844430Y-11253310D01*
X13864750Y-10901840D02*
X13884750Y-10921840D01*
X13884750Y-10901840D02*
X13864750Y-10921840D01*
X13885131Y-7461728D02*
X13905131Y-7481728D01*
X13905131Y-7461728D02*
X13885131Y-7481728D01*
X13896500Y-11585100D02*
X13916500Y-11605100D01*
X13916500Y-11585100D02*
X13896500Y-11605100D01*
X13897500Y-7340810D02*
X13917500Y-7360810D01*
X13917500Y-7340810D02*
X13897500Y-7360810D01*
X13897770Y-10966610D02*
X13917770Y-10986610D01*
X13917770Y-10966610D02*
X13897770Y-10986610D01*
X13904120Y-8422800D02*
X13924120Y-8442800D01*
X13924120Y-8422800D02*
X13904120Y-8442800D01*
X13906660Y-11220610D02*
X13926660Y-11240610D01*
X13926660Y-11220610D02*
X13906660Y-11240610D01*
X13908538Y-7408686D02*
X13928538Y-7428686D01*
X13928538Y-7408686D02*
X13908538Y-7428686D01*
X13909187Y-8301719D02*
X13929187Y-8321719D01*
X13929187Y-8301719D02*
X13909187Y-8321719D01*
X13914280Y-8361840D02*
X13934280Y-8381840D01*
X13934280Y-8361840D02*
X13914280Y-8381840D01*
X13927992Y-8181513D02*
X13947992Y-8201513D01*
X13947992Y-8181513D02*
X13927992Y-8201513D01*
X13928250Y-11030110D02*
X13948250Y-11050110D01*
X13948250Y-11030110D02*
X13928250Y-11050110D01*
X13934600Y-8048150D02*
X13954600Y-8068150D01*
X13954600Y-8048150D02*
X13934600Y-8068150D01*
X13940950Y-11642250D02*
X13960950Y-11662250D01*
X13960950Y-11642250D02*
X13940950Y-11662250D01*
X13953515Y-7369055D02*
X13973515Y-7389055D01*
X13973515Y-7369055D02*
X13953515Y-7389055D01*
X13957460Y-11197750D02*
X13977460Y-11217750D01*
X13977460Y-11197750D02*
X13957460Y-11217750D01*
X13960000Y-7996080D02*
X13980000Y-8016080D01*
X13980000Y-7996080D02*
X13960000Y-8016080D01*
X13961270Y-11087260D02*
X13981270Y-11107260D01*
X13981270Y-11087260D02*
X13961270Y-11107260D01*
X13991750Y-11280300D02*
X14011750Y-11300300D01*
X14011750Y-11280300D02*
X13991750Y-11300300D01*
X14005720Y-9118760D02*
X14025720Y-9138760D01*
X14025720Y-9118760D02*
X14005720Y-9138760D01*
X14005720Y-9184800D02*
X14025720Y-9204800D01*
X14025720Y-9184800D02*
X14005720Y-9204800D01*
X14005720Y-9327040D02*
X14025720Y-9347040D01*
X14025720Y-9327040D02*
X14005720Y-9347040D01*
X14005720Y-9611520D02*
X14025720Y-9631520D01*
X14025720Y-9611520D02*
X14005720Y-9631520D01*
X14015880Y-8839360D02*
X14035880Y-8859360D01*
X14035880Y-8839360D02*
X14015880Y-8859360D01*
X14016235Y-7386515D02*
X14036235Y-7406515D01*
X14036235Y-7386515D02*
X14016235Y-7406515D01*
X14036200Y-8001160D02*
X14056200Y-8021160D01*
X14056200Y-8001160D02*
X14036200Y-8021160D01*
X14067950Y-11413650D02*
X14087950Y-11433650D01*
X14087950Y-11413650D02*
X14067950Y-11433650D01*
X14074300Y-11337450D02*
X14094300Y-11357450D01*
X14094300Y-11337450D02*
X14074300Y-11357450D01*
X14093350Y-11470800D02*
X14113350Y-11490800D01*
X14113350Y-11470800D02*
X14093350Y-11490800D01*
X14094620Y-8041800D02*
X14114620Y-8061800D01*
X14114620Y-8041800D02*
X14094620Y-8061800D01*
X14112400Y-11026300D02*
X14132400Y-11046300D01*
X14132400Y-11026300D02*
X14112400Y-11046300D01*
X14131450Y-11534300D02*
X14151450Y-11554300D01*
X14151450Y-11534300D02*
X14131450Y-11554300D01*
X14137800Y-11299350D02*
X14157800Y-11319350D01*
X14157800Y-11299350D02*
X14137800Y-11319350D01*
X14144150Y-11153300D02*
X14164150Y-11173300D01*
X14164150Y-11153300D02*
X14144150Y-11173300D01*
X14147960Y-8514240D02*
X14167960Y-8534240D01*
X14167960Y-8514240D02*
X14147960Y-8534240D01*
X14150500Y-11439050D02*
X14170500Y-11459050D01*
X14170500Y-11439050D02*
X14150500Y-11459050D01*
X14201300Y-11064400D02*
X14221300Y-11084400D01*
X14221300Y-11064400D02*
X14201300Y-11084400D01*
X14207650Y-11261250D02*
X14227650Y-11281250D01*
X14227650Y-11261250D02*
X14207650Y-11281250D01*
X14214000Y-11127900D02*
X14234000Y-11147900D01*
X14234000Y-11127900D02*
X14214000Y-11147900D01*
X14214000Y-11407300D02*
X14234000Y-11427300D01*
X14234000Y-11407300D02*
X14214000Y-11427300D01*
X14214000Y-11553350D02*
X14234000Y-11573350D01*
X14234000Y-11553350D02*
X14214000Y-11573350D01*
X14220350Y-8314850D02*
X14240350Y-8334850D01*
X14240350Y-8314850D02*
X14220350Y-8334850D01*
X14249560Y-8509160D02*
X14269560Y-8529160D01*
X14269560Y-8509160D02*
X14249560Y-8529160D01*
X14264800Y-11172350D02*
X14284800Y-11192350D01*
X14284800Y-11172350D02*
X14264800Y-11192350D01*
X14277500Y-11521600D02*
X14297500Y-11541600D01*
X14297500Y-11521600D02*
X14277500Y-11541600D01*
X14283850Y-11369200D02*
X14303850Y-11389200D01*
X14303850Y-11369200D02*
X14283850Y-11389200D01*
X14290200Y-8417720D02*
X14310200Y-8437720D01*
X14310200Y-8417720D02*
X14290200Y-8437720D01*
X14295280Y-8361840D02*
X14315280Y-8381840D01*
X14315280Y-8361840D02*
X14295280Y-8381840D01*
X14309250Y-11273950D02*
X14329250Y-11293950D01*
X14329250Y-11273950D02*
X14309250Y-11293950D01*
X14341000Y-11489850D02*
X14361000Y-11509850D01*
X14361000Y-11489850D02*
X14341000Y-11509850D01*
X14363860Y-11073290D02*
X14383860Y-11093290D01*
X14383860Y-11073290D02*
X14363860Y-11093290D01*
X14417200Y-7881780D02*
X14437200Y-7901780D01*
X14437200Y-7881780D02*
X14417200Y-7901780D01*
X14448950Y-10327800D02*
X14468950Y-10347800D01*
X14468950Y-10327800D02*
X14448950Y-10347800D01*
X14474350Y-10181750D02*
X14494350Y-10201750D01*
X14494350Y-10181750D02*
X14474350Y-10201750D01*
X14474350Y-10257950D02*
X14494350Y-10277950D01*
X14494350Y-10257950D02*
X14474350Y-10277950D01*
X14518800Y-10315100D02*
X14538800Y-10335100D01*
X14538800Y-10315100D02*
X14518800Y-10335100D01*
X14531500Y-10200800D02*
X14551500Y-10220800D01*
X14551500Y-10200800D02*
X14531500Y-10220800D01*
X14531500Y-10257950D02*
X14551500Y-10277950D01*
X14551500Y-10257950D02*
X14531500Y-10277950D01*
X14541660Y-8156100D02*
X14561660Y-8176100D01*
X14561660Y-8156100D02*
X14541660Y-8176100D01*
X14574680Y-8231030D02*
X14594680Y-8251030D01*
X14594680Y-8231030D02*
X14574680Y-8251030D01*
X14828680Y-9855360D02*
X14848680Y-9875360D01*
X14848680Y-9855360D02*
X14828680Y-9875360D01*
X14859160Y-9179720D02*
X14879160Y-9199720D01*
X14879160Y-9179720D02*
X14859160Y-9199720D01*
X14864240Y-8996840D02*
X14884240Y-9016840D01*
X14884240Y-8996840D02*
X14864240Y-9016840D01*
X14864240Y-10414160D02*
X14884240Y-10434160D01*
X14884240Y-10414160D02*
X14864240Y-10434160D01*
X14869320Y-9327040D02*
X14889320Y-9347040D01*
X14889320Y-9327040D02*
X14869320Y-9347040D01*
X14869320Y-9433720D02*
X14889320Y-9453720D01*
X14889320Y-9433720D02*
X14869320Y-9453720D01*
X14894720Y-8626000D02*
X14914720Y-8646000D01*
X14914720Y-8626000D02*
X14894720Y-8646000D01*
X14935360Y-9687720D02*
X14955360Y-9707720D01*
X14955360Y-9687720D02*
X14935360Y-9707720D01*
X14970920Y-10307480D02*
X14990920Y-10327480D01*
X14990920Y-10307480D02*
X14970920Y-10327480D01*
X14976000Y-9093360D02*
X14996000Y-9113360D01*
X14996000Y-9093360D02*
X14976000Y-9113360D01*
X14986160Y-9545480D02*
X15006160Y-9565480D01*
X15006160Y-9545480D02*
X14986160Y-9565480D01*
X15006480Y-9276240D02*
X15026480Y-9296240D01*
X15026480Y-9276240D02*
X15006480Y-9296240D01*
X15075060Y-9255920D02*
X15095060Y-9275920D01*
X15095060Y-9255920D02*
X15075060Y-9275920D01*
X15151260Y-9281320D02*
X15171260Y-9301320D01*
X15171260Y-9281320D02*
X15151260Y-9301320D01*
X15163960Y-9126380D02*
X15183960Y-9146380D01*
X15183960Y-9126380D02*
X15163960Y-9146380D01*
X15197900Y-9485440D02*
X15217900Y-9505440D01*
X15217900Y-9485440D02*
X15197900Y-9505440D01*
X15249050Y-9718200D02*
X15269050Y-9738200D01*
X15269050Y-9718200D02*
X15249050Y-9738200D01*
X15261750Y-9597550D02*
X15281750Y-9617550D01*
X15281750Y-9597550D02*
X15261750Y-9617550D01*
X15274450Y-9388000D02*
X15294450Y-9408000D01*
X15294450Y-9388000D02*
X15274450Y-9408000D01*
X12613320Y-11333480D02*
G75*
G03*
X12613320Y-11333480I-20000J0D01*
G01*
X13240700Y-10915650D02*
G75*
G03*
X13240700Y-10915650I-20000J0D01*
G01*
X13278800Y-10839450D02*
G75*
G03*
X13278800Y-10839450I-20000J0D01*
G01*
X13278800Y-10998200D02*
G75*
G03*
X13278800Y-10998200I-20000J0D01*
G01*
X13316900Y-11074400D02*
G75*
G03*
X13316900Y-11074400I-20000J0D01*
G01*
X13323250Y-10922000D02*
G75*
G03*
X13323250Y-10922000I-20000J0D01*
G01*
X13367700Y-11004550D02*
G75*
G03*
X13367700Y-11004550I-20000J0D01*
G01*
X13374050Y-10845800D02*
G75*
G03*
X13374050Y-10845800I-20000J0D01*
G01*
X13412150Y-10928350D02*
G75*
G03*
X13412150Y-10928350I-20000J0D01*
G01*
X13412150Y-11080750D02*
G75*
G03*
X13412150Y-11080750I-20000J0D01*
G01*
X13422310Y-10171430D02*
G75*
G03*
X13422310Y-10171430I-20000J0D01*
G01*
X13441360Y-10081260D02*
G75*
G03*
X13441360Y-10081260I-20000J0D01*
G01*
X13456600Y-11010900D02*
G75*
G03*
X13456600Y-11010900I-20000J0D01*
G01*
X13469300Y-10852150D02*
G75*
G03*
X13469300Y-10852150I-20000J0D01*
G01*
X13475650Y-9993630D02*
G75*
G03*
X13475650Y-9993630I-20000J0D01*
G01*
X13498510Y-10243820D02*
G75*
G03*
X13498510Y-10243820I-20000J0D01*
G01*
X13501050Y-10934700D02*
G75*
G03*
X13501050Y-10934700I-20000J0D01*
G01*
X13517560Y-10156190D02*
G75*
G03*
X13517560Y-10156190I-20000J0D01*
G01*
X13539150Y-11017250D02*
G75*
G03*
X13539150Y-11017250I-20000J0D01*
G01*
X13542960Y-10072370D02*
G75*
G03*
X13542960Y-10072370I-20000J0D01*
G01*
X13558200Y-10858500D02*
G75*
G03*
X13558200Y-10858500I-20000J0D01*
G01*
X13560740Y-9979660D02*
G75*
G03*
X13560740Y-9979660I-20000J0D01*
G01*
X13583600Y-10941050D02*
G75*
G03*
X13583600Y-10941050I-20000J0D01*
G01*
X13588680Y-10215880D02*
G75*
G03*
X13588680Y-10215880I-20000J0D01*
G01*
X13615350Y-10132060D02*
G75*
G03*
X13615350Y-10132060I-20000J0D01*
G01*
X13633130Y-10026650D02*
G75*
G03*
X13633130Y-10026650I-20000J0D01*
G01*
X13647100Y-10877550D02*
G75*
G03*
X13647100Y-10877550I-20000J0D01*
G01*
X14243050Y-7575950D02*
X14243050Y-7625950D01*
X14218050Y-7600950D02*
X14268050Y-7600950D01*
X12024360Y-11417700D02*
X12024360Y-11467700D01*
X11999360Y-11442700D02*
X12049360Y-11442700D01*
X12019437Y-11519027D02*
X12058260Y-11374138D01*
X11990460Y-11511262D02*
X12029282Y-11366373D01*
X12058260Y-11374138D02*
G75*
G03*
X12029282Y-11366373I-14489J3882D01*
G01*
X11990460Y-11511262D02*
G75*
G03*
X12019437Y-11519027I14489J-3882D01*
G01*
X12733736Y-11606462D02*
X12733736Y-11656462D01*
X12708736Y-11631462D02*
X12758736Y-11631462D01*
X12728814Y-11707789D02*
X12767636Y-11562900D01*
X12699836Y-11700024D02*
X12738659Y-11555135D01*
X12767636Y-11562900D02*
G75*
G03*
X12738659Y-11555135I-14489J3882D01*
G01*
X12699836Y-11700024D02*
G75*
G03*
X12728814Y-11707789I14489J-3882D01*
G01*
D12*
X10734441Y-12475112D02*
X10734441Y-12175112D01*
X10805870Y-12175112D01*
X10848727Y-12189397D01*
X10877298Y-12217969D01*
X10891584Y-12246540D01*
X10905870Y-12303683D01*
X10905870Y-12346540D01*
X10891584Y-12403683D01*
X10877298Y-12432254D01*
X10848727Y-12460826D01*
X10805870Y-12475112D01*
X10734441Y-12475112D01*
X11034441Y-12475112D02*
X11034441Y-12275112D01*
X11034441Y-12332254D02*
X11048727Y-12303683D01*
X11063013Y-12289397D01*
X11091584Y-12275112D01*
X11120155Y-12275112D01*
X11220155Y-12475112D02*
X11220155Y-12275112D01*
X11220155Y-12175112D02*
X11205870Y-12189397D01*
X11220155Y-12203683D01*
X11234441Y-12189397D01*
X11220155Y-12175112D01*
X11220155Y-12203683D01*
X11405870Y-12475112D02*
X11377298Y-12460826D01*
X11363013Y-12432254D01*
X11363013Y-12175112D01*
X11563013Y-12475112D02*
X11534441Y-12460826D01*
X11520155Y-12432254D01*
X11520155Y-12175112D01*
X11905870Y-12475112D02*
X11905870Y-12175112D01*
X12005870Y-12389397D01*
X12105870Y-12175112D01*
X12105870Y-12475112D01*
X12377298Y-12475112D02*
X12377298Y-12317969D01*
X12363013Y-12289397D01*
X12334441Y-12275112D01*
X12277298Y-12275112D01*
X12248727Y-12289397D01*
X12377298Y-12460826D02*
X12348727Y-12475112D01*
X12277298Y-12475112D01*
X12248727Y-12460826D01*
X12234441Y-12432254D01*
X12234441Y-12403683D01*
X12248727Y-12375112D01*
X12277298Y-12360826D01*
X12348727Y-12360826D01*
X12377298Y-12346540D01*
X12520155Y-12275112D02*
X12520155Y-12575112D01*
X12520155Y-12289397D02*
X12548727Y-12275112D01*
X12605870Y-12275112D01*
X12634441Y-12289397D01*
X12648727Y-12303683D01*
X12663013Y-12332254D01*
X12663013Y-12417969D01*
X12648727Y-12446540D01*
X12634441Y-12460826D01*
X12605870Y-12475112D01*
X12548727Y-12475112D01*
X12520155Y-12460826D01*
X12791584Y-12446540D02*
X12805870Y-12460826D01*
X12791584Y-12475112D01*
X12777298Y-12460826D01*
X12791584Y-12446540D01*
X12791584Y-12475112D01*
X12791584Y-12289397D02*
X12805870Y-12303683D01*
X12791584Y-12317969D01*
X12777298Y-12303683D01*
X12791584Y-12289397D01*
X12791584Y-12317969D01*
X10428013Y-12959397D02*
X10448013Y-12979397D01*
X10448013Y-12959397D02*
X10428013Y-12979397D01*
X10791584Y-12805112D02*
X10820155Y-12805112D01*
X10848727Y-12819397D01*
X10863013Y-12833683D01*
X10877298Y-12862254D01*
X10891584Y-12919397D01*
X10891584Y-12990826D01*
X10877298Y-13047969D01*
X10863013Y-13076540D01*
X10848727Y-13090826D01*
X10820155Y-13105112D01*
X10791584Y-13105112D01*
X10763013Y-13090826D01*
X10748727Y-13076540D01*
X10734441Y-13047969D01*
X10720155Y-12990826D01*
X10720155Y-12919397D01*
X10734441Y-12862254D01*
X10748727Y-12833683D01*
X10763013Y-12819397D01*
X10791584Y-12805112D01*
X11020155Y-13076540D02*
X11034441Y-13090826D01*
X11020155Y-13105112D01*
X11005870Y-13090826D01*
X11020155Y-13076540D01*
X11020155Y-13105112D01*
X11148727Y-12833683D02*
X11163013Y-12819397D01*
X11191584Y-12805112D01*
X11263013Y-12805112D01*
X11291584Y-12819397D01*
X11305870Y-12833683D01*
X11320155Y-12862254D01*
X11320155Y-12890826D01*
X11305870Y-12933683D01*
X11134441Y-13105112D01*
X11320155Y-13105112D01*
X11505870Y-12805112D02*
X11534441Y-12805112D01*
X11563013Y-12819397D01*
X11577298Y-12833683D01*
X11591584Y-12862254D01*
X11605870Y-12919397D01*
X11605870Y-12990826D01*
X11591584Y-13047969D01*
X11577298Y-13076540D01*
X11563013Y-13090826D01*
X11534441Y-13105112D01*
X11505870Y-13105112D01*
X11477298Y-13090826D01*
X11463013Y-13076540D01*
X11448727Y-13047969D01*
X11434441Y-12990826D01*
X11434441Y-12919397D01*
X11448727Y-12862254D01*
X11463013Y-12833683D01*
X11477298Y-12819397D01*
X11505870Y-12805112D01*
X11734441Y-13105112D02*
X11734441Y-12905112D01*
X11734441Y-12933683D02*
X11748727Y-12919397D01*
X11777298Y-12905112D01*
X11820155Y-12905112D01*
X11848727Y-12919397D01*
X11863013Y-12947969D01*
X11863013Y-13105112D01*
X11863013Y-12947969D02*
X11877298Y-12919397D01*
X11905870Y-12905112D01*
X11948727Y-12905112D01*
X11977298Y-12919397D01*
X11991584Y-12947969D01*
X11991584Y-13105112D01*
X12134441Y-13105112D02*
X12134441Y-12905112D01*
X12134441Y-12933683D02*
X12148727Y-12919397D01*
X12177298Y-12905112D01*
X12220155Y-12905112D01*
X12248727Y-12919397D01*
X12263013Y-12947969D01*
X12263013Y-13105112D01*
X12263013Y-12947969D02*
X12277298Y-12919397D01*
X12305870Y-12905112D01*
X12348727Y-12905112D01*
X12377298Y-12919397D01*
X12391584Y-12947969D01*
X12391584Y-13105112D01*
X12977298Y-12790826D02*
X12720155Y-13176540D01*
X13363013Y-12805112D02*
X13391584Y-12805112D01*
X13420155Y-12819397D01*
X13434441Y-12833683D01*
X13448727Y-12862254D01*
X13463013Y-12919397D01*
X13463013Y-12990826D01*
X13448727Y-13047969D01*
X13434441Y-13076540D01*
X13420155Y-13090826D01*
X13391584Y-13105112D01*
X13363013Y-13105112D01*
X13334441Y-13090826D01*
X13320155Y-13076540D01*
X13305870Y-13047969D01*
X13291584Y-12990826D01*
X13291584Y-12919397D01*
X13305870Y-12862254D01*
X13320155Y-12833683D01*
X13334441Y-12819397D01*
X13363013Y-12805112D01*
X13591584Y-13076540D02*
X13605870Y-13090826D01*
X13591584Y-13105112D01*
X13577298Y-13090826D01*
X13591584Y-13076540D01*
X13591584Y-13105112D01*
X13791584Y-12805112D02*
X13820155Y-12805112D01*
X13848727Y-12819397D01*
X13863013Y-12833683D01*
X13877298Y-12862254D01*
X13891584Y-12919397D01*
X13891584Y-12990826D01*
X13877298Y-13047969D01*
X13863013Y-13076540D01*
X13848727Y-13090826D01*
X13820155Y-13105112D01*
X13791584Y-13105112D01*
X13763013Y-13090826D01*
X13748727Y-13076540D01*
X13734441Y-13047969D01*
X13720155Y-12990826D01*
X13720155Y-12919397D01*
X13734441Y-12862254D01*
X13748727Y-12833683D01*
X13763013Y-12819397D01*
X13791584Y-12805112D01*
X14077298Y-12805112D02*
X14105870Y-12805112D01*
X14134441Y-12819397D01*
X14148727Y-12833683D01*
X14163013Y-12862254D01*
X14177298Y-12919397D01*
X14177298Y-12990826D01*
X14163013Y-13047969D01*
X14148727Y-13076540D01*
X14134441Y-13090826D01*
X14105870Y-13105112D01*
X14077298Y-13105112D01*
X14048727Y-13090826D01*
X14034441Y-13076540D01*
X14020155Y-13047969D01*
X14005870Y-12990826D01*
X14005870Y-12919397D01*
X14020155Y-12862254D01*
X14034441Y-12833683D01*
X14048727Y-12819397D01*
X14077298Y-12805112D01*
X14348727Y-12933683D02*
X14320155Y-12919397D01*
X14305870Y-12905112D01*
X14291584Y-12876540D01*
X14291584Y-12862254D01*
X14305870Y-12833683D01*
X14320155Y-12819397D01*
X14348727Y-12805112D01*
X14405870Y-12805112D01*
X14434441Y-12819397D01*
X14448727Y-12833683D01*
X14463013Y-12862254D01*
X14463013Y-12876540D01*
X14448727Y-12905112D01*
X14434441Y-12919397D01*
X14405870Y-12933683D01*
X14348727Y-12933683D01*
X14320155Y-12947969D01*
X14305870Y-12962254D01*
X14291584Y-12990826D01*
X14291584Y-13047969D01*
X14305870Y-13076540D01*
X14320155Y-13090826D01*
X14348727Y-13105112D01*
X14405870Y-13105112D01*
X14434441Y-13090826D01*
X14448727Y-13076540D01*
X14463013Y-13047969D01*
X14463013Y-12990826D01*
X14448727Y-12962254D01*
X14434441Y-12947969D01*
X14405870Y-12933683D01*
X14577298Y-12805112D02*
X14577298Y-12862254D01*
X14691584Y-12805112D02*
X14691584Y-12862254D01*
X15134441Y-13219397D02*
X15120155Y-13205112D01*
X15091584Y-13162254D01*
X15077298Y-13133683D01*
X15063013Y-13090826D01*
X15048727Y-13019397D01*
X15048727Y-12962254D01*
X15063013Y-12890826D01*
X15077298Y-12847969D01*
X15091584Y-12819397D01*
X15120155Y-12776540D01*
X15134441Y-12762254D01*
X15220155Y-12805112D02*
X15405870Y-12805112D01*
X15305870Y-12919397D01*
X15348727Y-12919397D01*
X15377298Y-12933683D01*
X15391584Y-12947969D01*
X15405870Y-12976540D01*
X15405870Y-13047969D01*
X15391584Y-13076540D01*
X15377298Y-13090826D01*
X15348727Y-13105112D01*
X15263013Y-13105112D01*
X15234441Y-13090826D01*
X15220155Y-13076540D01*
X15505870Y-12805112D02*
X15705870Y-12805112D01*
X15577298Y-13105112D01*
X15877298Y-12805112D02*
X15905870Y-12805112D01*
X15934441Y-12819397D01*
X15948727Y-12833683D01*
X15963013Y-12862254D01*
X15977298Y-12919397D01*
X15977298Y-12990826D01*
X15963013Y-13047969D01*
X15948727Y-13076540D01*
X15934441Y-13090826D01*
X15905870Y-13105112D01*
X15877298Y-13105112D01*
X15848727Y-13090826D01*
X15834441Y-13076540D01*
X15820155Y-13047969D01*
X15805870Y-12990826D01*
X15805870Y-12919397D01*
X15820155Y-12862254D01*
X15834441Y-12833683D01*
X15848727Y-12819397D01*
X15877298Y-12805112D01*
X16334441Y-13105112D02*
X16334441Y-12805112D01*
X16463013Y-13105112D02*
X16463013Y-12947969D01*
X16448727Y-12919397D01*
X16420155Y-12905112D01*
X16377298Y-12905112D01*
X16348727Y-12919397D01*
X16334441Y-12933683D01*
X16648727Y-13105112D02*
X16620155Y-13090826D01*
X16605870Y-13076540D01*
X16591584Y-13047969D01*
X16591584Y-12962254D01*
X16605870Y-12933683D01*
X16620155Y-12919397D01*
X16648727Y-12905112D01*
X16691584Y-12905112D01*
X16720155Y-12919397D01*
X16734441Y-12933683D01*
X16748727Y-12962254D01*
X16748727Y-13047969D01*
X16734441Y-13076540D01*
X16720155Y-13090826D01*
X16691584Y-13105112D01*
X16648727Y-13105112D01*
X16920155Y-13105112D02*
X16891584Y-13090826D01*
X16877298Y-13062254D01*
X16877298Y-12805112D01*
X17148727Y-13090826D02*
X17120155Y-13105112D01*
X17063013Y-13105112D01*
X17034441Y-13090826D01*
X17020155Y-13062254D01*
X17020155Y-12947969D01*
X17034441Y-12919397D01*
X17063013Y-12905112D01*
X17120155Y-12905112D01*
X17148727Y-12919397D01*
X17163013Y-12947969D01*
X17163013Y-12976540D01*
X17020155Y-13005112D01*
X17277298Y-13090826D02*
X17305870Y-13105112D01*
X17363013Y-13105112D01*
X17391584Y-13090826D01*
X17405870Y-13062254D01*
X17405870Y-13047969D01*
X17391584Y-13019397D01*
X17363013Y-13005112D01*
X17320155Y-13005112D01*
X17291584Y-12990826D01*
X17277298Y-12962254D01*
X17277298Y-12947969D01*
X17291584Y-12919397D01*
X17320155Y-12905112D01*
X17363013Y-12905112D01*
X17391584Y-12919397D01*
X17505870Y-13219397D02*
X17520155Y-13205112D01*
X17548727Y-13162254D01*
X17563013Y-13133683D01*
X17577298Y-13090826D01*
X17591584Y-13019397D01*
X17591584Y-12962254D01*
X17577298Y-12890826D01*
X17563013Y-12847969D01*
X17548727Y-12819397D01*
X17520155Y-12776540D01*
X17505870Y-12762254D01*
X10448013Y-13365397D02*
G75*
G03*
X10448013Y-13365397I-20000J0D01*
G01*
X10791584Y-13201112D02*
X10820155Y-13201112D01*
X10848727Y-13215397D01*
X10863013Y-13229683D01*
X10877298Y-13258254D01*
X10891584Y-13315397D01*
X10891584Y-13386826D01*
X10877298Y-13443969D01*
X10863013Y-13472540D01*
X10848727Y-13486826D01*
X10820155Y-13501112D01*
X10791584Y-13501112D01*
X10763013Y-13486826D01*
X10748727Y-13472540D01*
X10734441Y-13443969D01*
X10720155Y-13386826D01*
X10720155Y-13315397D01*
X10734441Y-13258254D01*
X10748727Y-13229683D01*
X10763013Y-13215397D01*
X10791584Y-13201112D01*
X11020155Y-13472540D02*
X11034441Y-13486826D01*
X11020155Y-13501112D01*
X11005870Y-13486826D01*
X11020155Y-13472540D01*
X11020155Y-13501112D01*
X11291584Y-13301112D02*
X11291584Y-13501112D01*
X11220155Y-13186826D02*
X11148727Y-13401112D01*
X11334441Y-13401112D01*
X11505870Y-13201112D02*
X11534441Y-13201112D01*
X11563013Y-13215397D01*
X11577298Y-13229683D01*
X11591584Y-13258254D01*
X11605870Y-13315397D01*
X11605870Y-13386826D01*
X11591584Y-13443969D01*
X11577298Y-13472540D01*
X11563013Y-13486826D01*
X11534441Y-13501112D01*
X11505870Y-13501112D01*
X11477298Y-13486826D01*
X11463013Y-13472540D01*
X11448727Y-13443969D01*
X11434441Y-13386826D01*
X11434441Y-13315397D01*
X11448727Y-13258254D01*
X11463013Y-13229683D01*
X11477298Y-13215397D01*
X11505870Y-13201112D01*
X11734441Y-13501112D02*
X11734441Y-13301112D01*
X11734441Y-13329683D02*
X11748727Y-13315397D01*
X11777298Y-13301112D01*
X11820155Y-13301112D01*
X11848727Y-13315397D01*
X11863013Y-13343969D01*
X11863013Y-13501112D01*
X11863013Y-13343969D02*
X11877298Y-13315397D01*
X11905870Y-13301112D01*
X11948727Y-13301112D01*
X11977298Y-13315397D01*
X11991584Y-13343969D01*
X11991584Y-13501112D01*
X12134441Y-13501112D02*
X12134441Y-13301112D01*
X12134441Y-13329683D02*
X12148727Y-13315397D01*
X12177298Y-13301112D01*
X12220155Y-13301112D01*
X12248727Y-13315397D01*
X12263013Y-13343969D01*
X12263013Y-13501112D01*
X12263013Y-13343969D02*
X12277298Y-13315397D01*
X12305870Y-13301112D01*
X12348727Y-13301112D01*
X12377298Y-13315397D01*
X12391584Y-13343969D01*
X12391584Y-13501112D01*
X12977298Y-13186826D02*
X12720155Y-13572540D01*
X13363013Y-13201112D02*
X13391584Y-13201112D01*
X13420155Y-13215397D01*
X13434441Y-13229683D01*
X13448727Y-13258254D01*
X13463013Y-13315397D01*
X13463013Y-13386826D01*
X13448727Y-13443969D01*
X13434441Y-13472540D01*
X13420155Y-13486826D01*
X13391584Y-13501112D01*
X13363013Y-13501112D01*
X13334441Y-13486826D01*
X13320155Y-13472540D01*
X13305870Y-13443969D01*
X13291584Y-13386826D01*
X13291584Y-13315397D01*
X13305870Y-13258254D01*
X13320155Y-13229683D01*
X13334441Y-13215397D01*
X13363013Y-13201112D01*
X13591584Y-13472540D02*
X13605870Y-13486826D01*
X13591584Y-13501112D01*
X13577298Y-13486826D01*
X13591584Y-13472540D01*
X13591584Y-13501112D01*
X13791584Y-13201112D02*
X13820155Y-13201112D01*
X13848727Y-13215397D01*
X13863013Y-13229683D01*
X13877298Y-13258254D01*
X13891584Y-13315397D01*
X13891584Y-13386826D01*
X13877298Y-13443969D01*
X13863013Y-13472540D01*
X13848727Y-13486826D01*
X13820155Y-13501112D01*
X13791584Y-13501112D01*
X13763013Y-13486826D01*
X13748727Y-13472540D01*
X13734441Y-13443969D01*
X13720155Y-13386826D01*
X13720155Y-13315397D01*
X13734441Y-13258254D01*
X13748727Y-13229683D01*
X13763013Y-13215397D01*
X13791584Y-13201112D01*
X14177298Y-13501112D02*
X14005870Y-13501112D01*
X14091584Y-13501112D02*
X14091584Y-13201112D01*
X14063013Y-13243969D01*
X14034441Y-13272540D01*
X14005870Y-13286826D01*
X14434441Y-13201112D02*
X14377298Y-13201112D01*
X14348727Y-13215397D01*
X14334441Y-13229683D01*
X14305870Y-13272540D01*
X14291584Y-13329683D01*
X14291584Y-13443969D01*
X14305870Y-13472540D01*
X14320155Y-13486826D01*
X14348727Y-13501112D01*
X14405870Y-13501112D01*
X14434441Y-13486826D01*
X14448727Y-13472540D01*
X14463013Y-13443969D01*
X14463013Y-13372540D01*
X14448727Y-13343969D01*
X14434441Y-13329683D01*
X14405870Y-13315397D01*
X14348727Y-13315397D01*
X14320155Y-13329683D01*
X14305870Y-13343969D01*
X14291584Y-13372540D01*
X14577298Y-13201112D02*
X14577298Y-13258254D01*
X14691584Y-13201112D02*
X14691584Y-13258254D01*
X15134441Y-13615397D02*
X15120155Y-13601112D01*
X15091584Y-13558254D01*
X15077298Y-13529683D01*
X15063013Y-13486826D01*
X15048727Y-13415397D01*
X15048727Y-13358254D01*
X15063013Y-13286826D01*
X15077298Y-13243969D01*
X15091584Y-13215397D01*
X15120155Y-13172540D01*
X15134441Y-13158254D01*
X15234441Y-13229683D02*
X15248727Y-13215397D01*
X15277298Y-13201112D01*
X15348727Y-13201112D01*
X15377298Y-13215397D01*
X15391584Y-13229683D01*
X15405870Y-13258254D01*
X15405870Y-13286826D01*
X15391584Y-13329683D01*
X15220155Y-13501112D01*
X15405870Y-13501112D01*
X15505870Y-13201112D02*
X15705870Y-13201112D01*
X15577298Y-13501112D01*
X16048727Y-13501112D02*
X16048727Y-13201112D01*
X16177298Y-13501112D02*
X16177298Y-13343969D01*
X16163013Y-13315397D01*
X16134441Y-13301112D01*
X16091584Y-13301112D01*
X16063013Y-13315397D01*
X16048727Y-13329683D01*
X16363013Y-13501112D02*
X16334441Y-13486826D01*
X16320155Y-13472540D01*
X16305870Y-13443969D01*
X16305870Y-13358254D01*
X16320155Y-13329683D01*
X16334441Y-13315397D01*
X16363013Y-13301112D01*
X16405870Y-13301112D01*
X16434441Y-13315397D01*
X16448727Y-13329683D01*
X16463013Y-13358254D01*
X16463013Y-13443969D01*
X16448727Y-13472540D01*
X16434441Y-13486826D01*
X16405870Y-13501112D01*
X16363013Y-13501112D01*
X16634441Y-13501112D02*
X16605870Y-13486826D01*
X16591584Y-13458254D01*
X16591584Y-13201112D01*
X16863013Y-13486826D02*
X16834441Y-13501112D01*
X16777298Y-13501112D01*
X16748727Y-13486826D01*
X16734441Y-13458254D01*
X16734441Y-13343969D01*
X16748727Y-13315397D01*
X16777298Y-13301112D01*
X16834441Y-13301112D01*
X16863013Y-13315397D01*
X16877298Y-13343969D01*
X16877298Y-13372540D01*
X16734441Y-13401112D01*
X16991584Y-13486826D02*
X17020155Y-13501112D01*
X17077298Y-13501112D01*
X17105870Y-13486826D01*
X17120155Y-13458254D01*
X17120155Y-13443969D01*
X17105870Y-13415397D01*
X17077298Y-13401112D01*
X17034441Y-13401112D01*
X17005870Y-13386826D01*
X16991584Y-13358254D01*
X16991584Y-13343969D01*
X17005870Y-13315397D01*
X17034441Y-13301112D01*
X17077298Y-13301112D01*
X17105870Y-13315397D01*
X17220155Y-13615397D02*
X17234441Y-13601112D01*
X17263013Y-13558254D01*
X17277298Y-13529683D01*
X17291584Y-13486826D01*
X17305870Y-13415397D01*
X17305870Y-13358254D01*
X17291584Y-13286826D01*
X17277298Y-13243969D01*
X17263013Y-13215397D01*
X17234441Y-13172540D01*
X17220155Y-13158254D01*
X10423013Y-13736397D02*
X10423013Y-13786397D01*
X10398013Y-13761397D02*
X10448013Y-13761397D01*
X10791584Y-13597112D02*
X10820155Y-13597112D01*
X10848727Y-13611397D01*
X10863013Y-13625683D01*
X10877298Y-13654254D01*
X10891584Y-13711397D01*
X10891584Y-13782826D01*
X10877298Y-13839969D01*
X10863013Y-13868540D01*
X10848727Y-13882826D01*
X10820155Y-13897112D01*
X10791584Y-13897112D01*
X10763013Y-13882826D01*
X10748727Y-13868540D01*
X10734441Y-13839969D01*
X10720155Y-13782826D01*
X10720155Y-13711397D01*
X10734441Y-13654254D01*
X10748727Y-13625683D01*
X10763013Y-13611397D01*
X10791584Y-13597112D01*
X11020155Y-13868540D02*
X11034441Y-13882826D01*
X11020155Y-13897112D01*
X11005870Y-13882826D01*
X11020155Y-13868540D01*
X11020155Y-13897112D01*
X11305870Y-13597112D02*
X11163013Y-13597112D01*
X11148727Y-13739969D01*
X11163013Y-13725683D01*
X11191584Y-13711397D01*
X11263013Y-13711397D01*
X11291584Y-13725683D01*
X11305870Y-13739969D01*
X11320155Y-13768540D01*
X11320155Y-13839969D01*
X11305870Y-13868540D01*
X11291584Y-13882826D01*
X11263013Y-13897112D01*
X11191584Y-13897112D01*
X11163013Y-13882826D01*
X11148727Y-13868540D01*
X11505870Y-13597112D02*
X11534441Y-13597112D01*
X11563013Y-13611397D01*
X11577298Y-13625683D01*
X11591584Y-13654254D01*
X11605870Y-13711397D01*
X11605870Y-13782826D01*
X11591584Y-13839969D01*
X11577298Y-13868540D01*
X11563013Y-13882826D01*
X11534441Y-13897112D01*
X11505870Y-13897112D01*
X11477298Y-13882826D01*
X11463013Y-13868540D01*
X11448727Y-13839969D01*
X11434441Y-13782826D01*
X11434441Y-13711397D01*
X11448727Y-13654254D01*
X11463013Y-13625683D01*
X11477298Y-13611397D01*
X11505870Y-13597112D01*
X11734441Y-13897112D02*
X11734441Y-13697112D01*
X11734441Y-13725683D02*
X11748727Y-13711397D01*
X11777298Y-13697112D01*
X11820155Y-13697112D01*
X11848727Y-13711397D01*
X11863013Y-13739969D01*
X11863013Y-13897112D01*
X11863013Y-13739969D02*
X11877298Y-13711397D01*
X11905870Y-13697112D01*
X11948727Y-13697112D01*
X11977298Y-13711397D01*
X11991584Y-13739969D01*
X11991584Y-13897112D01*
X12134441Y-13897112D02*
X12134441Y-13697112D01*
X12134441Y-13725683D02*
X12148727Y-13711397D01*
X12177298Y-13697112D01*
X12220155Y-13697112D01*
X12248727Y-13711397D01*
X12263013Y-13739969D01*
X12263013Y-13897112D01*
X12263013Y-13739969D02*
X12277298Y-13711397D01*
X12305870Y-13697112D01*
X12348727Y-13697112D01*
X12377298Y-13711397D01*
X12391584Y-13739969D01*
X12391584Y-13897112D01*
X12977298Y-13582826D02*
X12720155Y-13968540D01*
X13363013Y-13597112D02*
X13391584Y-13597112D01*
X13420155Y-13611397D01*
X13434441Y-13625683D01*
X13448727Y-13654254D01*
X13463013Y-13711397D01*
X13463013Y-13782826D01*
X13448727Y-13839969D01*
X13434441Y-13868540D01*
X13420155Y-13882826D01*
X13391584Y-13897112D01*
X13363013Y-13897112D01*
X13334441Y-13882826D01*
X13320155Y-13868540D01*
X13305870Y-13839969D01*
X13291584Y-13782826D01*
X13291584Y-13711397D01*
X13305870Y-13654254D01*
X13320155Y-13625683D01*
X13334441Y-13611397D01*
X13363013Y-13597112D01*
X13591584Y-13868540D02*
X13605870Y-13882826D01*
X13591584Y-13897112D01*
X13577298Y-13882826D01*
X13591584Y-13868540D01*
X13591584Y-13897112D01*
X13791584Y-13597112D02*
X13820155Y-13597112D01*
X13848727Y-13611397D01*
X13863013Y-13625683D01*
X13877298Y-13654254D01*
X13891584Y-13711397D01*
X13891584Y-13782826D01*
X13877298Y-13839969D01*
X13863013Y-13868540D01*
X13848727Y-13882826D01*
X13820155Y-13897112D01*
X13791584Y-13897112D01*
X13763013Y-13882826D01*
X13748727Y-13868540D01*
X13734441Y-13839969D01*
X13720155Y-13782826D01*
X13720155Y-13711397D01*
X13734441Y-13654254D01*
X13748727Y-13625683D01*
X13763013Y-13611397D01*
X13791584Y-13597112D01*
X14005870Y-13625683D02*
X14020155Y-13611397D01*
X14048727Y-13597112D01*
X14120155Y-13597112D01*
X14148727Y-13611397D01*
X14163013Y-13625683D01*
X14177298Y-13654254D01*
X14177298Y-13682826D01*
X14163013Y-13725683D01*
X13991584Y-13897112D01*
X14177298Y-13897112D01*
X14363013Y-13597112D02*
X14391584Y-13597112D01*
X14420155Y-13611397D01*
X14434441Y-13625683D01*
X14448727Y-13654254D01*
X14463013Y-13711397D01*
X14463013Y-13782826D01*
X14448727Y-13839969D01*
X14434441Y-13868540D01*
X14420155Y-13882826D01*
X14391584Y-13897112D01*
X14363013Y-13897112D01*
X14334441Y-13882826D01*
X14320155Y-13868540D01*
X14305870Y-13839969D01*
X14291584Y-13782826D01*
X14291584Y-13711397D01*
X14305870Y-13654254D01*
X14320155Y-13625683D01*
X14334441Y-13611397D01*
X14363013Y-13597112D01*
X14577298Y-13597112D02*
X14577298Y-13654254D01*
X14691584Y-13597112D02*
X14691584Y-13654254D01*
X15134441Y-14011397D02*
X15120155Y-13997112D01*
X15091584Y-13954254D01*
X15077298Y-13925683D01*
X15063013Y-13882826D01*
X15048727Y-13811397D01*
X15048727Y-13754254D01*
X15063013Y-13682826D01*
X15077298Y-13639969D01*
X15091584Y-13611397D01*
X15120155Y-13568540D01*
X15134441Y-13554254D01*
X15405870Y-13897112D02*
X15234441Y-13897112D01*
X15320155Y-13897112D02*
X15320155Y-13597112D01*
X15291584Y-13639969D01*
X15263013Y-13668540D01*
X15234441Y-13682826D01*
X15763013Y-13897112D02*
X15763013Y-13597112D01*
X15891584Y-13897112D02*
X15891584Y-13739969D01*
X15877298Y-13711397D01*
X15848727Y-13697112D01*
X15805870Y-13697112D01*
X15777298Y-13711397D01*
X15763013Y-13725683D01*
X16077298Y-13897112D02*
X16048727Y-13882826D01*
X16034441Y-13868540D01*
X16020155Y-13839969D01*
X16020155Y-13754254D01*
X16034441Y-13725683D01*
X16048727Y-13711397D01*
X16077298Y-13697112D01*
X16120155Y-13697112D01*
X16148727Y-13711397D01*
X16163013Y-13725683D01*
X16177298Y-13754254D01*
X16177298Y-13839969D01*
X16163013Y-13868540D01*
X16148727Y-13882826D01*
X16120155Y-13897112D01*
X16077298Y-13897112D01*
X16348727Y-13897112D02*
X16320155Y-13882826D01*
X16305870Y-13854254D01*
X16305870Y-13597112D01*
X16577298Y-13882826D02*
X16548727Y-13897112D01*
X16491584Y-13897112D01*
X16463013Y-13882826D01*
X16448727Y-13854254D01*
X16448727Y-13739969D01*
X16463013Y-13711397D01*
X16491584Y-13697112D01*
X16548727Y-13697112D01*
X16577298Y-13711397D01*
X16591584Y-13739969D01*
X16591584Y-13768540D01*
X16448727Y-13797112D01*
X16705870Y-13882826D02*
X16734441Y-13897112D01*
X16791584Y-13897112D01*
X16820155Y-13882826D01*
X16834441Y-13854254D01*
X16834441Y-13839969D01*
X16820155Y-13811397D01*
X16791584Y-13797112D01*
X16748727Y-13797112D01*
X16720155Y-13782826D01*
X16705870Y-13754254D01*
X16705870Y-13739969D01*
X16720155Y-13711397D01*
X16748727Y-13697112D01*
X16791584Y-13697112D01*
X16820155Y-13711397D01*
X17191584Y-13782826D02*
X17420155Y-13782826D01*
X17305870Y-13897112D02*
X17305870Y-13668540D01*
X17777298Y-13625683D02*
X17791584Y-13611397D01*
X17820155Y-13597112D01*
X17891584Y-13597112D01*
X17920155Y-13611397D01*
X17934441Y-13625683D01*
X17948727Y-13654254D01*
X17948727Y-13682826D01*
X17934441Y-13725683D01*
X17763013Y-13897112D01*
X17948727Y-13897112D01*
X18291584Y-13882826D02*
X18320155Y-13897112D01*
X18377298Y-13897112D01*
X18405870Y-13882826D01*
X18420155Y-13854254D01*
X18420155Y-13839969D01*
X18405870Y-13811397D01*
X18377298Y-13797112D01*
X18334441Y-13797112D01*
X18305870Y-13782826D01*
X18291584Y-13754254D01*
X18291584Y-13739969D01*
X18305870Y-13711397D01*
X18334441Y-13697112D01*
X18377298Y-13697112D01*
X18405870Y-13711397D01*
X18591584Y-13897112D02*
X18563013Y-13882826D01*
X18548727Y-13854254D01*
X18548727Y-13597112D01*
X18748727Y-13897112D02*
X18720155Y-13882826D01*
X18705870Y-13868540D01*
X18691584Y-13839969D01*
X18691584Y-13754254D01*
X18705870Y-13725683D01*
X18720155Y-13711397D01*
X18748727Y-13697112D01*
X18791584Y-13697112D01*
X18820155Y-13711397D01*
X18834441Y-13725683D01*
X18848727Y-13754254D01*
X18848727Y-13839969D01*
X18834441Y-13868540D01*
X18820155Y-13882826D01*
X18791584Y-13897112D01*
X18748727Y-13897112D01*
X18934441Y-13697112D02*
X19048727Y-13697112D01*
X18977298Y-13597112D02*
X18977298Y-13854254D01*
X18991584Y-13882826D01*
X19020155Y-13897112D01*
X19048727Y-13897112D01*
X19134441Y-13882826D02*
X19163013Y-13897112D01*
X19220155Y-13897112D01*
X19248727Y-13882826D01*
X19263013Y-13854254D01*
X19263013Y-13839969D01*
X19248727Y-13811397D01*
X19220155Y-13797112D01*
X19177298Y-13797112D01*
X19148727Y-13782826D01*
X19134441Y-13754254D01*
X19134441Y-13739969D01*
X19148727Y-13711397D01*
X19177298Y-13697112D01*
X19220155Y-13697112D01*
X19248727Y-13711397D01*
X19363013Y-14011397D02*
X19377298Y-13997112D01*
X19405870Y-13954254D01*
X19420155Y-13925683D01*
X19434441Y-13882826D01*
X19448727Y-13811397D01*
X19448727Y-13754254D01*
X19434441Y-13682826D01*
X19420155Y-13639969D01*
X19405870Y-13611397D01*
X19377298Y-13568540D01*
X19363013Y-13554254D01*
M02*
